<svg width="18" height="18" viewBox="0 0 18 18" fill="none" xmlns="http://www.w3.org/2000/svg">
<path d="M13.9402 1.4727C12.4737 0.51036 10.758 -0.00154871 9.00426 3.51959e-06C4.03673 0.00478275 0.00959767 4.03082 5.08361e-06 9.00183C-0.00187262 10.7517 0.516454 12.4625 1.4891 13.9167L0.0348241 17.4024C-0.0545298 17.6258 0.0540093 17.8794 0.277251 17.9688C0.381096 18.0104 0.496983 18.0104 0.600869 17.9688L4.08412 16.5135C8.23461 19.2371 13.8056 18.078 16.5273 13.9246C19.249 9.7712 18.0907 4.19629 13.9402 1.4727ZM9.013 17.1322C9.0101 17.1322 9.0072 17.1322 9.0043 17.1322V17.1409H9.00426C7.34977 17.1279 5.73788 16.6146 4.38023 15.6682C4.30863 15.6182 4.22368 15.5909 4.13641 15.5898C4.0818 15.579 4.02559 15.579 3.97097 15.5898L1.24529 16.7575L2.38607 14.0387C2.4442 13.901 2.42779 13.7431 2.34252 13.6204C1.38379 12.2716 0.869339 10.6571 0.870849 9.00183C0.866032 4.5067 4.50358 0.858795 8.99557 0.853975C13.4875 0.849155 17.1329 4.48925 17.1377 8.98439C17.1425 13.4795 13.505 17.1274 9.013 17.1322Z" fill="#AB1216"/>
<path d="M11.7771 6.64173C11.588 5.26286 10.3948 4.2457 9.0044 4.2781C7.50244 4.27328 6.27961 5.48524 6.27002 6.98825C6.27002 7.22888 6.46497 7.42397 6.70544 7.42397C6.94591 7.42397 7.14086 7.22888 7.14086 6.98825C7.16009 5.95851 8.00987 5.13934 9.03893 5.15858C10.068 5.17782 10.8865 6.02819 10.8673 7.05797C10.8483 8.07403 10.0199 8.88781 9.00444 8.88797C8.76397 8.88797 8.56902 9.08306 8.56902 9.3237V11.2757C8.56902 11.5163 8.76397 11.7114 9.00444 11.7114C9.24491 11.7114 9.43986 11.5163 9.43986 11.2757V9.72458C10.936 9.51916 11.9824 8.1389 11.7771 6.64173Z" fill="#AB1216"/>
<path d="M8.96811 13.7546C9.2315 13.7546 9.44501 13.5411 9.44501 13.2777C9.44501 13.0143 9.2315 12.8008 8.96811 12.8008C8.70473 12.8008 8.49121 13.0143 8.49121 13.2777C8.49121 13.5411 8.70473 13.7546 8.96811 13.7546Z" fill="#AB1216"/>
</svg>
