<svg width="28" height="28" viewBox="0 0 28 28" fill="none" xmlns="http://www.w3.org/2000/svg">
<path d="M14 24C8.4859 24 4 19.5141 4 14C4 8.48589 8.4859 4 14 4C15.868 4 17.69 4.5184 19.2693 5.4994C19.5454 5.67068 19.63 6.0334 19.4587 6.30946C19.2871 6.58549 18.9244 6.67069 18.6486 6.4988C17.2558 5.63358 15.6483 5.1765 14 5.1765C9.13467 5.1765 5.17646 9.13484 5.17646 14C5.17646 18.8653 9.13467 22.8235 14 22.8235C18.8652 22.8235 22.8236 18.8652 22.8236 14C22.8236 13.0221 22.6649 12.0619 22.3518 11.1462C22.2467 10.8389 22.4109 10.5043 22.7182 10.3992C23.0261 10.2947 23.3601 10.4584 23.4652 10.7657C23.8199 11.8043 24.0001 12.8925 24.0001 14C24 19.5141 19.5141 24 14 24Z" fill="#00B74E"/>
<path d="M13.9973 17.3924C13.848 17.3924 13.7038 17.3357 13.5945 17.2328L8.88865 12.8122C8.65183 12.5898 8.64018 12.2175 8.86263 11.9807C9.08508 11.7442 9.4573 11.7319 9.69412 11.955L13.9474 15.9503L21.6759 6.7757C21.8848 6.52723 22.2561 6.49539 22.5046 6.70491C22.7531 6.91417 22.7849 7.28517 22.5754 7.53364L14.447 17.1832C14.3955 17.2443 14.3321 17.2943 14.2607 17.3301C14.1893 17.3659 14.1113 17.3868 14.0316 17.3915C14.0203 17.3921 14.0086 17.3924 13.9973 17.3924Z" fill="#00B74E"/>
</svg>
