<svg width="70" height="46" viewBox="0 0 70 46" fill="none" xmlns="http://www.w3.org/2000/svg">
<path d="M58.996 14.6348C56.2841 14.6348 53.8858 15.9717 52.4179 18.0215L49.543 18.4291L51.1559 20.7289C50.9929 21.3698 50.9059 22.0409 50.9059 22.7326C50.9059 27.2048 54.528 30.8302 58.9961 30.8302C63.4642 30.8302 67.0862 27.2047 67.0862 22.7326C67.0862 18.2604 63.4641 14.6348 58.996 14.6348Z" fill="#E0E0E0"/>
<path d="M57.5144 11.2676C58.7001 9.70471 59.9501 9.92549 60.8176 10.3031C61.6851 10.6808 62.2676 11.6323 62.2099 12.5773C62.1947 12.827 62.1414 13.0897 62.2428 13.3182C62.406 13.6858 62.8806 13.7893 63.1554 14.0827C63.5312 14.4839 63.448 15.1191 63.321 15.6543C63.194 16.1893 63.0604 16.8001 63.3748 17.2512C63.6628 17.6644 64.2118 17.7752 64.6645 17.9952C65.2627 18.2858 65.7437 18.8283 65.9174 19.4707C66.091 20.1132 65.9381 20.845 65.4885 21.3354C65.0483 21.8153 64.3874 22.0281 63.7435 22.1231C61.8697 22.3994 59.8851 21.7942 58.4835 20.5193C57.0819 19.2443 56.2908 17.3246 56.3867 15.4313" fill="#263238"/>
<path d="M64.807 21.4963C64.8035 21.4926 64.8479 21.4577 64.9145 21.3759C64.9808 21.2951 65.071 21.1642 65.1254 20.9718C65.1797 20.7805 65.1918 20.5306 65.1317 20.2532C65.0762 19.976 64.9338 19.6755 64.6911 19.4144C64.5702 19.2845 64.4269 19.1628 64.2622 19.0605C64.0986 18.9562 63.9114 18.8764 63.716 18.796C63.5208 18.7151 63.3143 18.6338 63.1185 18.5127C62.9226 18.3918 62.7461 18.2276 62.6018 18.0328C62.3091 17.6436 62.1554 17.1342 62.1435 16.6102C62.1366 16.3479 62.1614 16.0804 62.211 15.8153C62.2593 15.55 62.3265 15.2862 62.3777 15.0176C62.4128 14.8278 62.4456 14.6353 62.4433 14.4504C62.4387 14.2639 62.3878 14.0842 62.3186 13.9124C62.2499 13.74 62.1689 13.5727 62.1041 13.3984C62.0411 13.2199 62.0134 13.0387 61.9923 12.8605C61.9707 12.6814 61.9708 12.5046 61.9506 12.3368C61.9331 12.1672 61.8986 12.0028 61.8553 11.8445C61.7675 11.5294 61.6342 11.234 61.458 10.996L61.4559 10.9931L61.4554 10.9925C61.1589 10.5231 60.6704 10.2633 60.2304 10.2018C59.7838 10.1355 59.3895 10.269 59.1172 10.4348C58.8397 10.6019 58.6714 10.8009 58.5721 10.9413C58.4735 11.0838 58.4369 11.1701 58.4316 11.1675C58.4316 11.1675 58.4609 11.0779 58.5554 10.9299C58.6505 10.7843 58.8166 10.5777 59.0971 10.402C59.3718 10.228 59.7757 10.0845 60.2379 10.1482C60.6926 10.2074 61.1995 10.4701 61.5117 10.9573L61.5093 10.9539C61.6973 11.2046 61.8317 11.5018 61.9241 11.8252C61.9693 11.9869 62.0052 12.1551 62.0238 12.3283C62.0452 12.5028 62.0455 12.6777 62.0673 12.852C62.0882 13.0265 62.1167 13.2049 62.1761 13.372C62.2393 13.5407 62.3203 13.7078 62.3909 13.8837C62.4619 14.0589 62.5168 14.25 62.5217 14.4482C62.524 14.6472 62.4904 14.8389 62.455 15.0323C62.4031 15.3041 62.3359 15.5675 62.288 15.8294C62.239 16.0907 62.2144 16.3517 62.2206 16.6082C62.2315 17.1199 62.3792 17.6128 62.6602 17.9896C62.7987 18.1782 62.9675 18.3368 63.1553 18.454C63.3434 18.5718 63.5463 18.6535 63.7413 18.7358C63.9364 18.8177 64.1271 18.9003 64.2949 19.0091C64.4634 19.1158 64.6095 19.2421 64.7325 19.3769C64.9792 19.6471 65.1227 19.9598 65.1751 20.2443C65.2324 20.5285 65.2156 20.7853 65.1552 20.9804C65.0947 21.1767 64.9981 21.3075 64.927 21.3862C64.8548 21.4658 64.807 21.4963 64.807 21.4963Z" fill="#455A64"/>
<path d="M60.4733 19.6634C60.4631 19.6518 60.5849 19.529 60.7452 19.3892C60.9056 19.2493 61.0437 19.1456 61.0539 19.1571C61.0641 19.1687 60.9423 19.2915 60.7819 19.4313C60.6217 19.5711 60.4834 19.6751 60.4733 19.6634Z" fill="#FAFAFA"/>
<path d="M60.0861 18.7325L56.5114 19.1683C56.5114 19.1683 53.6349 19.6917 53.0567 21.848C52.6574 23.3371 51.8309 26.1108 51.3577 27.6847C51.1535 28.3637 51.4607 29.0916 52.0893 29.4187C52.8473 29.8132 53.7806 29.482 54.1211 28.6977L55.6845 25.0966C55.6845 25.0966 56.2355 26.3544 56.2038 26.9494C56.1721 27.5443 54.9307 29.7306 54.9307 29.7306C57.5711 31.2461 60.2542 31.0549 62.3413 30.1073L62.2417 24.416C62.2417 24.416 63.2242 29.494 65.2141 29.1073C66.8823 28.7831 65.7838 25.5286 65.2141 24.284C64.4875 22.6967 63.5394 20.4319 62.9424 19.8859C61.3425 18.4225 60.0861 18.7325 60.0861 18.7325Z" fill="#E8505B"/>
<g opacity="0.2">
<path d="M56.7812 19.4544C56.5649 19.7919 56.2672 20.0684 55.9664 20.3333C55.7637 20.5119 55.5526 20.6903 55.3007 20.7877C55.0489 20.8852 54.745 20.8886 54.5257 20.7307C54.3065 20.5729 54.2204 20.2291 54.391 20.0197C54.5038 19.8812 54.6898 19.8308 54.863 19.7879C55.442 19.6451 56.0208 19.5022 56.5997 19.3594" fill="black"/>
</g>
<path d="M52.2289 26.088C52.2188 26.0789 52.416 25.908 52.7209 25.8313C53.0251 25.7517 53.2802 25.8066 53.2757 25.8195C53.2745 25.837 53.0262 25.8087 52.7347 25.8853C52.4424 25.9585 52.2383 26.1028 52.2289 26.088Z" fill="#263238"/>
<path d="M52.6975 25.5955C52.6897 25.5836 52.8566 25.4989 53.0782 25.5213C53.3001 25.5415 53.4477 25.6564 53.4378 25.6666C53.4296 25.6814 53.2793 25.5951 53.0728 25.5769C52.8668 25.5555 52.7028 25.6116 52.6975 25.5955Z" fill="#263238"/>
<g opacity="0.2">
<path d="M53.4049 25.8619C53.0945 25.7074 52.7013 25.7346 52.4151 25.9305C52.3551 25.9715 52.2795 26.0212 52.2169 25.9844C52.157 25.9491 52.1604 25.8585 52.1936 25.7974C52.2728 25.6516 52.4538 25.5965 52.6188 25.5794C52.9161 25.5484 53.2215 25.5974 53.4942 25.7199" fill="black"/>
</g>
<g opacity="0.2">
<path d="M59.2186 23.4551C59.0304 23.8346 58.4889 24.0722 58.2354 24.4861C58.0213 24.8356 57.9416 25.2478 57.8127 25.6369C57.4575 26.709 56.6942 27.6401 55.7129 28.198C55.9084 27.8262 56.0676 27.4384 56.1881 27.0334C56.2411 26.662 56.0831 26.312 56.0831 26.312C56.2058 25.9344 56.7431 25.4138 56.9892 25.1023C57.284 24.7292 57.5815 24.3534 57.9447 24.0465C58.3079 23.7397 58.7457 23.5027 59.2186 23.4551Z" fill="black"/>
</g>
<path d="M60.7392 27.4365C60.7258 27.4288 60.8564 27.1771 61.0308 26.8743C61.2053 26.5714 61.3574 26.3323 61.3708 26.34C61.3841 26.3478 61.2536 26.5994 61.0791 26.9022C60.9048 27.205 60.7525 27.4442 60.7392 27.4365Z" fill="#FAFAFA"/>
<path d="M63.6354 25.9199C63.6431 25.9206 63.6397 26.0378 63.6285 26.2265C63.6189 26.415 63.5975 26.6755 63.6094 26.9614C63.6298 27.5377 63.8527 27.9638 63.8311 27.9703C63.8275 27.9719 63.8126 27.9465 63.7885 27.8992C63.7634 27.8523 63.733 27.7816 63.6988 27.6927C63.6316 27.5149 63.5658 27.2555 63.5537 26.9639C63.5417 26.6726 63.5696 26.4112 63.5893 26.2231C63.6105 26.0351 63.6278 25.9193 63.6354 25.9199Z" fill="#263238"/>
<path d="M58.7877 28.3383C58.7982 28.3281 58.9827 28.5057 59.1681 28.76C59.3542 29.014 59.4675 29.2435 59.4546 29.2504C59.4405 29.2585 59.3069 29.0437 59.123 28.793C58.9399 28.5417 58.7758 28.3494 58.7877 28.3383Z" fill="#FAFAFA"/>
<path d="M60.6096 28.7536C60.6164 28.7398 60.794 28.8142 61.0062 28.9197C61.2184 29.0253 61.3849 29.1221 61.378 29.1359C61.3711 29.1497 61.1936 29.0753 60.9814 28.9697C60.7691 28.8642 60.6026 28.7674 60.6096 28.7536Z" fill="#FAFAFA"/>
<path d="M59.4136 27.0343C59.4043 27.0457 59.2493 26.9304 59.0941 26.751C58.9383 26.5721 58.846 26.4025 58.8586 26.3949C58.8721 26.3861 58.9836 26.5392 59.1363 26.7143C59.2882 26.8902 59.4241 27.0222 59.4136 27.0343Z" fill="#FAFAFA"/>
<path d="M57.1957 28.4994C57.1861 28.4862 57.3467 28.357 57.5239 28.1767C57.7019 27.9971 57.8288 27.8347 57.8421 27.8441C57.8543 27.8521 57.7454 28.0323 57.5636 28.2158C57.3825 28.4001 57.2038 28.5114 57.1957 28.4994Z" fill="#FAFAFA"/>
<path d="M56.024 29.1023C56.0344 29.091 56.1778 29.2043 56.3442 29.3557C56.5107 29.5071 56.6373 29.639 56.6269 29.6504C56.6165 29.6618 56.4731 29.5484 56.3066 29.397C56.1403 29.2456 56.0136 29.1137 56.024 29.1023Z" fill="#FAFAFA"/>
<path d="M58.2444 24.9855C58.2364 24.9724 58.416 24.8472 58.6457 24.7058C58.8753 24.5645 59.0681 24.4606 59.0762 24.4738C59.0842 24.4869 58.9046 24.6121 58.6749 24.7534C58.4452 24.8948 58.2524 24.9987 58.2444 24.9855Z" fill="#FAFAFA"/>
<path d="M60.1441 24.3185C60.1581 24.3119 60.2611 24.4969 60.3744 24.7317C60.4876 24.9666 60.5682 25.1624 60.5543 25.1692C60.5404 25.1758 60.4373 24.991 60.3241 24.756C60.2108 24.5211 60.1302 24.3252 60.1441 24.3185Z" fill="#FAFAFA"/>
<path d="M61.4485 24.0347C61.4353 24.0268 61.5266 23.8495 61.6524 23.6389C61.7783 23.4282 61.891 23.2638 61.9042 23.2718C61.9173 23.2797 61.8261 23.4568 61.7003 23.6675C61.5745 23.8783 61.4618 24.0426 61.4485 24.0347Z" fill="#FAFAFA"/>
<path d="M59.924 22.7167C59.9312 22.7018 60.1113 22.781 60.3452 22.8354C60.5789 22.8915 60.7753 22.901 60.7751 22.9176C60.776 22.9319 60.5736 22.9474 60.3324 22.8897C60.0909 22.8335 59.9169 22.729 59.924 22.7167Z" fill="#FAFAFA"/>
<path d="M60.8202 21.2248C60.8048 21.2259 60.7796 21.0452 60.7639 20.8214C60.7482 20.5974 60.7479 20.4151 60.7633 20.4141C60.7787 20.413 60.8039 20.5936 60.8196 20.8176C60.8354 21.0414 60.8356 21.2238 60.8202 21.2248Z" fill="#FAFAFA"/>
<path d="M62.8204 24.2139C62.806 24.2084 62.8709 24.0035 62.9652 23.7562C63.0597 23.5089 63.1478 23.3129 63.1623 23.3185C63.1767 23.3239 63.1119 23.5289 63.0174 23.7761C62.923 24.0233 62.8347 24.2193 62.8204 24.2139Z" fill="#FAFAFA"/>
<path d="M63.1069 25.3011C63.1191 25.2931 63.2328 25.4563 63.3143 25.6859C63.3969 25.9152 63.4123 26.1134 63.3979 26.115C63.3817 26.1176 63.3422 25.9279 63.2617 25.7047C63.1825 25.4811 63.0929 25.3093 63.1069 25.3011Z" fill="#FAFAFA"/>
<path d="M56.5023 21.349C56.5103 21.3359 56.6759 21.4231 56.872 21.5439C57.0681 21.6647 57.2205 21.7733 57.2125 21.7863C57.2044 21.7994 57.0388 21.7123 56.8427 21.5914C56.6466 21.4707 56.4941 21.362 56.5023 21.349Z" fill="#FAFAFA"/>
<path d="M55.4654 23.1059C55.4543 23.0935 55.603 22.9504 55.7488 22.7447C55.8962 22.54 55.9834 22.353 55.9986 22.3595C56.0121 22.3642 55.9459 22.5662 55.7943 22.7772C55.6439 22.989 55.4742 23.1171 55.4654 23.1059Z" fill="#FAFAFA"/>
<path d="M53.9262 23.1785C53.9353 23.1667 54.1144 23.2913 54.3075 23.4775C54.5012 23.6632 54.6328 23.8372 54.6213 23.8468C54.6092 23.8572 54.4602 23.7013 54.2688 23.5177C54.0779 23.3338 53.9163 23.1911 53.9262 23.1785Z" fill="#FAFAFA"/>
<path d="M54.2954 21.6739C54.2847 21.6629 54.4531 21.4825 54.6718 21.2713C54.8904 21.0599 55.0763 20.8977 55.087 20.9087C55.0977 20.9198 54.9292 21.1 54.7106 21.3114C54.4921 21.5227 54.3061 21.685 54.2954 21.6739Z" fill="#FAFAFA"/>
<path d="M53.3372 24.5335C53.3225 24.5381 53.2479 24.3415 53.1706 24.0945C53.0933 23.8473 53.0425 23.6434 53.0572 23.6388C53.0719 23.6341 53.1466 23.8307 53.2239 24.0778C53.3012 24.3248 53.352 24.5289 53.3372 24.5335Z" fill="#FAFAFA"/>
<path d="M54.0819 25.4527C54.0666 25.4513 54.0749 25.2259 54.1006 24.9494C54.1262 24.6727 54.1594 24.4497 54.1748 24.4512C54.1901 24.4526 54.1817 24.678 54.1561 24.9545C54.1305 25.2311 54.0972 25.4542 54.0819 25.4527Z" fill="#FAFAFA"/>
<path d="M59.417 21.2241C59.1886 21.0618 58.9034 21.0004 58.6283 21.0541C58.3689 21.1047 58.1393 21.2536 57.9874 21.4695L57.0549 22.7962L51.9972 26.8334C51.2114 27.4607 51.2859 28.6784 52.1422 29.205C52.7423 29.5741 53.5204 29.4583 53.9873 28.9305L58.1156 24.2632L58.6486 23.852L59.2757 23.3967L59.4182 22.0308C59.4182 22.0308 59.795 22.1978 60.0893 22.3329C60.5537 22.5459 60.7085 22.1585 60.7085 22.1585L59.417 21.2241Z" fill="#B78876"/>
<path d="M59.4244 22.1021C59.4175 22.1067 59.3877 22.0706 59.3381 22.0162C59.2885 21.963 59.2159 21.8893 59.1155 21.8542C59.0166 21.8206 58.9142 21.8493 58.8601 21.8892C58.8035 21.9297 58.7911 21.9769 58.782 21.9738C58.7763 21.9746 58.7741 21.9172 58.8347 21.8589C58.8929 21.8028 59.0119 21.7607 59.1335 21.8014C59.2513 21.8432 59.3253 21.9303 59.3686 21.9915C59.4124 22.0545 59.4303 22.0981 59.4244 22.1021Z" fill="#AA6550"/>
<path d="M58.7626 22.4678C58.7573 22.4636 58.7755 22.4273 58.8259 22.387C58.8752 22.3469 58.9606 22.3063 59.0613 22.3066C59.1621 22.3072 59.2471 22.3484 59.2961 22.3889C59.3462 22.4296 59.3641 22.4661 59.3587 22.4703C59.3524 22.4759 59.3245 22.4502 59.2738 22.4215C59.2237 22.3926 59.1477 22.3629 59.061 22.3625C58.9744 22.3623 58.8982 22.3914 58.8479 22.4198C58.797 22.448 58.7689 22.4735 58.7626 22.4678Z" fill="#AA6550"/>
<path d="M63.082 20.9558L63.4366 21.3404C63.4366 21.3404 63.5548 26.7828 63.7617 27.5223C63.9685 28.2618 65.1801 29.5041 65.8302 28.4984C66.4804 27.4927 64.8551 21.0741 64.8551 21.0741C64.8551 21.0741 64.4118 19.5952 64.3823 19.2402L63.082 20.9558Z" fill="#B78876"/>
<path d="M63.8946 17.8028L63.7549 21.5626C63.7449 21.8311 63.5979 22.0757 63.3655 22.2102L62.2343 22.8651C61.922 23.0459 61.5312 22.8203 61.5312 22.4593V18.978C61.5312 18.7804 61.6384 18.5985 61.8109 18.5026L63.5042 17.5627C63.6833 17.4633 63.9022 17.5979 63.8946 17.8028Z" fill="#455A64"/>
<path d="M62.5941 18.7943C62.5331 18.9185 62.5842 19.0685 62.7084 19.1295C62.8326 19.1906 62.9827 19.1393 63.0437 19.0152C63.1047 18.8911 63.0535 18.7409 62.9294 18.68C62.8052 18.619 62.6551 18.6702 62.5941 18.7943Z" fill="#FAFAFA"/>
<path d="M64.384 19.2398C64.384 19.2398 63.5464 18.0781 63.3604 18.088C63.1746 18.0977 62.2746 18.6363 62.3137 18.7537C62.3529 18.8713 62.5387 18.9397 62.705 18.8614C62.8713 18.783 63.1648 18.4991 63.2332 18.5578C63.3018 18.6166 63.4974 18.8222 63.4974 18.8222C63.4974 18.8222 62.6702 19.2448 62.6071 19.4096C62.5428 19.5783 62.3919 19.8699 62.5876 19.9775C62.715 20.0477 62.9202 19.9677 62.9984 19.6348C62.9984 19.6348 62.8418 20.1146 63.0837 20.2321C63.344 20.3586 63.4239 20.0925 63.6342 19.8307C63.811 19.6105 63.8906 19.8907 63.8906 19.8907L64.384 19.2398Z" fill="#B78876"/>
<path d="M63.7486 19.2513C63.7474 19.26 63.6881 19.2546 63.5953 19.2661C63.5031 19.2771 63.376 19.3103 63.258 19.3873C63.1398 19.4644 63.0583 19.5673 63.0111 19.6473C62.9632 19.7276 62.9443 19.784 62.9359 19.7816C62.9294 19.7802 62.9349 19.7186 62.9762 19.6288C63.0166 19.5397 63.0994 19.4241 63.2274 19.3404C63.3554 19.2569 63.4946 19.2277 63.5924 19.2267C63.6913 19.225 63.7497 19.2449 63.7486 19.2513Z" fill="#AA6550"/>
<path d="M56.6985 11.6136L56.6995 12.098L56.668 19.3493C56.6643 20.1911 57.3845 20.8647 58.2851 20.8618C59.1947 20.8588 59.9457 20.1675 59.9634 19.3172C59.9819 18.4247 60.0179 17.4854 60.0179 17.4854C60.0179 17.4854 61.1701 17.315 61.4347 15.819C61.5663 15.0751 61.5506 13.8511 61.5054 12.85C61.4647 11.949 60.6835 11.2631 59.7858 11.3421L56.6985 11.6136Z" fill="#B78876"/>
<path d="M61.1495 13.7591C61.1514 13.8606 61.0668 13.9459 60.9607 13.9498C60.8549 13.9535 60.7675 13.8745 60.7657 13.7729C60.7638 13.6714 60.8483 13.586 60.9542 13.5822C61.0602 13.5783 61.1477 13.6575 61.1495 13.7591Z" fill="#263238"/>
<path d="M61.2205 13.4765C61.1963 13.5011 61.0525 13.3908 60.8456 13.3876C60.6391 13.3815 60.4853 13.4852 60.4634 13.4594C60.4525 13.4481 60.4776 13.4032 60.5445 13.3563C60.6105 13.3095 60.7222 13.2649 60.8511 13.2677C60.9799 13.2707 61.0874 13.32 61.1489 13.3697C61.2117 13.4196 61.2324 13.4654 61.2205 13.4765Z" fill="#263238"/>
<path d="M59.1905 13.7259C59.1924 13.8274 59.1078 13.9127 59.0017 13.9166C58.8959 13.9203 58.8085 13.8413 58.8067 13.7397C58.8048 13.6382 58.8894 13.5528 58.9953 13.549C59.1013 13.5451 59.1887 13.6243 59.1905 13.7259Z" fill="#263238"/>
<path d="M59.1951 13.4822C59.1708 13.5069 59.0269 13.3966 58.8202 13.3934C58.6137 13.3873 58.4599 13.491 58.438 13.4653C58.4272 13.4539 58.452 13.4091 58.5192 13.3621C58.5852 13.3154 58.6969 13.2708 58.8257 13.2736C58.9546 13.2766 59.062 13.3259 59.1236 13.3755C59.1861 13.4255 59.2069 13.4712 59.1951 13.4822Z" fill="#263238"/>
<path d="M59.9121 15.0295C59.9114 15.0177 60.0404 14.9978 60.2491 14.9748C60.302 14.9703 60.3522 14.9607 60.3617 14.9248C60.3748 14.8868 60.3538 14.8294 60.3292 14.7675C60.2818 14.6387 60.2323 14.5037 60.1802 14.3621C59.9735 13.7851 59.8248 13.311 59.8481 13.3028C59.8714 13.2947 60.0578 13.7558 60.2646 14.3329C60.3142 14.4751 60.3618 14.6108 60.407 14.7405C60.426 14.801 60.4591 14.8698 60.4307 14.9485C60.4158 14.9878 60.3764 15.0157 60.3424 15.0243C60.3083 15.0341 60.2786 15.0341 60.2525 15.0352C60.0428 15.0427 59.9127 15.0413 59.9121 15.0295Z" fill="#263238"/>
<path d="M60.0115 17.4832C60.0115 17.4832 59.002 17.5303 58.0137 16.9121C58.0137 16.9121 58.4824 17.9503 59.9849 17.8368L60.0115 17.4832Z" fill="#AA6550"/>
<path d="M59.8205 15.5287C59.7478 15.4289 59.6185 15.3726 59.4888 15.3843C59.3989 15.3924 59.3074 15.4341 59.2517 15.5063C59.1958 15.5784 59.1826 15.6819 59.2308 15.7526C59.2853 15.832 59.4016 15.8522 59.5007 15.8259C59.6 15.7996 59.686 15.7361 59.768 15.6728C59.7906 15.6552 59.8138 15.637 59.8281 15.6126C59.8425 15.5883 59.846 15.5562 59.8292 15.5356" fill="#AA6550"/>
<path d="M59.307 15.1621C59.3407 15.1607 59.3372 15.3853 59.5265 15.5481C59.7155 15.7114 59.9553 15.6904 59.9565 15.7218C59.9594 15.7359 59.9025 15.7645 59.8014 15.7653C59.7022 15.7669 59.5581 15.7326 59.4423 15.633C59.3268 15.5332 59.2786 15.4019 59.2726 15.3096C59.2658 15.2158 59.2918 15.1605 59.307 15.1621Z" fill="#263238"/>
<path d="M54.8873 20.0686C56.1222 20.1659 57.21 19.2842 57.3949 18.0581C57.4142 17.9303 57.436 17.8258 57.4634 17.7574C57.6374 17.3219 57.6401 16.8287 57.5199 16.3754C57.4642 16.1654 57.3846 15.9356 57.4799 15.7405C57.549 15.5989 57.694 15.5142 57.8127 15.4106C58.0796 15.1775 58.2254 14.8255 58.255 14.4722C58.2845 14.1189 58.2066 13.7636 58.0832 13.4312C58.0153 13.2483 57.9327 13.0478 58.0016 12.8652C58.0504 12.7361 58.1651 12.6462 58.2676 12.5539C58.4842 12.3586 58.6656 12.1243 58.8005 11.8656C58.9378 11.6022 59.0266 11.2601 58.6686 11.0514C58.5937 11.0078 58.5096 10.9815 58.4239 10.9683C57.7904 10.87 57.0353 10.9644 56.6109 11.4635C56.265 11.8703 56.2159 12.444 56.1825 12.9771C56.0772 14.6563 53.2997 17.7762 54.3732 20.0759L54.8873 20.0686Z" fill="#263238"/>
<path d="M59.2561 12.672C59.2346 12.7279 59.0287 12.6976 58.7855 12.7225C58.5417 12.7426 58.3448 12.8102 58.3135 12.7591C58.2996 12.7347 58.3347 12.6824 58.4148 12.6294C58.4941 12.5764 58.6202 12.527 58.7662 12.5133C58.9121 12.5 59.0451 12.5255 59.1328 12.563C59.2212 12.6005 59.2653 12.6456 59.2561 12.672Z" fill="#263238"/>
<path d="M61.1569 12.8789C61.1197 12.9253 60.978 12.874 60.8067 12.8686C60.6355 12.8573 60.4897 12.8946 60.4571 12.8448C60.4429 12.8207 60.4665 12.7741 60.5308 12.7308C60.594 12.6875 60.6991 12.6532 60.8168 12.6588C60.9345 12.6646 61.0358 12.709 61.0945 12.7582C61.1543 12.8076 61.1734 12.8563 61.1569 12.8789Z" fill="#263238"/>
<path d="M66.8774 13.9172C66.8774 14.0333 66.7832 14.1274 66.6672 14.1274C66.5511 14.1274 66.457 14.0332 66.457 13.9172C66.457 13.8012 66.5512 13.707 66.6672 13.707C66.7832 13.707 66.8774 13.8011 66.8774 13.9172Z" fill="#455A64"/>
<path d="M67.5108 14.1274C67.6269 14.1274 67.721 14.0333 67.721 13.9172C67.721 13.8011 67.6269 13.707 67.5108 13.707C67.3948 13.707 67.3007 13.8011 67.3007 13.9172C67.3007 14.0333 67.3948 14.1274 67.5108 14.1274Z" fill="#455A64"/>
<path d="M68.5602 13.8122C68.6182 13.9128 68.5838 14.0412 68.4833 14.0993C68.3827 14.1573 68.2543 14.1229 68.1962 14.0224C68.1381 13.9219 68.1726 13.7934 68.273 13.7353C68.3736 13.6772 68.5022 13.7116 68.5602 13.8122Z" fill="#455A64"/>
<path d="M67.5229 11.4581C67.5229 11.4571 67.5373 11.4569 67.5654 11.4574C67.5962 11.4582 67.6375 11.4594 67.6903 11.4609C67.7177 11.4622 67.7486 11.4622 67.7824 11.465C67.8162 11.4697 67.853 11.4748 67.8925 11.4804C67.9325 11.4862 67.9754 11.4923 68.0211 11.4989C68.0662 11.5101 68.1141 11.522 68.1647 11.5345C68.3665 11.5865 68.611 11.6752 68.8609 11.8384C69.1107 11.9988 69.3703 12.2284 69.581 12.5403C69.7877 12.8527 69.9472 13.2456 69.9894 13.6868C69.9936 13.7973 70.0069 13.9096 69.9962 14.0237C69.9922 14.0807 69.9934 14.1387 69.985 14.1961C69.9763 14.2535 69.9676 14.3114 69.9589 14.3697C69.9119 14.5999 69.8434 14.8357 69.7249 15.0554C69.6091 15.2755 69.4598 15.485 69.2774 15.6717C69.0915 15.8545 68.8743 16.013 68.6327 16.1353C68.3918 16.2585 68.1248 16.3436 67.8468 16.3766C67.778 16.3903 67.7075 16.3903 67.6373 16.3945C67.567 16.3991 67.4963 16.4017 67.4254 16.3983C67.2837 16.3925 67.1415 16.3747 67.001 16.3447C66.6958 16.2796 66.4085 16.1552 66.1561 15.9888L66.1818 15.9913C65.8889 16.109 65.6016 16.2243 65.3211 16.337L65.2702 16.3575L65.2848 16.3046C65.3716 15.9885 65.456 15.6811 65.5377 15.3837L65.542 15.4065C65.3005 15.0852 65.1466 14.7184 65.0828 14.3542C65.0508 14.1723 65.0372 13.9906 65.0493 13.8151C65.0531 13.7272 65.0572 13.6405 65.0738 13.5561C65.0803 13.5138 65.0868 13.4718 65.0933 13.4301C65.101 13.3887 65.1135 13.3485 65.1234 13.3082C65.2897 12.66 65.6885 12.1812 66.0835 11.9072C66.2813 11.7678 66.4763 11.6678 66.655 11.6055C66.6995 11.5896 66.7424 11.5741 66.7836 11.5593C66.8261 11.5486 66.8667 11.5382 66.9058 11.5283C66.9447 11.5186 66.982 11.5094 67.0176 11.5006C67.0534 11.4937 67.0881 11.49 67.1205 11.485C67.1855 11.4768 67.2427 11.4655 67.2928 11.463C67.3421 11.4614 67.3841 11.4599 67.4192 11.4587C67.4513 11.458 67.4767 11.4575 67.4964 11.457C67.5141 11.457 67.5229 11.4574 67.5229 11.4581C67.5229 11.4589 67.5141 11.46 67.4968 11.4616C67.4772 11.4631 67.4518 11.4652 67.42 11.4678C67.3851 11.4701 67.3433 11.4729 67.2943 11.4762C67.2445 11.4801 67.1879 11.4927 67.1236 11.5022C66.8703 11.5487 66.4906 11.6498 66.1027 11.9337C65.7154 12.2078 65.3267 12.682 65.1667 13.3192C65.1573 13.3589 65.1451 13.3983 65.1378 13.4391C65.1317 13.4801 65.1254 13.5213 65.1192 13.5629C65.1033 13.6456 65.0997 13.7307 65.0965 13.8171C65.0853 13.9894 65.0994 14.1675 65.1313 14.3456C65.1951 14.7023 65.347 15.061 65.5843 15.375L65.592 15.3853L65.5886 15.3978C65.5075 15.6953 65.4236 16.0029 65.3374 16.3192L65.301 16.2867C65.5813 16.1737 65.8684 16.058 66.1612 15.94L66.1747 15.9345L66.1869 15.9426C66.4338 16.1051 66.7147 16.2266 67.0129 16.2901C67.1502 16.3195 67.2891 16.337 67.4278 16.3426C67.4972 16.3459 67.5662 16.3434 67.6349 16.3389C67.7037 16.3347 67.7726 16.335 67.8399 16.3216C68.1116 16.2895 68.3726 16.2065 68.6084 16.0863C68.8448 15.9671 69.0576 15.8124 69.2399 15.6339C69.4187 15.4517 69.5653 15.2469 69.6794 15.0317C69.7962 14.8169 69.8637 14.5862 69.9108 14.3607C69.9196 14.3036 69.9284 14.2469 69.9371 14.1906C69.9454 14.1343 69.9445 14.0775 69.9487 14.0216C69.9597 13.9096 69.9469 13.7993 69.9435 13.6909C69.9041 13.2577 69.7496 12.8709 69.5484 12.5621C69.3431 12.2537 69.0892 12.0255 68.8442 11.8645C68.5991 11.7009 68.3584 11.6101 68.1593 11.5553C68.1093 11.542 68.062 11.5294 68.0174 11.5176C67.9722 11.5102 67.9298 11.5032 67.8903 11.4966C67.851 11.4902 67.8146 11.4842 67.7811 11.4786C67.7476 11.4748 67.717 11.474 67.6897 11.4718C67.6373 11.468 67.5961 11.4651 67.5655 11.4628C67.5373 11.4608 67.5229 11.4591 67.5229 11.4581Z" fill="#455A64"/>
<path d="M19.7143 31.1111L15.9282 31.7498C14.511 30.5265 12.667 29.7852 10.6488 29.7852C6.18073 29.7852 2.55859 33.4107 2.55859 37.8829C2.55859 42.3552 6.18073 45.9807 10.6488 45.9807C15.1169 45.9807 18.7389 42.3552 18.7389 37.8829C18.7389 36.6302 18.4544 35.444 17.947 34.3851L19.7143 31.1111Z" fill="#E0E0E0"/>
<path d="M3.12317 29.3781C3.12317 29.4943 3.21732 29.5883 3.33334 29.5883C3.44947 29.5883 3.54351 29.4942 3.54351 29.3781C3.54351 29.262 3.44936 29.168 3.33334 29.168C3.21721 29.168 3.12317 29.2621 3.12317 29.3781Z" fill="#263238"/>
<path d="M2.2832 29.3781C2.2832 29.4943 2.37735 29.5883 2.49337 29.5883C2.60951 29.5883 2.70355 29.4942 2.70355 29.3781C2.70355 29.262 2.6094 29.168 2.49337 29.168C2.37735 29.168 2.2832 29.2621 2.2832 29.3781Z" fill="#263238"/>
<path d="M1.4442 29.2731C1.38619 29.3737 1.42061 29.5021 1.52108 29.5602C1.62166 29.6183 1.75013 29.5838 1.80825 29.4834C1.86626 29.3828 1.83184 29.2543 1.73136 29.1962C1.63089 29.1381 1.50232 29.1726 1.4442 29.2731Z" fill="#263238"/>
<path d="M2.47751 26.9229C2.47751 26.9238 2.46314 26.9255 2.43515 26.9279C2.40448 26.9302 2.36331 26.9332 2.31087 26.9369C2.28363 26.9391 2.25297 26.9399 2.21951 26.9437C2.18605 26.9492 2.1496 26.9552 2.11035 26.9617C2.07078 26.9683 2.02843 26.9751 1.98317 26.9826C1.93867 26.9946 1.89138 27.0071 1.84131 27.0205C1.64218 27.0752 1.40156 27.166 1.15643 27.3296C0.911406 27.4906 0.657484 27.7189 0.452245 28.0273C0.250974 28.3361 0.0965621 28.7228 0.0571013 29.1561C0.05367 29.2645 0.0409091 29.3747 0.0519538 29.4868C0.0561358 29.5426 0.0550637 29.5995 0.0635349 29.6557C0.0722206 29.712 0.0810138 29.7686 0.0898066 29.8257C0.136774 30.0511 0.204436 30.282 0.32121 30.4967C0.435196 30.7119 0.581887 30.9166 0.760747 31.0989C0.943146 31.2774 1.15578 31.432 1.39223 31.5513C1.62803 31.6715 1.88903 31.7544 2.16075 31.7866C2.22798 31.8 2.29693 31.7998 2.36566 31.8038C2.4344 31.8083 2.50346 31.8108 2.57283 31.8076C2.71138 31.8019 2.85035 31.7845 2.9876 31.7551C3.28592 31.6916 3.56675 31.5701 3.8136 31.4076L3.82582 31.3995L3.83933 31.405C4.13207 31.5229 4.41923 31.6388 4.69953 31.7517L4.66308 31.7841C4.57686 31.4678 4.49312 31.1602 4.41194 30.8627L4.40851 30.8502L4.41623 30.8399C4.65353 30.5258 4.80537 30.1673 4.86917 29.8105C4.90124 29.6323 4.91528 29.4543 4.90402 29.282C4.90081 29.1957 4.89705 29.1105 4.88118 29.0277C4.87496 28.9862 4.86874 28.9449 4.86263 28.904C4.85534 28.8632 4.84301 28.8238 4.83368 28.7841C4.6738 28.1469 4.28498 27.6727 3.89767 27.3986C3.50971 27.1147 3.13011 27.0136 2.87683 26.9671C2.81239 26.9575 2.75577 26.945 2.70612 26.9411C2.65712 26.9378 2.6153 26.935 2.58045 26.9326C2.54849 26.9302 2.52319 26.9281 2.50356 26.9265C2.4863 26.9249 2.47751 26.9236 2.47751 26.9229C2.47751 26.9221 2.4863 26.9218 2.50367 26.9219C2.5234 26.9223 2.54881 26.9229 2.58088 26.9236C2.61594 26.9248 2.65797 26.9262 2.7073 26.9279C2.75738 26.9304 2.81453 26.9416 2.87962 26.9499C2.912 26.955 2.94664 26.9586 2.98245 26.9655C3.01805 26.9743 3.05526 26.9835 3.0943 26.9932C3.13333 27.003 3.17407 27.0134 3.21643 27.0242C3.25771 27.039 3.30061 27.0543 3.34511 27.0703C3.52375 27.1327 3.7187 27.2326 3.91654 27.372C4.31157 27.6461 4.71047 28.1249 4.87668 28.773C4.88644 28.8134 4.89909 28.8535 4.90681 28.895C4.91324 28.9367 4.91979 28.9787 4.92633 29.021C4.94284 29.1052 4.94702 29.1919 4.95078 29.28C4.96289 29.4554 4.94927 29.637 4.91732 29.8191C4.85352 30.1834 4.69953 30.5501 4.45805 30.8713L4.46234 30.8486C4.54405 31.146 4.62844 31.4534 4.7153 31.7695L4.72988 31.8224L4.67895 31.8019C4.39854 31.6892 4.11127 31.5738 3.81842 31.4562L3.84405 31.4536C3.59174 31.6201 3.30436 31.7445 2.99918 31.8095C2.85871 31.8396 2.71652 31.8574 2.57476 31.8632C2.50388 31.8665 2.43322 31.8639 2.36288 31.8593C2.29264 31.855 2.22208 31.8551 2.15335 31.8415C1.87541 31.8083 1.60851 31.7233 1.36746 31.6001C1.12576 31.4779 0.908725 31.3193 0.722788 31.1366C0.540389 30.95 0.391124 30.7404 0.275315 30.5203C0.156825 30.3006 0.088305 30.0648 0.0413381 29.8345C0.0325452 29.7762 0.02386 29.7184 0.0151744 29.661C0.0068104 29.6036 0.00798951 29.5456 0.00402199 29.4886C-0.00659382 29.3744 0.00670313 29.262 0.0107779 29.1517C0.0530267 28.7103 0.212478 28.3175 0.419218 28.0052C0.629926 27.6933 0.889423 27.4638 1.13927 27.3032C1.38922 27.1401 1.63371 27.0513 1.83552 26.9994C1.88613 26.9868 1.93406 26.9749 1.9791 26.9638C2.02489 26.9572 2.06767 26.951 2.10767 26.9453C2.14734 26.9397 2.18402 26.9346 2.21779 26.9298C2.25157 26.927 2.28245 26.927 2.3099 26.9258C2.36266 26.9243 2.40395 26.9231 2.43483 26.9222C2.46314 26.9217 2.47751 26.9219 2.47751 26.9229Z" fill="#263238"/>
<path d="M11.5352 25.4334C11.7311 24.996 12.1893 24.6886 12.6688 24.6725C13.1484 24.6565 13.6262 24.9327 13.8509 25.356C13.9847 25.6079 14.0375 25.9081 14.2308 26.118C14.4719 26.3795 14.9158 26.4212 15.2014 26.2089C15.2795 26.5145 15.0904 26.8643 14.7914 26.9666C14.9495 26.9828 15.1075 26.999 15.2656 27.0152C15.0097 27.5741 14.3091 27.83 13.7035 27.7209C13.0978 27.6118 12.5831 27.2108 12.1709 26.7545" fill="#263238"/>
<path d="M11.5374 25.4418L13.0001 25.9213C13.5145 26.2618 13.9245 26.7612 14.1265 27.3443C14.195 27.5417 14.2416 27.7474 14.3281 27.9377C14.4147 28.128 14.549 28.3072 14.7401 28.3927C14.8807 28.4555 15.04 28.4627 15.1844 28.5161C15.4285 28.6061 15.6134 28.83 15.6753 29.0826C15.737 29.335 15.6811 29.6099 15.5426 29.8299C15.4733 29.9402 15.3809 30.0471 15.3749 30.1771C15.3709 30.2652 15.4077 30.3491 15.4283 30.4347C15.4982 30.7256 15.3595 31.0543 15.102 31.2073C14.8446 31.3604 14.489 31.3256 14.2662 31.1256C14.1727 31.3406 14.0482 31.5619 13.8363 31.6631C13.6244 31.7642 13.3117 31.6733 13.2676 31.4431C13.1622 31.664 12.8989 31.7974 12.658 31.7518C12.4172 31.7062 12.2211 31.4857 12.2041 31.2415L8.19531 26.8647C8.79377 25.2634 11.1335 25.405 11.5374 25.4418Z" fill="#263238"/>
<path d="M12.2251 26.9657C12.4831 26.993 12.6774 27.2128 12.6723 27.4718L12.3891 34.2108C12.3784 35.0066 10.9319 35.9476 10.0785 35.9297C9.21656 35.9115 9.46995 34.9984 9.45751 34.2413C9.43671 32.9764 9.43714 32.5015 9.43671 32.5087C9.43671 32.5087 8.34757 32.3282 8.12195 30.9096C8.00979 30.2041 8.04529 29.0474 8.10491 28.1019C8.15863 27.2509 8.72341 26.2067 9.57278 26.2964L12.2251 26.9657Z" fill="#FFBE9D"/>
<path d="M8.47081 29.0158C8.46738 29.1118 8.54609 29.1938 8.64656 29.1992C8.74682 29.2045 8.831 29.1313 8.83443 29.0353C8.83786 28.9393 8.75915 28.8572 8.65889 28.8518C8.55842 28.8465 8.47424 28.9198 8.47081 29.0158Z" fill="#263238"/>
<path d="M8.35642 28.7047C8.37905 28.7284 8.51705 28.6265 8.71318 28.627C8.90909 28.6248 9.05299 28.7253 9.07422 28.7014C9.08473 28.6908 9.06168 28.648 8.99895 28.6026C8.93729 28.5572 8.8321 28.5132 8.70985 28.5137C8.58772 28.5143 8.48499 28.5592 8.42591 28.6051C8.36575 28.6511 8.34527 28.694 8.35642 28.7047Z" fill="#263238"/>
<path d="M10.381 29.0158C10.3775 29.1118 10.4562 29.1938 10.5567 29.1992C10.657 29.2045 10.7412 29.1313 10.7446 29.0353C10.748 28.9393 10.6693 28.8572 10.569 28.8518C10.4686 28.8465 10.3843 28.9198 10.381 29.0158Z" fill="#263238"/>
<path d="M10.2821 28.7437C10.3048 28.7674 10.443 28.6655 10.6389 28.6661C10.8348 28.6638 10.9787 28.7644 10.9999 28.7405C11.0104 28.7299 10.9876 28.6871 10.9247 28.6416C10.863 28.5963 10.7578 28.5523 10.6357 28.5527C10.5136 28.5535 10.4108 28.5983 10.3517 28.6442C10.2917 28.6903 10.2711 28.7331 10.2821 28.7437Z" fill="#263238"/>
<path d="M9.57577 30.1958C9.57663 30.1846 9.45481 30.1637 9.25729 30.1384C9.20722 30.1332 9.15982 30.1232 9.15135 30.0892C9.13955 30.053 9.16057 29.9991 9.1848 29.941C9.23188 29.82 9.28121 29.6931 9.33289 29.5603C9.53856 29.0184 9.68739 28.5726 9.66552 28.5646C9.64354 28.5565 9.4591 28.9893 9.25343 29.5313C9.20389 29.6649 9.1566 29.7923 9.11157 29.9142C9.09259 29.971 9.05999 30.0355 9.08562 30.1104C9.09913 30.1478 9.13591 30.175 9.16797 30.1835C9.20003 30.1933 9.22823 30.1938 9.253 30.1953C9.4517 30.2061 9.57502 30.2069 9.57577 30.1958Z" fill="#263238"/>
<path d="M9.43164 32.5024C9.43164 32.5024 10.3876 32.5639 11.3347 31.9961C11.3347 31.9961 10.873 32.9696 9.45083 32.8371L9.43164 32.5024Z" fill="#EB996E"/>
<path d="M9.64638 30.6603C9.71694 30.5674 9.84047 30.5162 9.96314 30.5294C10.0483 30.5385 10.1343 30.5795 10.186 30.6485C10.2377 30.7177 10.2485 30.8158 10.2015 30.8816C10.1486 30.9559 10.038 30.973 9.94448 30.9465C9.85087 30.92 9.77034 30.8585 9.69389 30.7974C9.67276 30.7804 9.6511 30.7627 9.63791 30.7396C9.62472 30.7164 9.62183 30.686 9.63823 30.6668" fill="#EB996E"/>
<path d="M10.1406 30.3242C10.1087 30.3224 10.1083 30.5347 9.92612 30.6854C9.74425 30.8366 9.51735 30.8128 9.51574 30.8424C9.51274 30.8557 9.56625 30.8837 9.66201 30.8862C9.75594 30.8894 9.8932 30.8593 10.0046 30.7672C10.1158 30.6748 10.1635 30.5515 10.1708 30.4644C10.1789 30.3756 10.1552 30.3231 10.1406 30.3242Z" fill="#263238"/>
<path d="M10.1905 28.3946C10.2098 28.4478 10.4056 28.4226 10.6357 28.4503C10.8664 28.4733 11.0519 28.5405 11.0824 28.4929C11.096 28.47 11.0638 28.42 10.9887 28.3685C10.9144 28.3171 10.7957 28.2682 10.6576 28.2529C10.5195 28.2379 10.393 28.2596 10.3092 28.2937C10.2247 28.3276 10.1821 28.3693 10.1905 28.3946Z" fill="#263238"/>
<path d="M8.42303 28.1382C8.45756 28.1826 8.59256 28.1365 8.75502 28.1344C8.91736 28.1265 9.05505 28.1642 9.08668 28.1177C9.10062 28.0952 9.07896 28.0507 9.0188 28.0086C8.95961 27.9667 8.86053 27.9324 8.74891 27.9358C8.63728 27.9393 8.54056 27.9795 8.48405 28.0251C8.42657 28.0708 8.40781 28.1166 8.42303 28.1382Z" fill="#263238"/>
<path d="M12.5045 29.234C12.6121 29.1596 12.7627 29.1871 12.876 29.2526C13.1371 29.4034 13.267 29.7481 13.1701 30.0332C13.0731 30.3184 12.76 30.513 12.4609 30.474" fill="#FFBE9D"/>
<path d="M10.2734 25.8208C9.75555 25.838 9.36277 25.9952 8.90811 26.2436C8.45345 26.4919 8.07354 26.9016 7.93349 27.3996C7.90379 27.5054 7.88685 27.6259 7.94486 27.7192C8.02142 27.8423 8.20232 27.8628 8.33464 27.803C8.46696 27.7433 8.56186 27.6251 8.65161 27.5112C8.71885 27.7714 8.97738 27.9692 9.24664 27.9662C9.51589 27.9632 9.77003 27.7597 9.83136 27.4981C9.83351 27.7705 10.1065 27.9956 10.3791 27.9858C10.6518 27.976 10.8932 27.7661 10.9839 27.5092C11.0346 27.7512 11.0886 28.0013 11.2338 28.2018C11.3789 28.4022 11.6416 28.5401 11.8771 28.4635C11.8438 28.6749 11.8113 28.8975 11.8864 29.0979C11.9616 29.2984 12.1846 29.4607 12.3874 29.3912C12.5843 29.3236 12.6606 29.0908 12.7067 28.8882C12.7955 28.4974 12.8716 28.0998 12.859 27.6992C12.8465 27.2987 12.7392 26.8914 12.4933 26.5748C12.2387 26.2472 11.8532 26.0395 11.4517 25.9337C11.0503 25.8279 10.6302 25.8161 10.215 25.8213" fill="#263238"/>
<path d="M12.6067 30.0504C12.6108 30.0403 12.6619 30.0625 12.7306 30.0311C12.7981 30.0044 12.8596 29.9048 12.8525 29.789C12.8485 29.6716 12.7724 29.5874 12.701 29.5617C12.6299 29.5326 12.5775 29.5469 12.5745 29.5358C12.5696 29.5288 12.6228 29.4912 12.7166 29.5121C12.7618 29.5226 12.8145 29.5495 12.8556 29.5985C12.8963 29.6468 12.9227 29.7138 12.9261 29.7851C12.9364 29.9281 12.8465 30.0577 12.7484 30.0799C12.6514 30.1053 12.5991 30.0562 12.6067 30.0504Z" fill="#EB996E"/>
<path d="M12.6462 30.6471C12.7486 30.6471 12.8315 30.5643 12.8315 30.4622C12.8315 30.3601 12.7486 30.2773 12.6462 30.2773C12.5439 30.2773 12.4609 30.3601 12.4609 30.4622C12.4609 30.5643 12.5439 30.6471 12.6462 30.6471Z" fill="#E8505B"/>
<path d="M11.5547 25.3724C11.5535 25.3672 11.6405 25.342 11.7855 25.3462C11.9297 25.3496 12.1308 25.3932 12.3239 25.5039C12.5166 25.6153 12.6553 25.7676 12.7305 25.8907C12.8067 26.0141 12.8284 26.102 12.8231 26.1036C12.814 26.1075 12.7795 26.0261 12.6978 25.9128C12.6168 25.7993 12.4803 25.659 12.296 25.5523C12.1112 25.4465 11.9214 25.3989 11.7827 25.3855C11.6437 25.3715 11.5559 25.3823 11.5547 25.3724Z" fill="#E8505B"/>
<path d="M12.3038 25.3723C12.3018 25.3724 12.3001 25.3573 12.2988 25.3277C12.2991 25.2984 12.3039 25.2538 12.326 25.2014C12.3665 25.0964 12.4924 24.9642 12.6928 24.9171C12.8956 24.8618 13.1522 24.9658 13.3304 25.1621C13.4215 25.2596 13.4986 25.3777 13.5616 25.507C13.6247 25.6362 13.6762 25.7748 13.7306 25.9146C13.7849 26.0542 13.8412 26.1891 13.9125 26.3086C13.9841 26.4276 14.0716 26.5316 14.1707 26.6104C14.2695 26.6895 14.3813 26.7413 14.4918 26.7568C14.6019 26.7753 14.7073 26.7514 14.7946 26.7145C14.9708 26.635 15.0689 26.4998 15.1141 26.4037C15.1581 26.3044 15.1604 26.2417 15.1664 26.2427C15.1683 26.2429 15.168 26.2581 15.1655 26.2874C15.1626 26.3166 15.1536 26.3595 15.134 26.4123C15.0931 26.5149 14.9961 26.661 14.8109 26.7505C14.7192 26.7922 14.6055 26.8206 14.4853 26.8027C14.3655 26.7881 14.2442 26.7335 14.1389 26.651C14.033 26.5687 13.9407 26.4605 13.8656 26.3369C13.7907 26.2128 13.7332 26.0754 13.6785 25.935C13.5721 25.6541 13.469 25.3848 13.2925 25.1972C13.1235 25.0083 12.8889 24.9097 12.7009 24.9559C12.5126 24.9951 12.3894 25.1144 12.3456 25.2105C12.2983 25.3078 12.3114 25.3733 12.3038 25.3723Z" fill="#455A64"/>
<path d="M9.62203 27.5613C9.6201 27.5615 9.61699 27.5481 9.61291 27.5223C9.6098 27.4965 9.60123 27.4584 9.59983 27.4086C9.59125 27.3094 9.59425 27.1637 9.6261 26.9877C9.6572 26.8117 9.7269 26.6071 9.84324 26.4005C9.96238 26.1963 10.1322 25.9903 10.3575 25.8327C10.5813 25.6739 10.8271 25.5751 11.0557 25.5177C11.2848 25.459 11.4995 25.444 11.6776 25.4541C11.856 25.4645 11.9983 25.496 12.0921 25.5296C12.14 25.5432 12.1743 25.5623 12.1986 25.5719C12.2224 25.5828 12.2345 25.5893 12.2336 25.591C12.2302 25.6041 12.0283 25.5019 11.6761 25.4936C11.5015 25.4886 11.2919 25.5074 11.0687 25.5675C10.8458 25.6262 10.6067 25.7243 10.3899 25.8782C10.1719 26.0307 10.0061 26.2291 9.88774 26.4264C9.77215 26.626 9.7002 26.824 9.66481 26.9953C9.59211 27.3399 9.63586 27.5613 9.62203 27.5613Z" fill="#455A64"/>
<path d="M10.5185 27.4638C10.5151 27.4637 10.5121 27.4244 10.5146 27.3533C10.517 27.2823 10.528 27.1793 10.5559 27.0547C10.6099 26.8069 10.7495 26.4685 11.017 26.1802C11.2847 25.8918 11.6113 25.7273 11.8541 25.6547C11.976 25.6175 12.0776 25.5987 12.1483 25.5907C12.219 25.5827 12.2583 25.5828 12.2586 25.5861C12.2602 25.5966 12.1029 25.6095 11.8665 25.6922C11.6314 25.7729 11.3176 25.9385 11.058 26.2182C10.7985 26.4979 10.657 26.8235 10.5943 27.0642C10.5298 27.3065 10.5291 27.4645 10.5185 27.4638Z" fill="#455A64"/>
<path d="M10.2707 35.8456C9.9605 34.8938 9.20174 33.9245 8.36813 34.2742C7.44026 34.6634 7.18238 35.1567 6.67389 35.9211C6.1654 36.6855 5.85347 37.5602 5.54647 38.4252C5.42637 38.7635 5.31045 39.1559 5.49468 39.4643C5.65348 39.7301 5.98043 39.8352 6.28003 39.9149C7.05273 40.1207 7.83337 40.2969 8.61948 40.4432C8.93484 40.5019 9.28087 40.5511 9.55978 40.3928C9.91407 40.1916 10.0221 39.7413 10.0958 39.3412C10.3548 37.9368 10.6137 36.5325 10.8726 35.1282" fill="#E8505B"/>
<path d="M9.38128 33.8196L8.16068 34.3464C7.54378 34.8326 7.36932 35.6654 7.39033 36.4498L6.88281 45.051C6.88281 45.051 10.4429 47.2536 14.6031 44.9502C14.7115 44.8902 13.9065 42.923 13.9065 42.923L15.0396 38.6279C15.1269 38.0103 15.1802 36.73 15.0192 36.1223C14.6062 34.5636 13.5018 34.0974 12.3675 33.7852C12.3675 33.7852 11.2327 34.7383 10.1256 34.5374C10.1256 34.5374 9.45023 34.4747 9.38128 33.8196Z" fill="#E8505B"/>
<g opacity="0.2">
<path d="M7.74219 40.9802C8.44637 42.0016 9.15055 43.023 9.85473 44.0444C10.1301 44.4438 10.4163 44.8539 10.8248 45.1151C11.4186 45.4949 12.2366 45.4864 12.8226 45.0945C13.4083 44.7026 13.7291 43.9493 13.6058 43.255C13.5912 43.1726 13.5689 43.0874 13.5119 43.0264C13.424 42.9319 13.2748 42.9206 13.1512 42.9572C13.0276 42.9938 12.9198 43.0695 12.8058 43.13C12.1426 43.4824 11.3002 43.2931 10.6779 42.8724C10.0557 42.4518 9.59888 41.8348 9.12246 41.2539C8.94628 41.039 8.7538 40.8191 8.49312 40.7231C8.23245 40.6272 7.88641 40.7056 7.77597 40.9607" fill="black"/>
</g>
<path d="M11.2996 36.7649C11.7024 36.7649 12.0289 36.4389 12.0289 36.0367C12.0289 35.6346 11.7024 35.3086 11.2996 35.3086C10.8968 35.3086 10.5703 35.6346 10.5703 36.0367C10.5703 36.4389 10.8968 36.7649 11.2996 36.7649Z" fill="white"/>
<path d="M7.90039 35.4156C7.90039 35.8177 8.22691 36.1438 8.62966 36.1438C9.03242 36.1438 9.35894 35.8178 9.35894 35.4156C9.35894 35.0136 9.03242 34.6875 8.62966 34.6875C8.22691 34.6875 7.90039 35.0135 7.90039 35.4156Z" fill="white"/>
<path d="M7.3125 42.3863C7.3125 42.7884 7.63902 43.1145 8.04177 43.1145C8.44453 43.1145 8.77105 42.7885 8.77105 42.3863C8.77105 41.9843 8.44453 41.6582 8.04177 41.6582C7.63902 41.6583 7.3125 41.9843 7.3125 42.3863Z" fill="white"/>
<path d="M9.35623 45.2102C9.75899 45.2102 10.0855 44.8842 10.0855 44.482C10.0855 44.0799 9.75899 43.7539 9.35623 43.7539C8.95346 43.7539 8.62695 44.0799 8.62695 44.482C8.62695 44.8842 8.95346 45.2102 9.35623 45.2102Z" fill="white"/>
<path d="M12.7586 45.3879C13.1613 45.3879 13.4878 45.0619 13.4878 44.6598C13.4878 44.2576 13.1613 43.9316 12.7586 43.9316C12.3558 43.9316 12.0293 44.2576 12.0293 44.6598C12.0293 45.0619 12.3558 45.3879 12.7586 45.3879Z" fill="white"/>
<path d="M9.87966 40.9055C10.2824 40.9055 10.6089 40.5795 10.6089 40.1774C10.6089 39.7752 10.2824 39.4492 9.87966 39.4492C9.4769 39.4492 9.15039 39.7752 9.15039 40.1774C9.15039 40.5795 9.4769 40.9055 9.87966 40.9055Z" fill="white"/>
<path d="M9.1492 38.6086C9.55196 38.6086 9.87847 38.2826 9.87847 37.8805C9.87847 37.4783 9.55196 37.1523 9.1492 37.1523C8.74643 37.1523 8.41992 37.4783 8.41992 37.8805C8.41992 38.2826 8.74643 38.6086 9.1492 38.6086Z" fill="white"/>
<path d="M9.14881 33.9964C9.16179 33.9868 9.23899 34.2194 9.52466 34.459C9.66502 34.5785 9.85879 34.6895 10.0903 34.7658C10.3219 34.8406 10.5929 34.8761 10.8722 34.8453C11.1519 34.8113 11.4099 34.7246 11.6289 34.6162C11.849 34.5085 12.0326 34.3834 12.1788 34.2691C12.3253 34.1547 12.4367 34.0529 12.512 33.9808C12.5874 33.9089 12.6287 33.8683 12.6319 33.8712C12.6344 33.8735 12.5985 33.9191 12.5274 33.9962C12.4564 34.0733 12.3484 34.1803 12.2034 34.2999C12.0586 34.4195 11.8747 34.5499 11.6517 34.6623C11.4297 34.7752 11.1658 34.8659 10.8784 34.9008C10.5901 34.9326 10.3112 34.8942 10.0739 34.8147C9.8368 34.7336 9.63961 34.6156 9.49881 34.489C9.35727 34.3631 9.26548 34.2379 9.21573 34.1451C9.18742 34.1006 9.17476 34.0609 9.16254 34.0363C9.15182 34.0109 9.14699 33.9972 9.14881 33.9964Z" fill="#263238"/>
<path d="M12.8239 33.9453C13.6578 34.2942 14.5257 34.6679 15.1018 35.3637C15.6872 36.0711 15.8912 37.0323 15.8485 37.9489C15.8059 38.8655 15.5394 39.7551 15.2747 40.6338C15.1712 40.9776 15.0323 41.3625 14.7011 41.5024C14.4156 41.623 14.0897 41.5148 13.8008 41.4023C13.0558 41.1121 12.3219 40.7936 11.6012 40.4475C11.3121 40.3087 11.0039 40.1441 10.8728 39.8518C10.7062 39.4805 10.8859 39.0536 11.0634 38.6873C11.6863 37.4019 12.309 36.1165 12.932 34.8311" fill="#E8505B"/>
<path d="M14.6043 39.1223C15.007 39.1223 15.3335 38.7963 15.3335 38.3941C15.3335 37.992 15.007 37.666 14.6043 37.666C14.2015 37.666 13.875 37.992 13.875 38.3941C13.875 38.7963 14.2015 39.1223 14.6043 39.1223Z" fill="white"/>
<path d="M12.6707 40.4524C13.0734 40.4524 13.4 40.1264 13.4 39.7242C13.4 39.3221 13.0734 38.9961 12.6707 38.9961C12.2679 38.9961 11.9414 39.3221 11.9414 39.7242C11.9414 40.1264 12.2679 40.4524 12.6707 40.4524Z" fill="white"/>
<path d="M12.8633 36.1495C12.8633 36.5437 13.1835 36.8634 13.5784 36.8634C13.9733 36.8634 14.2935 36.5437 14.2935 36.1495C14.2935 35.7552 13.9733 35.4355 13.5784 35.4355C13.1834 35.4357 12.8633 35.7553 12.8633 36.1495Z" fill="white"/>
<path d="M11.3826 40.336L11.1966 41.0528L7.49109 38.3493L6.35637 36.7351C6.20454 36.5191 5.97495 36.3703 5.71556 36.3197C5.44041 36.2661 5.15529 36.3276 4.92678 36.4897L3.87109 37.2395C3.87109 37.2395 3.89962 37.8087 4.15611 37.6948C4.41261 37.5811 4.92571 37.2964 4.92571 37.2964L5.06821 38.6623L5.6953 39.1176L6.32238 39.6014L10.5064 43.7586C11.4078 44.6543 12.9229 44.407 13.4917 43.2713L14.1117 41.5093L11.3826 40.336Z" fill="#FFBE9D"/>
<path d="M11.1018 40.952C11.1041 40.9464 11.1735 40.969 11.2574 41.0478C11.3417 41.1251 11.4303 41.263 11.4741 41.432C11.5178 41.6007 11.5181 41.7579 11.5143 41.869C11.5096 41.9806 11.5002 42.0489 11.4928 42.0488C11.4847 42.0487 11.4802 41.9797 11.4748 41.8692C11.4685 41.7591 11.4617 41.6064 11.4201 41.4461C11.3784 41.2863 11.3013 41.1549 11.229 41.0752C11.1575 40.9944 11.0971 40.9599 11.1018 40.952Z" fill="#EB996E"/>
<path d="M4.92105 37.3698C4.91504 37.3658 4.93295 37.3222 4.9767 37.2591C5.02002 37.198 5.09401 37.1108 5.21186 37.069C5.33346 37.0283 5.45248 37.0703 5.51071 37.1265C5.5714 37.1848 5.56915 37.2422 5.56347 37.2414C5.55446 37.2445 5.54191 37.1972 5.4854 37.1568C5.43125 37.1169 5.32885 37.0883 5.22998 37.1218C5.12951 37.1569 5.05691 37.2306 5.00737 37.2838C4.95772 37.3381 4.9278 37.3744 4.92105 37.3698Z" fill="#EB996E"/>
<path d="M5.58128 37.7316C5.57495 37.7373 5.54685 37.7118 5.49603 37.6834C5.44574 37.655 5.3695 37.626 5.28285 37.6262C5.19621 37.6266 5.12018 37.6563 5.07011 37.6852C5.01949 37.7139 4.99161 37.7395 4.98529 37.7339C4.97993 37.7298 4.99783 37.6933 5.04791 37.6526C5.09692 37.6121 5.18195 37.5709 5.28275 37.5703C5.38354 37.57 5.46879 37.6105 5.51812 37.6506C5.56841 37.6911 5.58664 37.7274 5.58128 37.7316Z" fill="#EB996E"/>
<path d="M11.3798 40.3374C11.3798 40.3374 11.3538 40.3378 11.3086 40.3203C11.264 40.3033 11.1988 40.2666 11.1413 40.1935C11.0839 40.1213 11.0343 40.0149 11.0195 39.8838C11.0039 39.7519 11.0364 39.6012 11.0982 39.4502C11.159 39.2979 11.2504 39.1447 11.3281 38.9728C11.4077 38.8013 11.4766 38.6108 11.5402 38.4075C11.6672 38.0004 11.7588 37.539 11.887 37.0607C12.0154 36.5833 12.1848 36.134 12.4283 35.7755C12.6661 35.4134 12.984 35.1625 13.2797 35.0262C13.5769 34.8862 13.8493 34.8615 14.0298 34.8739C14.212 34.8873 14.3064 34.9265 14.3064 34.9265C14.305 34.9334 14.2082 34.9022 14.0288 34.8957C13.8509 34.8901 13.5854 34.9204 13.2968 35.062C13.0089 35.2005 12.7022 35.4474 12.4711 35.8042C12.2346 36.1573 12.0686 36.6007 11.941 37.0754C11.8135 37.5508 11.7201 38.0134 11.5895 38.4229C11.5239 38.6274 11.4526 38.8194 11.3702 38.9923C11.2891 39.1663 11.1964 39.3175 11.1348 39.4653C11.0721 39.6119 11.0388 39.7557 11.0507 39.8807C11.062 40.006 11.1065 40.1093 11.1588 40.1801C11.2111 40.2521 11.2714 40.2901 11.3132 40.3099C11.3554 40.3303 11.3806 40.3341 11.3798 40.3374Z" fill="#263238"/>
<path d="M7.26883 38.0044C7.2535 38.0025 7.29467 37.5858 7.36062 37.0739C7.42657 36.5618 7.49251 36.1485 7.50785 36.1504C7.52318 36.1523 7.482 36.569 7.41606 37.0811C7.35 37.5929 7.28406 38.0064 7.26883 38.0044Z" fill="#263238"/>
<path d="M5.605 39.5973L5.40823 41.1471L3.04724 39.1328L1.75586 39.4449C1.75586 39.4449 3.08734 42.2434 4.13916 43.3518C5.19099 44.4602 5.75823 44.6177 6.15509 44.6351C6.70079 44.6591 6.9501 43.9939 6.9501 43.9939L7.18783 40.1419L5.605 39.5973Z" fill="#FFBE9D"/>
<path d="M5.41614 41.1056C5.42933 41.0992 5.5208 41.2662 5.58256 41.4914C5.64518 41.7164 5.65248 41.9066 5.63789 41.9078C5.62181 41.9097 5.59018 41.7262 5.52873 41.5063C5.46836 41.286 5.40134 41.1123 5.41614 41.1056Z" fill="#EB996E"/>
<path d="M2.81888 35.2031H1.04153C0.772601 35.2031 0.532619 35.5151 0.629233 35.7702L2.41655 39.2548C2.48561 39.3898 2.62468 39.4747 2.77652 39.4747L4.94333 39.4701C5.19178 39.4366 5.2825 39.1606 5.17945 39.0109L3.45486 35.5994C3.33616 35.3569 3.08942 35.2031 2.81888 35.2031Z" fill="#455A64"/>
<path d="M2.69882 35.4121H0.92148C0.698762 35.4121 0.554752 35.6471 0.656085 35.8451L2.40094 39.2539C2.46999 39.3889 2.60907 39.4738 2.76091 39.4738H4.90295C5.03355 39.4738 5.11826 39.3363 5.05939 39.22L3.33481 35.8085C3.2161 35.5659 2.96926 35.4121 2.69882 35.4121Z" fill="#263238"/>
<path d="M2.54979 36.8438L1.46816 37.2763L1.23633 38.1487L1.75736 39.4473L3.66874 39.7256L3.10889 39.153L3.18095 38.6544C3.18095 38.6544 3.71421 38.487 3.7274 38.4054C3.74059 38.3237 3.66124 38.0498 3.57942 38.0367C3.4976 38.0236 2.93829 38.232 2.93829 38.232C2.93829 38.232 3.60033 37.7074 3.58178 37.6232C3.56323 37.5389 3.49213 37.3234 3.36013 37.2996C3.22813 37.2757 2.1598 37.7796 2.1598 37.7796L1.9863 38.1754L1.835 37.5424C1.8351 37.5422 2.78431 37.2758 2.54979 36.8438Z" fill="#FFBE9D"/>
<path d="M2.68587 38.8849C2.67944 38.8869 2.65917 38.8474 2.6492 38.7772C2.6389 38.7074 2.64394 38.6066 2.68158 38.5042C2.71965 38.4019 2.78152 38.3221 2.83471 38.2759C2.888 38.229 2.92907 38.2122 2.93261 38.2179C2.94322 38.2307 2.80243 38.3322 2.73391 38.5237C2.66121 38.7135 2.70228 38.8821 2.68587 38.8849Z" fill="#EB996E"/>
<path d="M2.17062 38.6974C2.16429 38.6941 2.20268 38.5919 2.21351 38.4137C2.22188 38.3255 2.22692 38.2161 2.26799 38.0995C2.28868 38.0419 2.31935 37.982 2.3676 37.9319C2.41575 37.8811 2.47966 37.8465 2.54432 37.8207C2.80296 37.7268 3.03586 37.6508 3.20636 37.5956C3.37653 37.5413 3.48312 37.5114 3.4857 37.5187C3.48827 37.526 3.38629 37.5691 3.21944 37.633C3.05334 37.6973 2.81904 37.7804 2.56523 37.8725C2.50379 37.8971 2.44813 37.9276 2.40685 37.9701C2.36503 38.0124 2.33661 38.0649 2.31624 38.1175C2.27571 38.2238 2.26606 38.3298 2.25276 38.4183C2.23174 38.598 2.17802 38.702 2.17062 38.6974Z" fill="#EB996E"/>
<path d="M1.92373 38.5034C1.9085 38.501 1.91161 38.4054 1.93059 38.2902C1.94957 38.1749 1.97735 38.0835 1.99257 38.086C2.0078 38.0885 2.00469 38.184 1.98571 38.2993C1.96673 38.4145 1.93896 38.506 1.92373 38.5034Z" fill="#EB996E"/>
<path d="M1.89258 36.0722C1.89258 36.1972 1.99391 36.2986 2.11905 36.2986C2.24408 36.2986 2.34552 36.1973 2.34552 36.0722C2.34552 35.9471 2.24419 35.8457 2.11905 35.8457C1.99391 35.8458 1.89258 35.9471 1.89258 36.0722Z" fill="#FAFAFA"/>
<path d="M6.32237 39.5978C6.32409 39.596 6.34703 39.6143 6.38842 39.6503C6.43518 39.6921 6.49405 39.7448 6.56557 39.809C6.72298 39.9547 6.93616 40.1518 7.18965 40.3864L7.19791 40.3942L7.19694 40.4061C7.16885 40.7675 7.13571 41.1925 7.10033 41.647C7.05143 42.3128 7.01315 42.9159 6.99181 43.3526C6.98227 43.5641 6.97444 43.7386 6.96854 43.87C6.96404 43.9921 6.95964 44.0598 6.95578 44.0598C6.95192 44.0598 6.94892 43.9922 6.94677 43.8698C6.94516 43.7473 6.94602 43.5701 6.95224 43.3512C6.9635 42.9134 6.99556 42.3094 7.04457 41.6431C7.07813 41.1867 7.11459 40.7605 7.14922 40.4019L7.15662 40.4214C6.90871 40.181 6.70025 39.9788 6.54627 39.8295C6.47828 39.7615 6.42252 39.7055 6.37813 39.6612C6.34017 39.6215 6.32065 39.5997 6.32237 39.5978Z" fill="#EB996E"/>
<path d="M24.241 12.3116L20.4296 10.4193C19.1517 7.631 16.34 5.69336 13.0745 5.69336C8.6064 5.69336 4.98438 9.31889 4.98438 13.7911C4.98438 18.2634 8.6064 21.8889 13.0745 21.8889C17.4299 21.8889 20.9797 18.4437 21.1561 14.1276L24.241 12.3116Z" fill="#E0E0E0"/>
<path d="M20.3891 4.98166C20.3891 5.09779 20.2949 5.19183 20.1789 5.19183C20.0628 5.19183 19.9688 5.09768 19.9688 4.98166C19.9688 4.86563 20.0629 4.77148 20.1789 4.77148C20.2949 4.77138 20.3891 4.86553 20.3891 4.98166Z" fill="#263238"/>
<path d="M21.2289 4.98166C21.2289 5.09779 21.1348 5.19183 21.0188 5.19183C20.9027 5.19183 20.8086 5.09768 20.8086 4.98166C20.8086 4.86563 20.9027 4.77148 21.0188 4.77148C21.1349 4.77138 21.2289 4.86553 21.2289 4.98166Z" fill="#263238"/>
<path d="M22.0681 4.87662C22.1261 4.9772 22.0917 5.10567 21.9912 5.16378C21.8906 5.2218 21.7621 5.18738 21.704 5.0869C21.6459 4.98643 21.6804 4.85786 21.7809 4.79974C21.8815 4.74162 22.01 4.77604 22.0681 4.87662Z" fill="#263238"/>
<path d="M21.0345 2.52833C21.0345 2.52736 21.0489 2.52715 21.077 2.52758C21.1079 2.52844 21.1491 2.52962 21.2019 2.53112C21.2293 2.53241 21.2602 2.53241 21.294 2.5352C21.3278 2.53992 21.3646 2.54507 21.4041 2.55065C21.4441 2.55634 21.487 2.56257 21.5327 2.56912C21.5778 2.58028 21.6257 2.59219 21.6763 2.60475C21.8781 2.6567 22.1226 2.74546 22.3725 2.9086C22.6223 3.06906 22.8819 3.29864 23.0926 3.61055C23.2993 3.92288 23.4589 4.31582 23.501 4.75705C23.5051 4.8675 23.5185 4.97987 23.5078 5.09397C23.5038 5.15096 23.505 5.20892 23.4966 5.26634C23.4879 5.32376 23.4793 5.38161 23.4705 5.43989C23.4235 5.67012 23.355 5.90592 23.2365 6.12563C23.1207 6.34576 22.9714 6.55538 22.789 6.74192C22.6031 6.92471 22.3859 7.08323 22.1443 7.20548C21.9034 7.3287 21.6364 7.41381 21.3584 7.44687C21.2896 7.4605 21.2192 7.4605 21.1489 7.46469C21.0786 7.4693 21.0079 7.47188 20.937 7.46855C20.7953 7.46276 20.6531 7.44494 20.5126 7.41489C20.2074 7.34984 19.9201 7.22545 19.6677 7.05898L19.6934 7.06155C19.4005 7.17919 19.1133 7.29457 18.8327 7.40727L18.7818 7.42777L18.7964 7.37485C18.8832 7.05876 18.9676 6.75137 19.0493 6.45395L19.0537 6.47671C18.8123 6.15547 18.6583 5.78861 18.5945 5.42444C18.5625 5.24251 18.5489 5.0608 18.561 4.88531C18.5648 4.79741 18.569 4.71069 18.5855 4.62643C18.592 4.58414 18.5986 4.54218 18.605 4.50043C18.6127 4.459 18.6253 4.41885 18.6351 4.3785C18.8013 3.73033 19.2002 3.25152 19.5953 2.97751C19.793 2.83809 19.988 2.73816 20.1667 2.6758C20.2112 2.65992 20.2541 2.64446 20.2954 2.62965C20.3377 2.61892 20.3785 2.60851 20.4175 2.59863C20.4564 2.58897 20.4937 2.57974 20.5292 2.57094C20.5651 2.56407 20.5997 2.56031 20.6322 2.55538C20.6973 2.54711 20.7544 2.53584 20.8045 2.53337C20.8538 2.53166 20.8959 2.53026 20.9309 2.52908C20.963 2.52833 20.9884 2.52779 21.0081 2.52736C21.0257 2.52726 21.0345 2.52758 21.0345 2.52833C21.0345 2.52908 21.0257 2.53026 21.0084 2.53187C20.9888 2.53337 20.9634 2.53541 20.9316 2.53799C20.8967 2.54035 20.8549 2.54314 20.8059 2.54647C20.7561 2.55033 20.6996 2.56289 20.6352 2.57244C20.3819 2.61892 20.0022 2.72002 19.6143 3.00391C19.227 3.27804 18.8383 3.75222 18.6783 4.38945C18.6689 4.42916 18.6567 4.46855 18.6494 4.50933C18.6433 4.55033 18.637 4.59155 18.6308 4.63309C18.615 4.71584 18.6113 4.80095 18.608 4.88735C18.5968 5.05962 18.6109 5.23768 18.6428 5.41585C18.7066 5.77251 18.8585 6.13121 19.0958 6.44526L19.1035 6.45556L19.1001 6.46812C19.019 6.76564 18.9351 7.07325 18.8489 7.38956L18.8126 7.35714C19.0929 7.24412 19.38 7.12842 19.6728 7.01046L19.6863 7.00499L19.6985 7.01304C19.9454 7.17565 20.2262 7.29704 20.5245 7.36058C20.6618 7.38999 20.8007 7.40737 20.9393 7.41306C21.0087 7.41628 21.0777 7.41381 21.1465 7.40931C21.2152 7.40523 21.2841 7.40544 21.3514 7.39203C21.6231 7.35993 21.8841 7.27697 22.1199 7.15676C22.3563 7.03762 22.5691 6.88285 22.7514 6.70436C22.9302 6.52211 23.0768 6.31732 23.1909 6.10212C23.3077 5.88736 23.3752 5.65659 23.4223 5.43109C23.4311 5.37399 23.4399 5.31732 23.4486 5.26108C23.4569 5.20473 23.456 5.14795 23.4602 5.09203C23.4712 4.98009 23.4584 4.86975 23.4549 4.76135C23.4154 4.32816 23.261 3.94134 23.0598 3.63255C22.8545 3.32419 22.6006 3.0959 22.3556 2.9349C22.1105 2.77133 21.8698 2.68052 21.6707 2.62579C21.6207 2.61248 21.5733 2.59981 21.5288 2.58801C21.4836 2.5806 21.4411 2.57362 21.4017 2.56708C21.3624 2.56064 21.326 2.55463 21.2925 2.54904C21.259 2.54529 21.2284 2.54443 21.2011 2.54228C21.1487 2.53842 21.1076 2.53541 21.0769 2.53327C21.049 2.53091 21.0346 2.5293 21.0345 2.52833Z" fill="#263238"/>
<path d="M17.9731 12.9277C17.9885 12.9279 17.9892 13.6884 17.9746 14.626C17.96 15.564 17.9357 16.3239 17.9202 16.3236C17.9048 16.3234 17.9041 15.563 17.9187 14.6251C17.9333 13.6875 17.9577 12.9274 17.9731 12.9277Z" fill="#263238"/>
<path d="M14.8591 8.91052C14.861 8.91073 14.8598 8.93005 14.8557 8.96665C14.8529 9.00357 14.8435 9.05703 14.8288 9.12572C14.7986 9.26235 14.7335 9.45801 14.6032 9.67407C14.4714 9.88755 14.2698 10.121 13.9848 10.2977C13.7021 10.4764 13.3339 10.5805 12.9482 10.5707C12.5624 10.5586 12.2007 10.4338 11.9285 10.2393C11.6538 10.0467 11.4658 9.80212 11.3463 9.58155C11.2284 9.35841 11.1746 9.15953 11.1521 9.02128C11.1414 8.95195 11.1351 8.89796 11.1343 8.86093C11.1324 8.82412 11.1323 8.8048 11.1342 8.80469C11.1402 8.80415 11.1444 8.88154 11.1735 9.0171C11.2022 9.15244 11.261 9.34617 11.3809 9.56245C11.5023 9.77625 11.6893 10.0122 11.9577 10.1969C12.2236 10.3834 12.5747 10.503 12.9497 10.5148C13.3247 10.5241 13.682 10.4247 13.9579 10.2537C14.2364 10.0844 14.4364 9.85954 14.5697 9.65303C14.7015 9.44395 14.7714 9.25376 14.8077 9.12035C14.8445 8.98662 14.8531 8.90966 14.8591 8.91052Z" fill="#263238"/>
<path d="M8.31425 13.1562C8.32969 13.1562 8.34256 13.8977 8.34299 14.8123C8.34342 15.727 8.3313 16.4684 8.31586 16.4684C8.30042 16.4684 8.28755 15.727 8.28712 14.8123C8.28669 13.8977 8.29881 13.1562 8.31425 13.1562Z" fill="#263238"/>
<path d="M11.4805 8.60938L14.6656 8.61077C14.6656 8.61077 17.5451 9.63492 18.4813 10.3533C19.4175 11.0717 20.853 16.1319 20.853 16.1319L17.9771 16.0469L17.7612 20.3931C14.8154 22.4928 11.2805 22.3395 8.54989 20.501L8.33672 16.3868C8.33672 16.3868 6.75067 16.3401 5.94108 16.3163C5.13149 16.2924 5.09375 16.0695 5.09375 16.0695C5.09375 16.0695 6.9349 11.228 7.49668 10.2909C7.98608 9.47414 10.8326 8.74483 11.4805 8.60938Z" fill="#263238"/>
<path d="M19.1417 11.5137C19.1417 11.5137 19.1058 11.5421 19.0278 11.5799C18.9505 11.6183 18.8282 11.6634 18.6638 11.6805C18.4999 11.699 18.2953 11.6881 18.068 11.6326C17.8395 11.58 17.5922 11.4765 17.3285 11.3499C17.0638 11.2264 16.7779 11.0773 16.4479 10.9895C16.119 10.9007 15.7453 10.9054 15.3743 11.0028C15.0021 11.0976 14.6333 11.2707 14.2656 11.4723C13.8979 11.6747 13.5248 11.9043 13.1148 12.088C12.7065 12.2707 12.2696 12.3916 11.8415 12.3702C11.4142 12.3522 11.0184 12.2211 10.6628 12.0684C10.3055 11.9147 9.98356 11.735 9.67688 11.5803C9.37085 11.4242 9.07993 11.2906 8.80285 11.2004C8.2489 11.0155 7.75982 11.0278 7.44649 11.1103C7.28865 11.1498 7.17177 11.2001 7.0951 11.2385C7.05628 11.2569 7.02861 11.2746 7.00878 11.2843C6.98926 11.2948 6.97907 11.2997 6.97854 11.2988C6.978 11.298 6.98722 11.2914 7.00588 11.2794C7.02475 11.268 7.05167 11.2485 7.08995 11.2284C7.16544 11.1866 7.28221 11.1324 7.44113 11.0891C7.75649 10.9991 8.25286 10.9804 8.81497 11.1627C9.0957 11.2514 9.38994 11.3842 9.69769 11.5387C10.0061 11.6921 10.3283 11.8699 10.6829 12.0209C11.0361 12.1711 11.4266 12.2985 11.8437 12.3154C12.261 12.3355 12.688 12.2176 13.0921 12.0368C13.4977 11.8551 13.8695 11.6269 14.2393 11.4241C14.6093 11.2222 14.9824 11.0479 15.3616 10.9527C15.7392 10.8547 16.1238 10.8516 16.4597 10.9445C16.796 11.0363 17.0822 11.1886 17.3455 11.3141C17.6079 11.4428 17.8505 11.5473 18.0754 11.602C18.2991 11.6597 18.5001 11.6734 18.6616 11.6586C18.8236 11.6451 18.9451 11.6041 19.0231 11.5694C19.1017 11.5356 19.1401 11.5108 19.1417 11.5137Z" fill="#FAFAFA"/>
<path d="M20.1847 13.9377C20.1827 13.9412 20.1392 13.9103 20.0478 13.8694C19.9567 13.8289 19.8167 13.776 19.6278 13.7548C19.4398 13.7312 19.204 13.7411 18.9423 13.8056C18.6803 13.8694 18.3975 13.9972 18.103 14.1674C17.8071 14.336 17.5002 14.5509 17.1477 14.7477C16.7973 14.9399 16.3885 15.1248 15.9268 15.135C15.4656 15.1521 15.0004 14.9908 14.5529 14.7923C14.1026 14.5957 13.6489 14.3566 13.1441 14.24C12.6386 14.1264 12.1241 14.156 11.6432 14.2379C11.1601 14.3189 10.7046 14.451 10.2678 14.5662C9.8314 14.6823 9.41159 14.7826 9.01066 14.8301C8.61037 14.8777 8.22991 14.8751 7.8916 14.8089C7.21208 14.6762 6.73652 14.3237 6.50136 14.0238C6.37804 13.8753 6.31564 13.7375 6.27189 13.6472C6.25537 13.602 6.24229 13.5663 6.23243 13.5393C6.22385 13.515 6.21988 13.5024 6.22085 13.5021C6.23135 13.496 6.27543 13.7142 6.51809 14.0101C6.7555 14.302 7.22785 14.6441 7.899 14.7702C8.23238 14.8328 8.60865 14.8333 9.00498 14.7841C9.40205 14.7352 9.81907 14.6339 10.2545 14.5165C10.6902 14.4001 11.147 14.2663 11.6341 14.184C12.1187 14.1008 12.6407 14.0698 13.1564 14.1855C13.6711 14.3047 14.1269 14.5461 14.575 14.7422C15.0204 14.9406 15.4768 15.0989 15.9254 15.0835C16.3741 15.0753 16.7767 14.8961 17.1254 14.707C17.4757 14.5138 17.7845 14.3005 18.0834 14.133C18.381 13.9638 18.668 13.8369 18.9348 13.7751C19.2009 13.7126 19.4401 13.7059 19.6303 13.7332C19.8215 13.758 19.9622 13.8151 20.0524 13.8592C20.1433 13.9038 20.1847 13.9377 20.1847 13.9377Z" fill="#FAFAFA"/>
<path d="M17.8807 17.9148C17.8807 17.9148 17.8522 17.9356 17.7897 17.9586C17.7277 17.9819 17.6304 18.0052 17.5036 18.0039C17.377 18.0026 17.2224 17.9752 17.0547 17.9111C16.8865 17.8479 16.7085 17.748 16.5102 17.6462C16.3126 17.5436 16.0855 17.4512 15.8266 17.415C15.5691 17.3757 15.2873 17.3814 14.9974 17.4274C14.4131 17.5148 13.8158 17.7841 13.1767 18.0251C12.8563 18.1454 12.5343 18.2441 12.2161 18.3046C11.8984 18.3667 11.587 18.3985 11.29 18.4079C10.6949 18.4244 10.1609 18.3434 9.72615 18.2324C9.29037 18.1222 8.95388 17.9791 8.72891 17.8691C8.6146 17.8174 8.53107 17.7667 8.47306 17.7355C8.44689 17.7204 8.42545 17.7082 8.40797 17.6982C8.39349 17.6895 8.38631 17.6847 8.38674 17.6838C8.38717 17.683 8.39532 17.6862 8.41076 17.6932C8.42899 17.7019 8.45118 17.7125 8.47842 17.7255C8.53804 17.7535 8.62286 17.8008 8.73824 17.8493C8.96514 17.9528 9.30195 18.0894 9.73591 18.194C10.1688 18.2993 10.6989 18.3755 11.2886 18.3564C11.583 18.3456 11.8912 18.3131 12.2056 18.2509C12.5206 18.1901 12.8384 18.0923 13.1574 17.9727C13.7933 17.7331 14.3959 17.4625 14.9896 17.3764C15.284 17.3311 15.5711 17.327 15.8339 17.3691C16.0977 17.408 16.331 17.5054 16.5284 17.611C16.7268 17.7158 16.9018 17.8171 17.0662 17.8819C17.2297 17.9477 17.3806 17.9776 17.5042 17.9821C17.7548 17.9907 17.8792 17.9055 17.8807 17.9148Z" fill="#FAFAFA"/>
<path d="M17.7857 20.1669C17.7798 20.1721 17.7 20.0523 17.5027 19.8921C17.3059 19.7373 16.9737 19.5444 16.5206 19.5027C16.2962 19.4797 16.045 19.5035 15.7946 19.5891C15.5452 19.6797 15.3015 19.8316 15.0675 20.019C14.8326 20.2059 14.6031 20.4244 14.3477 20.6333C14.0933 20.841 13.8027 21.0383 13.4627 21.1407C13.1231 21.242 12.7717 21.2471 12.4445 21.2047C12.116 21.1633 11.8078 21.0793 11.5189 20.9909C10.9407 20.8143 10.4378 20.6032 10.0003 20.4802C9.56368 20.3537 9.19052 20.3275 8.94014 20.3694C8.689 20.4076 8.5614 20.4755 8.55861 20.4671C8.55818 20.4662 8.56612 20.4622 8.58188 20.4553C8.60086 20.4473 8.62413 20.4375 8.65254 20.4255C8.68332 20.4115 8.72267 20.3975 8.77071 20.3857C8.81811 20.3714 8.87312 20.3566 8.93681 20.3479C9.18945 20.2988 9.56947 20.3195 10.0108 20.442C10.4538 20.5615 10.9571 20.7685 11.534 20.9418C11.822 21.0283 12.1278 21.1104 12.4513 21.1505C12.7736 21.1915 13.1168 21.1856 13.4466 21.0872C13.7764 20.9879 14.0606 20.7961 14.3132 20.5908C14.5667 20.3846 14.7974 20.1664 15.0356 19.9786C15.2729 19.7904 15.5228 19.6364 15.7794 19.5454C16.0378 19.4592 16.2955 19.4374 16.5244 19.4634C16.9868 19.5113 17.3214 19.7133 17.5164 19.8752C17.712 20.0429 17.7857 20.1669 17.7857 20.1669Z" fill="#FAFAFA"/>
<g opacity="0.2">
<path d="M8.23242 19.7452C8.87891 19.7956 9.45474 19.3612 9.9346 18.9247C10.4145 18.4882 10.9162 18.0019 11.5581 17.9097C12.2307 17.8131 12.9144 18.1778 13.5808 18.0443C13.8807 17.9842 14.1604 17.8249 14.466 17.813C14.9698 17.7932 15.3922 18.1682 15.7547 18.5189C16.2261 18.9749 16.6975 19.431 17.1688 19.887C17.3131 20.0267 17.5883 20.2357 17.7692 20.1487L17.8042 19.4431C17.5783 18.1737 17.333 16.8684 16.3561 16.0279C15.631 15.404 14.6444 15.1896 13.6943 15.0813C12.5433 14.9501 11.2979 14.9651 10.3318 15.6047C9.68754 16.0313 9.23288 16.6997 8.935 17.413C8.63711 18.1264 8.4827 18.8901 8.33 19.648" fill="black"/>
</g>
<path d="M20.6149 16.126C20.6428 16.2933 21.1066 18.9746 21.0229 19.5046C20.9393 20.0346 20.8 20.7319 20.1869 20.983C19.5738 21.234 18.682 20.8992 18.1804 20.0346C17.6787 19.1698 15.5051 16.1295 15.5051 16.1295L13.8887 15.9342V13.2285L16.9821 15.1994L18.4033 16.4904L18.2947 16.0574L20.6149 16.126Z" fill="#EB996E"/>
<path d="M14.5861 16.9236H12.1459C11.9455 16.9236 11.7832 16.7611 11.7832 16.5606V12.154C11.7832 11.9535 11.9455 11.791 12.1459 11.791H14.5861C14.7864 11.791 14.9488 11.9535 14.9488 12.154V16.5606C14.9488 16.7611 14.7864 16.9236 14.5861 16.9236Z" fill="#455A64"/>
<path d="M16.8458 15.133C16.8561 15.1215 17.5285 15.7032 18.3475 16.4322C19.1667 17.1614 19.8224 17.7618 19.8121 17.7733C19.802 17.7848 19.1296 17.2032 18.3104 16.474C17.4913 15.745 16.8355 15.1445 16.8458 15.133Z" fill="#E07646"/>
<path d="M5.51277 16.2789C5.51277 16.2789 5.12695 19.612 5.12695 19.9917C5.12695 20.3714 5.46837 21.2826 6.41672 21.3586C7.36507 21.4345 8.57902 19.3082 8.57902 19.3082L10.5516 16.3085L9.6791 14.6758L7.97328 16.3783L5.51277 16.2789Z" fill="#EB996E"/>
<path d="M14.3188 13.7954L11.7641 13.7246L9.67761 14.6738L10.5501 16.3066L12.0768 16.0838C12.0768 16.0838 12.97 15.9383 13.0251 15.8834C13.128 15.7809 13.2175 15.4639 13.2791 15.1888C13.3417 14.9086 13.3104 14.6158 13.1891 14.3555L13.1316 14.3067C13.1316 14.3067 13.9724 14.1309 14.1119 14.0692C14.4469 13.9216 14.3188 13.7954 14.3188 13.7954Z" fill="#EB996E"/>
<path d="M9.6807 14.674C9.68349 14.6766 9.64799 14.7196 9.5813 14.7951C9.51481 14.8708 9.41605 14.978 9.29252 15.1091C9.04557 15.3713 8.6959 15.7252 8.30547 16.1114C7.91933 16.4946 7.57008 16.8411 7.30726 17.1018C7.18577 17.2233 7.08454 17.3245 7.00594 17.4031C6.93442 17.4739 6.89357 17.5119 6.89078 17.5092C6.88799 17.5065 6.92348 17.4636 6.99018 17.388C7.05666 17.3124 7.15542 17.2051 7.27895 17.0741C7.5259 16.8119 7.87569 16.4579 8.26612 16.0716C8.65214 15.6887 9.00129 15.3422 9.26411 15.0815C9.3856 14.96 9.48693 14.8587 9.56543 14.7802C9.63706 14.7093 9.67791 14.6713 9.6807 14.674Z" fill="#E07646"/>
<path d="M12.1937 14.5534C12.1837 14.544 12.3763 14.385 12.6709 14.328C12.9649 14.268 13.2037 14.3414 13.1981 14.3539C13.1956 14.3712 12.9622 14.3252 12.6818 14.3827C12.4008 14.4366 12.2026 14.5683 12.1937 14.5534Z" fill="#E07646"/>
<path d="M13.3468 14.8416C13.3414 14.858 13.1419 14.7787 12.8872 14.8038C12.6321 14.8248 12.45 14.9386 12.4419 14.9234C12.4312 14.9141 12.6106 14.7712 12.8821 14.7482C13.1533 14.7221 13.3556 14.8305 13.3468 14.8416Z" fill="#E07646"/>
<path d="M13.1829 15.3096C13.1771 15.3161 13.149 15.2974 13.1009 15.28C13.0529 15.2622 12.9827 15.2496 12.9058 15.2596C12.829 15.2703 12.7646 15.3011 12.7231 15.3309C12.6813 15.3604 12.6591 15.3861 12.6518 15.3812C12.6461 15.378 12.657 15.343 12.6975 15.301C12.7371 15.2591 12.81 15.2164 12.8984 15.2044C12.9869 15.1926 13.0684 15.2146 13.1177 15.2444C13.1677 15.274 13.1875 15.305 13.1829 15.3096Z" fill="#E07646"/>
<path d="M13.1576 10.2198C14.0044 10.1709 14.6635 9.46509 14.6558 8.6161C14.6512 8.10617 14.6452 7.66901 14.6452 7.66901C14.6452 7.66901 15.937 7.46798 15.953 6.17518C15.9689 4.88238 15.7451 1.91394 15.7451 1.91394C14.2499 1.27081 12.5243 1.48794 11.2346 2.48139L11.0432 2.62887L11.48 8.74447C11.542 9.61277 12.2894 10.2701 13.1576 10.2198Z" fill="#EB996E"/>
<path d="M14.6489 7.64849C14.6489 7.64849 13.8327 7.71487 12.9651 7.16992C12.9651 7.16992 13.3631 8.0994 14.6518 7.98305L14.6489 7.64849Z" fill="#E07646"/>
<path d="M11.2059 3.96456C11.1839 3.95501 10.3184 3.70181 10.3466 4.58568C10.3748 5.46944 11.2555 5.25886 11.2563 5.23342C11.2569 5.20799 11.2059 3.96456 11.2059 3.96456Z" fill="#EB996E"/>
<path d="M10.9755 4.90638C10.9716 4.9037 10.9605 4.91764 10.9349 4.9304C10.9099 4.94284 10.8666 4.95217 10.8199 4.9364C10.7256 4.9052 10.6423 4.75958 10.6329 4.60056C10.6281 4.52024 10.6425 4.44314 10.669 4.37891C10.6938 4.3135 10.7342 4.26696 10.7809 4.2571C10.8272 4.24477 10.8614 4.2719 10.873 4.29635C10.8857 4.32069 10.8806 4.33849 10.8854 4.33977C10.8879 4.34192 10.9038 4.32444 10.8955 4.2882C10.8914 4.27082 10.8803 4.25024 10.8591 4.23394C10.8373 4.21732 10.8059 4.2096 10.7733 4.21421C10.7054 4.22107 10.6461 4.28573 10.617 4.35629C10.5841 4.42727 10.5661 4.51392 10.5715 4.6041C10.5829 4.78178 10.6793 4.94541 10.808 4.97822C10.8707 4.99238 10.9219 4.97211 10.948 4.95034C10.9747 4.92772 10.9788 4.90788 10.9755 4.90638Z" fill="#E07646"/>
<path d="M15.3234 4.09063C15.3269 4.18799 15.2473 4.2712 15.1455 4.27667C15.0441 4.28214 14.9589 4.20783 14.9554 4.11036C14.952 4.01299 15.0316 3.92957 15.1331 3.9241C15.2348 3.91874 15.32 3.99326 15.3234 4.09063Z" fill="#263238"/>
<path d="M15.5006 3.73489C15.4778 3.75891 15.3381 3.65554 15.1396 3.65608C14.9413 3.65383 14.7957 3.75591 14.7742 3.73157C14.7636 3.72085 14.7869 3.67742 14.8503 3.6312C14.9127 3.5852 15.0192 3.54048 15.1428 3.54102C15.2665 3.54166 15.3705 3.58724 15.4302 3.63377C15.4912 3.68063 15.5118 3.72417 15.5006 3.73489Z" fill="#263238"/>
<path d="M13.3391 4.11592C13.3425 4.21329 13.2628 4.2965 13.1612 4.30197C13.0597 4.30744 12.9745 4.23302 12.9711 4.13565C12.9676 4.03829 13.0473 3.95486 13.1487 3.9495C13.2504 3.94403 13.3355 4.01856 13.3391 4.11592Z" fill="#263238"/>
<path d="M13.5496 3.772C13.5266 3.79602 13.3867 3.69265 13.1884 3.69319C12.9902 3.69083 12.8446 3.79302 12.823 3.76868C12.8125 3.75796 12.8355 3.71453 12.8992 3.66831C12.9616 3.62231 13.0681 3.57759 13.1918 3.57813C13.3154 3.57877 13.4194 3.62435 13.4792 3.67088C13.5399 3.71774 13.5607 3.76117 13.5496 3.772Z" fill="#263238"/>
<path d="M14.2749 5.2412C14.2739 5.22993 14.3973 5.20857 14.5972 5.18302C14.6479 5.17776 14.6959 5.16768 14.7044 5.13312C14.7163 5.09652 14.6952 5.04178 14.6706 4.98275C14.6229 4.85996 14.5731 4.73127 14.5207 4.59646C14.3125 4.0465 14.1619 3.59421 14.1841 3.58605C14.2063 3.57789 14.3929 4.01698 14.6011 4.56695C14.6512 4.70261 14.6991 4.83184 14.7447 4.95559C14.7638 5.01323 14.7969 5.07859 14.7709 5.15469C14.7573 5.19258 14.7201 5.22016 14.6876 5.22885C14.6551 5.23873 14.6266 5.23937 14.6015 5.24088C14.4004 5.25161 14.2756 5.25247 14.2749 5.2412Z" fill="#263238"/>
<path d="M13.6927 5.37502C13.725 5.3732 13.7254 5.58862 13.9097 5.74153C14.0939 5.89498 14.3234 5.87075 14.3252 5.90088C14.3282 5.91439 14.274 5.9427 14.1771 5.94538C14.082 5.9487 13.9431 5.91814 13.8303 5.82453C13.7178 5.7307 13.6694 5.60567 13.662 5.51721C13.6539 5.42713 13.6779 5.37384 13.6927 5.37502Z" fill="#263238"/>
<path d="M13.6111 2.98474C13.5915 3.03867 13.3933 3.01315 13.1605 3.04125C12.9271 3.06462 12.7393 3.13282 12.7084 3.08435C12.6946 3.06119 12.7274 3.01047 12.8033 2.95814C12.8786 2.90603 12.9986 2.85638 13.1384 2.84083C13.2782 2.82561 13.4062 2.8477 13.491 2.88222C13.5764 2.91675 13.6195 2.95911 13.6111 2.98474Z" fill="#E8505B"/>
<path d="M15.4378 3.15285C15.4028 3.19788 15.2661 3.15113 15.1017 3.14899C14.9374 3.14105 14.7981 3.17922 14.7661 3.13215C14.752 3.1092 14.7739 3.06406 14.8348 3.02138C14.8947 2.97881 14.995 2.94407 15.108 2.9475C15.2209 2.95115 15.3189 2.99189 15.3761 3.03811C15.4341 3.08443 15.4532 3.13097 15.4378 3.15285Z" fill="#E8505B"/>
<path d="M16.383 1.09342C16.3968 0.933171 16.3372 0.761227 16.2069 0.66699C16.0766 0.572861 15.8746 0.578764 15.7687 0.699833C15.8294 0.483991 15.653 0.234984 15.4295 0.220816C15.2189 0.2074 15.0391 0.366679 14.8356 0.422598C14.6369 0.477122 14.4238 0.430003 14.2326 0.35294C14.0415 0.275876 13.8628 0.169619 13.6693 0.0987806C13.2657 -0.0487992 12.8041 -0.0302309 12.4136 0.149226C12.0231 0.328683 11.7083 0.666883 11.5569 1.06948C11.2745 0.981147 10.9536 1.12465 10.7793 1.3641C10.6052 1.60356 10.5605 1.91815 10.5951 2.21223C10.6185 2.41101 10.6759 2.60313 10.7428 2.79235C10.7426 2.80899 10.741 2.82531 10.7414 2.84194C10.7548 3.55279 10.835 4.38761 11.138 4.39223C11.6661 4.40028 11.5402 3.40446 11.5402 3.40446C12.1883 3.15384 11.9468 2.18186 12.109 2.03438C12.271 1.88691 12.6101 1.54431 13.967 2.23853C14.4939 2.50804 15.1944 2.49966 15.5769 2.41283C15.5882 2.41036 15.5995 2.40865 15.6107 2.40596C15.613 2.40543 15.6162 2.405 15.6185 2.40435C15.6227 2.40328 15.6256 2.40103 15.6298 2.39985C15.7517 2.36808 15.8692 2.32085 15.9777 2.25205C16.1006 2.17424 16.2124 2.06884 16.2646 1.93296C16.3167 1.79708 16.2971 1.62739 16.1906 1.52832C16.2907 1.40242 16.3691 1.25366 16.383 1.09342Z" fill="#E8505B"/>
<path d="M42.8787 44.0028L28.9691 43.9384C27.2962 43.9308 25.9461 42.5674 25.9532 40.8929L26.1006 5.98875C26.1077 4.31332 27.4707 2.96106 29.1445 2.96878L43.0542 3.03307C44.7271 3.0408 46.0771 4.40422 46.07 6.07869L45.9226 40.983C45.9155 42.6583 44.5526 44.0106 42.8787 44.0028Z" fill="#263238"/>
<path d="M43.0343 4.23793L40.3375 4.22548C39.9759 4.22387 39.6814 4.52933 39.6799 4.90767L39.6777 5.39731C39.6762 5.77576 39.3816 6.08123 39.0201 6.07951L33.7633 6.05515C33.4017 6.05354 33.1097 5.74539 33.1114 5.36694L33.1135 4.8773C33.1151 4.49885 32.8231 4.1907 32.4614 4.18909L31.513 4.18469L29.1526 4.17385C27.9804 4.16848 27.0258 5.11546 27.0209 6.28891L26.877 40.358C26.872 41.5308 27.8175 42.4856 28.9892 42.4911L42.871 42.5551C44.0432 42.5606 44.9977 41.6135 45.0028 40.4402L45.1467 6.37102C45.1514 5.19811 44.2059 4.2434 43.0343 4.23793Z" fill="#FAFAFA"/>
<path d="M30.2736 9.62278C30.2736 9.99157 29.975 10.2905 29.6065 10.2905C29.2381 10.2905 28.9395 9.99157 28.9395 9.62278C28.9395 9.25399 29.2381 8.95508 29.6065 8.95508C29.9749 8.95508 30.2736 9.25399 30.2736 9.62278Z" fill="#E8505B"/>
<path d="M31.5195 9.12109H42.7131C43.0552 9.12109 43.3325 9.39865 43.3325 9.74104V11.4384C43.3325 11.7808 43.0552 12.0584 42.7131 12.0584H32.6875C32.3454 12.0584 32.0681 11.7809 32.0681 11.4384V9.61525L31.5195 9.12109Z" fill="#E8505B"/>
<path d="M41.5384 10.1724C41.5384 10.1879 39.8197 10.2003 37.7001 10.2003C35.5797 10.2003 33.8613 10.1877 33.8613 10.1724C33.8613 10.1571 35.5797 10.1445 37.7001 10.1445C39.8197 10.1445 41.5384 10.1571 41.5384 10.1724Z" fill="white"/>
<path d="M41.5384 10.8658C41.5384 10.8812 39.8197 10.8937 37.7001 10.8937C35.5797 10.8937 33.8613 10.8811 33.8613 10.8658C33.8613 10.8503 35.5797 10.8379 37.7001 10.8379C39.8197 10.8379 41.5384 10.8503 41.5384 10.8658Z" fill="white"/>
<path d="M30.2736 26.0525C30.2736 26.4213 29.975 26.7202 29.6065 26.7202C29.2381 26.7202 28.9395 26.4213 28.9395 26.0525C28.9395 25.6837 29.2381 25.3848 29.6065 25.3848C29.9749 25.3848 30.2736 25.6837 30.2736 26.0525Z" fill="#E8505B"/>
<path d="M31.5195 25.5508H42.7131C43.0552 25.5508 43.3325 25.8283 43.3325 26.1707V27.8681C43.3325 28.2104 43.0552 28.488 42.7131 28.488H32.6875C32.3454 28.488 32.0681 28.2104 32.0681 27.8681V26.0449L31.5195 25.5508Z" fill="#E8505B"/>
<path d="M41.5384 26.606C41.5384 26.6214 39.8197 26.6339 37.7001 26.6339C35.5797 26.6339 33.8613 26.6213 33.8613 26.606C33.8613 26.5907 35.5797 26.5781 37.7001 26.5781C39.8197 26.578 41.5384 26.5906 41.5384 26.606Z" fill="white"/>
<path d="M41.5384 27.2974C41.5384 27.3129 39.8197 27.3253 37.7001 27.3253C35.5797 27.3253 33.8613 27.3129 33.8613 27.2974C33.8613 27.282 35.5797 27.2695 37.7001 27.2695C39.8197 27.2694 41.5384 27.282 41.5384 27.2974Z" fill="white"/>
<path d="M41.9876 15.414C42.3497 15.414 42.6432 15.1202 42.6432 14.7578C42.6432 14.3954 42.3497 14.1016 41.9876 14.1016C41.6256 14.1016 41.332 14.3954 41.332 14.7578C41.332 15.1202 41.6256 15.414 41.9876 15.414Z" fill="#455A64"/>
<path d="M40.4079 13.8359H29.9239C29.6035 13.8359 29.3438 14.0959 29.3438 14.4166V16.0063C29.3438 16.327 29.6035 16.5869 29.9239 16.5869H39.3139C39.6343 16.5869 39.894 16.327 39.894 16.0063V14.2987L40.4079 13.8359Z" fill="#455A64"/>
<path d="M31.0215 14.8208C31.0215 14.8054 32.6312 14.793 34.6165 14.793C36.6025 14.793 38.2119 14.8055 38.2119 14.8208C38.2119 14.8363 36.6025 14.8487 34.6165 14.8487C32.6312 14.8487 31.0215 14.8362 31.0215 14.8208Z" fill="white"/>
<path d="M31.0215 15.4673C31.0215 15.4519 32.6312 15.4395 34.6165 15.4395C36.6025 15.4395 38.2119 15.452 38.2119 15.4673C38.2119 15.4827 36.6025 15.4952 34.6165 15.4952C32.6312 15.4953 31.0215 15.4828 31.0215 15.4673Z" fill="white"/>
<path d="M28.9395 19.3806C28.9395 19.7494 29.2381 20.0483 29.6065 20.0483C29.975 20.0483 30.2736 19.7494 30.2736 19.3806C30.2736 19.0118 29.975 18.7129 29.6065 18.7129C29.2381 18.7129 28.9395 19.0119 28.9395 19.3806Z" fill="#263238"/>
<path d="M31.9355 18.4141H42.4196C42.74 18.4141 42.9997 18.674 42.9997 18.9947V20.5844C42.9997 20.9051 42.74 21.1651 42.4196 21.1651H33.0295C32.7091 21.1651 32.4494 20.9051 32.4494 20.5844V18.8769L31.9355 18.4141Z" fill="#263238"/>
<path d="M41.3193 19.399C41.3193 19.4144 39.7096 19.4269 37.7243 19.4269C35.7383 19.4269 34.1289 19.4143 34.1289 19.399C34.1289 19.3835 35.7383 19.3711 37.7243 19.3711C39.7096 19.3711 41.3193 19.3835 41.3193 19.399Z" fill="white"/>
<path d="M41.3193 20.0474C41.3193 20.0629 39.7096 20.0753 37.7243 20.0753C35.7383 20.0753 34.1289 20.0627 34.1289 20.0474C34.1289 20.032 35.7383 20.0195 37.7243 20.0195C39.7096 20.0195 41.3193 20.0321 41.3193 20.0474Z" fill="white"/>
<path d="M42.1532 24.2392H39.6235C39.387 24.2392 39.1953 24.0472 39.1953 23.8106V22.8954C39.1953 22.6587 39.387 22.4668 39.6235 22.4668H42.1532C42.3896 22.4668 42.5813 22.6587 42.5813 22.8954V23.8106C42.5813 24.0472 42.3896 24.2392 42.1532 24.2392Z" fill="#263238"/>
<path d="M41.9797 23.3541C41.9797 23.3695 41.5348 23.3819 40.986 23.3819C40.4371 23.3819 39.9922 23.3694 39.9922 23.3541C39.9922 23.3386 40.4371 23.3262 40.986 23.3262C41.5348 23.3262 41.9797 23.3387 41.9797 23.3541Z" fill="white"/>
<path d="M29.8162 34.248H28.1582V35.9076H29.8162V34.248Z" fill="#E0E0E0"/>
<path d="M31.7869 34.248H30.1289V35.9076H31.7869V34.248Z" fill="#E0E0E0"/>
<path d="M33.7615 34.248H32.1035V35.9076H33.7615V34.248Z" fill="#E0E0E0"/>
<path d="M35.7322 34.248H34.0742V35.9076H35.7322V34.248Z" fill="#E0E0E0"/>
<path d="M37.7049 34.248H36.0469V35.9076H37.7049V34.248Z" fill="#E0E0E0"/>
<path d="M29.8912 38.3438H28.1582V40.0783H29.8912V38.3438Z" fill="#E0E0E0"/>
<path d="M38.5814 38.3477H30.2207V40.0822H38.5814V38.3477Z" fill="#E0E0E0"/>
<path d="M43.6385 33.7704C43.6385 33.7704 43.6369 33.7273 43.636 33.6447C43.6354 33.561 43.6343 33.4389 43.633 33.2783C43.6314 32.9556 43.629 32.4797 43.6259 31.8599L43.6385 31.8725C40.8354 31.8753 34.9511 31.8811 28.1559 31.8878H28.155L28.1829 31.8599C28.1828 32.5144 28.1828 33.1605 28.1827 33.7704L28.1549 33.7426C32.5112 33.7473 36.3779 33.7516 39.1573 33.7546C40.548 33.7581 41.6663 33.7609 42.4388 33.7628C42.8242 33.7645 43.1229 33.7657 43.3271 33.7667C43.4278 33.7675 43.5048 33.7681 43.5584 33.7685C43.6108 33.7691 43.6385 33.7704 43.6385 33.7704C43.6385 33.7704 43.6134 33.7717 43.5622 33.7724C43.5095 33.7728 43.4336 33.7734 43.3345 33.7742C43.1317 33.775 42.8351 33.7763 42.4524 33.778C41.6814 33.78 40.5654 33.7828 39.1774 33.7862C36.3929 33.7892 32.5191 33.7935 28.1549 33.7982H28.1272V33.7704C28.1271 33.1604 28.1271 32.5143 28.127 31.8599V31.832H28.1549H28.1558C34.9509 31.8388 40.8353 31.8446 43.6384 31.8474H43.6509L43.6508 31.8599C43.6477 32.4829 43.6453 32.9613 43.6437 33.2857C43.6424 33.445 43.6415 33.5662 43.6407 33.6492C43.6401 33.7304 43.6385 33.7704 43.6385 33.7704Z" fill="#263238"/>
<path d="M42.5621 32.9837H42.4831C42.3954 32.9837 42.3242 32.9125 42.3242 32.8248V32.3542C42.3242 32.2664 42.3954 32.1953 42.4831 32.1953H42.5621C42.6499 32.1953 42.721 32.2665 42.721 32.3542V32.8248C42.721 32.9125 42.6498 32.9837 42.5621 32.9837Z" fill="#E8505B"/>
<path d="M43.0005 32.8299C43.0005 32.8358 42.954 32.8412 42.874 32.8457L42.8898 32.8312C42.8853 32.8976 42.8684 32.9868 42.8096 33.0765C42.7801 33.1206 42.7376 33.163 42.6825 33.191C42.6273 33.2195 42.5623 33.2289 42.4978 33.2262C42.3712 33.2239 42.2632 33.1475 42.2053 33.0657C42.1462 32.9821 42.1196 32.899 42.1079 32.8331L42.1245 32.8468C42.032 32.8421 41.9785 32.8363 41.9785 32.83C41.9785 32.8237 42.0321 32.8179 42.1245 32.8131L42.1369 32.8125L42.141 32.8269C42.1576 32.8852 42.1888 32.9632 42.2449 33.0355C42.3011 33.1068 42.391 33.1682 42.5006 33.1705C42.5568 33.1728 42.6125 33.1654 42.6585 33.1426C42.7047 33.1201 42.7416 33.0858 42.7692 33.0482C42.8245 32.9722 42.8474 32.8881 42.858 32.8288L42.8608 32.8135L42.8739 32.8142C42.954 32.8186 43.0005 32.824 43.0005 32.8299Z" fill="#E8505B"/>
<path d="M42.5259 33.1992C42.5414 33.1992 42.5538 33.2537 42.5538 33.3209C42.5538 33.3882 42.5413 33.4426 42.5259 33.4426C42.5106 33.4426 42.498 33.3882 42.498 33.3209C42.4979 33.2537 42.5105 33.1992 42.5259 33.1992Z" fill="#E8505B"/>
<path d="M40.5943 38.3438H38.8613V40.0783H40.5943V38.3438Z" fill="#E0E0E0"/>
<path d="M43.6413 38.3438H40.9238V40.0783H43.6413V38.3438Z" fill="#E8505B"/>
<path d="M39.6971 34.248H38.0391V35.9076H39.6971V34.248Z" fill="#E0E0E0"/>
<path d="M41.6678 34.248H40.0098V35.9076H41.6678V34.248Z" fill="#E0E0E0"/>
<path d="M43.6385 34.248H41.9805V35.9076H43.6385V34.248Z" fill="#E0E0E0"/>
<path d="M29.8162 36.2969H28.1582V37.9564H29.8162V36.2969Z" fill="#E0E0E0"/>
<path d="M31.7869 36.2969H30.1289V37.9564H31.7869V36.2969Z" fill="#E0E0E0"/>
<path d="M33.7615 36.2969H32.1035V37.9564H33.7615V36.2969Z" fill="#E0E0E0"/>
<path d="M35.7322 36.2969H34.0742V37.9564H35.7322V36.2969Z" fill="#E0E0E0"/>
<path d="M37.7049 36.2969H36.0469V37.9564H37.7049V36.2969Z" fill="#E0E0E0"/>
<path d="M39.6971 36.2969H38.0391V37.9564H39.6971V36.2969Z" fill="#E0E0E0"/>
<path d="M41.6678 36.2969H40.0098V37.9564H41.6678V36.2969Z" fill="#E0E0E0"/>
<path d="M43.6385 36.2969H41.9805V37.9564H43.6385V36.2969Z" fill="#E0E0E0"/>
<path d="M35.5845 30.4198C35.5838 30.5763 35.4551 30.7028 35.297 30.702C35.1388 30.7013 35.0111 30.5737 35.0117 30.417C35.0125 30.2604 35.1411 30.1339 35.2993 30.1348C35.4575 30.1355 35.5852 30.2631 35.5845 30.4198Z" fill="#E8505B"/>
<path d="M36.4732 30.4238C36.4726 30.5804 36.3438 30.7068 36.1856 30.706C36.0275 30.7054 35.8997 30.5778 35.9004 30.421C35.901 30.2645 36.0298 30.138 36.188 30.1387C36.3462 30.1395 36.4739 30.267 36.4732 30.4238Z" fill="#E8505B"/>
<path d="M37.3599 30.4277C37.3593 30.5843 37.2305 30.7108 37.0723 30.7099C36.9142 30.7093 36.7865 30.5817 36.7871 30.4249C36.7879 30.2684 36.9165 30.1419 37.0747 30.1426C37.2329 30.1432 37.3607 30.2709 37.3599 30.4277Z" fill="#E8505B"/>
</svg>
