<svg width="20" height="20" viewBox="0 0 20 20" fill="none" xmlns="http://www.w3.org/2000/svg">
<path d="M19 7.29977V12.6998C19 14.9498 18.55 16.5248 17.542 17.5418L11.8 11.7998L18.757 4.84277C18.919 5.55377 19 6.36377 19 7.29977Z" stroke="#AB1216" stroke-linecap="round" stroke-linejoin="round"/>
<path d="M18.757 4.843L4.843 18.757C2.134 18.136 1 16.264 1 12.7V7.3C1 2.8 2.8 1 7.3 1H12.7C16.264 1 18.136 2.134 18.757 4.843Z" stroke="#AB1216" stroke-linecap="round" stroke-linejoin="round"/>
<path d="M17.5416 17.5418C16.5246 18.5498 14.9496 18.9998 12.6996 18.9998H7.29959C6.36359 18.9998 5.55359 18.9188 4.84259 18.7568L11.7996 11.7998L17.5416 17.5418Z" stroke="#AB1216" stroke-linecap="round" stroke-linejoin="round"/>
<path d="M4.81624 6.38205C5.42824 3.74505 9.38824 3.74505 10.0002 6.38205C10.3512 7.93005 9.37924 9.24405 8.52424 10.054C8.22314 10.3402 7.82362 10.4998 7.40824 10.4998C6.99285 10.4998 6.59334 10.3402 6.29224 10.054C5.43724 9.24405 4.45624 7.93005 4.81624 6.38205Z" stroke="#AB1216"/>
<path d="M7.38525 7.03027H7.39425" stroke="#AB1216" stroke-width="2.5" stroke-linecap="round" stroke-linejoin="round"/>
</svg>
