<svg width="19" height="25" viewBox="0 0 19 25" fill="none" xmlns="http://www.w3.org/2000/svg">
<path d="M9.25 0.5C4.28729 0.5 0.25 4.47705 0.25 9.36571C0.25 10.9751 0.982706 12.706 1.01341 12.779C1.25006 13.3323 1.717 14.1918 2.05371 14.6956L8.22453 23.906C8.47706 24.2836 8.85082 24.5 9.25 24.5C9.64918 24.5 10.0229 24.2836 10.2755 23.9065L16.4468 14.6956C16.7841 14.1918 17.2505 13.3323 17.4871 12.779C17.5178 12.7065 18.25 10.9756 18.25 9.36571C18.25 4.47705 14.2127 0.5 9.25 0.5ZM16.5109 12.3743C16.2996 12.8703 15.865 13.6698 15.5627 14.1214L9.39135 23.3323C9.26959 23.5143 9.23094 23.5143 9.10918 23.3323L2.93782 14.1214C2.63553 13.6698 2.20088 12.8698 1.98965 12.3738C1.98065 12.3524 1.30882 10.7592 1.30882 9.36571C1.30882 5.05228 4.87124 1.54302 9.25 1.54302C13.6288 1.54302 17.1912 5.05228 17.1912 9.36571C17.1912 10.7613 16.5178 12.3587 16.5109 12.3743Z" fill="#AB1216"/>
<path d="M9.25 4.67285C6.62253 4.67285 4.48529 6.77872 4.48529 9.36646C4.48529 11.9542 6.62253 14.0601 9.25 14.0601C11.8775 14.0601 14.0147 11.9542 14.0147 9.36646C14.0147 6.77872 11.8775 4.67285 9.25 4.67285ZM9.25 13.017C7.207 13.017 5.54411 11.3795 5.54411 9.36646C5.54411 7.35342 7.207 5.71588 9.25 5.71588C11.293 5.71588 12.9559 7.35342 12.9559 9.36646C12.9559 11.3795 11.293 13.017 9.25 13.017Z" fill="#AB1216"/>
</svg>
