<svg width="110" height="100" viewBox="0 0 110 100" fill="none" xmlns="http://www.w3.org/2000/svg">
<path d="M67.0909 42.083C55.6239 62.7954 49.4768 80.1233 49.4768 80.1233C36.21 56.3678 13.076 47.4318 13.076 47.4318C32.4785 46.7149 46.5543 57.0347 46.5543 57.0347C59.6666 32.8853 80.6804 8.87487 95.772 0.644531C95.772 0.644531 78.0715 22.2583 67.0909 42.083Z" fill="url(#paint0_linear_525_8439)"/>
<path d="M108.405 31.503C107.027 25.9285 104.804 20.5983 101.815 15.6979L98.7285 17.6234C104.508 26.7791 107.294 37.512 106.698 48.3279C106.139 59.0483 102.185 69.7687 95.4515 78.1447C93.771 80.2663 91.935 82.2596 89.9589 84.108C87.9668 85.942 85.8448 87.6292 83.6096 89.1564L81.9097 90.2671C68.5225 98.9959 51.831 99.9405 36.8667 95.3428C36.2167 95.1425 35.585 94.8876 34.9487 94.6395C30.4961 92.9047 26.2932 90.5856 22.45 87.743C20.2621 86.1037 18.1991 84.3036 16.2779 82.3577C10.4603 76.5013 6.24256 69.2679 3.55647 61.4951C2.7105 58.8802 2.05581 56.2071 1.59758 53.4969C1.18061 50.7779 0.952815 48.0331 0.915833 45.2825C0.849955 36.9663 2.70971 28.748 6.34906 21.273C9.98841 13.798 15.3083 7.26963 21.8909 2.20066C22.8249 1.47914 23.7862 0.791765 24.7656 0.133975C24.7225 0.0945354 24.6815 0.052743 24.6429 0.00878906H24.527C24.527 0.03155 24.527 0.0565864 24.527 0.0793473C23.5817 0.701478 22.6553 1.35092 21.7478 2.02768C15.0278 7.06004 9.56627 13.5865 5.79352 21.093C2.02077 28.5995 0.0398593 36.8809 0.00683594 45.2848C0.0104867 48.0851 0.210199 50.8816 0.604502 53.6539C1.02831 56.4277 1.6557 59.1665 2.48158 61.8479C4.99917 69.926 9.36542 77.3038 15.2325 83.3933C17.1715 85.4133 19.2581 87.2857 21.4751 88.9948C25.8951 92.3839 30.9627 95.3451 36.2826 97.0658C52.6832 102.374 70.3768 100.498 84.9981 91.2458C87.3635 89.6764 89.6123 87.9375 91.7269 86.0427C93.8283 84.13 95.785 82.0637 97.5808 79.8608C99.3822 77.6607 101.005 75.3194 102.433 72.8596C103.173 71.6419 103.796 70.3559 104.455 69.0972C107.609 62.9131 109.314 55.5112 109.88 48.5282C110.255 42.8111 109.757 37.07 108.405 31.503Z" fill="url(#paint1_linear_525_8439)"/>
<defs>
<linearGradient id="paint0_linear_525_8439" x1="0.00683594" y1="50.0046" x2="110.001" y2="50.0046" gradientUnits="userSpaceOnUse">
<stop stop-color="#4FC646"/>
<stop offset="1" stop-color="#3FB06B"/>
</linearGradient>
<linearGradient id="paint1_linear_525_8439" x1="-0.334038" y1="46.0564" x2="109.006" y2="57.2152" gradientUnits="userSpaceOnUse">
<stop stop-color="#4FC646"/>
<stop offset="1" stop-color="#3FB06B"/>
</linearGradient>
</defs>
</svg>
