<svg width="24" height="24" viewBox="0 0 24 24" fill="none" xmlns="http://www.w3.org/2000/svg">
<path d="M3.70512 14.047H3.95947L3.95946 19.5526L3.95947 19.5541C3.96224 20.4826 4.33397 21.3718 4.99276 22.0277C5.65148 22.6835 6.54363 23.0527 7.47424 23.0554H7.47572L16.5245 23.0554L16.526 23.0554C17.4566 23.0527 18.3487 22.6835 19.0074 22.0277C19.6662 21.3718 20.038 20.4826 20.0407 19.5541V19.5526V14.047H20.2962C21.206 14.047 21.9983 13.7493 22.3411 13.0654C22.6843 12.3808 22.4468 11.5693 21.9007 10.8444L21.889 10.8289L21.8761 10.8143L14.1967 2.1188C13.6194 1.36064 12.8285 0.944336 12 0.944336C11.1714 0.944336 10.3803 1.36064 9.8024 2.11872L2.12405 10.8143L2.11121 10.8288L2.09953 10.8443C1.55283 11.5698 1.31545 12.3816 1.65943 13.0663C2.00281 13.7498 2.79555 14.047 3.70512 14.047ZM7.27589 18.7804L7.2759 18.7804L7.27874 18.7774C7.28598 18.7697 7.29321 18.762 7.30043 18.7544H8.68649C8.92536 18.7544 9.184 18.7382 9.42347 18.7232L9.43219 18.7226C9.68157 18.707 9.91082 18.6928 10.1154 18.6928H11.2902H11.2909C11.3173 18.6928 11.3313 18.6979 11.3383 18.7012C11.346 18.7048 11.3551 18.7109 11.3653 18.7227C11.3884 18.7494 11.4113 18.7998 11.4138 18.8618C11.4162 18.9237 11.3973 18.9579 11.3889 18.968C11.3857 18.9718 11.3816 18.9756 11.3728 18.9795C11.3635 18.9836 11.339 18.9922 11.2913 18.9922H7.35993C7.28369 18.9922 7.24185 18.9742 7.22351 18.9631C7.20557 18.9523 7.20118 18.9431 7.19988 18.94C7.19852 18.9368 7.19466 18.926 7.19985 18.9035C7.20513 18.8805 7.22235 18.8363 7.27589 18.7804ZM8.43286 17.8235L7.96312 18.1C8.29765 17.7902 8.63054 17.5083 8.98052 17.2119C9.29858 16.9425 9.63077 16.6612 9.99117 16.3361C10.5655 15.8823 10.8874 15.1801 10.8055 14.5304C10.763 14.1934 10.6088 13.8672 10.3196 13.6288C10.0321 13.3918 9.65413 13.2765 9.22387 13.2765C8.60063 13.2765 7.99244 13.6375 7.64763 14.1838C7.61697 14.231 7.58508 14.2463 7.56001 14.2521C7.52854 14.2595 7.49323 14.2548 7.46516 14.24C7.44018 14.2268 7.42701 14.2097 7.42054 14.1889C7.41466 14.17 7.40092 14.1035 7.45697 13.9735C7.80381 13.3096 8.47453 13.0174 9.22387 13.0174C10.2426 13.0174 10.8703 13.526 11.0879 14.146C11.3069 14.7699 11.1586 15.6485 10.3164 16.4716C9.60306 17.0752 9.12193 17.4179 8.43286 17.8235ZM15.912 15.6899C16.4427 15.9613 16.8012 16.432 16.8013 17.1527V17.1528C16.8008 17.8047 16.5534 18.2523 16.1782 18.5486C15.788 18.8568 15.2163 19.0336 14.5358 19.0336C13.8142 19.0336 13.2613 18.7649 12.9326 18.225C12.9061 18.1744 12.9109 18.1447 12.9169 18.1252C12.9262 18.0952 12.952 18.0572 12.9949 18.0287C13.0382 18 13.0724 17.9979 13.0851 17.9997C13.0901 18.0004 13.0948 18.0018 13.1011 18.0059C13.1075 18.0101 13.1239 18.0224 13.1449 18.0542L13.1573 18.073L13.1713 18.0906C13.5387 18.551 14.0427 18.7947 14.5346 18.7947C14.9444 18.7947 15.4146 18.723 15.797 18.4708C16.2125 18.1969 16.4635 17.7496 16.4635 17.1531C16.4635 16.596 16.1756 16.2014 15.7907 15.971C15.432 15.7562 14.9988 15.685 14.6279 15.685C14.2572 15.685 13.8138 15.7728 13.4121 15.8523C13.3723 15.8602 13.3328 15.868 13.2939 15.8756L13.2742 15.8795L13.2548 15.885C13.1103 15.9256 13.0438 15.8869 13.0282 15.8745C13.0186 15.8668 13.0095 15.856 13.0025 15.8369C12.9952 15.817 12.987 15.7787 12.9953 15.7167L12.9987 15.6918L12.9995 15.6667L13.0794 13.2761L13.0796 13.2678V13.2594C13.0796 13.1845 13.0923 13.1465 13.099 13.1314C13.1047 13.1187 13.1098 13.1132 13.1172 13.1076C13.1403 13.09 13.2171 13.0532 13.3913 13.0532H16.33C16.373 13.0532 16.3965 13.061 16.4071 13.0657C16.4176 13.0703 16.4242 13.0756 16.4298 13.0819C16.4427 13.0966 16.4607 13.1316 16.4603 13.1851C16.4599 13.2387 16.4412 13.2769 16.4253 13.2948C16.4184 13.3026 16.4109 13.3084 16.4006 13.3129C16.3905 13.3174 16.369 13.3246 16.33 13.3246H13.8466H13.3709L13.3472 13.7998L13.2865 15.0197L13.2525 15.7034L13.9142 15.5278C14.6078 15.3437 15.3574 15.4061 15.912 15.6899Z" stroke="#AB1216"/>
</svg>
