<svg width="24" height="24" viewBox="0 0 24 24" fill="none" xmlns="http://www.w3.org/2000/svg">
<path d="M12.55 23.0002H6.04997C4.35005 23.0002 2.99795 22.173 1.78393 21.0165C-0.701302 18.6487 3.37909 16.7566 4.93534 15.83C7.24623 14.454 9.95051 13.9493 12.55 14.3159C13.4933 14.4489 14.4119 14.6968 15.3 15.0592" stroke="#AB1216" stroke-linecap="round" stroke-linejoin="round"/>
<path d="M16.95 5.95002C16.95 8.68383 14.7338 10.9 11.9999 10.9C9.26613 10.9 7.04993 8.68383 7.04993 5.95002C7.04993 3.2162 9.26613 1 11.9999 1C14.7338 1 16.95 3.2162 16.95 5.95002Z" stroke="#AB1216"/>
<path d="M19.1501 23.0001V15.3M15.3 19.15H23.0001" stroke="#AB1216" stroke-linecap="round"/>
</svg>
