<svg width="24" height="22" viewBox="0 0 24 22" fill="none" xmlns="http://www.w3.org/2000/svg">
<path d="M23.7519 18.3312C22.877 19.6884 21.4949 21.3495 19.7578 21.7617C16.7147 22.4861 12.0444 21.7867 6.23283 16.4494L6.16097 16.3869C1.05106 11.7199 -0.27608 7.83556 0.0451392 4.75474C0.222655 3.00617 1.70195 1.42413 2.94879 0.391644C3.14591 0.225925 3.37966 0.107937 3.63136 0.0471168C3.88305 -0.0137032 4.1457 -0.0156689 4.3983 0.0413772C4.6509 0.0984234 4.88645 0.2129 5.0861 0.37565C5.28576 0.5384 5.44398 0.744909 5.54812 0.978664L7.42894 5.14193C7.55116 5.41187 7.59646 5.7095 7.55998 6.00289C7.52349 6.29627 7.4066 6.57433 7.22184 6.80723L6.27087 8.02291C6.06681 8.27392 5.94369 8.57934 5.91732 8.89986C5.89096 9.22038 5.96257 9.54134 6.12294 9.82144C6.65548 10.7415 7.9319 12.0946 9.3478 13.3477C10.937 14.7632 12.6995 16.058 13.8153 16.4993C14.1139 16.6195 14.4421 16.6488 14.7578 16.5835C15.0734 16.5182 15.3619 16.3613 15.5862 16.1329L16.6893 15.038C16.9022 14.8313 17.1669 14.6838 17.4565 14.6107C17.746 14.5375 18.0501 14.5413 18.3377 14.6217L22.8052 15.8707C23.0516 15.9451 23.2775 16.0741 23.4656 16.2478C23.6536 16.4214 23.7989 16.6351 23.8903 16.8725C23.9816 17.11 24.0166 17.3648 23.9927 17.6176C23.9687 17.8704 23.8864 18.1145 23.7519 18.3312Z" fill="#9A8B8B"/>
</svg>
