<svg width="70" height="49" viewBox="0 0 70 49" fill="none" xmlns="http://www.w3.org/2000/svg">
<path d="M5.58745 22.299C5.58745 22.299 4.67098 21.3771 4.40789 26.9578C4.15957 32.2251 3.79623 39.8193 5.06634 43.0774C5.20353 43.4294 5.44779 43.7322 5.77028 43.9306C6.03235 44.0917 6.397 44.2536 6.87059 44.3269C7.97569 44.498 12.3439 44.4014 12.3439 44.4014C12.3439 44.4014 14.8228 44.4014 14.8604 42.3677C14.8912 40.6938 14.8604 37.054 14.8604 37.054L5.58745 22.299Z" fill="#263238"/>
<g opacity="0.3">
<path d="M5.58745 22.299C5.58745 22.299 4.67098 21.3771 4.40789 26.9578C4.15957 32.2251 3.79623 39.8193 5.06634 43.0774C5.20353 43.4294 5.44779 43.7322 5.77028 43.9306C6.03235 44.0917 6.397 44.2536 6.87059 44.3269C7.97569 44.498 12.3439 44.4014 12.3439 44.4014C12.3439 44.4014 14.8228 44.4014 14.8604 42.3677C14.8912 40.6938 14.8604 37.054 14.8604 37.054L5.58745 22.299Z" fill="black"/>
</g>
<path d="M56.0464 22.299C56.0464 22.299 55.1299 21.3771 54.8668 26.9578C54.6185 32.2251 54.2553 39.8193 55.5253 43.0774C55.6625 43.4294 55.9067 43.7322 56.2292 43.9306C56.4913 44.0917 56.8559 44.2536 57.3295 44.3269C58.4348 44.498 62.8028 44.4014 62.8028 44.4014C62.8028 44.4014 65.2818 44.4014 65.3193 42.3677C65.3502 40.6938 65.3193 37.054 65.3193 37.054L56.0464 22.299Z" fill="#263238"/>
<g opacity="0.3">
<path d="M56.0464 22.299C56.0464 22.299 55.1299 21.3771 54.8668 26.9578C54.6185 32.2251 54.2553 39.8193 55.5253 43.0774C55.6625 43.4294 55.9067 43.7322 56.2292 43.9306C56.4913 44.0917 56.8559 44.2536 57.3295 44.3269C58.4348 44.498 62.8028 44.4014 62.8028 44.4014C62.8028 44.4014 65.2818 44.4014 65.3193 42.3677C65.3502 40.6938 65.3193 37.054 65.3193 37.054L56.0464 22.299Z" fill="black"/>
</g>
<path d="M69.5354 12.6454C69.5354 12.6454 69.2577 13.5885 68.6862 13.6867C68.1145 13.7849 63.6068 13.9225 63.6068 13.9225L63.1658 14.8264H62.3166L61.6991 11.2012L62.2257 11.3093C62.4054 11.3463 62.5556 11.4684 62.6279 11.6365C62.708 11.8226 62.8827 11.9511 63.0848 11.9722L69.5354 12.6454Z" fill="#263238"/>
<path d="M69.345 12.7833C69.6804 12.757 69.9242 12.455 69.8768 12.1232C69.7292 11.0879 69.1846 9.07509 67.1784 8.77721C65.4025 8.51341 64.1133 8.59412 63.4325 8.68191C63.1206 8.7222 62.9665 9.0039 62.9291 9.31521C62.7582 10.739 62.8962 12.5042 63.3081 12.7211C63.7387 12.9475 67.8806 12.898 69.345 12.7833Z" fill="#FF725E"/>
<path d="M66.6547 8.78724C66.659 8.7842 66.6993 8.83532 66.7689 8.93018C66.839 9.02462 66.9346 9.1654 67.0474 9.34285C67.2733 9.69747 67.5583 10.2059 67.8144 10.7948C68.0697 11.3844 68.2463 11.9397 68.3507 12.3466C68.4032 12.55 68.4407 12.7159 68.4617 12.8315C68.4834 12.9468 68.493 13.0111 68.4879 13.0122C68.4828 13.0132 68.4636 12.9512 68.4332 12.8381C68.4035 12.7248 68.3583 12.5615 68.2994 12.3607C68.1822 11.9592 67.999 11.4105 67.7453 10.8247C67.4908 10.2395 67.2154 9.73054 67.002 9.37043C66.8955 9.19023 66.8071 9.04555 66.7445 8.94636C66.6825 8.84687 66.6503 8.79027 66.6547 8.78724Z" fill="#263238"/>
<path d="M68.5171 26.0803C68.5171 26.0803 69.4336 25.1584 69.6967 30.739C69.945 36.0064 70.3082 43.6006 69.0382 46.8586C68.901 47.2106 68.6568 47.5134 68.3343 47.7118C68.0722 47.873 67.7075 48.0348 67.234 48.1082C66.1287 48.2793 61.7606 48.1827 61.7606 48.1827C61.7606 48.1827 59.2817 48.1827 59.2442 46.1488C59.2133 44.4749 59.2442 40.8351 59.2442 40.8351L68.5171 26.0803Z" fill="#263238"/>
<path d="M68.5235 26.0798C68.5235 26.0798 68.51 26.105 68.4815 26.1523C68.4517 26.201 68.4089 26.271 68.3529 26.3626C68.2374 26.5485 68.0682 26.8213 67.8486 27.1753C67.4051 27.8853 66.759 28.9197 65.9439 30.2246C64.3077 32.8343 61.9942 36.5243 59.2803 40.8532L59.2857 40.8351C59.2862 42.42 59.287 44.0831 59.2877 45.8058C59.2889 46.0215 59.279 46.2383 59.3146 46.4482C59.3471 46.6589 59.4137 46.8652 59.5185 47.0523C59.728 47.4291 60.0917 47.7067 60.4958 47.8755C61.3145 48.2401 62.2479 48.1325 63.1565 48.1657C64.1162 48.1744 65.0647 48.177 65.9982 48.1516C66.4639 48.1347 66.9309 48.1268 67.3782 48.0453C67.6011 48.0006 67.8183 47.9318 68.0231 47.8383C68.228 47.7443 68.4237 47.6314 68.5839 47.479C68.7449 47.3277 68.8756 47.1453 68.9671 46.9464C69.0148 46.8483 69.0441 46.7397 69.0804 46.6353C69.1153 46.5302 69.1502 46.4255 69.185 46.321C69.2231 46.2175 69.2495 46.1106 69.2744 46.0036C69.3005 45.8969 69.3266 45.7905 69.3525 45.6844C69.4097 45.4733 69.4456 45.2584 69.4837 45.0453C69.5695 44.6207 69.6162 44.1941 69.6737 43.7743C69.6992 43.5639 69.7152 43.3535 69.7364 43.1451C69.7557 42.9365 69.7787 42.7295 69.7894 42.5225C69.9069 40.8701 69.9226 39.2941 69.9123 37.8206C69.9 36.3468 69.8566 34.9743 69.8094 33.7215C69.7609 32.469 69.7098 31.3358 69.6614 30.3412C69.6078 29.3472 69.5284 28.4926 69.417 27.801C69.3044 27.1118 69.1673 26.5758 68.9725 26.2616C68.9234 26.1844 68.8709 26.1216 68.8147 26.0808C68.7589 26.0397 68.6997 26.0247 68.6535 26.0281C68.5587 26.038 68.5244 26.084 68.5235 26.0798C68.5235 26.0798 68.5312 26.07 68.5512 26.0564C68.571 26.0433 68.6041 26.025 68.6525 26.0205C68.7004 26.0154 68.7627 26.03 68.8209 26.0716C68.8796 26.1125 68.9341 26.1759 68.9849 26.2535C69.1865 26.5695 69.3282 27.1062 69.4456 27.7963C69.5617 28.4888 69.6456 29.3444 69.7032 30.3391C69.7557 31.334 69.8104 32.4666 69.8624 33.7195C69.9132 34.9724 69.9595 36.3454 69.9746 37.8202C69.9878 39.2947 69.9743 40.8722 69.8585 42.5277C69.848 42.7349 69.8252 42.9426 69.8061 43.1516C69.7852 43.3606 69.7693 43.5714 69.7439 43.7823C69.6867 44.2037 69.6404 44.6314 69.5544 45.0582C69.5163 45.2723 69.4804 45.488 69.423 45.7007C69.397 45.8076 69.3709 45.9147 69.3447 46.0221C69.3196 46.1298 69.2932 46.2374 69.2548 46.3421C69.2198 46.4476 69.1846 46.5536 69.1494 46.6597C69.1126 46.7654 69.0837 46.8734 69.0338 46.977C68.9386 47.1843 68.8027 47.3743 68.6345 47.5326C68.4662 47.6924 68.2629 47.8097 68.0538 47.9055C67.8436 48.0017 67.621 48.0722 67.3928 48.1181C66.9333 48.2017 66.4678 48.2091 66.0003 48.2264C65.0647 48.2521 64.1157 48.2496 63.1555 48.2408C62.698 48.2339 62.2431 48.2271 61.7911 48.2203C61.3342 48.2088 60.8829 48.1188 60.4661 47.9442C60.0518 47.7711 59.6722 47.4829 59.4531 47.0886C59.3438 46.8929 59.2745 46.6777 59.2409 46.4595C59.2041 46.2397 59.2145 46.0213 59.2135 45.807C59.2142 44.0837 59.2148 42.42 59.2155 40.8345V40.8247L59.2209 40.8161C61.9451 36.4921 64.2673 32.806 65.9096 30.1991C66.7316 28.899 67.3832 27.8685 67.8306 27.1613C68.054 26.8103 68.2262 26.5397 68.3437 26.3553C68.4018 26.2652 68.4462 26.1966 68.477 26.1487C68.507 26.1024 68.5235 26.0798 68.5235 26.0798Z" fill="#455A64"/>
<path d="M1.4705 26.0803C1.4705 26.0803 0.554035 25.1584 0.290945 30.739C0.0426317 36.0064 -0.320711 43.6006 0.949394 46.8586C1.08659 47.2106 1.33085 47.5134 1.65333 47.7118C1.91541 47.873 2.28006 48.0348 2.75365 48.1082C3.85889 48.2793 8.22697 48.1827 8.22697 48.1827C8.22697 48.1827 10.7059 48.1827 10.7434 46.1488C10.7743 44.4749 10.7434 40.8351 10.7434 40.8351L1.4705 26.0803Z" fill="#263238"/>
<path d="M69.3664 21.2708L67.3373 19.9419C66.8765 17.8749 63.1128 13.588 63.1128 13.588C63.1128 13.588 59.1956 4.17203 55.816 1.95203C52.4364 -0.267966 35.9295 0.0112828 35.9295 0.0112828L35.0563 0.0239909C35.0563 0.0239909 17.5637 -0.267967 14.1841 1.95217C10.8045 4.17217 6.8873 13.5881 6.8873 13.5881C6.8873 13.5881 3.12363 17.8751 2.66279 19.942L0.633691 21.271C0.223409 21.5397 -0.0165004 22.0022 0.00088437 22.4912C0.124606 25.978 0.797253 39.8234 1.97145 41.3767C3.09553 42.8637 13.7166 42.0754 16.6035 42.0708C20.7457 42.0642 33.6417 41.8954 33.6417 41.8954L52.595 41.8487C54.7457 41.619 66.5691 43.0609 68.0285 41.3767C69.304 39.9048 69.8754 25.978 69.9991 22.4912C70.0166 22.0019 69.7767 21.5396 69.3664 21.2708Z" fill="#FF725E"/>
<path d="M54.8969 2.58453C54.8114 2.43595 54.6555 2.34138 54.4837 2.33401L35.2923 1.51431L35.1411 1.50781L35.1385 1.52066L15.4965 2.33401C15.3248 2.34138 15.1688 2.43595 15.0833 2.58453L10.08 11.2863C9.91107 11.58 10.1169 11.9472 10.4564 11.9569C11.0057 11.9728 11.8206 11.981 12.7675 11.942C14.3059 11.8786 26.5476 11.9079 33.0093 11.9283L33.0065 11.942C33.0065 11.942 33.7555 11.9391 34.9901 11.9348C36.2246 11.939 36.9737 11.942 36.9737 11.942L36.9715 11.9283C43.4335 11.9079 55.6744 11.8786 57.2127 11.942C58.2087 11.983 59.0587 11.9718 59.6072 11.9544C59.9089 11.9449 60.0912 11.6184 59.9411 11.3574L54.8969 2.58453Z" fill="#455A64"/>
<path d="M0.447266 12.6434C0.447266 12.6434 0.724988 13.5866 1.29651 13.6847C1.86818 13.7829 6.37592 13.9205 6.37592 13.9205L6.81692 14.8244H7.66616L8.28361 11.1992L7.757 11.3074C7.57736 11.3443 7.42712 11.4665 7.35483 11.6346C7.27472 11.8207 7.1 11.9492 6.8979 11.9703L0.447266 12.6434Z" fill="#263238"/>
<path d="M11.946 10.3026L58.103 10.1777L58.4775 11.0919L36.1749 11.2374L11.512 11.0774L11.946 10.3026Z" fill="#FF725E"/>
<g opacity="0.5">
<path d="M11.9458 10.304L57.9708 10.1797L58.4772 11.0932L36.1747 11.2388L11.5117 11.0788L11.9458 10.304Z" fill="black"/>
</g>
<path d="M29.2435 10.5132C29.2437 10.0113 29.0492 8.5918 28.5823 8.21335C28.2217 7.92111 27.368 7.83404 26.9468 7.8095C26.9334 7.80877 26.9205 7.80849 26.907 7.80863C26.6836 7.81123 25.192 7.85108 24.7452 8.21335C24.2781 8.5918 24.0837 10.0114 24.084 10.5132C24.084 10.5183 24.084 10.5232 24.084 10.5281C24.0841 10.8402 24.3381 11.0931 24.6515 11.0931H26.5351H26.7927H28.6763C28.9897 11.0931 29.2437 10.8404 29.2438 10.5281C29.2435 10.5232 29.2435 10.5181 29.2435 10.5132Z" fill="#263238"/>
<g opacity="0.3">
<path d="M29.2435 10.5132C29.2437 10.0113 29.0492 8.5918 28.5823 8.21335C28.2217 7.92111 27.368 7.83404 26.9468 7.8095C26.9334 7.80877 26.9205 7.80849 26.907 7.80863C26.6836 7.81123 25.192 7.85108 24.7452 8.21335C24.2781 8.5918 24.0837 10.0114 24.084 10.5132C24.084 10.5183 24.084 10.5232 24.084 10.5281C24.0841 10.8402 24.3381 11.0931 24.6515 11.0931H26.5351H26.7927H28.6763C28.9897 11.0931 29.2437 10.8404 29.2438 10.5281C29.2435 10.5232 29.2435 10.5181 29.2435 10.5132Z" fill="black"/>
</g>
<path d="M27.2102 10.1424C27.2105 9.32078 26.8922 6.99697 26.1277 6.37739C25.5374 5.89888 24.1398 5.75637 23.4505 5.71637C23.4283 5.71507 23.4073 5.71464 23.3851 5.71493C23.0193 5.71926 20.5776 5.78452 19.8462 6.37739C19.0817 6.99697 18.7634 9.32078 18.7637 10.1424C18.7637 10.1506 18.7637 10.1587 18.7637 10.1668C18.7638 10.6779 19.1797 11.0917 19.6926 11.0917H22.7761H23.1978H26.2813C26.7942 11.0917 27.2099 10.6781 27.2102 10.1668C27.2102 10.1587 27.2102 10.1506 27.2102 10.1424Z" fill="#263238"/>
<g opacity="0.3">
<path d="M19.1375 34.1665C19.1375 34.1665 4.36043 32.2301 3.75993 32.1578C2.84665 32.0479 2.35683 32.6376 2.35683 33.3395C2.35683 33.8339 2.29034 35.7209 2.25093 36.7936C2.22775 37.4261 2.5485 38.0254 3.09554 38.3471C3.41108 38.5325 3.83382 38.7239 4.39665 38.889C5.63967 39.2534 13.1293 39.5979 14.6818 39.6659C14.8633 39.6739 15.0405 39.6116 15.1767 39.4918C15.7356 39.0003 17.2319 37.6608 17.7028 36.9973C19.2463 34.8231 19.1375 34.1665 19.1375 34.1665ZM11.4671 38.1915L4.32291 37.0384L4.60368 33.1391L14.308 34.0171L11.4671 38.1915Z" fill="black"/>
</g>
<g opacity="0.3">
<path d="M2.57904 24.1538C2.57904 24.1538 1.84729 26.3686 6.49758 27.3997C11.2058 28.4437 18.1734 30.3349 18.1734 30.3349L14.4317 27.6761C14.4317 27.6761 3.66791 25.8868 3.40004 24.2459C3.09349 22.3686 3.39888 20.2598 3.39888 20.2598L2.57904 24.1538Z" fill="black"/>
</g>
<path d="M20.7475 34.1011C20.7472 34.1024 20.7299 34.0991 20.6966 34.0916C20.6597 34.0828 20.611 34.0712 20.5493 34.0565C20.4157 34.0229 20.2262 33.9754 19.9846 33.9146C19.4932 33.7953 18.7828 33.6192 17.8998 33.4247C16.1353 33.0299 13.683 32.5489 10.9594 32.1068C9.597 31.8868 8.29777 31.6832 7.11213 31.5297C6.52003 31.4487 5.9572 31.3717 5.43015 31.2997C4.90382 31.2262 4.41183 31.1549 3.96243 31.1664C3.51463 31.1762 3.10754 31.28 2.81967 31.492C2.52804 31.6959 2.32522 31.935 2.1915 32.1458C1.92146 32.5742 1.92479 32.8732 1.91016 32.8669C1.91016 32.8669 1.91016 32.7963 1.94058 32.6663C1.96984 32.5367 2.03373 32.3474 2.16658 32.1303C2.29842 31.9143 2.50023 31.669 2.79548 31.4576C3.08783 31.2372 3.50753 31.1261 3.96084 31.1134C4.41748 31.0984 4.91107 31.1671 5.43739 31.2379C5.96502 31.3079 6.52843 31.3826 7.1214 31.4612C8.30864 31.6111 9.60844 31.8127 10.9716 32.0329C13.6966 32.4752 16.149 32.9648 17.9117 33.3731C18.7937 33.5744 19.5024 33.7585 19.992 33.8864C20.2323 33.9531 20.4206 34.0053 20.5533 34.0421C20.6142 34.0598 20.6623 34.0738 20.6988 34.0844C20.7312 34.0942 20.7479 34.1 20.7475 34.1011Z" fill="#263238"/>
<path d="M1.99151 28.3731C1.9889 28.3731 1.98644 28.3448 1.98397 28.2906C1.98209 28.2282 1.97977 28.15 1.97702 28.0541C1.97195 27.8486 1.97108 27.5513 1.97557 27.184C1.98412 26.4494 2.02425 25.4341 2.12334 24.317C2.2233 23.1996 2.36325 22.1932 2.48466 21.4685C2.54521 21.1061 2.59853 20.8135 2.63981 20.6122C2.65952 20.5184 2.6756 20.4417 2.68849 20.3806C2.70037 20.3278 2.7079 20.3004 2.71051 20.3008C2.71312 20.3012 2.71051 20.3297 2.70341 20.3832C2.69429 20.4449 2.68284 20.5223 2.66879 20.6171C2.63619 20.8303 2.59172 21.1214 2.53739 21.4764C2.4296 22.2024 2.29835 23.2079 2.19853 24.3235C2.09958 25.4386 2.05119 26.4515 2.02903 27.185C2.01976 27.5441 2.01208 27.8384 2.00643 28.054C2.00353 28.1498 2.00107 28.2279 1.99918 28.2903C1.99658 28.3446 1.99411 28.3731 1.99151 28.3731Z" fill="#263238"/>
<path d="M5.22885 18.3976C5.22363 18.3976 5.22175 18.3347 5.22306 18.2202C5.22233 18.1627 5.22523 18.0927 5.23537 18.0121C5.24551 17.9317 5.24957 17.8384 5.26898 17.7382C5.32954 17.3335 5.46615 16.7846 5.65434 16.1912C5.84181 15.5972 6.04246 15.0703 6.19544 14.6924C6.27165 14.5033 6.33728 14.352 6.38422 14.248C6.4313 14.144 6.46042 14.0879 6.4652 14.0899C6.46998 14.0919 6.45013 14.1518 6.41145 14.259C6.36683 14.3804 6.3112 14.5319 6.24528 14.7116C6.10533 15.0937 5.91309 15.6222 5.72635 16.214C5.53888 16.8052 5.39516 17.3483 5.32171 17.7472C5.24623 18.1458 5.24305 18.3976 5.22885 18.3976Z" fill="#263238"/>
<path d="M6.09977 19.4062C6.09977 19.4062 3.67604 18.5253 3.36601 20.3983C3.05598 22.2713 3.088 24.1345 3.4948 24.7899C3.9016 25.4453 7.64368 26.3381 7.64368 26.3381L14.1158 27.7561C14.1158 27.7561 14.5811 27.8526 14.3008 27.3271C13.9868 26.7387 12.2725 22.9712 11.2819 22.0553C9.4533 20.3646 6.09977 19.4062 6.09977 19.4062Z" fill="#F5F5F5"/>
<g opacity="0.3">
<path d="M8.49038 26.5257C8.49038 26.5257 8.50066 22.1118 8.17542 21.6216C7.85018 21.1314 4.03711 19.3726 4.03711 19.3726C4.03711 19.3726 4.40857 19.0575 5.17046 19.2019C5.9322 19.3463 7.19941 19.6901 8.25206 20.2281C9.30471 20.7661 10.9899 21.5376 11.6189 22.4293C11.8923 22.8169 12.4654 23.7429 13.011 24.7475C13.7207 26.0545 14.3928 27.4519 14.3928 27.529C14.3928 27.6896 14.4303 27.8356 13.8014 27.7017C12.3446 27.392 8.49038 26.5257 8.49038 26.5257Z" fill="black"/>
</g>
<path d="M10.6011 26.1253C11.4681 26.1253 12.1709 25.4248 12.1709 24.5607C12.1709 23.6966 11.4681 22.9961 10.6011 22.9961C9.73409 22.9961 9.03125 23.6966 9.03125 24.5607C9.03125 25.4248 9.73409 26.1253 10.6011 26.1253Z" fill="#F5F5F5"/>
<path d="M12.1777 24.5602C12.1675 24.5609 12.1762 24.4207 12.1143 24.1817C12.0531 23.9474 11.8953 23.6033 11.5415 23.3376C11.3662 23.2078 11.1457 23.0978 10.8919 23.0539C10.6397 23.0116 10.3553 23.0201 10.085 23.1232C9.94892 23.1706 9.81767 23.242 9.69713 23.3321C9.57515 23.4205 9.46461 23.5301 9.37334 23.6572C9.18486 23.9074 9.07881 24.2288 9.07562 24.56C9.07867 24.8914 9.18471 25.2128 9.37319 25.4632C9.46446 25.5903 9.575 25.6998 9.69699 25.7882C9.81752 25.8783 9.94878 25.9498 10.0848 25.9971C10.3551 26.1002 10.6395 26.1088 10.8918 26.0665C11.1457 26.0226 11.3662 25.9125 11.5415 25.7827C11.8953 25.517 12.0531 25.173 12.1143 24.9386C12.1762 24.6997 12.1675 24.5593 12.1777 24.5602C12.1777 24.5602 12.1969 24.6999 12.1427 24.9457C12.0891 25.1864 11.9356 25.5443 11.5738 25.8249C11.3946 25.9619 11.1672 26.0792 10.9032 26.1277C10.6413 26.1746 10.3446 26.168 10.0611 26.0623C9.91835 26.0136 9.78058 25.9395 9.65396 25.8458C9.52589 25.7539 9.40956 25.6395 9.31351 25.5067C9.11517 25.245 9.0029 24.9073 9 24.5599C9.00304 24.2125 9.11532 23.875 9.31365 23.6134C9.4097 23.4807 9.52604 23.3662 9.6541 23.2744C9.78072 23.1807 9.9185 23.1067 10.0611 23.0581C10.3446 22.9522 10.6411 22.9458 10.9032 22.9927C11.167 23.0412 11.3946 23.1584 11.5737 23.2953C11.9354 23.5759 12.089 23.9338 12.1427 24.1745C12.1969 24.4204 12.1777 24.5602 12.1777 24.5602Z" fill="#263238"/>
<path d="M10.6024 24.492C11.1789 24.492 11.6804 24.8107 11.94 25.2808C12.0601 25.0635 12.1287 24.814 12.1287 24.5485C12.1287 23.7083 11.4453 23.0273 10.6024 23.0273C9.75954 23.0273 9.07617 23.7084 9.07617 24.5485C9.07617 24.8142 9.14484 25.0635 9.2648 25.2808C9.52455 24.8108 10.026 24.492 10.6024 24.492Z" fill="#E0E0E0"/>
<path d="M11.2769 24.5083C11.2769 24.8807 10.974 25.1826 10.6004 25.1826C10.2268 25.1826 9.92383 24.8807 9.92383 24.5083C9.92383 24.1359 10.2268 23.834 10.6004 23.834C10.9742 23.834 11.2769 24.1359 11.2769 24.5083Z" fill="white"/>
<path d="M11.2816 24.509C11.2743 24.5092 11.2751 24.4489 11.2462 24.3478C11.2177 24.2486 11.1484 24.1044 10.9982 23.9941C10.8531 23.8835 10.6155 23.8224 10.3864 23.9082C10.1593 23.9868 9.96367 24.2278 9.96614 24.5088C9.96353 24.7899 10.1593 25.0309 10.3864 25.1096C10.6155 25.1954 10.8531 25.1343 10.9982 25.0237C11.1484 24.9134 11.2176 24.7691 11.2462 24.67C11.2752 24.569 11.2743 24.5087 11.2816 24.509C11.2842 24.509 11.2859 24.5238 11.2869 24.5524C11.2885 24.581 11.2858 24.6236 11.2746 24.6772C11.2536 24.7827 11.1887 24.941 11.0305 25.0662C10.8778 25.1913 10.6182 25.2663 10.3627 25.175C10.1093 25.0919 9.88761 24.8237 9.89066 24.509C9.88776 24.1945 10.1093 23.9263 10.3627 23.8432C10.6182 23.7519 10.8778 23.8267 11.0305 23.9519C11.1887 24.0769 11.2536 24.2352 11.2746 24.3409C11.2858 24.3945 11.2885 24.4371 11.2869 24.4656C11.2861 24.4941 11.2843 24.509 11.2816 24.509Z" fill="#263238"/>
<path d="M11.1948 23.4492C11.1667 23.4965 11.0247 23.4549 10.8103 23.4414C10.5981 23.4256 10.3017 23.449 10.0313 23.5918C9.76156 23.7358 9.5767 23.9678 9.47138 24.1522C9.36302 24.337 9.31854 24.4778 9.26334 24.4746C9.21568 24.4742 9.16135 24.3136 9.22263 24.0562C9.28 23.8044 9.4808 23.4596 9.85399 23.26C10.2282 23.0628 10.6273 23.0891 10.869 23.1821C11.1176 23.275 11.221 23.4096 11.1948 23.4492Z" fill="white"/>
<path d="M11.5865 23.6974C11.5004 23.7564 11.4218 23.7912 11.4074 23.7779C11.3937 23.764 11.4264 23.6846 11.4831 23.5972C11.5394 23.5102 11.6269 23.4663 11.6704 23.5083C11.7137 23.5505 11.6723 23.6388 11.5865 23.6974Z" fill="white"/>
<path d="M35.3108 19.6398C35.3108 19.6411 35.2898 19.6424 35.2488 19.6435C35.2043 19.6444 35.1439 19.6456 35.0667 19.647C34.9028 19.6485 34.6677 19.6506 34.3668 19.6532C33.7551 19.6554 32.8766 19.6584 31.7927 19.6623C29.616 19.6626 26.6149 19.6632 23.3002 19.6636C21.6417 19.6607 20.0619 19.6578 18.6244 19.6554C17.906 19.6534 17.2233 19.6515 16.584 19.6496C16.2646 19.6485 15.956 19.6474 15.6593 19.6464C15.3649 19.6272 15.0859 19.7095 14.8752 19.8734C14.46 20.2212 14.0841 20.5362 13.7533 20.8131C13.5877 20.9511 13.4335 21.0797 13.2912 21.1982C13.1421 21.3121 12.9817 21.3819 12.8325 21.4177C12.6833 21.4545 12.5438 21.4572 12.428 21.4476C12.3123 21.4415 12.2136 21.4364 12.1323 21.4322C12.0553 21.4276 11.995 21.424 11.9505 21.4213C11.9095 21.4184 11.8887 21.4162 11.8887 21.4149C11.8887 21.4136 11.9098 21.4132 11.9508 21.4135C11.9953 21.4143 12.0556 21.4155 12.1328 21.4169C12.2141 21.4191 12.3127 21.4219 12.4285 21.425C12.5457 21.4322 12.6794 21.4271 12.8253 21.3891C12.9704 21.352 13.1256 21.2819 13.269 21.1697C13.4097 21.05 13.5621 20.9202 13.726 20.7809C14.0551 20.5009 14.4292 20.1827 14.8425 19.8313C15.0598 19.658 15.3607 19.5698 15.6593 19.5884C15.956 19.5881 16.2646 19.5877 16.584 19.5872C17.2232 19.5868 17.906 19.5865 18.6244 19.5861C20.0619 19.5868 21.6417 19.5877 23.3004 19.5884C26.6149 19.5965 29.616 19.6038 31.7927 19.609C32.8766 19.6152 33.7551 19.6203 34.3668 19.6239C34.6677 19.6272 34.9028 19.63 35.0667 19.6317C35.1439 19.6334 35.2042 19.6347 35.2486 19.6356C35.2898 19.6372 35.3108 19.6385 35.3108 19.6398Z" fill="#263238"/>
<path d="M65.6814 40.2213C65.6039 40.0576 65.4386 39.9412 65.1117 39.978C64.2063 40.0801 54.7146 40.2912 53.4067 39.978C52.0988 39.6648 47.7402 34.7354 45.8959 34.3997C44.3487 34.118 36.8259 33.9674 34.4401 34.0361C32.0544 33.9672 24.5315 34.118 22.9844 34.3997C21.14 34.7355 16.8474 40.147 15.5395 40.4601C14.2316 40.7733 4.674 40.0801 3.76854 39.978C3.44156 39.9412 3.2764 40.0576 3.19875 40.2213C3.03779 40.5611 3.29944 40.9522 3.67611 40.9628C5.69782 41.0198 13.5043 41.1082 14.9642 41.0828C16.497 41.056 32.1697 40.7699 34.7958 40.7219C38.7556 40.7469 52.284 40.833 53.7161 40.853C55.4056 40.8767 63.1824 41.0198 65.2042 40.9628C65.5807 40.9522 65.8423 40.5611 65.6814 40.2213Z" fill="#263238"/>
<path d="M31.7793 2.16037C31.8578 2.16037 32.0918 3.51865 33.192 3.49252C34.292 3.46638 36.9759 3.49208 36.9759 3.49208V1.79492L31.7793 2.16037Z" fill="#263238"/>
<path d="M0.637329 12.7853C0.302092 12.759 0.0581255 12.4569 0.105499 12.1251C0.253125 11.0898 0.79756 9.07704 2.80391 8.77916C4.57977 8.51536 5.869 8.59607 6.54976 8.68386C6.86167 8.72415 7.01582 9.00585 7.05319 9.31716C7.22414 10.741 7.08608 12.5062 6.6742 12.723C6.24379 12.9494 2.10185 12.8999 0.637329 12.7853Z" fill="#FF725E"/>
<path d="M14.5217 1.79495C14.5228 1.79552 14.5179 1.80707 14.5072 1.82888C14.4942 1.85443 14.4779 1.88605 14.4581 1.9249C14.4106 2.01384 14.3452 2.13585 14.2626 2.29049C14.0869 2.61191 13.8379 3.0676 13.5315 3.62827C12.905 4.75913 12.0446 6.31233 11.0943 8.02812C10.3147 9.42235 9.59526 10.709 9.02199 11.7343L9.01895 11.7398L9.01417 11.7434C8.32312 12.2726 7.75449 12.7081 7.35319 13.0154C7.15762 13.1626 7.00303 13.2792 6.89221 13.3626C6.84194 13.3993 6.80166 13.4286 6.77022 13.4517C6.74241 13.4715 6.72763 13.481 6.72662 13.4797C6.7256 13.4786 6.73864 13.4666 6.76457 13.4445C6.79471 13.4196 6.8331 13.388 6.8812 13.3485C6.98956 13.2618 7.14081 13.1411 7.33204 12.9884C7.72943 12.676 8.29255 12.2336 8.97694 11.6959L8.96911 11.705C9.53875 10.6777 10.2536 9.38856 11.0282 7.99145C11.9861 6.27985 12.8533 4.7304 13.4847 3.60228C13.7999 3.04637 14.0561 2.59472 14.2369 2.27605C14.3248 2.1243 14.3942 2.00446 14.4447 1.91739C14.4674 1.87999 14.4856 1.84967 14.5005 1.82498C14.5134 1.80448 14.5207 1.79437 14.5217 1.79495Z" fill="#263238"/>
<path d="M17.1986 0.980073C17.2019 0.99148 17.0614 1.03682 16.8394 1.11999C16.6192 1.20532 16.3156 1.33238 16.028 1.54623C15.7414 1.76166 15.5341 2.01665 15.3903 2.20363C15.248 2.39264 15.1651 2.51436 15.155 2.50815C15.1475 2.50353 15.2142 2.3717 15.3468 2.17273C15.4808 1.97622 15.6865 1.70895 15.9827 1.48616C16.2799 1.26524 16.5949 1.14309 16.8218 1.06988C17.0505 0.998554 17.1961 0.97141 17.1986 0.980073Z" fill="#263238"/>
<g opacity="0.3">
<path d="M9.01448 11.7305L8.87569 11.8262C8.81934 11.7563 12.2221 18.8659 13.8236 20.7414L14.8763 19.8513C12.6056 17.659 10.9086 14.2535 9.01448 11.7305Z" fill="black"/>
</g>
<path d="M15.7676 39.6784C15.7671 39.6755 15.7976 39.6722 15.8478 39.6412C15.8981 39.6112 15.9703 39.5612 16.0602 39.4899C16.2415 39.3486 16.4982 39.1267 16.8217 38.8335C17.468 38.2461 18.3833 37.3737 19.4837 36.2656C19.7586 35.9884 20.0447 35.696 20.3392 35.3883C20.6374 35.0855 20.9188 34.739 21.2802 34.4457C21.6413 34.1562 22.0626 33.9158 22.5267 33.7478C22.9904 33.5785 23.4928 33.4798 24.011 33.4399C24.2703 33.421 24.5339 33.4204 24.7983 33.4177C25.0631 33.4151 25.331 33.4125 25.6017 33.4097C26.1431 33.4045 26.696 33.3992 27.2588 33.3937C28.3845 33.3832 29.5498 33.3723 30.7434 33.3611C35.5185 33.3218 39.8408 33.2863 42.9724 33.2604C44.5351 33.2512 45.8006 33.2437 46.6782 33.2385C47.1136 33.2376 47.4527 33.2369 47.6858 33.2363C47.7991 33.2369 47.886 33.2373 47.9479 33.2376C48.007 33.2383 48.0371 33.2407 48.0371 33.2407C48.0371 33.2407 48.007 33.2435 47.9479 33.2453C47.8862 33.2467 47.7991 33.2487 47.686 33.2513C47.4529 33.2551 47.1138 33.2606 46.6785 33.2677C45.8009 33.2785 44.5354 33.2941 42.9728 33.3134C39.8412 33.3449 35.5189 33.3882 30.7439 33.4362C29.5503 33.4468 28.3849 33.4572 27.2592 33.4672C26.6964 33.472 26.1436 33.4767 25.6022 33.4814C25.3314 33.4837 25.0635 33.4858 24.7987 33.4881C24.5334 33.4905 24.2731 33.4906 24.0162 33.5088C23.5034 33.5473 23.0072 33.6439 22.5495 33.8096C22.0916 33.9743 21.6762 34.2099 21.3196 34.494C20.9646 34.7799 20.682 35.1249 20.3814 35.4282C20.0852 35.7353 19.7978 36.0267 19.5217 36.3029C18.4157 37.4067 17.4945 38.2737 16.8414 38.855C16.5145 39.1452 16.2544 39.3638 16.0695 39.5016C15.9776 39.5712 15.9038 39.6194 15.8516 39.6475C15.7996 39.6771 15.7676 39.6784 15.7676 39.6784Z" fill="#263238"/>
<g opacity="0.3">
<path d="M7.96028 31.0682C7.51291 30.6267 7.06091 30.1814 6.52879 29.8461C5.99667 29.5107 5.23289 29.1184 4.75032 29.4303C4.50621 29.6956 4.30817 30.0031 4.16779 30.3349C4.11983 30.4481 4.07912 30.58 4.13345 30.6903C4.20096 30.8271 4.37684 30.8625 4.52852 30.8815C5.63709 31.0204 6.74581 31.1593 7.85438 31.2982C7.91856 31.3063 7.99882 31.3067 8.02997 31.2503C8.06401 31.1889 8.01012 31.1175 7.96028 31.0682Z" fill="white"/>
</g>
<g opacity="0.3">
<path d="M20.918 28.9709C29.4041 31.223 38.3706 30.658 47.0944 29.6543C48.4412 29.4994 49.906 29.276 50.8255 28.2832" fill="black"/>
</g>
<path d="M52.5518 21.1711C49.2371 20.7042 42.2681 20.4726 35.3502 20.4766C28.4324 20.4726 21.4634 20.704 18.1487 21.1711C17.1093 21.3175 16.4338 22.3455 16.7299 23.349C16.7334 23.3608 16.7369 23.3725 16.7405 23.3843C17.1027 24.5705 18.5323 28.3584 20.8093 28.9257C21.8655 29.189 27.8174 29.4419 34.1676 29.4929L34.1675 29.5021C34.5615 29.5023 34.956 29.5014 35.3502 29.5C35.7444 29.5016 36.1389 29.5023 36.533 29.5021L36.5328 29.4929C42.8829 29.4419 48.8349 29.189 49.891 28.9257C52.1679 28.3584 53.5975 24.5705 53.9598 23.3843C53.9634 23.3725 53.9669 23.3607 53.9705 23.349C54.2668 22.3455 53.5911 21.3175 52.5518 21.1711Z" fill="#263238"/>
<path d="M53.389 28.4247C53.389 28.4247 53.36 28.442 53.3016 28.4725C53.2408 28.5037 53.1543 28.5482 53.0416 28.6062C52.9262 28.6647 52.7844 28.7366 52.6175 28.8214C52.5332 28.8629 52.4441 28.9113 52.3457 28.9564C52.2466 29.0001 52.1412 29.0467 52.0296 29.096C51.1441 29.5072 49.8193 30.0176 48.1293 30.4648C46.4375 30.901 44.3825 31.2735 42.0799 31.4689C39.7783 31.6817 37.2357 31.7276 34.5712 31.7167C31.9055 31.7037 29.3624 31.5838 27.0704 31.2806C24.7779 30.9845 22.7424 30.5061 21.0851 29.9522C19.4243 29.4045 18.1436 28.7913 17.2852 28.3281C17.0685 28.2156 16.8823 28.1043 16.719 28.0112C16.5552 27.9191 16.42 27.8355 16.3112 27.7669C16.2039 27.6996 16.1214 27.648 16.0635 27.6117C16.008 27.5763 15.9805 27.5566 15.9805 27.5566C15.9805 27.5566 16.0106 27.5719 16.0675 27.6052C16.1264 27.64 16.2099 27.6895 16.319 27.7539C16.429 27.8202 16.5653 27.9017 16.73 27.9917C16.8942 28.0827 17.0814 28.1918 17.2988 28.3023C18.1604 28.757 19.4419 29.3617 21.1016 29.9017C22.7578 30.4479 24.7901 30.9199 27.0791 31.2119C29.3678 31.5108 31.9074 31.6284 34.5714 31.6414C37.2347 31.6524 39.7748 31.6085 42.0733 31.3999C44.3732 31.2086 46.425 30.8421 48.1156 30.4133C49.8042 29.9734 51.1294 29.4715 52.0175 29.0691C52.1294 29.021 52.2352 28.9756 52.3346 28.9327C52.4334 28.8886 52.5228 28.8414 52.6075 28.801C52.7757 28.7188 52.9183 28.6492 53.0345 28.5925C53.1486 28.5375 53.2363 28.4952 53.2978 28.4656C53.3575 28.4374 53.389 28.4247 53.389 28.4247Z" fill="#263238"/>
<path d="M53.7924 23.0163C53.7924 23.0372 45.5165 23.0541 35.3101 23.0541C25.1002 23.0541 16.8262 23.0371 16.8262 23.0163C16.8262 22.9954 25.1002 22.9785 35.3101 22.9785C45.5165 22.9784 53.7924 22.9954 53.7924 23.0163Z" fill="#455A64"/>
<path d="M53.7924 21.8952C53.7924 21.9161 45.5165 21.933 35.3101 21.933C25.1002 21.933 16.8262 21.916 16.8262 21.8952C16.8262 21.8743 25.1002 21.8574 35.3101 21.8574C45.5165 21.8573 53.7924 21.8743 53.7924 21.8952Z" fill="#455A64"/>
<path d="M48.5594 20.7721C48.5594 20.7931 42.6357 20.8099 35.3302 20.8099C28.022 20.8099 22.0996 20.7929 22.0996 20.7721C22.0996 20.7512 28.022 20.7344 35.3302 20.7344C42.6357 20.7344 48.5594 20.7512 48.5594 20.7721Z" fill="#455A64"/>
<path d="M53.7924 24.155C53.7924 24.1759 45.5165 24.1927 35.3101 24.1927C25.1002 24.1927 16.8262 24.1757 16.8262 24.155C16.8262 24.1342 25.1002 24.1172 35.3101 24.1172C45.5165 24.1172 53.7924 24.134 53.7924 24.155Z" fill="#455A64"/>
<path d="M52.9759 25.2917C52.9759 25.3126 45.0293 25.3294 35.2291 25.3294C25.4253 25.3294 17.4805 25.3124 17.4805 25.2917C17.4805 25.2708 25.4253 25.2539 35.2291 25.2539C45.0293 25.2538 52.9759 25.2708 52.9759 25.2917Z" fill="#455A64"/>
<path d="M52.6189 26.4284C52.6189 26.4493 44.887 26.4662 35.3513 26.4662C25.8124 26.4662 18.0819 26.4492 18.0819 26.4284C18.0819 26.4075 25.8122 26.3906 35.3513 26.3906C44.8868 26.3906 52.6189 26.4076 52.6189 26.4284Z" fill="#455A64"/>
<path d="M51.7278 27.5651C51.7278 27.586 44.3948 27.6029 35.351 27.6029C26.3041 27.6029 18.9727 27.5859 18.9727 27.5651C18.9727 27.5443 26.3041 27.5273 35.351 27.5273C44.3948 27.5273 51.7278 27.5442 51.7278 27.5651Z" fill="#455A64"/>
<path d="M50.6146 28.7038C50.6146 28.7247 43.8202 28.7416 35.4408 28.7416C27.0586 28.7416 20.2656 28.7246 20.2656 28.7038C20.2656 28.683 27.0586 28.666 35.4408 28.666C43.8202 28.6659 50.6146 28.6829 50.6146 28.7038Z" fill="#455A64"/>
<path d="M7.1091 40.4932C7.11011 40.4966 7.11113 40.5001 7.11199 40.5036C7.1824 40.7492 6.9974 41.0226 6.74112 41.0167L4.3326 40.9763C4.14441 40.972 3.98751 40.786 3.96447 40.5999L3.94796 40.4665C3.91855 40.2299 4.1389 40.0131 4.37736 40.0303L6.76604 40.2047C6.92583 40.2161 7.0652 40.3394 7.1091 40.4932Z" fill="white"/>
<path d="M52.0318 39.0944C52.0318 39.1153 44.2669 39.1322 34.6906 39.1322C25.111 39.1322 17.3477 39.1152 17.3477 39.0944C17.3477 39.0735 25.111 39.0566 34.6906 39.0566C44.2669 39.0566 52.0318 39.0736 52.0318 39.0944Z" fill="#455A64"/>
<path d="M24.9971 40.3554H23.9799L23.9081 39.0957H25.0739L24.9971 40.3554Z" fill="#455A64"/>
<path d="M34.5109 40.3554H33.4937L33.4219 39.0957H34.5877L34.5109 40.3554Z" fill="#455A64"/>
<path d="M44.0207 40.3554H43.0035L42.9316 39.0957H44.0974L44.0207 40.3554Z" fill="#455A64"/>
<path d="M51.4995 38.6399C49.6597 37.06 47.1812 34.63 45.9053 34.3977C44.3582 34.116 36.8353 33.9654 34.4495 34.0341C32.0638 33.9653 24.5409 34.116 22.9938 34.3977C21.807 34.6137 19.6067 36.9312 17.8401 38.6399C29.0598 38.6399 40.2797 38.6399 51.4995 38.6399Z" fill="#455A64"/>
<path d="M2.53314 37.813C2.53169 37.8112 2.55907 37.7865 2.61311 37.7408C2.67236 37.6917 2.75218 37.6257 2.85316 37.5421C3.06989 37.3666 3.37702 37.1182 3.76108 36.8071L3.76891 36.8008L3.77919 36.8021C4.97237 36.9481 6.77112 37.1683 8.78167 37.4143C9.75986 37.5379 10.6878 37.6551 11.5149 37.7595L11.5214 37.7604L11.527 37.7634C12.5265 38.3114 13.3734 38.7757 13.9771 39.1067C14.2703 39.2703 14.5043 39.4007 14.6711 39.4937C14.7468 39.5373 14.8074 39.5721 14.8538 39.5988C14.8949 39.6232 14.9158 39.6366 14.9149 39.6382C14.914 39.6399 14.8913 39.6297 14.8485 39.6086C14.8009 39.5843 14.7387 39.5526 14.6608 39.5129C14.4919 39.4239 14.2547 39.2992 13.9576 39.1428C13.3507 38.8178 12.4991 38.3616 11.4944 37.8235L11.5065 37.8274C10.6791 37.725 9.75088 37.6101 8.7724 37.4889C6.7633 37.2324 4.96571 37.0026 3.77325 36.8503L3.79151 36.8453C3.40151 37.1489 3.08974 37.3915 2.86968 37.5627C2.76537 37.6421 2.68293 37.7048 2.62165 37.7514C2.56472 37.7936 2.53458 37.8147 2.53314 37.813Z" fill="#263238"/>
<path d="M14.9165 35.057C14.9165 35.057 15.4085 34.2284 14.9165 34.0191C14.3516 33.7789 4.91774 32.6512 4.53398 32.6176C3.76861 32.5503 3.49161 32.8943 3.31182 33.7899C3.13218 34.6854 2.73682 36.9064 3.49161 37.5512C4.2464 38.1961 5.43248 38.4827 7.76871 38.6259C10.1049 38.7691 11.3339 38.848 12.484 38.2031C13.6342 37.5583 14.9165 35.057 14.9165 35.057Z" fill="#263238"/>
<path d="M14.435 27.676C14.4108 27.6868 14.2778 27.4435 14.0496 27C13.8207 26.5567 13.4963 25.9124 13.0742 25.1296C12.8598 24.7403 12.6268 24.3124 12.3556 23.8676C12.0847 23.4236 11.7877 22.9511 11.4291 22.5005C11.2449 22.2764 11.0581 22.066 10.8249 21.8759C10.5952 21.6845 10.344 21.514 10.0715 21.3575C9.79974 21.2011 9.50739 21.0514 9.2146 20.896C8.92152 20.7418 8.6238 20.5875 8.32029 20.4385C7.71342 20.14 7.10915 19.8807 6.50677 19.6902C6.20572 19.5952 5.90554 19.517 5.60855 19.4543C5.31156 19.3886 5.02471 19.3463 4.75148 19.355C4.48042 19.3646 4.2253 19.4325 4.02987 19.5726C3.83603 19.7133 3.69999 19.921 3.60828 20.1484C3.51426 20.3751 3.45689 20.6164 3.40358 20.8507C3.35229 21.0862 3.30086 21.3188 3.24885 21.5348C3.04168 22.3983 2.87363 23.0986 2.75628 23.5878C2.63981 24.0722 2.57461 24.3406 2.5481 24.3364C2.52304 24.3327 2.53941 24.0553 2.61199 23.5602C2.68327 23.0651 2.81394 22.3531 2.98794 21.4786C3.02951 21.2599 3.07298 21.0307 3.11832 20.7921C3.16555 20.5508 3.21727 20.2948 3.31738 20.0333C3.4143 19.7741 3.57496 19.5015 3.83342 19.3062C4.09216 19.1122 4.41813 19.025 4.73569 19.0089C5.05456 18.9935 5.37299 19.0387 5.6807 19.1026C5.99044 19.1639 6.30365 19.2425 6.61716 19.3388C7.24432 19.5317 7.8693 19.7975 8.48661 20.1012C8.79548 20.2528 9.09595 20.4094 9.39018 20.5657C9.68341 20.7229 9.9733 20.8731 10.2578 21.0397C10.5418 21.2056 10.8134 21.3936 11.0565 21.6012C11.3012 21.8048 11.5163 22.0512 11.7019 22.2862C12.0709 22.766 12.3617 23.2523 12.6255 23.7105C12.889 24.1691 13.1101 24.6074 13.311 25.0078C13.7058 25.8119 13.9944 26.4758 14.1829 26.9392C14.3708 27.4028 14.4583 27.6656 14.435 27.676Z" fill="#263238"/>
<path d="M5.92243 22.9476C6.65665 22.9476 7.29539 23.3534 7.62614 23.9522C7.77898 23.6754 7.86649 23.3576 7.86649 23.0195C7.86649 21.9494 6.99608 21.082 5.92243 21.082C4.84877 21.082 3.97852 21.9495 3.97852 23.0195C3.97852 23.3578 4.06587 23.6756 4.21886 23.9522C4.54961 23.3536 5.18835 22.9476 5.92243 22.9476Z" fill="#E0E0E0"/>
<path d="M5.91983 23.7892C6.38254 23.7892 6.75764 23.4153 6.75764 22.9541C6.75764 22.493 6.38254 22.1191 5.91983 22.1191C5.45713 22.1191 5.08203 22.493 5.08203 22.9541C5.08203 23.4153 5.45713 23.7892 5.91983 23.7892Z" fill="white"/>
<path d="M6.7621 22.9548C6.75428 22.9552 6.7566 22.8804 6.72168 22.7545C6.6872 22.6309 6.60202 22.4506 6.41498 22.3122C6.23433 22.1735 5.93748 22.0964 5.65078 22.2031C5.36639 22.3011 5.12112 22.6027 5.12431 22.9546C5.12097 23.3066 5.36639 23.6084 5.65078 23.7065C5.93763 23.8133 6.23447 23.7361 6.41513 23.5973C6.60202 23.459 6.6872 23.2786 6.72168 23.155C6.75645 23.0291 6.75428 22.9543 6.7621 22.9548C6.76471 22.9548 6.7663 22.9731 6.76703 23.0085C6.76833 23.0437 6.76442 23.0963 6.75022 23.1623C6.72327 23.2922 6.64243 23.4866 6.44744 23.6396C6.25924 23.7929 5.94038 23.8841 5.62702 23.7716C5.47273 23.7179 5.32496 23.6143 5.21978 23.4701C5.1117 23.3279 5.05028 23.1439 5.04883 22.9546C5.05042 22.7655 5.11185 22.5817 5.21992 22.4394C5.32525 22.2952 5.47287 22.1918 5.62716 22.1379C5.94052 22.0256 6.25939 22.1166 6.44744 22.2699C6.64229 22.4231 6.72327 22.6173 6.75022 22.7473C6.76456 22.8133 6.76848 22.8658 6.76703 22.9011C6.7663 22.9364 6.76456 22.9548 6.7621 22.9548Z" fill="#263238"/>
<path d="M7.85894 23.0185C7.84764 23.0195 7.85966 22.8457 7.7839 22.5489C7.70885 22.258 7.514 21.8303 7.07503 21.4995C6.85758 21.3379 6.58362 21.2008 6.26808 21.1459C5.95458 21.0929 5.60109 21.1033 5.26469 21.2312C5.09533 21.29 4.93221 21.3788 4.78212 21.4908C4.63043 21.6007 4.4928 21.737 4.37922 21.895C4.14467 22.2062 4.01255 22.6061 4.00864 23.0182C4.0124 23.4304 4.14453 23.8304 4.37908 24.1417C4.49266 24.2997 4.63029 24.4361 4.78197 24.546C4.93192 24.658 5.09519 24.7468 5.26455 24.8056C5.60094 24.9335 5.95443 24.9439 6.26794 24.8909C6.58362 24.8361 6.85743 24.6989 7.07488 24.5373C7.51385 24.2065 7.70871 23.7789 7.78375 23.4879C7.85966 23.1912 7.84764 23.0175 7.85894 23.0185C7.86155 23.0185 7.86198 23.0609 7.86024 23.1424C7.86039 23.1832 7.85836 23.2335 7.84865 23.2924C7.84083 23.3515 7.83359 23.4202 7.81244 23.495C7.74507 23.7923 7.55442 24.234 7.10748 24.5795C6.88612 24.7483 6.60521 24.8927 6.27967 24.9522C5.95646 25.0096 5.59051 25.0014 5.24108 24.8707C5.0652 24.8105 4.89541 24.7193 4.73938 24.6036C4.58161 24.4901 4.43819 24.349 4.31983 24.1853C4.07542 23.8626 3.93707 23.4465 3.93359 23.0182C3.93736 22.5899 4.07571 22.174 4.31997 21.8514C4.43833 21.6877 4.58176 21.5466 4.73953 21.4332C4.89555 21.3176 5.06535 21.2263 5.24122 21.1663C5.59066 21.0356 5.95646 21.0272 6.27982 21.0847C6.60535 21.1442 6.88626 21.2884 7.10763 21.4574C7.55456 21.8029 7.74536 22.2446 7.81273 22.5419C7.83388 22.6167 7.84127 22.6854 7.84894 22.7444C7.8588 22.8034 7.86082 22.8537 7.86068 22.8945C7.86198 22.9759 7.86155 23.0185 7.85894 23.0185Z" fill="#263238"/>
<path d="M6.65322 21.6416C6.62483 21.69 6.45358 21.6274 6.18412 21.6011C5.9177 21.5723 5.53842 21.5954 5.19145 21.7787C4.84505 21.9635 4.61427 22.2644 4.48953 22.5008C4.36103 22.7384 4.31757 22.9149 4.2615 22.9114C4.21471 22.9113 4.15937 22.7149 4.24079 22.4046C4.31757 22.1008 4.56429 21.6873 5.01398 21.4469C5.46497 21.2091 5.94696 21.2358 6.24265 21.3417C6.54659 21.4474 6.6793 21.6028 6.65322 21.6416Z" fill="white"/>
<path d="M7.14069 21.9496C7.05464 22.0086 6.97148 22.037 6.95033 22.0171C6.92976 21.9966 6.95598 21.913 7.01262 21.8256C7.06898 21.7385 7.163 21.699 7.21327 21.7476C7.26354 21.7963 7.22646 21.891 7.14069 21.9496Z" fill="white"/>
<path d="M18.1776 30.3359C18.1521 30.4365 15.5521 29.8688 12.3711 29.068C9.18897 28.2668 6.63094 27.536 6.65644 27.4354C6.68194 27.3347 9.2814 27.9023 12.4635 28.7036C15.6445 29.5042 18.2031 30.2353 18.1776 30.3359Z" fill="#263238"/>
<path d="M2.84839 19.7299C2.84709 19.7297 2.84738 19.7146 2.85042 19.6851C2.8539 19.6557 2.86027 19.6121 2.87273 19.5556C2.89808 19.4431 2.94531 19.2769 3.05121 19.0826C3.15755 18.8907 3.33343 18.6717 3.60506 18.5078C3.67156 18.4653 3.74834 18.4353 3.82382 18.3982C3.90437 18.3741 3.98507 18.3385 4.07286 18.3218C4.16094 18.3062 4.24961 18.2805 4.34551 18.2775C4.44026 18.2707 4.53762 18.2728 4.63598 18.2811C5.03076 18.3123 5.45292 18.4076 5.89943 18.526C6.34621 18.6449 6.81705 18.7935 7.30846 18.9613C8.2894 19.3015 9.35611 19.7098 10.4444 20.2133C10.5799 20.2779 10.7141 20.343 10.8453 20.4137C10.9783 20.4836 11.0995 20.5736 11.2148 20.6631C11.4449 20.8465 11.6522 21.0505 11.8311 21.2723C12.1669 21.7314 12.4638 22.1824 12.7544 22.6126C13.3301 23.4738 13.8249 24.265 14.2257 24.9379C14.6256 25.6115 14.9329 26.1658 15.14 26.5516C15.2441 26.7442 15.3224 26.8951 15.3749 26.9978C15.3992 27.0461 15.4186 27.0848 15.4338 27.1149C15.4467 27.1414 15.4528 27.1554 15.4517 27.156C15.4505 27.1566 15.4422 27.1439 15.427 27.1185C15.4102 27.0893 15.3886 27.0518 15.3615 27.0048C15.3026 26.8999 15.2197 26.7529 15.1144 26.5656C14.8994 26.1844 14.5853 25.6346 14.18 24.9652C13.7737 24.2965 13.2751 23.5093 12.6966 22.651C12.4064 22.2244 12.1035 21.768 11.7735 21.3183C11.5982 21.1016 11.3939 20.9012 11.1683 20.7217C11.0536 20.6331 10.9383 20.5471 10.8092 20.4796C10.6802 20.4101 10.5468 20.3453 10.4121 20.2812C9.32815 19.7797 8.26289 19.3695 7.28572 19.0267C6.79619 18.8575 6.32724 18.707 5.88306 18.586C5.43931 18.4656 5.01975 18.3679 4.63193 18.3339C4.53515 18.325 4.44012 18.3222 4.34885 18.3277C4.25729 18.3295 4.16964 18.354 4.08373 18.3681C3.99767 18.3836 3.9193 18.4174 3.84034 18.4398C3.7666 18.4751 3.69155 18.5033 3.62636 18.5437C3.36052 18.6997 3.18522 18.9102 3.07671 19.0967C2.96878 19.2855 2.91735 19.4485 2.88751 19.5588C2.87273 19.6142 2.86389 19.6571 2.85795 19.686C2.85245 19.7152 2.84955 19.73 2.84839 19.7299Z" fill="#263238"/>
<path d="M3.33065 8.78918C3.335 8.79221 3.30269 8.84867 3.24083 8.9483C3.17839 9.04749 3.08987 9.19217 2.98339 9.37237C2.77014 9.73248 2.49459 10.2415 2.24005 10.8267C1.98652 11.4125 1.80311 11.9611 1.68591 12.3627C1.62709 12.5634 1.58189 12.7267 1.55219 12.84C1.52176 12.9531 1.5025 13.0153 1.49742 13.0142C1.49235 13.013 1.50192 12.9489 1.52365 12.8334C1.54465 12.7177 1.58203 12.552 1.63462 12.3485C1.73907 11.9416 1.91567 11.3863 2.17094 10.7968C2.42708 10.2078 2.71204 9.69927 2.9379 9.34479C3.05061 9.16734 3.14623 9.02656 3.21649 8.93213C3.28603 8.83726 3.32645 8.78629 3.33065 8.78918Z" fill="#263238"/>
<g opacity="0.3">
<path d="M2.24707 20.5488C2.10379 20.5969 1.31684 21.0849 0.983484 21.2709C0.649985 21.4569 0.358644 21.7503 0.262303 22.1188C0.166252 22.4858 0.271865 22.8719 0.377043 23.2365C0.720393 24.4273 1.11851 26.5687 1.46186 27.7595C1.73016 25.5999 2.02281 21.9202 2.24707 20.5488Z" fill="white"/>
</g>
<path d="M13.0343 37.6846C13.0314 37.7053 10.7909 37.4132 8.03075 37.0324C5.26961 36.6517 3.03421 36.3262 3.03711 36.3057C3.04001 36.2852 5.2799 36.5772 8.04104 36.9579C10.8013 37.3388 13.0371 37.6641 13.0343 37.6846Z" fill="#455A64"/>
<path d="M12.3259 38.23C12.3255 38.2326 12.293 38.2308 12.2316 38.2249C12.1623 38.2173 12.0733 38.2075 11.963 38.1955C11.7208 38.1664 11.3863 38.1262 10.9768 38.077C10.1359 37.9769 8.98962 37.8406 7.72313 37.69C6.45187 37.54 5.30187 37.396 4.47087 37.2811C4.05537 37.2236 3.71941 37.1753 3.48776 37.1389C3.37824 37.1211 3.28986 37.1067 3.22119 37.0956C3.16035 37.0849 3.12862 37.078 3.12891 37.0754C3.12934 37.0728 3.16179 37.0746 3.22322 37.0806C3.29247 37.0881 3.38142 37.0979 3.49167 37.1099C3.73376 37.139 4.06827 37.1792 4.47768 37.2284C5.31867 37.3285 6.46505 37.4648 7.73197 37.6154C9.0028 37.7653 10.1527 37.9094 10.9837 38.0243C11.3992 38.0818 11.7351 38.1301 11.9669 38.1665C12.0764 38.1843 12.1648 38.1987 12.2336 38.2098C12.2945 38.2205 12.3262 38.2275 12.3259 38.23Z" fill="#455A64"/>
<path d="M10.7533 38.6387C10.7599 38.6581 10.3862 38.6273 9.79551 38.5683C9.20284 38.5086 8.38517 38.4184 7.48261 38.3131C6.57976 38.2077 5.76325 38.1071 5.1726 38.0304C4.88677 37.9916 4.65091 37.9597 4.47373 37.9355C4.30887 37.9114 4.21803 37.8957 4.21875 37.8905C4.21933 37.8853 4.31133 37.8914 4.47721 37.9065C4.65511 37.9246 4.89198 37.9485 5.17898 37.9776C5.78223 38.0456 6.59395 38.1371 7.49144 38.2383C8.38778 38.3458 9.19878 38.4431 9.80145 38.5154C10.0876 38.5515 10.3237 38.5813 10.501 38.6036C10.6645 38.6249 10.7608 38.639 10.7533 38.6387Z" fill="#455A64"/>
<path d="M13.5572 37.0634C13.5545 37.0839 11.1971 36.7919 8.29254 36.4113C5.38696 36.0304 3.03436 35.7051 3.03711 35.6846C3.03986 35.6641 5.39667 35.9559 8.30239 36.3368C11.2071 36.7174 13.56 37.0427 13.5572 37.0634Z" fill="#455A64"/>
<path d="M13.9658 36.4872C13.9631 36.5078 11.5225 36.2049 8.51538 35.8107C5.50708 35.4164 3.07147 35.0802 3.07422 35.0596C3.07697 35.0391 5.51693 35.3419 8.52523 35.736C11.5324 36.1304 13.9686 36.4667 13.9658 36.4872Z" fill="#455A64"/>
<path d="M14.4307 35.8046C14.428 35.8253 11.9187 35.5133 8.82686 35.1081C5.73395 34.7026 3.22967 34.3576 3.23242 34.3369C3.23518 34.3163 5.74381 34.6281 8.83671 35.0336C11.9286 35.4387 14.4335 35.7841 14.4307 35.8046Z" fill="#455A64"/>
<path d="M14.7783 35.11C14.7756 35.1307 12.2218 34.8129 9.07497 34.4004C5.92701 33.9877 3.37811 33.6367 3.38086 33.6162C3.38361 33.5955 5.93686 33.9133 9.08482 34.3259C12.2316 34.7382 14.7811 35.0894 14.7783 35.11Z" fill="#455A64"/>
<path d="M15.1319 34.413C15.1292 34.4337 12.5548 34.1131 9.38261 33.6974C6.2093 33.2815 3.63983 32.9277 3.64258 32.9072C3.64533 32.8865 6.21916 33.2069 9.39246 33.6229C12.5646 34.0386 15.1347 34.3925 15.1319 34.413Z" fill="#455A64"/>
<path d="M6.82773 32.8262C6.84816 32.8305 6.59825 34.0809 6.26968 35.6188C5.94111 37.1573 5.65817 38.4005 5.63789 38.3962C5.61746 38.3918 5.86737 37.1416 6.19594 35.6032C6.52437 34.0653 6.80731 32.8219 6.82773 32.8262Z" fill="#455A64"/>
<path d="M5.87473 32.668C5.89516 32.6723 5.64525 33.9229 5.31668 35.4606C4.98811 36.9991 4.70517 38.2423 4.68488 38.238C4.66446 38.2336 4.91436 36.9834 5.24294 35.445C5.57151 33.9071 5.85445 32.6636 5.87473 32.668Z" fill="#455A64"/>
<path d="M4.93157 32.5098C4.95199 32.5141 4.71643 33.6972 4.40568 35.1518C4.09478 36.607 3.82633 37.7829 3.80604 37.7786C3.78562 37.7742 4.02104 36.5914 4.33194 35.1362C4.64254 33.6815 4.91114 32.5054 4.93157 32.5098Z" fill="#455A64"/>
<path d="M3.89795 32.7246C3.90302 32.7258 3.89621 32.7824 3.87926 32.884C3.85826 33.0014 3.83261 33.1445 3.80248 33.3129C3.7341 33.6925 3.64544 34.1835 3.5475 34.7267C3.45058 35.2799 3.3512 35.7791 3.27051 36.1383C3.23038 36.3179 3.19604 36.4629 3.17011 36.5627C3.14447 36.6624 3.1278 36.717 3.12273 36.716C3.11766 36.715 3.12447 36.6582 3.14142 36.5567C3.16243 36.4393 3.18807 36.2963 3.21821 36.1279C3.28659 35.7483 3.37525 35.2572 3.47318 34.7139C3.56996 34.1609 3.66949 33.6617 3.75018 33.3026C3.79031 33.123 3.82465 32.978 3.85058 32.8783C3.87622 32.7782 3.89288 32.7236 3.89795 32.7246Z" fill="#455A64"/>
<path d="M7.91901 33.0215C7.93944 33.0258 7.6988 34.2326 7.38182 35.7167C7.06469 37.2012 6.79117 38.4007 6.77074 38.3964C6.75031 38.3921 6.9908 37.1856 7.30793 35.7011C7.62506 34.2169 7.89858 33.0172 7.91901 33.0215Z" fill="#455A64"/>
<path d="M9.00784 33.2402C9.02827 33.2446 8.78706 34.4546 8.4692 35.9424C8.15121 37.4307 7.8771 38.6334 7.85668 38.6292C7.83625 38.6248 8.07746 37.4151 8.39546 35.9268C8.71317 34.4388 8.98741 33.2359 9.00784 33.2402Z" fill="#455A64"/>
<path d="M10.1403 33.3008C10.1607 33.3051 9.92182 34.5043 9.60672 35.9789C9.29162 37.454 9.01969 38.646 8.99927 38.6416C8.97884 38.6373 9.21773 37.4384 9.53283 35.9633C9.84808 34.4885 10.12 33.2965 10.1403 33.3008Z" fill="#455A64"/>
<path d="M11.2374 33.4453C11.2579 33.4497 11.0203 34.6423 10.7071 36.1089C10.3937 37.576 10.1232 38.7613 10.1028 38.757C10.0824 38.7527 10.3198 37.5603 10.6333 36.0932C10.9465 34.6266 11.217 33.441 11.2374 33.4453Z" fill="#455A64"/>
<path d="M12.338 33.6621C12.3585 33.6665 12.1374 34.7823 11.8443 36.154C11.5512 37.5263 11.2971 38.6348 11.2767 38.6304C11.2563 38.6261 11.4774 37.5105 11.7706 36.1383C12.0635 34.7667 12.3178 33.6578 12.338 33.6621Z" fill="#455A64"/>
<path d="M13.4505 33.752C13.471 33.7563 13.2654 34.7995 12.9914 36.0816C12.7175 37.3642 12.4789 38.4 12.4584 38.3957C12.438 38.3914 12.6436 37.3484 12.9175 36.0658C13.1915 34.7838 13.4301 33.7478 13.4505 33.752Z" fill="#455A64"/>
<path d="M14.5529 33.9317C14.5733 33.936 14.4587 34.5533 14.2971 35.3102C14.1352 36.0673 13.9878 36.6775 13.9673 36.6732C13.9469 36.6689 14.0615 36.0517 14.2233 35.2946C14.3848 34.5375 14.5325 33.9273 14.5529 33.9317Z" fill="#455A64"/>
<path d="M50.6649 38.071C50.6649 38.0919 43.4657 38.1087 34.5873 38.1087C25.7057 38.1087 18.5081 38.0917 18.5081 38.071C18.5081 38.0501 25.7057 38.0332 34.5873 38.0332C43.4658 38.0331 50.6649 38.0501 50.6649 38.071Z" fill="#263238"/>
<path d="M50.032 37.3444C50.032 37.3653 43.1423 37.3822 34.6457 37.3822C26.1461 37.3822 19.2579 37.3653 19.2579 37.3444C19.2579 37.3235 26.1459 37.3066 34.6457 37.3066C43.1423 37.3066 50.032 37.3235 50.032 37.3444Z" fill="#263238"/>
<path d="M49.0706 36.6042C49.0706 36.6251 42.5542 36.6419 34.5175 36.6419C26.478 36.6419 19.9629 36.6249 19.9629 36.6042C19.9629 36.5833 26.478 36.5664 34.5175 36.5664C42.5542 36.5664 49.0706 36.5833 49.0706 36.6042Z" fill="#263238"/>
<path d="M48.4378 35.862C48.4378 35.8829 42.2308 35.8998 34.576 35.8998C26.9184 35.8998 20.7129 35.8828 20.7129 35.862C20.7129 35.8411 26.9185 35.8242 34.576 35.8242C42.2309 35.8241 48.4378 35.8411 48.4378 35.862Z" fill="#263238"/>
<path d="M47.374 35.155C47.374 35.1759 41.6194 35.1927 34.5225 35.1927C27.4231 35.1927 21.6699 35.1757 21.6699 35.155C21.6699 35.134 27.4231 35.1172 34.5225 35.1172C41.6194 35.1172 47.374 35.1342 47.374 35.155Z" fill="#263238"/>
<path d="M46.1657 34.4479C46.1657 34.4688 40.9668 34.4857 34.5551 34.4857C28.1413 34.4857 22.9434 34.4687 22.9434 34.4479C22.9434 34.4272 28.1411 34.4102 34.5551 34.4102C40.9668 34.41 46.1657 34.427 46.1657 34.4479Z" fill="#263238"/>
<g opacity="0.3">
<path d="M36.9782 11.9424L10.0488 11.9004C10.0488 11.9004 11.1645 13.2286 13.2163 13.2168C15.0874 13.2061 33.3036 13.2149 36.5 13.2165V13.2168C36.5 13.2168 36.5776 13.2168 36.7228 13.2167C36.8891 13.2168 36.9782 13.2168 36.9782 13.2168V13.2165C39.9297 13.2148 55.6043 13.2061 57.2246 13.2168C59.0142 13.2285 59.8914 11.9424 59.8914 11.9424H36.9782Z" fill="black"/>
</g>
<path d="M59.9856 11.3702L54.8911 2.56677C54.8116 2.42917 54.6669 2.34167 54.5077 2.33488L36.9774 1.58607L35.2961 1.51431C35.0948 1.50565 34.8931 1.50565 34.6917 1.51431L33.0105 1.58607L15.4802 2.33488C15.321 2.34167 15.1764 2.42917 15.0967 2.56677L10.0022 11.3702C9.83824 11.6537 10.0115 12.0128 10.3363 12.0613C10.4088 12.0721 10.4863 12.0822 10.568 12.0913C11.0123 12.1406 28.7954 12.1085 34.9941 12.0958C41.1928 12.1085 58.9758 12.1406 59.4202 12.0913C59.502 12.0822 59.5794 12.0721 59.6518 12.0613C59.9762 12.0129 60.1496 11.6538 59.9856 11.3702ZM57.6404 11.0002L34.9938 11.1529L12.3472 11.0002C11.9901 10.9977 11.7682 10.6123 11.9469 10.3041C12.9226 8.62047 15.3759 4.40688 15.7685 3.92043C16.4808 3.03777 27.5066 2.92139 33.3711 2.92255C33.406 2.93063 33.4422 2.93511 33.4797 2.93482C33.8231 2.93208 34.3423 2.92847 34.9939 2.92587C35.6456 2.92847 36.1648 2.93208 36.5081 2.93482C36.5455 2.93511 36.5819 2.93063 36.6168 2.92255C42.4813 2.92139 53.5069 3.03777 54.2192 3.92043C54.6118 4.40688 57.0651 8.62047 58.0408 10.3041C58.2193 10.6123 57.9975 10.9977 57.6404 11.0002Z" fill="#263238"/>
<path d="M40.7461 10.5132C40.7459 10.0113 40.9404 8.5918 41.4073 8.21335C41.7679 7.92111 42.6216 7.83404 43.0428 7.8095C43.0562 7.80877 43.0691 7.80849 43.0826 7.80863C43.306 7.81123 44.7976 7.85108 45.2444 8.21335C45.7115 8.5918 45.9059 10.0114 45.9056 10.5132C45.9056 10.5183 45.9056 10.5232 45.9056 10.5281C45.9055 10.8402 45.6515 11.0931 45.3381 11.0931H43.4548H43.1972H41.3136C41.0002 11.0931 40.7462 10.8404 40.7461 10.5281C40.7461 10.5232 40.7461 10.5181 40.7461 10.5132Z" fill="#263238"/>
<g opacity="0.3">
<path d="M40.7461 10.5132C40.7459 10.0113 40.9404 8.5918 41.4073 8.21335C41.7679 7.92111 42.6216 7.83404 43.0428 7.8095C43.0562 7.80877 43.0691 7.80849 43.0826 7.80863C43.306 7.81123 44.7976 7.85108 45.2444 8.21335C45.7115 8.5918 45.9059 10.0114 45.9056 10.5132C45.9056 10.5183 45.9056 10.5232 45.9056 10.5281C45.9055 10.8402 45.6515 11.0931 45.3381 11.0931H43.4548H43.1972H41.3136C41.0002 11.0931 40.7462 10.8404 40.7461 10.5281C40.7461 10.5232 40.7461 10.5181 40.7461 10.5132Z" fill="black"/>
</g>
<path d="M42.7734 10.1424C42.7731 9.32078 43.0914 6.99697 43.8559 6.37739C44.4463 5.89888 45.8439 5.75637 46.5332 5.71637C46.5554 5.71507 46.5764 5.71464 46.5985 5.71493C46.9643 5.71926 49.406 5.78452 50.1375 6.37739C50.902 6.99697 51.2203 9.32078 51.22 10.1424C51.22 10.1506 51.22 10.1587 51.22 10.1668C51.2199 10.6779 50.8039 11.0917 50.2911 11.0917H47.2076H46.7859H43.7024C43.1895 11.0917 42.7737 10.6781 42.7734 10.1668C42.7734 10.1587 42.7734 10.1506 42.7734 10.1424Z" fill="#263238"/>
<g opacity="0.3">
<path d="M50.8494 34.1666C50.8494 34.1666 50.7404 34.8231 52.2839 36.9973C52.7549 37.6608 54.2511 39.0005 54.8101 39.4918C54.9464 39.6117 55.1234 39.6739 55.3049 39.6659C56.8574 39.5979 64.3469 39.2534 65.5901 38.889C66.1529 38.7239 66.5757 38.5326 66.8912 38.3471C67.4382 38.0255 67.759 37.4263 67.7358 36.7936C67.6964 35.7209 67.6299 33.8339 67.6299 33.3395C67.6299 32.6376 67.1401 32.0478 66.2268 32.1578C65.6263 32.23 50.8494 34.1666 50.8494 34.1666ZM55.6787 34.017L65.3831 33.1389L65.6638 37.0383L58.5197 38.1914L55.6787 34.017Z" fill="black"/>
</g>
<g opacity="0.3">
<path d="M67.4049 24.1558C67.4049 24.1558 68.1366 26.3706 63.4863 27.4017C58.7781 28.4456 51.8105 30.3368 51.8105 30.3368L55.5523 27.678C55.5523 27.678 66.3161 25.8887 66.584 24.2479C66.8906 22.3705 66.5852 20.2617 66.5852 20.2617L67.4049 24.1558Z" fill="black"/>
</g>
<path d="M49.2401 34.0993C49.2398 34.098 49.2563 34.0924 49.2889 34.0824C49.3254 34.0719 49.3735 34.0579 49.4344 34.0401C49.5671 34.0033 49.7554 33.951 49.9958 33.8845C50.4852 33.7565 51.1939 33.5723 52.076 33.3712C53.8387 32.9628 56.2911 32.4732 59.0162 32.0309C60.3793 31.8109 61.6791 31.6092 62.8663 31.4593C63.4592 31.3806 64.0227 31.306 64.5502 31.2359C65.0765 31.1652 65.5701 31.0964 66.0268 31.1115C66.4801 31.1242 66.8998 31.2352 67.1921 31.4557C67.4874 31.6671 67.6892 31.9124 67.821 32.1284C67.9537 32.3454 68.0177 32.5347 68.047 32.6644C68.0774 32.7943 68.0774 32.8649 68.0774 32.8649C68.0628 32.8713 68.0661 32.5724 67.7961 32.1438C67.6624 31.933 67.4595 31.6939 67.1679 31.49C66.8801 31.2782 66.4728 31.1743 66.025 31.1644C65.5756 31.1529 65.0836 31.2242 64.5574 31.2977C64.0304 31.3698 63.4676 31.4467 62.8755 31.5277C61.6898 31.6814 60.3906 31.885 59.0282 32.1049C56.3044 32.547 53.8523 33.0279 52.0877 33.4227C51.2047 33.6172 50.4946 33.7934 50.003 33.9126C49.7612 33.9734 49.5717 34.0211 49.4383 34.0546C49.3766 34.0693 49.3279 34.0808 49.291 34.0896C49.2578 34.0974 49.2406 34.1006 49.2401 34.0993Z" fill="#263238"/>
<path d="M67.9952 28.3728C67.9926 28.3728 67.99 28.3443 67.9875 28.2903C67.9856 28.2279 67.9833 28.1497 67.9803 28.054C67.9746 27.8384 67.9671 27.5441 67.9577 27.185C67.9354 26.4515 67.887 25.4386 67.7882 24.3235C67.6884 23.2079 67.557 22.2024 67.4493 21.4764C67.395 21.1214 67.3505 20.8303 67.3179 20.6171C67.3039 20.5223 67.2924 20.4449 67.2833 20.3832C67.2762 20.3297 67.2737 20.3012 67.2762 20.3008C67.2788 20.3004 67.2862 20.3278 67.2982 20.3806C67.3111 20.4417 67.3272 20.5182 67.3469 20.6122C67.3882 20.8135 67.4416 21.1061 67.5021 21.4685C67.6235 22.1932 67.7634 23.1996 67.8634 24.317C67.9625 25.4341 68.0024 26.4493 68.0111 27.184C68.0156 27.5513 68.0148 27.8488 68.0097 28.0541C68.0068 28.15 68.0046 28.2282 68.0027 28.2906C68.0004 28.3443 67.9978 28.3728 67.9952 28.3728Z" fill="#263238"/>
<path d="M64.7567 18.3976C64.7424 18.3976 64.7393 18.1458 64.6638 17.7472C64.5904 17.3482 64.4467 16.8052 64.2592 16.214C64.0725 15.6223 63.8802 15.0938 63.7403 14.7116C63.6744 14.5319 63.6187 14.3806 63.5741 14.259C63.5354 14.1518 63.5156 14.0919 63.5204 14.0899C63.5251 14.0879 63.5542 14.144 63.6013 14.248C63.6483 14.352 63.7139 14.5034 63.7901 14.6924C63.9431 15.0703 64.1437 15.5972 64.3312 16.1912C64.5194 16.7845 64.6559 17.3335 64.7166 17.7382C64.7361 17.8386 64.74 17.9317 64.7502 18.0121C64.7605 18.0927 64.7634 18.1627 64.7626 18.2202C64.7637 18.3347 64.7619 18.3976 64.7567 18.3976Z" fill="#263238"/>
<path d="M63.8846 19.4062C63.8846 19.4062 66.3083 18.5253 66.6183 20.3983C66.9283 22.2713 66.8963 24.1345 66.4897 24.7899C66.0829 25.4453 62.3408 26.3381 62.3408 26.3381L55.8687 27.7561C55.8687 27.7561 55.4034 27.8526 55.6837 27.3271C55.9976 26.7387 57.7119 22.9712 58.7026 22.0553C60.531 20.3646 63.8846 19.4062 63.8846 19.4062Z" fill="#F5F5F5"/>
<g opacity="0.3">
<path d="M61.4889 26.5237C61.4889 26.5237 61.4787 22.1099 61.8039 21.6197C62.1291 21.1295 65.9422 19.3706 65.9422 19.3706C65.9422 19.3706 65.5708 19.0556 64.8089 19.2C64.047 19.3444 62.7799 19.6882 61.7271 20.2262C60.6745 20.7642 58.9893 21.5356 58.3603 22.4274C58.0869 22.8149 57.5138 23.7409 56.9682 24.7456C56.2584 26.0526 55.5864 27.45 55.5864 27.5271C55.5864 27.6877 55.5488 27.8336 56.1777 27.6998C57.6347 27.3901 61.4889 26.5237 61.4889 26.5237Z" fill="black"/>
</g>
<path d="M59.3822 26.1253C60.2492 26.1253 60.9521 25.4248 60.9521 24.5607C60.9521 23.6966 60.2492 22.9961 59.3822 22.9961C58.5152 22.9961 57.8124 23.6966 57.8124 24.5607C57.8124 25.4248 58.5152 26.1253 59.3822 26.1253Z" fill="#F5F5F5"/>
<path d="M57.8158 24.5601C57.8158 24.5601 57.7963 24.4204 57.8507 24.1745C57.9044 23.9336 58.058 23.5757 58.4197 23.2953C58.5989 23.1583 58.8264 23.041 59.0902 22.9926C59.3521 22.9457 59.6488 22.9524 59.9324 23.058C60.0749 23.1067 60.2127 23.1806 60.3393 23.2743C60.4674 23.3663 60.5837 23.4807 60.6798 23.6134C60.8781 23.875 60.9904 24.2124 60.9934 24.5599C60.9905 24.9073 60.8782 25.245 60.6799 25.5066C60.5838 25.6395 60.4675 25.7538 60.3394 25.8458C60.2128 25.9395 60.0751 26.0134 59.9325 26.0622C59.649 26.1681 59.3523 26.1746 59.0903 26.1276C58.8265 26.0791 58.5989 25.9619 58.4197 25.8248C58.058 25.5443 57.9044 25.1864 57.8508 24.9457C57.7965 24.6999 57.8158 24.5601 57.8158 24.5601C57.8259 24.5594 57.8172 24.6996 57.8791 24.9386C57.9403 25.1729 58.0981 25.517 58.4519 25.7827C58.6272 25.9125 58.8477 26.0225 59.1015 26.0664C59.3537 26.1087 59.6381 26.1002 59.9084 25.9971C60.0446 25.9498 60.1757 25.8783 60.2963 25.7882C60.4183 25.6998 60.5289 25.5902 60.6201 25.4632C60.8085 25.2129 60.9146 24.8914 60.9176 24.56C60.9144 24.2288 60.8084 23.9073 60.6199 23.6571C60.5288 23.5301 60.4181 23.4205 60.2961 23.3321C60.1756 23.242 60.0445 23.1705 59.9083 23.1232C59.638 23.0201 59.3536 23.0116 59.1014 23.0539C58.8474 23.0978 58.6269 23.2078 58.4517 23.3376C58.098 23.6033 57.9402 23.9473 57.8789 24.1817C57.8172 24.4205 57.8259 24.5609 57.8158 24.5601Z" fill="#263238"/>
<path d="M59.3837 24.492C58.8072 24.492 58.3058 24.8107 58.046 25.2808C57.9259 25.0635 57.8574 24.814 57.8574 24.5485C57.8574 23.7083 58.5408 23.0273 59.3837 23.0273C60.2265 23.0273 60.9099 23.7084 60.9099 24.5485C60.9099 24.8142 60.8412 25.0635 60.7213 25.2808C60.4617 24.8108 59.9601 24.492 59.3837 24.492Z" fill="#E0E0E0"/>
<path d="M58.707 24.5102C58.707 24.8826 59.01 25.1845 59.3836 25.1845C59.7572 25.1845 60.0601 24.8826 60.0601 24.5102C60.0601 24.1379 59.7572 23.8359 59.3836 23.8359C59.01 23.8359 58.707 24.1379 58.707 24.5102Z" fill="white"/>
<path d="M58.7089 24.5111C58.7063 24.5111 58.7046 24.4963 58.7035 24.4677C58.7019 24.4391 58.7047 24.3965 58.7159 24.3429C58.7369 24.2374 58.8019 24.0791 58.96 23.9539C59.1127 23.8286 59.3723 23.7538 59.6278 23.8452C59.8811 23.9284 60.1027 24.1965 60.0998 24.511C60.1029 24.8256 59.8812 25.0939 59.6278 25.1771C59.3723 25.2683 59.1127 25.1935 58.96 25.0682C58.8019 24.943 58.7369 24.7849 58.7159 24.6792C58.7047 24.6257 58.7019 24.5831 58.7035 24.5545C58.7046 24.526 58.7063 24.5111 58.7089 24.5111C58.7161 24.5109 58.7154 24.5712 58.7443 24.6721C58.7728 24.7713 58.842 24.9156 58.9921 25.0259C59.1373 25.1365 59.3749 25.1976 59.6039 25.1118C59.8311 25.0331 60.0268 24.792 60.0242 24.511C60.0267 24.23 59.8311 23.989 59.6039 23.9103C59.3749 23.8246 59.1373 23.8857 58.9921 23.9963C58.8419 24.1066 58.7726 24.2508 58.7441 24.35C58.7154 24.4511 58.7163 24.5114 58.7089 24.5111Z" fill="#263238"/>
<path d="M58.7911 23.4511C58.7647 23.4114 58.8683 23.277 59.1169 23.184C59.3586 23.091 59.7577 23.0647 60.1319 23.262C60.5051 23.4615 60.7058 23.8063 60.7633 24.0581C60.8246 24.3156 60.7704 24.4763 60.7226 24.4766C60.6675 24.4798 60.6229 24.3391 60.5145 24.1542C60.4092 23.9698 60.2243 23.7376 59.9546 23.5938C59.6844 23.4511 59.388 23.4276 59.1756 23.4433C58.9612 23.4569 58.8192 23.4985 58.7911 23.4511Z" fill="white"/>
<path d="M58.4021 23.6994C58.3164 23.6408 58.2748 23.5524 58.3181 23.5102C58.3617 23.4682 58.4491 23.5121 58.5056 23.5992C58.5622 23.6864 58.595 23.7658 58.5812 23.7797C58.5669 23.7931 58.488 23.7583 58.4021 23.6994Z" fill="white"/>
<path d="M34.6699 19.6395C34.6699 19.6382 34.6909 19.6369 34.7319 19.6356C34.7764 19.6346 34.8367 19.6333 34.9139 19.6317C35.0779 19.6298 35.3129 19.6272 35.6138 19.6239C36.2254 19.6203 37.1039 19.6152 38.1879 19.609C40.3646 19.6037 43.3657 19.5965 46.6802 19.5884C48.3387 19.5875 49.9186 19.5868 51.3562 19.5861C52.0746 19.5865 52.7574 19.5868 53.3966 19.5872C53.716 19.5877 54.0246 19.588 54.3213 19.5884C54.62 19.5698 54.9208 19.658 55.1381 19.8312C55.5514 20.1828 55.9255 20.5009 56.2546 20.7809C56.4183 20.9202 56.5709 21.05 56.7115 21.1697C56.8551 21.2819 57.0101 21.352 57.1553 21.3891C57.3013 21.427 57.435 21.4322 57.5521 21.425C57.668 21.4219 57.7667 21.4193 57.8478 21.4169C57.925 21.4155 57.9853 21.4143 58.0298 21.4135C58.0708 21.4132 58.0918 21.4136 58.0919 21.4149C58.0919 21.4162 58.071 21.4184 58.03 21.4213C57.9856 21.4239 57.9254 21.4276 57.8484 21.4322C57.7671 21.4364 57.6684 21.4415 57.5527 21.4476C57.4369 21.4572 57.2973 21.4543 57.1482 21.4177C56.999 21.3819 56.8386 21.3121 56.6895 21.1982C56.5473 21.0796 56.3931 20.9511 56.2275 20.8131C55.8969 20.5362 55.521 20.2212 55.1056 19.8734C54.8948 19.7095 54.616 19.6272 54.3216 19.6464C54.0249 19.6474 53.7163 19.6486 53.3968 19.6496C52.7577 19.6515 52.0749 19.6534 51.3564 19.6554C49.919 19.658 48.3392 19.6607 46.6805 19.6636C43.3658 19.663 40.3649 19.6626 38.1882 19.6623C37.1042 19.6586 36.2257 19.6554 35.6141 19.6532C35.3132 19.6505 35.078 19.6485 34.9142 19.647C34.837 19.6456 34.7767 19.6444 34.7321 19.6435C34.6909 19.6421 34.6699 19.6408 34.6699 19.6395Z" fill="#263238"/>
<path d="M4.30228 40.2194C4.37979 40.0556 4.54509 39.9393 4.87207 39.9761C5.77753 40.0782 15.2692 40.2893 16.5771 39.9761C17.885 39.6629 22.2436 34.7334 24.0879 34.3977C25.635 34.116 33.1579 33.9654 35.5437 34.0341C37.9294 33.9653 45.4523 34.116 46.9994 34.3977C48.8439 34.7336 53.1364 40.145 54.4443 40.4582C55.7522 40.7714 65.3098 40.0782 66.2153 39.9761C66.5422 39.9393 66.7074 40.0556 66.7849 40.2194C66.9459 40.5591 66.6842 40.9503 66.3075 40.9608C64.2858 41.0179 56.4793 41.1062 55.0194 41.0808C53.4867 41.0541 37.814 40.7679 35.1879 40.72C31.228 40.745 17.6996 40.831 16.2675 40.8511C14.578 40.8748 6.8012 41.0179 4.77949 40.9608C4.40282 40.9503 4.14133 40.5591 4.30228 40.2194Z" fill="#263238"/>
<path d="M38.2044 2.15842C38.1259 2.15842 38.1902 3.51626 37.0902 3.49013C35.99 3.46399 33.9185 3.49013 33.9185 3.49013L33.0078 1.79297L38.2044 2.15842Z" fill="#263238"/>
<path d="M37.7209 3.96289C37.8739 3.96289 38.0174 4.03581 38.108 4.15883C38.3702 4.51518 38.8941 5.25374 38.9086 5.48447C38.9278 5.7926 38.754 6.04297 38.4351 6.08153C38.1328 6.11806 32.3313 6.08528 31.7309 6.08182C31.6931 6.08167 31.6569 6.07719 31.6203 6.0681C31.4621 6.02897 31.0505 5.89974 31.0818 5.61933C31.1102 5.36434 31.5567 4.58853 31.7909 4.19594C31.8774 4.05097 32.0334 3.96289 32.2027 3.96289H37.7209Z" fill="#263238"/>
<path d="M55.4572 1.79494C55.4584 1.79437 55.4655 1.80462 55.4785 1.82512C55.4933 1.84967 55.5117 1.88013 55.5343 1.91753C55.5848 2.00474 55.6542 2.12459 55.7422 2.2762C55.9228 2.59487 56.1791 3.04652 56.4943 3.60242C57.1257 4.73054 57.9929 6.27999 58.9508 7.99159C59.7255 9.38856 60.4403 10.6778 61.0099 11.7052L61.0021 11.6961C61.6865 12.2338 62.2496 12.6762 62.647 12.9885C62.8382 13.1413 62.9895 13.262 63.0978 13.3486C63.1458 13.3882 63.1843 13.4198 63.2144 13.4446C63.2405 13.4667 63.2534 13.4787 63.2524 13.4799C63.2514 13.481 63.2366 13.4715 63.2088 13.4518C63.1772 13.4287 63.1371 13.3994 63.0868 13.3628C62.976 13.2793 62.8214 13.1628 62.6258 13.0155C62.2245 12.7082 61.6559 12.2728 60.9649 11.7436L60.9601 11.74L60.957 11.7345C60.3838 10.7092 59.6643 9.42249 58.8848 8.02826C57.9344 6.31248 57.074 4.75927 56.4476 3.62841C56.1411 3.06774 55.8921 2.61205 55.7164 2.29064C55.6337 2.13599 55.5685 2.01398 55.5209 1.92504C55.5011 1.8862 55.4849 1.85458 55.4718 1.82902C55.461 1.80707 55.456 1.79552 55.4572 1.79494Z" fill="#263238"/>
<path d="M52.7833 0.981986C52.7856 0.973467 52.9312 1.00047 53.1601 1.0718C53.3868 1.145 53.7019 1.26716 53.9992 1.48807C54.2953 1.71087 54.501 1.97813 54.635 2.17465C54.7676 2.37362 54.8344 2.50545 54.8268 2.51007C54.8167 2.51642 54.7338 2.39455 54.5916 2.20555C54.4477 2.01871 54.2404 1.76357 53.9538 1.54814C53.6663 1.3343 53.3626 1.20723 53.1424 1.1219C52.9205 1.03859 52.7799 0.993249 52.7833 0.981986Z" fill="#263238"/>
<g opacity="0.3">
<path d="M60.9713 11.7324L61.1099 11.8282C61.1663 11.7583 57.7635 18.8679 56.162 20.7434L55.1093 19.8532C57.3801 17.6609 59.0772 14.2555 60.9713 11.7324Z" fill="black"/>
</g>
<path d="M54.2224 39.6781C54.2224 39.6781 54.1904 39.6768 54.1385 39.6475C54.0863 39.6194 54.0123 39.5712 53.9206 39.5016C53.7358 39.3638 53.4757 39.1451 53.1487 38.855C52.4958 38.2737 51.5744 37.4067 50.4684 36.3029C50.1922 36.0267 49.9047 35.7353 49.6087 35.4282C49.3083 35.125 49.0255 34.7799 48.6705 34.494C48.3139 34.21 47.8987 33.9743 47.4406 33.8096C46.9829 33.6438 46.4867 33.5472 45.9739 33.5088C45.7172 33.4906 45.4568 33.4905 45.1916 33.4881C44.9267 33.486 44.6589 33.4837 44.3881 33.4814C43.8467 33.4767 43.2939 33.472 42.731 33.4672C41.6054 33.4571 40.44 33.4467 39.2464 33.4362C34.4714 33.3882 30.1491 33.3449 27.0175 33.3134C25.4549 33.2941 24.1894 33.2785 23.3117 33.2677C22.8764 33.2606 22.5374 33.2551 22.3043 33.2513C22.1912 33.2487 22.1041 33.2467 22.0424 33.2453C21.9834 33.2434 21.9531 33.2407 21.9531 33.2407C21.9531 33.2407 21.9834 33.2383 22.0425 33.2376C22.1042 33.2373 22.1913 33.2369 22.3046 33.2363C22.5377 33.2368 22.8768 33.2375 23.3122 33.2385C24.1898 33.2437 25.4553 33.2512 27.018 33.2604C30.1496 33.2863 34.4719 33.3218 39.247 33.3611C40.4406 33.3722 41.6059 33.3832 42.7316 33.3937C43.2944 33.3992 43.8473 33.4045 44.3887 33.4097C44.6594 33.4123 44.9273 33.4151 45.1921 33.4177C45.4565 33.4204 45.72 33.421 45.9794 33.4399C46.4976 33.4798 46.9999 33.5785 47.4636 33.7478C47.9278 33.9158 48.3489 34.1564 48.7101 34.4457C49.0714 34.739 49.3528 35.0857 49.651 35.3883C49.9457 35.6962 50.2317 35.9884 50.5065 36.2656C51.607 37.3737 52.5223 38.2461 53.1686 38.8335C53.4921 39.1267 53.7488 39.3487 53.93 39.4899C54.0201 39.5612 54.0921 39.6112 54.1424 39.6412C54.1924 39.6719 54.223 39.6751 54.2224 39.6781Z" fill="#263238"/>
<g opacity="0.3">
<path d="M62.0218 31.0682C62.4691 30.6267 62.9211 30.1814 63.4533 29.8461C63.9854 29.5107 64.7492 29.1184 65.2317 29.4303C65.4758 29.6956 65.6739 30.0031 65.8143 30.3349C65.8622 30.4481 65.9029 30.58 65.8486 30.6903C65.7811 30.8271 65.6052 30.8625 65.4535 30.8815C64.345 31.0204 63.2362 31.1593 62.1277 31.2982C62.0635 31.3063 61.9834 31.3067 61.9521 31.2503C61.918 31.1889 61.9719 31.1175 62.0218 31.0682Z" fill="white"/>
</g>
<path d="M62.8756 40.4932C62.8746 40.4966 62.8735 40.5001 62.8727 40.5036C62.8021 40.7492 62.9873 41.0226 63.2435 41.0167L65.6521 40.9763C65.8403 40.972 65.9972 40.786 66.0202 40.5999L66.0367 40.4665C66.0661 40.2299 65.8458 40.0131 65.6073 40.0303L63.2186 40.2047C63.0588 40.2161 62.9193 40.3394 62.8756 40.4932Z" fill="white"/>
<path d="M17.9531 39.0964C17.9531 39.0754 25.7181 39.0586 35.2943 39.0586C44.8739 39.0586 52.6373 39.0756 52.6373 39.0964C52.6373 39.1173 44.8739 39.1341 35.2943 39.1341C25.7181 39.1343 17.9531 39.1173 17.9531 39.0964Z" fill="#455A64"/>
<path d="M44.9887 40.3554H46.006L46.0778 39.0957H44.9121L44.9887 40.3554Z" fill="#455A64"/>
<path d="M35.4752 40.3554H36.4924L36.5641 39.0957H35.3984L35.4752 40.3554Z" fill="#455A64"/>
<path d="M25.9615 40.3554H26.9787L27.0506 39.0957H25.8848L25.9615 40.3554Z" fill="#455A64"/>
<path d="M18.4902 38.6418C20.3301 37.0619 22.8086 34.632 24.0845 34.3997C25.6316 34.118 33.1545 33.9674 35.5402 34.0361C37.926 33.9672 45.4489 34.118 46.996 34.3997C48.1828 34.6157 50.3831 36.9331 52.1497 38.6418C40.93 38.6418 29.7101 38.6418 18.4902 38.6418Z" fill="#455A64"/>
<path d="M67.454 37.8128C67.4526 37.8147 67.4223 37.7935 67.3655 37.7513C67.3042 37.7047 67.2218 37.642 67.1175 37.5626C66.8974 37.3913 66.5857 37.1486 66.1957 36.8451L66.2139 36.8502C65.0216 37.0025 63.2239 37.2321 61.2148 37.4888C60.2363 37.6099 59.308 37.7249 58.4807 37.8273L58.4928 37.8234C57.4879 38.3615 56.6365 38.8176 56.0296 39.1426C55.7325 39.299 55.4955 39.4238 55.3264 39.5127C55.2485 39.5524 55.1863 39.584 55.1386 39.6084C55.0958 39.6295 55.0732 39.6398 55.0723 39.638C55.0714 39.6363 55.0923 39.623 55.1334 39.5986C55.1798 39.5719 55.2402 39.5373 55.3161 39.4937C55.4829 39.4007 55.7168 39.2701 56.0101 39.1067C56.6137 38.7757 57.4607 38.3114 58.4602 37.7634L58.4658 37.7604L58.4723 37.7595C59.2994 37.6551 60.2273 37.5379 61.2055 37.4143C63.2159 37.1683 65.0148 36.9482 66.208 36.8021L66.2183 36.8008L66.2261 36.8071C66.6103 37.1182 66.9173 37.3666 67.134 37.5421C67.235 37.6257 67.3148 37.6917 67.3741 37.7408C67.4281 37.7862 67.4555 37.8109 67.454 37.8128Z" fill="#263238"/>
<path d="M55.0664 35.0551C55.0664 35.0551 54.5745 34.2264 55.0664 34.0172C55.6313 33.7769 65.0652 32.6492 65.4489 32.6156C66.2143 32.5483 66.4913 32.8924 66.6711 33.7879C66.8507 34.6834 67.2462 36.9044 66.4914 37.5493C65.7367 38.1941 64.5506 38.4807 62.2143 38.624C59.8781 38.7672 58.6492 38.846 57.499 38.2012C56.3487 37.5563 55.0664 35.0551 55.0664 35.0551Z" fill="#263238"/>
<path d="M55.5525 27.6762C55.5292 27.6658 55.6166 27.403 55.8043 26.9392C55.9928 26.4758 56.2814 25.8119 56.6762 25.0078C56.8771 24.6074 57.0982 24.1691 57.3617 23.7105C57.6255 23.2522 57.9163 22.766 58.2853 22.2862C58.4709 22.0512 58.6858 21.805 58.9307 21.6012C59.1736 21.3936 59.4454 21.2055 59.7294 21.0397C60.0139 20.8731 60.3038 20.7229 60.597 20.5657C60.8913 20.4094 61.1917 20.2528 61.5006 20.1012C62.1179 19.7975 62.7429 19.5318 63.37 19.3388C63.6836 19.2425 63.9968 19.1641 64.3065 19.1026C64.6142 19.0387 64.9327 18.9935 65.2515 19.0089C65.5691 19.025 65.895 19.1122 66.1539 19.3062C66.4124 19.5017 66.573 19.7741 66.67 20.0333C66.7701 20.2948 66.8218 20.5508 66.869 20.7921C66.9144 21.0307 66.9578 21.2597 66.9994 21.4786C67.1734 22.3531 67.3042 23.0652 67.3754 23.5603C67.4479 24.0554 67.4643 24.3328 67.4392 24.3366C67.4129 24.3406 67.3475 24.0723 67.2312 23.5879C67.1139 23.0987 66.9458 22.3984 66.7386 21.535C66.6866 21.319 66.6351 21.0863 66.5839 20.8508C66.5306 20.6165 66.4732 20.3752 66.3792 20.1485C66.2875 19.9211 66.1515 19.7135 65.9576 19.5727C65.7623 19.4326 65.5071 19.3648 65.236 19.3551C64.9628 19.3464 64.6759 19.3887 64.3789 19.4544C64.082 19.517 63.7818 19.5952 63.4807 19.6904C62.8783 19.8808 62.2741 20.1401 61.6672 20.4386C61.3637 20.5875 61.0661 20.742 60.7729 20.8962C60.4801 21.0515 60.1878 21.2013 59.916 21.3576C59.6435 21.5142 59.3924 21.6845 59.1626 21.876C58.9294 22.0663 58.7426 22.2765 58.5584 22.5006C58.1998 22.9513 57.9027 23.4239 57.6319 23.8677C57.3607 24.3126 57.1277 24.7404 56.9133 25.1297C56.4912 25.9126 56.1668 26.5568 55.9379 27.0001C55.7097 27.4437 55.5769 27.687 55.5525 27.6762Z" fill="#263238"/>
<path d="M64.0612 22.9436C63.327 22.9436 62.6883 23.3495 62.3575 23.9483C62.2047 23.6715 62.1172 23.3537 62.1172 23.0156C62.1172 21.9455 62.9876 21.0781 64.0611 21.0781C65.1348 21.0781 66.005 21.9456 66.005 23.0156C66.005 23.3539 65.9177 23.6717 65.7647 23.9483C65.4342 23.3497 64.7955 22.9436 64.0612 22.9436Z" fill="#E0E0E0"/>
<path d="M63.2247 22.9541C63.2247 23.4153 63.5998 23.7892 64.0625 23.7892C64.5253 23.7892 64.9003 23.4153 64.9003 22.9541C64.9003 22.493 64.5253 22.1191 64.0625 22.1191C63.5998 22.1191 63.2247 22.493 63.2247 22.9541Z" fill="white"/>
<path d="M63.2221 22.9548C63.2195 22.9548 63.2179 22.9364 63.2172 22.9011C63.2159 22.8658 63.2198 22.8133 63.234 22.7473C63.261 22.6173 63.3419 22.423 63.5368 22.2699C63.725 22.1166 64.0439 22.0256 64.3571 22.1379C64.5114 22.1917 64.659 22.2952 64.7643 22.4394C64.8724 22.5817 64.9338 22.7656 64.9354 22.9546C64.934 23.1438 64.8725 23.3277 64.7644 23.4701C64.6591 23.6143 64.5115 23.7179 64.3572 23.7716C64.0439 23.8841 63.725 23.7929 63.5368 23.6396C63.3419 23.4864 63.261 23.2922 63.234 23.1623C63.2197 23.0963 63.2158 23.0439 63.2172 23.0085C63.2179 22.9731 63.2195 22.9548 63.2221 22.9548C63.2299 22.9543 63.2276 23.0291 63.2626 23.155C63.297 23.2786 63.3822 23.459 63.5691 23.5973C63.7498 23.7361 64.0466 23.8133 64.3335 23.7065C64.6178 23.6084 64.8633 23.3068 64.8601 22.9546C64.8633 22.6026 64.618 22.3011 64.3335 22.2031C64.0467 22.0962 63.7499 22.1735 63.5692 22.3122C63.3824 22.4506 63.2972 22.6309 63.2627 22.7545C63.2278 22.8804 63.2299 22.9552 63.2221 22.9548Z" fill="#263238"/>
<path d="M62.1215 23.0164C62.1189 23.0164 62.1184 22.9739 62.1202 22.8925C62.12 22.8516 62.1221 22.8013 62.1318 22.7425C62.1396 22.6834 62.1468 22.6147 62.168 22.5399C62.2354 22.2425 62.426 21.8009 62.8731 21.4554C63.0945 21.2866 63.3754 21.1422 63.7009 21.0827C64.0241 21.0253 64.3899 21.0336 64.7395 21.1643C64.9154 21.2244 65.0852 21.3158 65.2412 21.4313C65.399 21.5448 65.5424 21.6858 65.6607 21.8494C65.9051 22.172 66.0434 22.588 66.0471 23.0163C66.0435 23.4447 65.9051 23.8608 65.6607 24.1834C65.5424 24.3471 65.399 24.4882 65.2412 24.6017C65.0852 24.7173 64.9152 24.8086 64.7395 24.8688C64.3899 24.9995 64.0241 25.0078 63.7009 24.9502C63.3754 24.8907 63.0945 24.7463 62.8731 24.5775C62.4262 24.2319 62.2355 23.7903 62.1681 23.493C62.147 23.4182 62.1397 23.3495 62.1319 23.2905C62.1221 23.2315 62.12 23.1811 62.1203 23.1404C62.1184 23.0588 62.1189 23.0164 62.1215 23.0164C62.1328 23.0154 62.1208 23.1892 62.1965 23.4858C62.2716 23.7768 62.4663 24.2044 62.9054 24.5352C63.1228 24.6968 63.3968 24.834 63.7123 24.8888C64.0258 24.9418 64.3795 24.9314 64.7159 24.8035C64.8852 24.7447 65.0485 24.6559 65.1985 24.5439C65.3501 24.434 65.4879 24.2977 65.6013 24.1396C65.8359 23.8283 65.968 23.4283 65.9718 23.0161C65.9679 22.604 65.8359 22.2042 65.6012 21.8929C65.4876 21.7349 65.35 21.5986 65.1983 21.4888C65.0484 21.3767 64.8851 21.2879 64.7157 21.2291C64.3795 21.1012 64.0258 21.0908 63.7123 21.1438C63.3967 21.1987 63.1228 21.3358 62.9054 21.4974C62.4663 21.8282 62.2714 22.2559 62.1965 22.5468C62.1208 22.8436 62.1328 23.0173 62.1215 23.0164Z" fill="#263238"/>
<path d="M63.3274 21.6436C63.3013 21.6047 63.4341 21.4493 63.7379 21.3437C64.0337 21.2377 64.5155 21.2111 64.9665 21.4488C65.4163 21.6892 65.6629 22.1027 65.7397 22.4065C65.8213 22.7167 65.7658 22.9132 65.719 22.9133C65.6629 22.9168 65.6196 22.7403 65.4911 22.5027C65.3664 22.2663 65.1356 21.9655 64.7892 21.7806C64.4422 21.5973 64.0629 21.5742 63.7965 21.603C63.5269 21.6293 63.3557 21.6919 63.3274 21.6436Z" fill="white"/>
<path d="M62.8434 21.9498C62.7576 21.8911 62.7205 21.7964 62.7707 21.7476C62.8211 21.6989 62.915 21.7387 62.9715 21.8257C63.0281 21.9129 63.0543 21.9967 63.0338 22.0172C63.0125 22.0371 62.9293 22.0087 62.8434 21.9498Z" fill="white"/>
<path d="M51.8105 30.336C51.785 30.2354 54.3436 29.5044 57.5246 28.7036C60.7067 27.9023 63.3062 27.3347 63.3317 27.4354C63.3572 27.536 60.7992 28.2669 57.617 29.068C54.4359 29.8689 51.836 30.4367 51.8105 30.336Z" fill="#263238"/>
<path d="M67.1368 19.7295C67.1355 19.7297 67.1327 19.7148 67.127 19.6859C67.1211 19.6571 67.1124 19.6142 67.0975 19.5587C67.0676 19.4484 67.0162 19.2854 66.9083 19.0967C66.7998 18.91 66.6245 18.6995 66.3586 18.5437C66.2934 18.5032 66.2183 18.4751 66.1447 18.4397C66.0657 18.4173 65.9873 18.3835 65.9013 18.3681C65.8154 18.3539 65.7277 18.3294 65.6362 18.3277C65.5449 18.322 65.4499 18.3248 65.3531 18.3339C64.9652 18.3678 64.5455 18.4654 64.1019 18.586C63.6578 18.707 63.1888 18.8574 62.6993 19.0266C61.7221 19.3694 60.6569 19.7796 59.5729 20.2811C59.4382 20.3452 59.3048 20.4101 59.1758 20.4795C59.0469 20.5471 58.9314 20.6328 58.8167 20.7216C58.5911 20.9011 58.3868 21.1015 58.2115 21.3183C57.8815 21.7679 57.5787 22.2243 57.2884 22.651C56.7101 23.5091 56.2113 24.2965 55.805 24.9651C55.3998 25.6344 55.0856 26.1844 54.8706 26.5655C54.7653 26.7528 54.6824 26.8998 54.6235 27.0048C54.5964 27.0517 54.5748 27.0892 54.558 27.1184C54.5429 27.1438 54.5345 27.1565 54.5333 27.156C54.5322 27.1554 54.5383 27.1414 54.5512 27.1148C54.5662 27.0848 54.5856 27.0461 54.6101 26.9977C54.6626 26.895 54.7408 26.7442 54.845 26.5515C55.0521 26.1659 55.3594 25.6114 55.7593 24.9378C56.1601 24.265 56.6547 23.4737 57.2306 22.6126C57.5211 22.1823 57.8181 21.7314 58.1539 21.2722C58.3326 21.0506 58.5401 20.8464 58.7702 20.663C58.8855 20.5735 59.0066 20.4835 59.1397 20.4137C59.271 20.3428 59.4051 20.2778 59.5406 20.2132C60.629 19.7098 61.6956 19.3014 62.6765 18.9612C63.1678 18.7935 63.6388 18.6449 64.0856 18.5259C64.5321 18.4075 64.9542 18.3122 65.349 18.281C65.4475 18.2728 65.5447 18.2708 65.6395 18.2774C65.7354 18.2804 65.8241 18.3061 65.9121 18.3217C66.0001 18.3386 66.0806 18.374 66.1612 18.3981C66.2368 18.4352 66.3134 18.4654 66.3799 18.5077C66.6516 18.6716 66.8275 18.8906 66.9338 19.0825C67.0395 19.2767 67.0869 19.4431 67.1123 19.5554C67.1249 19.6119 67.1311 19.6556 67.1346 19.6849C67.1379 19.7142 67.1381 19.7294 67.1368 19.7295Z" fill="#263238"/>
<g opacity="0.3">
<path d="M67.7402 20.5488C67.8835 20.5969 68.6705 21.0849 69.0038 21.2709C69.3373 21.4569 69.6287 21.7503 69.725 22.1188C69.8211 22.4858 69.7153 22.8719 69.6103 23.2365C69.2669 24.4273 68.8688 26.5687 68.5254 27.7595C68.2571 25.5999 67.9645 21.9202 67.7402 20.5488Z" fill="white"/>
</g>
<path d="M56.9492 37.6866C56.9463 37.6661 59.1822 37.3406 61.9424 36.9599C64.7036 36.579 66.9436 36.287 66.9465 36.3077C66.9494 36.3282 64.714 36.6535 61.9529 37.0344C59.1924 37.4151 56.9521 37.7072 56.9492 37.6866Z" fill="#455A64"/>
<path d="M57.666 38.23C57.6657 38.2275 57.6975 38.2207 57.7583 38.2098C57.8271 38.1987 57.9155 38.1843 58.025 38.1665C58.2568 38.1301 58.5928 38.0816 59.0083 38.0243C59.8393 37.9094 60.9891 37.7654 62.26 37.6154C63.5269 37.4648 64.6733 37.3285 65.5143 37.2284C65.9237 37.1792 66.2582 37.139 66.5003 37.1099C66.6105 37.0977 66.6996 37.0881 66.7687 37.0806C66.8303 37.0746 66.8627 37.0728 66.863 37.0754C66.8633 37.078 66.8316 37.0847 66.7707 37.0956C66.7021 37.1067 66.6135 37.1211 66.504 37.1389C66.2722 37.1753 65.9364 37.2238 65.5209 37.2811C64.6899 37.396 63.5399 37.54 62.2687 37.69C61.0022 37.8406 59.8559 37.9769 59.0149 38.077C58.6055 38.1262 58.271 38.1665 58.0288 38.1955C57.9185 38.2075 57.8294 38.2173 57.7602 38.2249C57.6989 38.2308 57.6663 38.2326 57.666 38.23Z" fill="#455A64"/>
<path d="M59.2309 38.6406C59.2233 38.6409 59.3197 38.6266 59.4831 38.6055C59.6606 38.5832 59.8966 38.5534 60.1827 38.5173C60.7854 38.445 61.5964 38.3478 62.4927 38.2402C63.39 38.139 64.2019 38.0475 64.8052 37.9795C65.0922 37.9504 65.3289 37.9265 65.5069 37.9084C65.6728 37.8933 65.7648 37.8873 65.7654 37.8924C65.766 37.8976 65.6751 37.9133 65.5104 37.9374C65.3332 37.9616 65.0974 37.9935 64.8116 38.0323C64.2209 38.109 63.4044 38.2095 62.5015 38.315C61.5991 38.4204 60.7813 38.5105 60.1886 38.5702C59.598 38.6292 59.2244 38.66 59.2309 38.6406Z" fill="#455A64"/>
<path d="M56.4277 37.0635C56.425 37.0429 58.778 36.7176 61.6826 36.3368C64.5882 35.9559 66.9451 35.6641 66.9479 35.6846C66.9506 35.7053 64.598 36.0306 61.6924 36.4113C58.7879 36.7922 56.4303 37.0842 56.4277 37.0635Z" fill="#455A64"/>
<path d="M56.0176 36.487C56.0148 36.4664 58.451 36.1301 61.4583 35.7361C64.4666 35.3417 66.9066 35.0389 66.9093 35.0596C66.9121 35.0801 64.4763 35.4164 61.4682 35.8107C58.4609 36.2047 56.0203 36.5075 56.0176 36.487Z" fill="#455A64"/>
<path d="M55.5605 35.8046C55.5578 35.784 58.0627 35.4387 61.1545 35.0336C64.2474 34.6281 66.7562 34.3164 66.7588 34.3369C66.7616 34.3575 64.2573 34.7026 61.1644 35.1081C58.0725 35.5132 55.5633 35.8251 55.5605 35.8046Z" fill="#455A64"/>
<path d="M55.2051 35.11C55.2023 35.0894 57.7518 34.7384 60.8986 34.3259C64.0466 33.9133 66.5998 33.5955 66.6026 33.6162C66.6053 33.6368 64.0564 33.9878 60.9085 34.4004C57.7617 34.8129 55.2078 35.1307 55.2051 35.11Z" fill="#455A64"/>
<path d="M54.8516 34.4132C54.8488 34.3925 57.4189 34.0388 60.591 33.6229C63.7643 33.2069 66.3382 32.8867 66.3409 32.9072C66.3437 32.9277 63.7742 33.2814 60.6009 33.6974C57.4287 34.1133 54.8543 34.4337 54.8516 34.4132Z" fill="#455A64"/>
<path d="M63.1555 32.8242C63.1759 32.8199 63.4587 34.0634 63.7873 35.6013C64.1158 37.1398 64.3657 38.3899 64.3453 38.3942C64.3249 38.3986 64.0421 37.1554 63.7134 35.6169C63.3849 34.0791 63.135 32.8286 63.1555 32.8242Z" fill="#455A64"/>
<path d="M64.1086 32.668C64.129 32.6636 64.4119 33.9071 64.7404 35.445C65.069 36.9835 65.3189 38.2336 65.2984 38.238C65.278 38.2423 64.9952 36.9991 64.6666 35.4606C64.3381 33.9229 64.0882 32.6723 64.1086 32.668Z" fill="#455A64"/>
<path d="M65.0579 32.5098C65.0783 32.5054 65.3467 33.6815 65.6575 35.1362C65.9684 36.5914 66.2038 37.7742 66.1834 37.7786C66.163 37.7829 65.8946 36.6071 65.5838 35.1518C65.273 33.6971 65.0376 32.5141 65.0579 32.5098Z" fill="#455A64"/>
<path d="M66.0837 32.7246C66.0887 32.7235 66.1054 32.7782 66.131 32.878C66.157 32.9777 66.1913 33.1227 66.2314 33.3023C66.3121 33.6614 66.4117 34.1606 66.5084 34.7136C66.6064 35.2569 66.695 35.7482 66.7634 36.1276C66.7935 36.296 66.8192 36.4391 66.8402 36.5565C66.857 36.658 66.864 36.7147 66.8587 36.7157C66.8537 36.7169 66.837 36.6621 66.8114 36.5624C66.7854 36.4627 66.7511 36.3178 66.711 36.138C66.6303 35.7789 66.5307 35.2796 66.434 34.7264C66.336 34.1834 66.2475 33.6922 66.179 33.3126C66.1489 33.1442 66.1232 33.001 66.1022 32.8837C66.0855 32.7824 66.0786 32.7258 66.0837 32.7246Z" fill="#455A64"/>
<path d="M62.0658 33.0195C62.0862 33.0152 62.3597 34.2149 62.6767 35.699C62.9938 37.1835 63.2343 38.39 63.2139 38.3943C63.1935 38.3987 62.92 37.1991 62.6028 35.7146C62.286 34.2307 62.0454 33.0239 62.0658 33.0195Z" fill="#455A64"/>
<path d="M60.9719 33.2402C60.9923 33.2359 61.2666 34.4388 61.5844 35.9268C61.9024 37.4151 62.1435 38.6248 62.1232 38.6292C62.1028 38.6335 61.8287 37.4309 61.5107 35.9424C61.1927 34.4546 60.9515 33.2446 60.9719 33.2402Z" fill="#455A64"/>
<path d="M59.8487 33.2988C59.8692 33.2945 60.1411 34.4867 60.456 35.9612C60.7711 37.4363 61.01 38.6353 60.9896 38.6395C60.9692 38.6439 60.6974 37.4519 60.3823 35.9768C60.0674 34.5023 59.8285 33.3032 59.8487 33.2988Z" fill="#455A64"/>
<path d="M58.7416 33.4453C58.762 33.441 59.0325 34.6266 59.3458 36.0932C59.6592 37.5602 59.8967 38.7527 59.8764 38.757C59.8559 38.7613 59.5855 37.5759 59.2721 36.1089C58.9587 34.6423 58.7212 33.4497 58.7416 33.4453Z" fill="#455A64"/>
<path d="M57.6517 33.6602C57.6721 33.6558 57.9262 34.7646 58.2193 36.1365C58.5124 37.5087 58.7335 38.6243 58.7132 38.6286C58.6927 38.633 58.4388 37.5243 58.1456 36.1522C57.8525 34.7803 57.6314 33.6645 57.6517 33.6602Z" fill="#455A64"/>
<path d="M56.5287 33.7539C56.5492 33.7496 56.7878 34.7857 57.0616 36.0679C57.3355 37.3505 57.5411 38.3935 57.5207 38.3978C57.5003 38.4021 57.2618 37.3661 56.9877 36.0835C56.7139 34.8015 56.5083 33.7583 56.5287 33.7539Z" fill="#455A64"/>
<path d="M55.4301 33.9297C55.4505 33.9254 55.5981 34.5357 55.7598 35.2926C55.9216 36.0498 56.0361 36.6669 56.0158 36.6712C55.9954 36.6756 55.8478 36.0654 55.6861 35.3082C55.5243 34.5512 55.4097 33.9339 55.4301 33.9297Z" fill="#455A64"/>
<path d="M19.3204 38.071C19.3204 38.0501 26.5195 38.0332 35.3981 38.0332C44.2797 38.0332 51.4773 38.0501 51.4773 38.071C51.4773 38.0919 44.2797 38.1087 35.3981 38.1087C26.5195 38.1087 19.3204 38.0917 19.3204 38.071Z" fill="#263238"/>
<path d="M19.9473 37.3444C19.9473 37.3235 26.8369 37.3066 35.3336 37.3066C43.8331 37.3066 50.7213 37.3236 50.7213 37.3444C50.7213 37.3653 43.8333 37.3822 35.3336 37.3822C26.8367 37.3822 19.9473 37.3653 19.9473 37.3444Z" fill="#263238"/>
<path d="M20.9043 36.6042C20.9043 36.5833 27.4207 36.5664 35.4574 36.5664C43.4969 36.5664 50.012 36.5834 50.012 36.6042C50.012 36.6251 43.4969 36.6419 35.4574 36.6419C27.4209 36.6419 20.9043 36.6251 20.9043 36.6042Z" fill="#263238"/>
<path d="M21.5505 35.86C21.5505 35.8391 27.7575 35.8223 35.4123 35.8223C43.0699 35.8223 49.2754 35.8393 49.2754 35.86C49.2754 35.8808 43.0698 35.8978 35.4123 35.8978C27.7575 35.8978 21.5505 35.8809 21.5505 35.86Z" fill="#263238"/>
<path d="M22.6075 35.155C22.6075 35.134 28.3621 35.1172 35.459 35.1172C42.5584 35.1172 48.3116 35.1342 48.3116 35.155C48.3116 35.1759 42.5584 35.1927 35.459 35.1927C28.3621 35.1929 22.6075 35.1759 22.6075 35.155Z" fill="#263238"/>
<path d="M23.8184 34.446C23.8184 34.4251 29.0173 34.4082 35.429 34.4082C41.8428 34.4082 47.0407 34.4252 47.0407 34.446C47.0407 34.4669 41.8429 34.4837 35.429 34.4837C29.0171 34.4837 23.8184 34.4669 23.8184 34.446Z" fill="#263238"/>
<path d="M35.1752 3.37695H34.7812V4.0836H35.1752V3.37695Z" fill="#263238"/>
<g opacity="0.3">
<path d="M12.9824 16.6149C12.9824 16.6149 13.6926 16.3741 13.5526 15.8438C13.5526 15.8438 15.6119 17.0457 18.4129 17.0038C21.2138 16.9619 31.4767 17.5874 31.4767 17.5874L32.653 19.2066C32.653 19.2066 15.2756 18.8045 14.6315 19.2232L12.9824 16.6149Z" fill="white"/>
</g>
<g opacity="0.3">
<path d="M6.45836 17.9025C6.31551 17.9017 10.8868 19.4686 11.4792 19.9617L12.4128 19.7587L9.14909 14.3644L8.77459 14.2773C8.77459 14.2773 7.654 17.9095 6.45836 17.9025Z" fill="white"/>
</g>
<g opacity="0.3">
<path d="M17.459 1.50782C17.5466 1.50782 35.3582 0.748328 35.3291 0.515427C35.2999 0.28267 27.3869 0.311693 23.9121 0.515427C20.4374 0.719162 17.459 1.50782 17.459 1.50782Z" fill="white"/>
</g>
<g opacity="0.2">
<path d="M10.0021 11.3707L24.4823 7.80873L27.2112 1.84961L15.5002 2.33447C15.3094 2.34169 15.2339 2.40017 15.138 2.56463L10.0021 11.3707Z" fill="white"/>
</g>
</svg>
