<svg width="20" height="24" viewBox="0 0 20 24" fill="none" xmlns="http://www.w3.org/2000/svg">
<path d="M1.44922 15.5371L3.24922 16.4217" stroke="#AB1216" stroke-linecap="round" stroke-linejoin="round"/>
<path d="M18.55 15.9805L16.75 16.4228" stroke="#AB1216" stroke-linecap="round" stroke-linejoin="round"/>
<path d="M6.40039 20.4029L6.62149 19.8596C6.9503 19.0517 7.1147 18.6477 7.45754 18.4195C7.80037 18.1914 8.24305 18.1914 9.12838 18.1914H10.8724C11.7577 18.1914 12.2004 18.1914 12.5433 18.4195C12.8861 18.6477 13.0505 19.0517 13.3793 19.8596L13.6004 20.4029" stroke="#AB1216" stroke-linecap="round" stroke-linejoin="round"/>
<path d="M1 19.9609V22.5104C1 22.8454 1.21668 23.1517 1.55969 23.3015C1.78226 23.3988 1.99484 23.4993 2.25152 23.4993H3.79848C4.05516 23.4993 4.26774 23.3988 4.49031 23.3015C4.83332 23.1517 5.05 22.8454 5.05 22.5104V20.8455" stroke="#AB1216" stroke-linecap="round" stroke-linejoin="round"/>
<path d="M14.9492 20.8455V22.5104C14.9492 22.8454 15.1659 23.1517 15.5089 23.3015C15.7315 23.3988 15.9441 23.4993 16.2008 23.4993H17.7477C18.0044 23.4993 18.2169 23.3988 18.4395 23.3015C18.7825 23.1517 18.9992 22.8454 18.9992 22.5104V19.9609" stroke="#AB1216" stroke-linecap="round" stroke-linejoin="round"/>
<path d="M17.2012 12.4423L18.1012 12" stroke="#AB1216" stroke-linecap="round" stroke-linejoin="round"/>
<path d="M2.80039 12.4423L1.90039 12" stroke="#AB1216" stroke-linecap="round" stroke-linejoin="round"/>
<path d="M3.25 12.8838L4.22947 9.99564C4.62549 8.82793 4.82349 8.24407 5.29489 7.91013C5.76628 7.57617 6.39243 7.57617 7.64474 7.57617H12.3553C13.6076 7.57617 14.2337 7.57617 14.7051 7.91013C15.1765 8.24407 15.3745 8.82793 15.7705 9.99564L16.75 12.8838" stroke="#AB1216" stroke-linejoin="round"/>
<path d="M3.25 12.8848H16.75C17.6115 13.7813 19 15.0298 19 16.4228V19.4929C19 19.9976 18.6584 20.4223 18.2051 20.4813L15.4 20.8462H4.6L1.79484 20.4813C1.3416 20.4223 1 19.9976 1 19.4929V16.4228C1 15.0298 2.38851 13.7813 3.25 12.8848Z" stroke="#AB1216" stroke-linejoin="round"/>
<path d="M14.9673 0.883262L15.4424 1.82503C15.5072 1.95613 15.68 2.08187 15.8258 2.10595L16.687 2.24775C17.2378 2.33872 17.3674 2.73469 16.9705 3.12531L16.301 3.78883C16.1876 3.90119 16.1255 4.1179 16.1606 4.2731L16.3523 5.09446C16.5034 5.7446 16.1552 5.9961 15.5747 5.65631L14.7675 5.18276C14.6217 5.09714 14.3814 5.09714 14.2329 5.18276L13.4257 5.65631C12.848 5.9961 12.497 5.74192 12.6482 5.09446L12.8399 4.2731C12.875 4.1179 12.8129 3.90119 12.6995 3.78883L12.03 3.12531C11.6358 2.73469 11.7627 2.33872 12.3134 2.24775L13.1747 2.10595C13.3177 2.08187 13.4905 1.95613 13.5553 1.82503L14.0305 0.883262C14.2896 0.372246 14.7108 0.372246 14.9673 0.883262Z" stroke="#AB1216" stroke-width="0.8" stroke-linecap="round" stroke-linejoin="round"/>
<path d="M5.96727 0.883262L6.44242 1.82503C6.50722 1.95613 6.68 2.08187 6.8258 2.10595L7.687 2.24775C8.23776 2.33872 8.36736 2.73469 7.97048 3.12531L7.30095 3.78883C7.18755 3.90119 7.12548 4.1179 7.16055 4.2731L7.35225 5.09446C7.50343 5.7446 7.15515 5.9961 6.57472 5.65631L5.7675 5.18276C5.62172 5.09714 5.38144 5.09714 5.23294 5.18276L4.42573 5.65631C3.84799 5.9961 3.49702 5.74192 3.64821 5.09446L3.83989 4.2731C3.87499 4.1179 3.81289 3.90119 3.6995 3.78883L3.02997 3.12531C2.63581 2.73469 2.7627 2.33872 3.31344 2.24775L4.17466 2.10595C4.31774 2.08187 4.49053 1.95613 4.55532 1.82503L5.03047 0.883262C5.28964 0.372246 5.71079 0.372246 5.96727 0.883262Z" stroke="#AB1216" stroke-width="0.8" stroke-linecap="round" stroke-linejoin="round"/>
</svg>
