<svg width="20" height="20" viewBox="0 0 20 20" fill="none" xmlns="http://www.w3.org/2000/svg">
<path d="M15.0218 8.38914C14.5688 8.26583 14.0921 8.2 13.6 8.2C11.3201 8.2 9.37018 9.61291 8.57818 11.6108M15.0218 8.38914C17.3144 9.01324 19 11.1098 19 13.6C19 16.5823 16.5823 19 13.6 19C12.217 19 10.9553 18.4801 10 17.625M15.0218 8.38914C15.2659 7.77356 15.4 7.10245 15.4 6.4C15.4 3.41766 12.9823 1 10 1C7.01766 1 4.6 3.41766 4.6 6.4C4.6 7.10245 4.73413 7.77356 4.97816 8.38914M8.57818 11.6108C8.3341 12.2264 8.2 12.8975 8.2 13.6C8.2 15.1993 8.89525 16.6362 10 17.625M8.57818 11.6108C6.93231 11.1628 5.59926 9.9559 4.97816 8.38914M10 17.625C9.04465 18.4801 7.78304 19 6.4 19C3.41766 19 1 16.5823 1 13.6C1 11.1098 2.68565 9.01324 4.97816 8.38914" stroke="#AB1216" stroke-linecap="round"/>
</svg>
