<svg width="18" height="20" viewBox="0 0 18 20" fill="none" xmlns="http://www.w3.org/2000/svg">
<path d="M17.0684 5.62022L16.6381 4.84928C16.3127 4.26624 16.15 3.97472 15.8731 3.85846C15.5962 3.74222 15.2831 3.83395 14.6569 4.0174L13.5931 4.32673C13.1933 4.42192 12.7738 4.36792 12.4088 4.17428L12.1151 3.99935C11.802 3.79236 11.5612 3.48717 11.4279 3.12844L11.1368 2.2308C10.9454 1.63678 10.8497 1.33977 10.6218 1.16988C10.394 1 10.0913 1 9.48592 1H8.51404C7.90876 1 7.60607 1 7.37818 1.16988C7.15034 1.33977 7.05463 1.63678 6.86321 2.2308L6.57206 3.12844C6.43878 3.48717 6.19799 3.79236 5.88495 3.99935L5.59126 4.17428C5.2262 4.36792 4.80673 4.42192 4.40692 4.32673L3.34313 4.0174C2.71689 3.83395 2.40378 3.74222 2.12691 3.85846C1.85005 3.97472 1.68734 4.26624 1.3619 4.84928L0.931597 5.62022C0.626548 6.16675 0.474019 6.44002 0.503625 6.73092C0.533223 7.02181 0.737414 7.25624 1.14579 7.72508L2.04464 8.7625C2.26433 9.0496 2.42031 9.55 2.42031 9.99991C2.42031 10.45 2.26439 10.9502 2.04467 11.2374L1.14579 12.2748C0.737414 12.7437 0.533232 12.9781 0.503625 13.2691C0.474019 13.5599 0.626548 13.8332 0.931597 14.3797L1.36189 15.1506C1.68732 15.7336 1.85005 16.0252 2.12691 16.1414C2.40378 16.2577 2.7169 16.166 3.34315 15.9825L4.40689 15.6731C4.80677 15.5779 5.22631 15.632 5.59142 15.8257L5.88506 16.0007C6.19805 16.2077 6.43877 16.5128 6.57204 16.8715L6.86321 17.7693C7.05463 18.3633 7.15034 18.6603 7.37818 18.8302C7.60607 19 7.90876 19 8.51404 19H9.48592C10.0913 19 10.394 19 10.6218 18.8302C10.8497 18.6603 10.9454 18.3633 11.1368 17.7693L11.428 16.8715C11.5612 16.5128 11.8019 16.2077 12.115 16.0007L12.4086 15.8257C12.7737 15.632 13.1932 15.5779 13.5931 15.6731L14.6569 15.9825C15.2831 16.166 15.5962 16.2577 15.8731 16.1414C16.15 16.0252 16.3127 15.7336 16.6381 15.1506L17.0684 14.3797C17.3735 13.8332 17.5259 13.5599 17.4964 13.2691C17.4667 12.9781 17.2626 12.7437 16.8542 12.2748L15.9553 11.2374C15.7356 10.9502 15.5797 10.45 15.5797 9.99991C15.5797 9.55 15.7357 9.0496 15.9553 8.7625L16.8542 7.72508C17.2626 7.25624 17.4667 7.02181 17.4964 6.73092C17.5259 6.44002 17.3735 6.16675 17.0684 5.62022Z" stroke="#AB1216" stroke-linecap="round"/>
<path d="M12.0138 9.99375C12.0138 11.7335 10.6477 13.1438 8.9625 13.1438C7.27733 13.1438 5.91125 11.7335 5.91125 9.99375C5.91125 8.25405 7.27733 6.84375 8.9625 6.84375C10.6477 6.84375 12.0138 8.25405 12.0138 9.99375Z" stroke="#AB1216"/>
</svg>
