<svg width="20" height="20" viewBox="0 0 20 20" fill="none" xmlns="http://www.w3.org/2000/svg">
<path d="M11.4352 5L5.15937 11.2759M5.15937 11.2759L2.82751 13.6076C1.92593 14.5092 1.47513 14.96 1.23769 15.5333C1.00024 16.1065 1.00024 16.744 1.00024 18.0191V18.9999H1.98106C3.25609 18.9999 3.8936 18.9999 4.46685 18.7625C5.0401 18.525 5.49089 18.0742 6.39248 17.1726L12.2893 11.2759M5.15937 11.2759H12.2893M12.2893 11.2759L15.0001 8.56498" stroke="#AB1216" stroke-linecap="round" stroke-linejoin="round"/>
<path d="M17.2083 6.38865L18.8196 7.99995M17.2083 6.38865L18.0701 5.52679C18.3626 5.23428 18.5089 5.08802 18.6106 4.94526C19.1293 4.21674 19.1293 3.23951 18.6106 2.51099C18.5089 2.36823 18.3626 2.22197 18.0701 1.92946C17.7776 1.63696 17.6314 1.49069 17.4886 1.38904C16.7601 0.870318 15.7828 0.870318 15.0543 1.38904C14.9116 1.49069 14.7653 1.63694 14.4728 1.92946L13.6109 2.79132M17.2083 6.38865L13.6109 2.79132M13.6109 2.79132L11.9996 1.18002" stroke="#AB1216" stroke-linecap="round" stroke-linejoin="round"/>
</svg>
