<svg width="20" height="18" viewBox="0 0 20 18" fill="none" xmlns="http://www.w3.org/2000/svg">
<path d="M7.09414 7.72435H2.68335C2.23676 7.72393 1.80857 7.54638 1.49273 7.23064C1.1769 6.9149 0.99921 6.48676 0.998657 6.04017V1.68417C0.99921 1.23758 1.1769 0.809448 1.49273 0.493709C1.80857 0.17797 2.23676 0.000414193 2.68335 0H7.09414C7.54064 0.000552259 7.96869 0.178169 8.28442 0.493893C8.60014 0.809617 8.77776 1.23767 8.77831 1.68417V6.04017C8.77776 6.48667 8.60014 6.91473 8.28442 7.23045C7.96869 7.54618 7.54064 7.7238 7.09414 7.72435ZM2.68335 1.30435C2.58261 1.30449 2.48603 1.34453 2.41474 1.41572C2.34346 1.4869 2.30328 1.58343 2.303 1.68417V6.04017C2.30328 6.14092 2.34346 6.23744 2.41474 6.30863C2.48603 6.37982 2.58261 6.41986 2.68335 6.42H7.09414C7.19483 6.41986 7.29136 6.3798 7.36256 6.3086C7.43376 6.2374 7.47382 6.14087 7.47396 6.04017V1.68417C7.47382 1.58348 7.43376 1.48695 7.36256 1.41575C7.29136 1.34455 7.19483 1.30449 7.09414 1.30435H2.68335ZM7.11553 18H2.70474C2.2581 17.9994 1.82992 17.8218 1.51409 17.506C1.19827 17.1901 1.0206 16.7619 1.02005 16.3153V11.9598C1.0206 11.5132 1.19829 11.0851 1.51413 10.7694C1.82996 10.4536 2.25815 10.2761 2.70474 10.2757H7.11553C7.56185 10.2765 7.98963 10.4542 8.30513 10.7699C8.62063 11.0856 8.79811 11.5135 8.79866 11.9598V16.3153C8.79824 16.7617 8.62083 17.1897 8.30532 17.5056C7.9898 17.8214 7.56194 17.9992 7.11553 18ZM2.70474 11.58C2.604 11.5801 2.50742 11.6202 2.43613 11.6914C2.36485 11.7626 2.32467 11.8591 2.3244 11.9598V16.3153C2.32453 16.4161 2.36465 16.5128 2.43595 16.5841C2.50725 16.6554 2.60391 16.6955 2.70474 16.6957H7.11553C7.21627 16.6954 7.3128 16.6552 7.38398 16.5839C7.45517 16.5126 7.49521 16.416 7.49535 16.3153V11.9598C7.49521 11.8591 7.45515 11.7626 7.38395 11.6914C7.31275 11.6202 7.21622 11.5801 7.11553 11.58H2.70474ZM17.3145 18H12.9037C12.4571 17.9994 12.0289 17.8218 11.7131 17.506C11.3972 17.1901 11.2196 16.7619 11.219 16.3153V11.9598C11.2196 11.5132 11.3972 11.0851 11.7131 10.7694C12.0289 10.4536 12.4571 10.2761 12.9037 10.2757H17.3145C17.761 10.2762 18.189 10.4538 18.5048 10.7695C18.8205 11.0853 18.9981 11.5133 18.9987 11.9598V16.3153C18.9982 16.7619 18.8207 17.1901 18.5049 17.5059C18.1892 17.8218 17.7611 17.9994 17.3145 18ZM12.9037 11.5826C12.803 11.5827 12.7064 11.6228 12.6351 11.694C12.5638 11.7652 12.5236 11.8617 12.5234 11.9624V16.3179C12.5235 16.4187 12.5636 16.5154 12.6349 16.5867C12.7062 16.658 12.8029 16.6981 12.9037 16.6983H17.3145C17.4152 16.698 17.5118 16.6578 17.5829 16.5865C17.6541 16.5152 17.6942 16.4187 17.6943 16.3179V11.9598C17.6942 11.8591 17.6541 11.7626 17.5829 11.6914C17.5117 11.6202 17.4152 11.5801 17.3145 11.58L12.9037 11.5826ZM15.1117 7.72435C14.3493 7.71868 13.6057 7.48744 12.9746 7.05977C12.3435 6.6321 11.8531 6.02716 11.5652 5.32119C11.2774 4.61523 11.205 3.83986 11.3572 3.09282C11.5094 2.34579 11.8794 1.66053 12.4205 1.12345C12.9616 0.586363 13.6495 0.221491 14.3977 0.074829C15.1458 -0.0718325 15.9206 0.0062829 16.6244 0.299327C17.3283 0.592372 17.9295 1.08723 18.3525 1.72151C18.7755 2.35579 19.0012 3.1011 19.0013 3.86348C18.9962 4.89084 18.5838 5.87425 17.8547 6.59802C17.1255 7.32179 16.1391 7.72685 15.1117 7.72435ZM15.1117 1.30696C14.6073 1.31262 14.1159 1.46735 13.6993 1.75169C13.2827 2.03602 12.9594 2.43725 12.7703 2.90486C12.5812 3.37247 12.5347 3.88558 12.6365 4.37959C12.7384 4.8736 12.9841 5.32644 13.3428 5.68111C13.7014 6.03578 14.157 6.27643 14.6521 6.37277C15.1472 6.46911 15.6598 6.41684 16.1252 6.22253C16.5907 6.02822 16.9883 5.70055 17.268 5.28078C17.5476 4.861 17.6969 4.36788 17.6969 3.86348C17.6928 3.18151 17.4182 2.52904 16.9336 2.04925C16.4489 1.56947 15.7937 1.30157 15.1117 1.30435V1.30696Z" fill="#AB1216"/>
</svg>
