<svg width="36" height="16" viewBox="0 0 36 16" fill="none" xmlns="http://www.w3.org/2000/svg">
<path d="M21.4608 3.08725C21.249 2.90764 20.9792 2.80881 20.7002 2.80859H10.5712C10.4041 2.80863 10.2391 2.84413 10.0871 2.91271C9.93514 2.98129 9.79984 3.08134 9.69035 3.20609L7.20243 6.03936C7.01768 6.24942 6.91596 6.51846 6.91602 6.79686V8.60609C6.91659 8.89174 7.02428 9.16702 7.21824 9.37868C7.4122 9.59033 7.67864 9.7233 7.96602 9.75186C8.84971 9.82815 9.69931 10.1253 10.435 10.6155C11.1707 11.1056 11.7684 11.7727 12.1718 12.554C12.2693 12.7454 12.4185 12.9064 12.6028 13.0193C12.787 13.1321 12.9993 13.1923 13.216 13.1932H22.7885C23.003 13.1921 23.213 13.1328 23.3958 13.0218C23.5785 12.9109 23.727 12.7524 23.8251 12.5638C24.1615 11.9368 24.6154 11.3788 25.1627 10.9196C25.2934 10.8116 25.3986 10.6767 25.4712 10.5244C25.5437 10.372 25.5818 10.2058 25.5827 10.0374V7.11244C25.5826 6.94587 25.5461 6.7813 25.4756 6.63002C25.4051 6.47875 25.3023 6.34436 25.1743 6.23609L21.4608 3.08725ZM13.2096 12.0249C12.718 11.0721 11.9895 10.2585 11.0927 9.66044C10.1959 9.06241 9.16016 8.69961 8.08268 8.60609V6.79686L10.5712 3.96244H15.666V12.0284L13.2096 12.0249ZM24.4096 10.038C23.7428 10.5945 23.1921 11.2743 22.7885 12.0394L16.8327 12.0301V3.96244H20.7008L24.416 7.11186L24.4096 10.038Z" fill="#AB1216"/>
<path d="M33.5365 6.61942L27.9073 5.72692L22.8679 1.23962C22.3322 0.763194 21.6371 0.499733 20.9167 0.5H10.3087C9.89299 0.500028 9.48204 0.587965 9.10346 0.757914C8.72487 0.927863 8.3874 1.1759 8.11366 1.48538L4.90183 5.11538H2.25C1.78587 5.11538 1.34075 5.29773 1.01256 5.62231C0.684374 5.9469 0.5 6.38713 0.5 6.84615L0.5 13.7692C0.5 14.2283 0.684374 14.6685 1.01256 14.9931C1.34075 15.3177 1.78587 15.5 2.25 15.5H3.46275C3.74215 15.4989 4.01188 15.3986 4.22287 15.2175C4.43387 15.0363 4.57213 14.7863 4.6125 14.5129C4.71157 13.8253 5.05815 13.1961 5.5886 12.741C6.11905 12.2858 6.79773 12.0352 7.5 12.0352C8.20226 12.0352 8.88095 12.2858 9.4114 12.741C9.94184 13.1961 10.2884 13.8253 10.3875 14.5129C10.4279 14.7863 10.5661 15.0363 10.7771 15.2175C10.9881 15.3986 11.2578 15.4989 11.5372 15.5H24.4622C24.7417 15.499 25.0115 15.3989 25.2226 15.2177C25.4338 15.0365 25.5721 14.7864 25.6125 14.5129C25.7116 13.8253 26.0581 13.1961 26.5886 12.741C27.119 12.2858 27.7977 12.0352 28.5 12.0352C29.2023 12.0352 29.8809 12.2858 30.4114 12.741C30.9418 13.1961 31.2884 13.8253 31.3875 14.5129C31.4279 14.7864 31.5662 15.0365 31.7773 15.2177C31.9884 15.3989 32.2583 15.499 32.5378 15.5H33.75C34.2141 15.5 34.6592 15.3177 34.9874 14.9931C35.3156 14.6685 35.5 14.2283 35.5 13.7692V8.89827C35.502 8.34906 35.305 7.81731 34.9449 7.39929C34.5847 6.98127 34.0851 6.70461 33.5365 6.61942ZM34.3333 13.7692C34.3333 13.9222 34.2719 14.069 34.1625 14.1772C34.0531 14.2854 33.9047 14.3462 33.75 14.3462L32.5431 14.3508C32.4019 13.3909 31.9161 12.5134 31.1746 11.8786C30.4331 11.2439 29.4853 10.8942 28.5046 10.8937C27.5239 10.8931 26.5758 11.2417 25.8335 11.8756C25.0912 12.5095 24.6045 13.3865 24.4622 14.3462L11.5425 14.3508C11.4039 13.3885 10.9191 12.5079 10.1769 11.8706C9.43477 11.2334 8.48513 10.8823 7.50231 10.8817C6.5195 10.8812 5.56945 11.2312 4.82656 11.8676C4.08367 12.504 3.59778 13.384 3.45808 14.3462H2.25C2.09529 14.3462 1.94692 14.2854 1.83752 14.1772C1.72812 14.069 1.66667 13.9222 1.66667 13.7692V6.84615C1.66667 6.69314 1.72812 6.5464 1.83752 6.43821C1.94692 6.33001 2.09529 6.26923 2.25 6.26923H5.16666C5.24977 6.26915 5.33191 6.2515 5.40756 6.21747C5.48322 6.18344 5.55064 6.13382 5.60533 6.07192L8.99158 2.24462C9.15588 2.05899 9.3584 1.91025 9.58557 1.80836C9.81274 1.70647 10.0593 1.65379 10.3087 1.65385H20.9167C21.349 1.65381 21.766 1.81206 22.0874 2.09808L27.2552 6.69788C27.3387 6.77223 27.4422 6.82112 27.5532 6.83865L33.3516 7.76173C33.6254 7.80414 33.8749 7.94201 34.055 8.15045C34.235 8.35888 34.3337 8.62413 34.3333 8.89827V13.7692Z" fill="#AB1216"/>
</svg>
