<svg width="18" height="20" viewBox="0 0 18 20" fill="none" xmlns="http://www.w3.org/2000/svg">
<path d="M16.9491 14.3521C16.3657 10.7981 14.5495 8.15158 12.9707 6.59713C12.5112 6.14479 12.2815 5.91863 11.7741 5.70932C11.2666 5.5 10.8304 5.5 9.95805 5.5H8.04196C7.16961 5.5 6.73343 5.5 6.22598 5.70932C5.71853 5.91863 5.48881 6.14479 5.02937 6.59713C3.45051 8.15158 1.63432 10.7981 1.0509 14.3521C0.616824 16.9963 3.02602 19.0003 5.71851 19.0003H12.2815C14.974 19.0003 17.3832 16.9963 16.9491 14.3521Z" stroke="#AB1216" stroke-linecap="round"/>
<path d="M9.5892 9.1008C9.5892 8.72801 9.2908 8.42578 8.92253 8.42578C8.55436 8.42578 8.25587 8.72801 8.25587 9.1008H9.5892ZM8.25587 15.401C8.25587 15.7737 8.55436 16.076 8.92253 16.076C9.2908 16.076 9.5892 15.7737 9.5892 15.401H8.25587ZM9.87605 10.8594C10.0988 11.1561 10.517 11.2138 10.8102 10.9882C11.1033 10.7626 11.1603 10.3391 10.9375 10.0423L9.87605 10.8594ZM7.88627 13.6929C7.61187 13.4443 7.19044 13.468 6.9449 13.7457C6.69936 14.0236 6.72272 14.4503 6.99708 14.6989L7.88627 13.6929ZM8.92253 11.4852C8.34716 11.4852 8.0852 11.3902 7.98102 11.3191C7.9332 11.2865 7.88875 11.2495 7.88875 11.0714H6.55542C6.55542 11.5948 6.74283 12.1023 7.23613 12.4388C7.67293 12.7367 8.2612 12.8353 8.92253 12.8353V11.4852ZM7.88875 11.0714C7.88875 10.9854 7.93391 10.8522 8.11596 10.7162C8.29773 10.5803 8.58076 10.4759 8.92253 10.4759V9.12591C8.3252 9.12591 7.758 9.30591 7.32431 9.62992C6.89091 9.95366 6.55542 10.4557 6.55542 11.0714H7.88875ZM10.111 13.4307C10.111 13.6304 10.0408 13.7364 9.89107 13.8275C9.70076 13.9433 9.37427 14.0261 8.92253 14.0261V15.3761C9.49542 15.3761 10.0965 15.2775 10.5776 14.9848C11.0992 14.6676 11.4443 14.1383 11.4443 13.4307H10.111ZM8.92253 12.8353C9.50333 12.8353 9.80618 12.9258 9.94965 13.0206C10.0333 13.0757 10.111 13.1566 10.111 13.4307H11.4443C11.4443 12.7974 11.2128 12.243 10.6781 11.8898C10.2032 11.5762 9.57854 11.4852 8.92253 11.4852V12.8353ZM9.5892 9.80092V9.1008H8.25587V9.80092H9.5892ZM8.25587 14.7011V15.401H9.5892V14.7011H8.25587ZM8.92253 10.4759C9.398 10.4759 9.73649 10.6735 9.87605 10.8594L10.9375 10.0423C10.4947 9.45253 9.72218 9.12591 8.92253 9.12591V10.4759ZM8.92253 14.0261C8.4484 14.0261 8.07996 13.8684 7.88627 13.6929L6.99708 14.6989C7.48067 15.1371 8.1868 15.3761 8.92253 15.3761V14.0261Z" fill="#AB1216"/>
<path d="M4.78316 3.19864C4.59977 2.92837 4.33397 2.56153 4.88305 2.47788C5.44743 2.39189 6.03346 2.78307 6.6071 2.77503C7.12605 2.76776 7.39043 2.53471 7.67408 2.20196C7.97275 1.85157 8.43524 1 8.9995 1C9.56377 1 10.0263 1.85157 10.3249 2.20196C10.6086 2.53471 10.8729 2.76776 11.3919 2.77503C11.9656 2.78307 12.5516 2.39189 13.116 2.47788C13.665 2.56153 13.3992 2.92837 13.2159 3.19864L12.3866 4.42066C12.032 4.94341 11.8546 5.20479 11.4834 5.35245C11.1123 5.50011 10.6327 5.50011 9.67346 5.50011H8.32555C7.36635 5.50011 6.8867 5.50011 6.51555 5.35245C6.14441 5.20479 5.96706 4.94341 5.61234 4.42066L4.78316 3.19864Z" stroke="#AB1216"/>
</svg>
