<svg width="16" height="16" viewBox="0 0 16 16" fill="none" xmlns="http://www.w3.org/2000/svg">
<path d="M12.5292 10.8805L12.8021 13.0923C12.8721 13.6733 12.2492 14.0793 11.7522 13.7783L8.81935 12.0354C8.49737 12.0354 8.18238 12.0144 7.8744 11.9724C8.40496 11.3574 8.69794 10.5728 8.70036 9.76052C8.70036 7.77262 6.97845 6.16271 4.85056 6.16271C4.0386 6.16271 3.28964 6.39369 2.66667 6.79967C2.64567 6.62468 2.63867 6.44969 2.63867 6.2677C2.63867 3.08287 5.40353 0.5 8.81935 0.5C12.2352 0.5 15 3.08287 15 6.2677C15 8.1576 14.0271 9.83052 12.5292 10.8805Z" stroke="#00B74E" stroke-linecap="round" stroke-linejoin="round"/>
<path d="M8.7007 9.76188C8.7007 10.5948 8.39272 11.3648 7.87474 11.9738C7.18178 12.8137 6.08284 13.3527 4.8509 13.3527L3.02399 14.4376C2.71601 14.6266 2.32403 14.3676 2.36603 14.0107L2.54102 12.6317C1.60307 11.9808 1.0011 10.9378 1.0011 9.76188C1.0011 8.52994 1.65906 7.445 2.66701 6.80103C3.28998 6.39505 4.03894 6.16406 4.8509 6.16406C6.97879 6.16406 8.7007 7.77398 8.7007 9.76188Z" stroke="#00B74E" stroke-linecap="round" stroke-linejoin="round"/>
</svg>
