<svg width="23" height="23" viewBox="0 0 23 23" fill="none" xmlns="http://www.w3.org/2000/svg">
<path d="M7.825 18.7966H7.3C3.1 18.7966 1 17.7498 1 12.5155V7.28116C1 3.09372 3.1 1 7.3 1H15.7C19.9 1 22 3.09372 22 7.28116V12.5155C22 16.7029 19.9 18.7966 15.7 18.7966H15.175C14.8495 18.7966 14.5345 18.9536 14.335 19.2154L12.76 21.3091C12.067 22.2303 10.933 22.2303 10.24 21.3091L8.665 19.2154C8.497 18.985 8.1085 18.7966 7.825 18.7966Z" stroke="#9B9B9B" stroke-miterlimit="10" stroke-linecap="round" stroke-linejoin="round"/>
<path d="M15.6949 10.4219H15.7033M11.4949 10.4219H11.5044M7.29492 10.4219H7.30332" stroke="#9B9B9B" stroke-width="2" stroke-linecap="round" stroke-linejoin="round"/>
</svg>
