<svg width="20" height="20" viewBox="0 0 20 20" fill="none" xmlns="http://www.w3.org/2000/svg">
<path d="M10 20C4.4859 20 0 15.5141 0 10C0 4.48589 4.4859 0 10 0C11.868 0 13.69 0.518403 15.2693 1.4994C15.5454 1.67068 15.63 2.0334 15.4587 2.30946C15.2871 2.58549 14.9244 2.67069 14.6486 2.4988C13.2558 1.63358 11.6483 1.1765 10 1.1765C5.13467 1.1765 1.17646 5.13484 1.17646 10C1.17646 14.8653 5.13467 18.8235 10 18.8235C14.8652 18.8235 18.8236 14.8652 18.8236 10C18.8236 9.02207 18.6649 8.06188 18.3518 7.14615C18.2467 6.83885 18.4109 6.50431 18.7182 6.39922C19.0261 6.29474 19.3601 6.45835 19.4652 6.76565C19.8199 7.80426 20.0001 8.89249 20.0001 10C20 15.5141 15.5141 20 10 20Z" fill="#00B74E"/>
<path d="M9.99725 13.3924C9.84805 13.3924 9.70375 13.3357 9.59454 13.2328L4.88865 8.81216C4.65183 8.58975 4.64018 8.21749 4.86263 7.98067C5.08508 7.74416 5.4573 7.7319 5.69412 7.95496L9.94736 11.9503L17.6759 2.7757C17.8848 2.52723 18.2561 2.49539 18.5046 2.70491C18.7531 2.91417 18.7849 3.28517 18.5754 3.53364L10.447 13.1832C10.3955 13.2443 10.3321 13.2943 10.2607 13.3301C10.1893 13.3659 10.1113 13.3868 10.0316 13.3915C10.0203 13.3921 10.0086 13.3924 9.99725 13.3924Z" fill="#00B74E"/>
</svg>
