<svg width="32" height="32" viewBox="0 0 32 32" fill="none" xmlns="http://www.w3.org/2000/svg">
<g filter="url(#filter0_d_156_10426)">
<rect x="3" y="3" width="24" height="24" rx="12" fill="#9A9A9A" fill-opacity="0.2"/>
<path d="M19.5489 10.0001C19.4326 10.0029 19.322 10.0515 19.2414 10.1355L15 14.377L10.7585 10.1355C10.7174 10.0932 10.6683 10.0596 10.614 10.0366C10.5597 10.0137 10.5014 10.0018 10.4424 10.0018C10.3547 10.0019 10.269 10.028 10.1963 10.077C10.1236 10.126 10.0671 10.1956 10.0342 10.2769C10.0012 10.3581 9.99324 10.4474 10.0113 10.5332C10.0293 10.619 10.0726 10.6975 10.1355 10.7586L14.3769 15L10.1355 19.2415C10.0932 19.2821 10.0594 19.3307 10.0362 19.3845C10.0129 19.4383 10.0006 19.4962 10 19.5549C9.99943 19.6135 10.0105 19.6716 10.0327 19.7259C10.0548 19.7802 10.0876 19.8295 10.1291 19.8709C10.1705 19.9124 10.2198 19.9452 10.2741 19.9673C10.3284 19.9895 10.3865 20.0006 10.4451 20C10.5038 19.9994 10.5617 19.9871 10.6155 19.9638C10.6693 19.9406 10.7179 19.9068 10.7585 19.8645L15 15.6231L19.2414 19.8645C19.282 19.9068 19.3307 19.9406 19.3845 19.9638C19.4383 19.9871 19.4962 19.9994 19.5548 20C19.6134 20.0006 19.6716 19.9895 19.7258 19.9673C19.7801 19.9452 19.8294 19.9124 19.8709 19.8709C19.9123 19.8295 19.9451 19.7802 19.9673 19.7259C19.9894 19.6716 20.0005 19.6135 19.9999 19.5549C19.9993 19.4962 19.987 19.4383 19.9638 19.3845C19.9405 19.3307 19.9068 19.2821 19.8645 19.2415L15.623 15L19.8645 10.7586C19.9286 10.6971 19.9725 10.6177 19.9907 10.5307C20.0088 10.4438 20.0003 10.3534 19.9662 10.2714C19.9321 10.1894 19.874 10.1196 19.7995 10.0712C19.7251 10.0228 19.6377 9.99803 19.5489 10.0001Z" fill="#CE3E3E"/>
</g>
<defs>
<filter id="filter0_d_156_10426" x="0" y="0" width="32" height="32" filterUnits="userSpaceOnUse" color-interpolation-filters="sRGB">
<feFlood flood-opacity="0" result="BackgroundImageFix"/>
<feColorMatrix in="SourceAlpha" type="matrix" values="0 0 0 0 0 0 0 0 0 0 0 0 0 0 0 0 0 0 127 0" result="hardAlpha"/>
<feOffset dx="1" dy="1"/>
<feGaussianBlur stdDeviation="2"/>
<feComposite in2="hardAlpha" operator="out"/>
<feColorMatrix type="matrix" values="0 0 0 0 0 0 0 0 0 0 0 0 0 0 0 0 0 0 0.04 0"/>
<feBlend mode="normal" in2="BackgroundImageFix" result="effect1_dropShadow_156_10426"/>
<feBlend mode="normal" in="SourceGraphic" in2="effect1_dropShadow_156_10426" result="shape"/>
</filter>
</defs>
</svg>
