<svg width="22" height="24" viewBox="0 0 22 24" fill="none" xmlns="http://www.w3.org/2000/svg">
<path d="M17.8474 19.3929C17.7374 19.3928 17.6318 19.4361 17.554 19.513C17.4762 19.59 17.4324 19.6944 17.4324 19.8033V21.4464C17.4313 22.1265 16.8744 22.6775 16.1872 22.6786H2.07527C1.38801 22.6775 0.831169 22.1265 0.83008 21.4464V2.55356C0.831124 1.87349 1.38801 1.32248 2.07527 1.3214H16.1872C16.8744 1.32243 17.4313 1.87349 17.4324 2.55356C17.4322 2.66249 17.4759 2.767 17.5536 2.84411C17.6314 2.92121 17.7369 2.96458 17.847 2.96469C17.9571 2.9648 18.0627 2.92163 18.1406 2.84468C18.2185 2.76773 18.2624 2.6633 18.2625 2.55437V2.55356C18.2611 1.42 17.3328 0.501348 16.1872 0.5H2.07527C0.92968 0.501348 0.0013619 1.42 0 2.55356V21.4464C0.0013619 22.58 0.929725 23.4987 2.07527 23.5H16.1872C17.3328 23.4987 18.2611 22.58 18.2624 21.4464V19.8036C18.2625 19.6947 18.2188 19.5903 18.141 19.5132C18.0632 19.4362 17.9577 19.3929 17.8477 19.3929H17.8474Z" fill="#AB1216"/>
<path d="M20.3379 15.2867H19.5077V14.0545C19.5077 13.9456 19.464 13.8411 19.3862 13.7641C19.3083 13.687 19.2028 13.6438 19.0927 13.6438V12.7766C19.0955 12.5013 19.1709 12.2316 19.3114 11.9941C19.452 11.7565 19.6528 11.5594 19.894 11.4223C20.8145 10.8917 21.9263 9.87908 21.9949 8.06738C22.0987 6.02563 20.6565 4.22422 18.6241 3.85716C16.3697 3.43485 14.1962 4.90088 13.7695 7.13165C13.7214 7.38289 13.6971 7.63801 13.697 7.89371C13.697 9.79863 14.8322 10.8587 15.7844 11.4126C16.03 11.5488 16.235 11.7466 16.3786 11.9863C16.5222 12.2259 16.5994 12.4987 16.6024 12.7773V13.6434C16.4923 13.6434 16.3868 13.6866 16.3089 13.7636C16.2311 13.8405 16.1873 13.9449 16.1873 14.0538V15.2862H15.3572C14.6699 15.2873 14.1131 15.8383 14.112 16.5184V18.1613C14.1119 18.2701 14.1556 18.3746 14.2334 18.4516C14.3112 18.5286 14.4167 18.5719 14.5267 18.572H21.168C21.2225 18.572 21.2764 18.5614 21.3268 18.5407C21.3771 18.5201 21.4229 18.4898 21.4614 18.4517C21.5 18.4135 21.5306 18.3683 21.5514 18.3184C21.5723 18.2686 21.583 18.2152 21.583 18.1613V16.5187C21.582 15.8387 21.0251 15.2877 20.3379 15.2867ZM16.205 10.7043C15.4395 10.2593 14.5271 9.41037 14.5271 7.8938C14.5241 6.07891 16.0085 4.60529 17.8426 4.60232C19.6767 4.59936 21.1659 6.06826 21.1689 7.88315C21.1689 7.93429 21.1678 7.98543 21.1655 8.03652C21.1108 9.4751 20.2167 10.2857 19.4765 10.7125C19.11 10.922 18.8051 11.2228 18.5922 11.5848C18.3793 11.9469 18.2656 12.3577 18.2626 12.7766V13.6438H17.4325V12.7776C17.4303 12.3557 17.3157 11.9419 17.1002 11.5778C16.8847 11.2138 16.5759 10.9125 16.205 10.7043ZM17.0174 14.4652H18.6776V15.2867H17.0174V14.4652ZM20.7529 17.7509H14.9421V16.5188C14.9422 16.4099 14.986 16.3054 15.0638 16.2284C15.1416 16.1514 15.2472 16.1081 15.3572 16.1081H20.3379C20.4479 16.1081 20.5535 16.1514 20.6313 16.2284C20.7091 16.3054 20.7528 16.4099 20.7529 16.5188V17.7509ZM4.15066 6.25091H10.7916C10.9017 6.25091 11.0072 6.20764 11.0851 6.13062C11.1629 6.05359 11.2066 5.94912 11.2066 5.84019C11.2066 5.73126 11.1629 5.62679 11.0851 5.54977C11.0072 5.47274 10.9017 5.42947 10.7916 5.42947H4.15066C4.04058 5.42947 3.935 5.47274 3.85716 5.54977C3.77933 5.62679 3.7356 5.73126 3.7356 5.84019C3.7356 5.94912 3.77933 6.05359 3.85716 6.13062C3.935 6.20764 4.04058 6.25091 4.15066 6.25091ZM4.15066 7.89376H10.7916C10.9017 7.89376 11.0072 7.85048 11.0851 7.77346C11.1629 7.69643 11.2066 7.59196 11.2066 7.48303C11.2066 7.3741 11.1629 7.26964 11.0851 7.19261C11.0072 7.11559 10.9017 7.07231 10.7916 7.07231H4.15066C4.04058 7.07231 3.935 7.11559 3.85716 7.19261C3.77933 7.26964 3.7356 7.3741 3.7356 7.48303C3.7356 7.59196 3.77933 7.69643 3.85716 7.77346C3.935 7.85048 4.04058 7.89376 4.15066 7.89376ZM4.15066 9.53664H10.7916C10.9017 9.53664 11.0072 9.49337 11.0851 9.41634C11.1629 9.33932 11.2066 9.23485 11.2066 9.12592C11.2066 9.01699 11.1629 8.91252 11.0851 8.8355C11.0072 8.75847 10.9017 8.7152 10.7916 8.7152H4.15066C4.04058 8.7152 3.935 8.75847 3.85716 8.8355C3.77933 8.91252 3.7356 9.01699 3.7356 9.12592C3.7356 9.23485 3.77933 9.33932 3.85716 9.41634C3.935 9.49337 4.04058 9.53664 4.15066 9.53664ZM8.7163 20.2152C10.5501 20.2148 12.0364 18.7434 12.036 16.9288C12.0356 15.1141 10.5487 13.6434 8.71485 13.6438C8.04633 13.6439 7.39343 13.8437 6.84155 14.2171C6.75453 14.2801 6.69574 14.3743 6.67764 14.4795C6.65954 14.5847 6.68355 14.6928 6.74459 14.7808C6.80563 14.8688 6.8989 14.9299 7.00463 14.951C7.11037 14.9721 7.22027 14.9517 7.31104 14.894C8.44578 14.1284 9.9929 14.418 10.7666 15.5409C11.5404 16.6637 11.2478 18.1947 10.113 18.9603C8.97819 19.726 7.43112 19.4364 6.65738 18.3135C6.4261 17.9778 6.28239 17.5907 6.23908 17.1868C6.19576 16.7828 6.25419 16.3745 6.40915 15.9983C6.44991 15.8979 6.44902 15.7857 6.40667 15.6859C6.36431 15.5862 6.28391 15.5071 6.18293 15.4657C6.08194 15.4242 5.96852 15.4239 5.8673 15.4648C5.76608 15.5056 5.68523 15.5843 5.64231 15.6838C5.47756 16.0788 5.39353 16.5022 5.39507 16.9295C5.39721 18.7436 6.88304 20.2136 8.7163 20.2152Z" fill="#AB1216"/>
<path d="M8.25471 18.1597C8.3179 18.1597 8.38025 18.1454 8.43699 18.1179C8.49374 18.0904 8.54339 18.0504 8.58216 18.0011L9.87324 16.3582C9.94042 16.2726 9.97067 16.1642 9.9574 16.0566C9.94413 15.9491 9.88842 15.851 9.80241 15.784C9.71641 15.7169 9.60708 15.6861 9.49827 15.6985C9.38947 15.7108 9.29 15.7652 9.22157 15.8498L9.2183 15.854L8.25439 17.08L8.21304 17.0275C8.07526 16.8463 7.81513 16.8099 7.63205 16.9462C7.44896 17.0825 7.41215 17.3399 7.54993 17.5211C7.5526 17.5246 7.55533 17.5281 7.5581 17.5315L7.92695 18.0011C7.96575 18.0505 8.01545 18.0905 8.07226 18.118C8.12906 18.1455 8.19147 18.1597 8.25471 18.1597Z" fill="#AB1216"/>
</svg>
