<svg width="18" height="18" viewBox="0 0 18 18" fill="none" xmlns="http://www.w3.org/2000/svg">
<path d="M16.4443 0.0118862C16.4256 -0.0252566 4.09821 0.0390166 4.06929 0.0118862C3.65716 0.0123137 3.26203 0.177012 2.97061 0.469839C2.67919 0.762666 2.51528 1.1597 2.51486 1.57382V14.8516H0.964286C0.70862 14.8518 0.463498 14.954 0.282715 15.1357C0.101931 15.3173 0.000255283 15.5636 0 15.8205V16.4135C0.000510363 16.8341 0.167018 17.2373 0.463 17.5348C0.758983 17.8322 1.16027 17.9995 1.57886 18H13.9211C14.3344 18.0003 14.731 17.8362 15.0241 17.5435C15.3173 17.2508 15.4832 16.8533 15.4855 16.4381V5.63757H17.0357C17.2914 5.63732 17.5365 5.53515 17.7173 5.35349C17.8981 5.17183 17.9997 4.92553 18 4.66863V1.57511C17.9996 1.16065 17.8355 0.763287 17.5439 0.470217C17.2522 0.177148 16.8568 0.0123137 16.4443 0.0118862ZM1.57886 17.354C1.33069 17.3538 1.09277 17.2546 0.917287 17.0783C0.741808 16.902 0.643112 16.6629 0.642857 16.4135V15.8208C0.642942 15.7352 0.676834 15.6531 0.737095 15.5926C0.797356 15.532 0.879064 15.4979 0.964286 15.4979H12.0555C12.1407 15.4979 12.2224 15.532 12.2827 15.5926C12.343 15.6531 12.3768 15.7352 12.3769 15.8208V16.368C12.3756 16.7216 12.4854 17.0667 12.6906 17.354H1.57886ZM14.8423 16.4381C14.8407 16.5604 14.8148 16.6812 14.7661 16.7933C14.7174 16.9054 14.6468 17.0066 14.5585 17.0909C14.4703 17.1751 14.3661 17.2408 14.2522 17.284C14.1383 17.3272 14.0169 17.347 13.8953 17.3423C13.7736 17.3377 13.6541 17.3086 13.5438 17.2567C13.4335 17.2049 13.3346 17.1315 13.2531 17.0406C13.1715 16.9498 13.1088 16.8435 13.0687 16.728C13.0287 16.6125 13.012 16.4901 13.0198 16.368V15.8208C13.0195 15.5639 12.9179 15.3176 12.7371 15.136C12.5563 14.9543 12.3112 14.8522 12.0555 14.8519H3.15771V1.57382C3.15797 1.33103 3.25405 1.09824 3.42488 0.926529C3.5957 0.754815 3.82733 0.65819 4.06896 0.657849H15.1441C14.9486 0.923404 14.8428 1.24481 14.842 1.57511V16.4377L14.8423 16.4381ZM17.3571 4.66863C17.3571 4.75426 17.3232 4.83636 17.2629 4.89692C17.2026 4.95747 17.1209 4.99152 17.0357 4.99161H15.4851V1.57511C15.5121 0.359414 17.3301 0.359091 17.3571 1.57511V4.66863Z" fill="#AB1216"/>
<path d="M12.857 4.92969H5.14272C5.05747 4.92969 4.97571 4.96372 4.91543 5.02429C4.85515 5.08486 4.82129 5.16701 4.82129 5.25267C4.82129 5.33833 4.85515 5.42048 4.91543 5.48105C4.97571 5.54162 5.05747 5.57565 5.14272 5.57565H12.857C12.9423 5.57565 13.024 5.54162 13.0843 5.48105C13.1446 5.42048 13.1784 5.33833 13.1784 5.25267C13.1784 5.16701 13.1446 5.08486 13.0843 5.02429C13.024 4.96372 12.9423 4.92969 12.857 4.92969Z" fill="#AB1216"/>
<path d="M12.857 6.66406H5.14272C5.05747 6.66406 4.97571 6.69809 4.91543 6.75866C4.85515 6.81923 4.82129 6.90138 4.82129 6.98704C4.82129 7.0727 4.85515 7.15486 4.91543 7.21543C4.97571 7.276 5.05747 7.31002 5.14272 7.31002H12.857C12.9423 7.31002 13.024 7.276 13.0843 7.21543C13.1446 7.15486 13.1784 7.0727 13.1784 6.98704C13.1784 6.90138 13.1446 6.81923 13.0843 6.75866C13.024 6.69809 12.9423 6.66406 12.857 6.66406Z" fill="#AB1216"/>
<path d="M12.857 8.40234H5.14272C5.05747 8.40234 4.97571 8.43637 4.91543 8.49694C4.85515 8.55751 4.82129 8.63966 4.82129 8.72532C4.82129 8.81098 4.85515 8.89314 4.91543 8.95371C4.97571 9.01428 5.05747 9.04831 5.14272 9.04831H12.857C12.9423 9.04831 13.024 9.01428 13.0843 8.95371C13.1446 8.89314 13.1784 8.81098 13.1784 8.72532C13.1784 8.63966 13.1446 8.55751 13.0843 8.49694C13.024 8.43637 12.9423 8.40234 12.857 8.40234Z" fill="#AB1216"/>
<path d="M12.857 10.1367H5.14272C5.05747 10.1367 4.97571 10.1707 4.91543 10.2313C4.85515 10.2919 4.82129 10.374 4.82129 10.4597C4.82129 10.5454 4.85515 10.6275 4.91543 10.6881C4.97571 10.7487 5.05747 10.7827 5.14272 10.7827H12.857C12.9423 10.7827 13.024 10.7487 13.0843 10.6881C13.1446 10.6275 13.1784 10.5454 13.1784 10.4597C13.1784 10.374 13.1446 10.2919 13.0843 10.2313C13.024 10.1707 12.9423 10.1367 12.857 10.1367Z" fill="#AB1216"/>
</svg>
