<svg width="16" height="18" viewBox="0 0 16 18" fill="none" xmlns="http://www.w3.org/2000/svg">
<path d="M11.2726 17.9996L1.81816 17.9996C0.81599 17.9996 5.71398e-08 17.1583 5.27356e-08 16.1249L7.99024e-09 5.62665C3.58602e-09 4.59332 0.81599 3.75195 1.81816 3.75195L2.54542 3.75195C2.74615 3.75195 2.90905 3.91993 2.90905 4.12689C2.90905 4.33386 2.74615 4.50183 2.54542 4.50183L1.81816 4.50183C1.21671 4.50183 0.727264 5.0065 0.727264 5.62665L0.727264 16.1249C0.727264 16.7451 1.21671 17.2498 1.81816 17.2498L11.2726 17.2498C11.874 17.2498 12.3635 16.7451 12.3635 16.1249L12.3635 15.3751C12.3635 15.1681 12.5264 15.0001 12.7271 15.0001C12.9278 15.0001 13.0907 15.1681 13.0907 15.3751L13.0907 16.1249C13.0907 17.1583 12.2748 17.9996 11.2726 17.9996Z" fill="#AB1216"/>
<path d="M14.1818 13.4978L6.18193 13.4978C5.17976 13.4978 4.36377 12.6564 4.36377 11.6231L4.36377 1.87469C4.36377 0.841363 5.17976 -2.34904e-09 6.18193 -5.23404e-09L14.1818 -2.82638e-08C15.184 -3.11488e-08 16 0.841363 16 1.87469L16 11.6231C16 12.6564 15.184 13.4978 14.1818 13.4978ZM6.18193 0.749878C5.58048 0.749878 5.09103 1.25455 5.09103 1.87469L5.09103 11.6231C5.09103 12.2433 5.58048 12.7479 6.18193 12.7479L14.1818 12.7479C14.7833 12.7479 15.2727 12.2433 15.2727 11.6231L15.2727 1.87469C15.2727 1.25455 14.7833 0.749878 14.1818 0.749878L6.18193 0.749878Z" fill="#AB1216"/>
</svg>
