<svg width="20" height="20" viewBox="0 0 20 20" fill="none" xmlns="http://www.w3.org/2000/svg">
<circle cx="10" cy="10" r="9.5" stroke="#E10000"/>
<path d="M14.5489 5.00012C14.4326 5.00287 14.322 5.05155 14.2414 5.13552L9.99997 9.37698L5.75852 5.13552C5.71745 5.09322 5.66831 5.0596 5.61401 5.03664C5.55971 5.01368 5.50135 5.00185 5.4424 5.00184C5.35471 5.00187 5.26903 5.02805 5.1963 5.07704C5.12358 5.12604 5.06712 5.19561 5.03416 5.27687C5.00121 5.35813 4.99324 5.44737 5.01129 5.53318C5.02933 5.61899 5.07257 5.69747 5.13546 5.75857L9.37692 10L5.13546 14.2415C5.09318 14.2821 5.05942 14.3307 5.03616 14.3845C5.0129 14.4383 5.00062 14.4962 5.00002 14.5549C4.99943 14.6135 5.01053 14.6716 5.03269 14.7259C5.05485 14.7802 5.08761 14.8295 5.12906 14.8709C5.17052 14.9124 5.21982 14.9452 5.2741 14.9673C5.32837 14.9895 5.38652 15.0006 5.44514 15C5.50375 14.9994 5.56166 14.9871 5.61548 14.9638C5.66929 14.9406 5.71792 14.9068 5.75852 14.8645L9.99997 10.6231L14.2414 14.8645C14.282 14.9068 14.3307 14.9406 14.3845 14.9638C14.4383 14.9871 14.4962 14.9994 14.5548 15C14.6134 15.0006 14.6716 14.9895 14.7258 14.9673C14.7801 14.9452 14.8294 14.9124 14.8709 14.8709C14.9123 14.8295 14.9451 14.7802 14.9673 14.7259C14.9894 14.6716 15.0005 14.6135 14.9999 14.5549C14.9993 14.4962 14.987 14.4383 14.9638 14.3845C14.9405 14.3307 14.9068 14.2821 14.8645 14.2415L10.623 10L14.8645 5.75857C14.9286 5.69707 14.9725 5.61765 14.9907 5.53072C15.0088 5.44378 15.0003 5.35339 14.9662 5.27139C14.9321 5.18939 14.874 5.11962 14.7995 5.07121C14.7251 5.0228 14.6377 4.99803 14.5489 5.00012Z" fill="#E10000"/>
</svg>
