<svg width="19" height="19" viewBox="0 0 19 19" fill="none" xmlns="http://www.w3.org/2000/svg">
<path d="M11.8994 18C11.2077 18 10.5921 17.5356 10.4021 16.8707L8.56369 10.4363L2.12927 8.59791C1.46435 8.40793 1 7.79231 1 7.10082C1 6.3996 1.4511 5.79331 2.12253 5.59186L17.3589 1.02098C17.445 0.995155 17.5365 0.993134 17.6237 1.01513C17.7109 1.03712 17.7905 1.08231 17.8541 1.14589C17.9177 1.20948 17.9629 1.2891 17.9849 1.37629C18.0069 1.46349 18.0048 1.55501 17.979 1.64115L13.4081 16.8775C13.2067 17.5489 12.6004 18 11.8994 18Z" stroke="#AB1216"/>
</svg>
