<svg width="14" height="15" viewBox="0 0 14 15" fill="none" xmlns="http://www.w3.org/2000/svg">
<path d="M12.9218 9.28562C12.7292 9.28562 12.5731 9.4425 12.5731 9.63606V12.7476C12.5724 13.328 12.1046 13.7984 11.5271 13.7989H1.74351C1.16601 13.7984 0.698159 13.328 0.697478 12.7476V3.61548C0.698159 3.0352 1.16601 2.56485 1.74351 2.56416H4.83939C5.03198 2.56416 5.18807 2.40728 5.18807 2.21372C5.18807 2.02029 5.03198 1.86328 4.83939 1.86328H1.74351C0.781106 1.86438 0.00121169 2.64821 0.00012207 3.61548V12.7477C0.00121169 13.715 0.781106 14.4988 1.74351 14.4999H11.5271C12.4895 14.4988 13.2694 13.715 13.2704 12.7477V9.63606C13.2704 9.4425 13.1144 9.28562 12.9218 9.28562Z" fill="#AB1216"/>
<path d="M13.132 0.961903C12.5192 0.346032 11.5257 0.346032 10.913 0.961903L4.69233 7.21397C4.6497 7.25681 4.61892 7.30993 4.60285 7.36824L3.78482 10.3364C3.75118 10.4581 3.78536 10.5885 3.87417 10.6778C3.96311 10.7671 4.09277 10.8015 4.21386 10.7678L7.16713 9.94548C7.22515 9.92933 7.278 9.89839 7.32063 9.85554L13.5411 3.60334C14.1529 2.98706 14.1529 1.9894 13.5411 1.37312L13.132 0.961903ZM5.45207 7.44175L10.5432 2.32478L12.1851 3.975L7.09385 9.09197L5.45207 7.44175ZM5.1241 8.10321L6.43586 9.42173L4.62137 9.927L5.1241 8.10321ZM13.0481 3.1078L12.6783 3.47946L11.0362 1.8291L11.4062 1.45745C11.7465 1.11536 12.2984 1.11536 12.6388 1.45745L13.0481 1.86867C13.3879 2.21117 13.3879 2.76543 13.0481 3.1078Z" fill="#AB1216"/>
</svg>
