<svg width="28" height="29" viewBox="0 0 28 29" fill="none" xmlns="http://www.w3.org/2000/svg">
<path d="M21.6133 16.5643C21.3657 16.5643 21.165 16.766 21.165 17.0149V21.0154C21.1641 21.7616 20.5626 22.3663 19.8201 22.367H7.24147C6.49898 22.3663 5.89746 21.7616 5.89659 21.0154V9.27427C5.89746 8.52821 6.49898 7.92348 7.24147 7.9226H11.2218C11.4694 7.9226 11.6701 7.72091 11.6701 7.47204C11.6701 7.22336 11.4694 7.02148 11.2218 7.02148H7.24147C6.00411 7.02289 5.0014 8.03066 5 9.27427V21.0155C5.0014 22.2591 6.00411 23.2669 7.24147 23.2683H19.8201C21.0575 23.2669 22.0602 22.2591 22.0616 21.0155V17.0149C22.0616 16.766 21.8609 16.5643 21.6133 16.5643Z" fill="#AB1216"/>
<path d="M21.8835 5.8634C21.0957 5.07158 19.8184 5.07158 19.0306 5.8634L11.0328 13.9016C10.9779 13.9567 10.9384 14.025 10.9177 14.1L9.86597 17.9162C9.82271 18.0726 9.86667 18.2402 9.98084 18.3551C10.0952 18.4699 10.2619 18.514 10.4176 18.4708L14.2146 17.4135C14.2892 17.3928 14.3571 17.353 14.4119 17.2979L22.4096 9.25948C23.1962 8.46713 23.1962 7.18445 22.4096 6.3921L21.8835 5.8634ZM12.0095 14.1945L18.5551 7.61565L20.6662 9.73732L14.1204 16.3162L12.0095 14.1945ZM11.5879 15.0449L13.2744 16.7402L10.9415 17.3898L11.5879 15.0449ZM21.7757 8.62236L21.3002 9.1002L19.1891 6.97835L19.6647 6.50051C20.1023 6.06069 20.8118 6.06069 21.2495 6.50051L21.7757 7.02922C22.2126 7.46957 22.2126 8.18219 21.7757 8.62236Z" fill="#AB1216"/>
</svg>
