<svg width="36" height="36" viewBox="0 0 36 36" fill="none" xmlns="http://www.w3.org/2000/svg">
<g filter="url(#filter0_d_322_17220)">
<circle cx="20" cy="16" r="14" fill="white"/>
</g>
<g clip-path="url(#clip0_322_17220)">
<path d="M26.7674 18.0411C26.5473 18.0411 26.3689 18.2204 26.3689 18.4416V21.9976C26.3681 22.6609 25.8334 23.1985 25.1734 23.1991H13.9924C13.3324 23.1985 12.7977 22.6609 12.797 21.9976V11.5611C12.7977 10.8979 13.3324 10.3604 13.9924 10.3596H17.5305C17.7506 10.3596 17.929 10.1803 17.929 9.95909C17.929 9.73803 17.7506 9.55859 17.5305 9.55859H13.9924C12.8925 9.55985 12.0012 10.4556 12 11.5611V21.9978C12.0012 23.1032 12.8925 23.999 13.9924 24.0002H25.1734C26.2733 23.999 27.1646 23.1032 27.1658 21.9978V18.4416C27.1658 18.2204 26.9875 18.0411 26.7674 18.0411Z" fill="#AB1216"/>
<path d="M27.0084 8.52788C26.3081 7.82404 25.1727 7.82404 24.4724 8.52788L17.3632 15.673C17.3145 15.7219 17.2793 15.7826 17.2609 15.8493L16.3261 19.2415C16.2876 19.3805 16.3267 19.5295 16.4282 19.6316C16.5298 19.7336 16.678 19.7729 16.8164 19.7344L20.1915 18.7947C20.2578 18.7762 20.3182 18.7408 20.3669 18.6919L27.476 11.5466C28.1752 10.8423 28.1752 9.70215 27.476 8.99784L27.0084 8.52788ZM18.2315 15.9333L24.0498 10.0854L25.9262 11.9714L20.1078 17.8192L18.2315 15.9333ZM17.8566 16.6892L19.3558 18.1961L17.2821 18.7735L17.8566 16.6892ZM26.9125 10.9803L26.4899 11.405L24.6133 9.51895L25.036 9.09421C25.425 8.70325 26.0557 8.70325 26.4447 9.09421L26.9125 9.56416C27.3008 9.95559 27.3008 10.589 26.9125 10.9803Z" fill="#AB1216"/>
</g>
<defs>
<filter id="filter0_d_322_17220" x="0" y="0" width="36" height="36" filterUnits="userSpaceOnUse" color-interpolation-filters="sRGB">
<feFlood flood-opacity="0" result="BackgroundImageFix"/>
<feColorMatrix in="SourceAlpha" type="matrix" values="0 0 0 0 0 0 0 0 0 0 0 0 0 0 0 0 0 0 127 0" result="hardAlpha"/>
<feOffset dx="-2" dy="2"/>
<feGaussianBlur stdDeviation="2"/>
<feColorMatrix type="matrix" values="0 0 0 0 0.203922 0 0 0 0 0.156863 0 0 0 0 0.243137 0 0 0 0.05 0"/>
<feBlend mode="normal" in2="BackgroundImageFix" result="effect1_dropShadow_322_17220"/>
<feBlend mode="normal" in="SourceGraphic" in2="effect1_dropShadow_322_17220" result="shape"/>
</filter>
<clipPath id="clip0_322_17220">
<rect width="16" height="16" fill="white" transform="translate(12 8)"/>
</clipPath>
</defs>
</svg>
