<svg width="22" height="18" viewBox="0 0 22 18" fill="none" xmlns="http://www.w3.org/2000/svg">
<path d="M19.75 1.88892L12.4253 9.32988C11.6418 10.1258 10.3582 10.1258 9.57469 9.32988L2.25 1.88892" stroke="#AB1216" stroke-linecap="round" stroke-linejoin="round"/>
<path d="M1 3C1 1.89543 1.89543 1 3 1H19C20.1046 1 21 1.89543 21 3V16.1111C21 16.3469 20.9122 16.573 20.7559 16.7397C20.5996 16.9064 20.3877 17 20.1667 17H1.83333C1.61232 17 1.40036 16.9064 1.24408 16.7397C1.0878 16.573 1 16.3469 1 16.1111V3Z" stroke="#AB1216" stroke-linecap="round" stroke-linejoin="round"/>
<path d="M9.18232 9L1.25732 16.7489" stroke="#AB1216" stroke-linecap="round" stroke-linejoin="round"/>
<path d="M20.7427 16.7489L12.8177 9" stroke="#AB1216" stroke-linecap="round" stroke-linejoin="round"/>
</svg>
