<svg width="18" height="26" viewBox="0 0 18 26" fill="none" xmlns="http://www.w3.org/2000/svg">
<path d="M9.02858 5.07822C6.98451 5.0643 5.31049 6.64609 5.29503 8.6062C5.27962 10.5662 6.92956 12.1727 8.97299 12.1875L9.00137 12.1876C11.0318 12.1876 12.6912 10.6105 12.7065 8.65952C12.722 6.69961 11.0721 5.09299 9.02858 5.07822ZM9.00126 11.172L8.98093 11.1719C7.52132 11.1614 6.34277 10.0138 6.35378 8.61382C6.36474 7.22012 7.54996 6.09369 9.00031 6.09369L9.02064 6.09379C10.4803 6.10436 11.6588 7.25191 11.6478 8.6519C11.6368 10.0456 10.4516 11.172 9.00126 11.172Z" fill="#AB1216"/>
<path d="M12.2483 19.1162C15.7695 14.7686 17.97 12.5015 17.9997 8.69773C18.037 3.91194 13.988 0 8.99918 0C4.06854 0 0.0377847 3.83034 0.000303027 8.56824C-0.0299787 12.4751 2.21145 14.7391 5.75696 19.1155C2.22982 19.6211 0.000303027 20.8915 0.000303027 22.4454C0.000303027 23.4862 1.00331 24.4202 2.82461 25.0753C4.48232 25.6716 6.67547 26 9.00002 26C11.3246 26 13.5177 25.6716 15.1754 25.0753C16.9967 24.4202 17.9997 23.4862 17.9997 22.4453C17.9997 20.8923 15.7723 19.6222 12.2483 19.1162ZM1.05905 8.5759C1.09209 4.39513 4.64834 1.01563 8.99928 1.01563C13.4017 1.01563 16.9738 4.46815 16.941 8.69016C16.9128 12.3024 14.5791 14.5285 10.8534 19.1874C10.1888 20.018 9.5785 20.8032 9.00082 21.5714C8.42483 20.8028 7.82671 20.0316 7.1522 19.1871C3.27243 14.3332 1.03036 12.2753 1.05905 8.5759ZM9.00002 24.9844C4.45506 24.9844 1.05905 23.6439 1.05905 22.4454C1.05905 21.5565 3.0892 20.4336 6.50268 20.0448C7.25723 20.9944 7.91877 21.8572 8.56761 22.7384C8.61645 22.8047 8.68116 22.8588 8.75632 22.8962C8.83148 22.9336 8.91489 22.9531 8.99955 22.9532H9.00002C9.08461 22.9532 9.16797 22.9337 9.24311 22.8965C9.31825 22.8592 9.38299 22.8052 9.43191 22.739C10.0746 21.8693 10.7542 20.9853 11.5023 20.0453C14.9126 20.4346 16.941 21.5571 16.941 22.4454C16.9409 23.6439 13.545 24.9844 9.00002 24.9844Z" fill="#AB1216"/>
</svg>
