<svg width="26" height="18" viewBox="0 0 26 18" fill="none" xmlns="http://www.w3.org/2000/svg">
<path d="M23.8333 8.14285H22.9667C22.6219 8.14285 22.2912 8.27831 22.0474 8.51943C21.8036 8.76055 21.6667 9.08758 21.6667 9.42857V9.85714H20.8V7.71428C20.8 7.37329 20.663 7.04626 20.4192 6.80515C20.1754 6.56403 19.8448 6.42857 19.5 6.42857H18.2C18.0851 6.42857 17.9749 6.38342 17.8936 6.30304C17.8123 6.22267 17.7667 6.11366 17.7667 6V5.14286C17.7667 4.80186 17.6297 4.47484 17.3859 4.23372C17.1421 3.9926 16.8114 3.85714 16.4667 3.85714H14.7333V2.57143H16.9C17.2448 2.57143 17.5754 2.43597 17.8192 2.19485C18.063 1.95373 18.2 1.62671 18.2 1.28571C18.2 0.944721 18.063 0.617695 17.8192 0.376577C17.5754 0.135459 17.2448 0 16.9 0H8.23333C7.88855 0 7.55789 0.135459 7.31409 0.376577C7.0703 0.617695 6.93333 0.944721 6.93333 1.28571C6.93333 1.62671 7.0703 1.95373 7.31409 2.19485C7.55789 2.43597 7.88855 2.57143 8.23333 2.57143H10.4V3.85714H8.23333C7.88855 3.85714 7.55789 3.9926 7.31409 4.23372C7.0703 4.47484 6.93333 4.80186 6.93333 5.14286C6.93333 5.25652 6.88768 5.36553 6.80641 5.4459C6.72515 5.52627 6.61493 5.57143 6.5 5.57143H5.2C4.85522 5.57143 4.52456 5.70689 4.28076 5.948C4.03696 6.18912 3.9 6.51615 3.9 6.85714V8.57143H2.6V6.85714C2.6 6.51615 2.46304 6.18912 2.21924 5.948C1.97544 5.70689 1.64478 5.57143 1.3 5.57143C0.955219 5.57143 0.624558 5.70689 0.380761 5.948C0.136964 6.18912 0 6.51615 0 6.85714L0 13.7143C0 14.0553 0.136964 14.3823 0.380761 14.6234C0.624558 14.8645 0.955219 15 1.3 15C1.64478 15 1.97544 14.8645 2.21924 14.6234C2.46304 14.3823 2.6 14.0553 2.6 13.7143V12H3.9V14.1429C3.9 14.4838 4.03696 14.8109 4.28076 15.052C4.52456 15.2931 4.85522 15.4286 5.2 15.4286H7.00787C7.12279 15.4286 7.23299 15.4738 7.31423 15.5541L9.40637 17.6233C9.52674 17.7431 9.66996 17.8381 9.82773 17.9028C9.98551 17.9674 10.1547 18.0005 10.3255 18H19.5C19.8448 18 20.1754 17.8645 20.4192 17.6234C20.663 17.3823 20.8 17.0553 20.8 16.7143V15H21.6667V15.4286C21.6667 15.7696 21.8036 16.0966 22.0474 16.3377C22.2912 16.5788 22.6219 16.7143 22.9667 16.7143H23.8333C24.4078 16.7136 24.9585 16.4876 25.3646 16.0859C25.7708 15.6842 25.9993 15.1395 26 14.5714V10.2857C25.9993 9.7176 25.7708 9.17295 25.3646 8.77123C24.9585 8.36952 24.4078 8.14354 23.8333 8.14285ZM7.8 1.28571C7.8 1.17205 7.84565 1.06304 7.92692 0.982668C8.00819 0.902296 8.11841 0.857143 8.23333 0.857143H16.9C17.0149 0.857143 17.1251 0.902296 17.2064 0.982668C17.2877 1.06304 17.3333 1.17205 17.3333 1.28571C17.3333 1.39938 17.2877 1.50839 17.2064 1.58876C17.1251 1.66913 17.0149 1.71429 16.9 1.71429H8.23333C8.11841 1.71429 8.00819 1.66913 7.92692 1.58876C7.84565 1.50839 7.8 1.39938 7.8 1.28571ZM11.2667 2.57143H13.8667V3.85714H11.2667V2.57143ZM1.73333 13.7143C1.73333 13.8279 1.68768 13.937 1.60641 14.0173C1.52515 14.0977 1.41493 14.1429 1.3 14.1429C1.18507 14.1429 1.07485 14.0977 0.993587 14.0173C0.912321 13.937 0.866667 13.8279 0.866667 13.7143V6.85714C0.866667 6.74348 0.912321 6.63447 0.993587 6.55409C1.07485 6.47372 1.18507 6.42857 1.3 6.42857C1.41493 6.42857 1.52515 6.47372 1.60641 6.55409C1.68768 6.63447 1.73333 6.74348 1.73333 6.85714V13.7143ZM2.6 11.1429V9.42857H3.9V11.1429H2.6ZM19.9333 16.7143C19.9333 16.8279 19.8877 16.937 19.8064 17.0173C19.7251 17.0977 19.6149 17.1429 19.5 17.1429H10.3255C10.2105 17.1428 10.1003 17.0977 10.0191 17.0173L7.92697 14.9481C7.80654 14.8284 7.6633 14.7335 7.50554 14.6688C7.34779 14.6041 7.17864 14.571 7.00787 14.5714H5.2C5.08507 14.5714 4.97485 14.5263 4.89359 14.4459C4.81232 14.3655 4.76667 14.2565 4.76667 14.1429V6.85714C4.76667 6.74348 4.81232 6.63447 4.89359 6.55409C4.97485 6.47372 5.08507 6.42857 5.2 6.42857H6.5C6.84478 6.42857 7.17544 6.29311 7.41924 6.05199C7.66304 5.81087 7.8 5.48385 7.8 5.14286C7.8 5.02919 7.84565 4.92018 7.92692 4.83981C8.00819 4.75944 8.11841 4.71428 8.23333 4.71428H16.4667C16.5816 4.71428 16.6918 4.75944 16.7731 4.83981C16.8543 4.92018 16.9 5.02919 16.9 5.14286V6C16.9 6.34099 17.037 6.66802 17.2808 6.90914C17.5246 7.15025 17.8552 7.28571 18.2 7.28571H19.5C19.6149 7.28571 19.7251 7.33086 19.8064 7.41124C19.8877 7.49161 19.9333 7.60062 19.9333 7.71428V16.7143ZM20.8 14.1429V10.7143H21.6667V14.1429H20.8ZM25.1333 14.5714C25.1333 14.9124 24.9964 15.2394 24.7526 15.4806C24.5088 15.7217 24.1781 15.8571 23.8333 15.8571H22.9667C22.8517 15.8571 22.7415 15.812 22.6603 15.7316C22.579 15.6512 22.5333 15.5422 22.5333 15.4286V9.42857C22.5333 9.31491 22.579 9.2059 22.6603 9.12552C22.7415 9.04515 22.8517 9 22.9667 9H23.8333C24.1781 9 24.5088 9.13546 24.7526 9.37657C24.9964 9.61769 25.1333 9.94472 25.1333 10.2857V14.5714Z" fill="#AB1216"/>
</svg>
