<svg width="40" height="40" viewBox="0 0 40 40" fill="none" xmlns="http://www.w3.org/2000/svg">
<path fill-rule="evenodd" clip-rule="evenodd" d="M20 14.7368C18.8379 14.7368 17.8947 13.7916 17.8947 12.6316C17.8947 11.4716 18.8379 10.5263 20 10.5263C21.1621 10.5263 22.1053 11.4716 22.1053 12.6316C22.1053 13.7916 21.1621 14.7368 20 14.7368ZM22.1053 29.4737H17.8947C17.3137 29.4737 16.8421 29.0021 16.8421 28.4211C16.8421 27.84 17.3137 27.3684 17.8947 27.3684H18.9474V18.9474H17.8947C17.3137 18.9474 16.8421 18.4758 16.8421 17.8947C16.8421 17.3137 17.3137 16.8421 17.8947 16.8421H20C20.5811 16.8421 21.0526 17.3137 21.0526 17.8947V27.3684H22.1053C22.6863 27.3684 23.1579 27.84 23.1579 28.4211C23.1579 29.0021 22.6863 29.4737 22.1053 29.4737ZM20 2.10526C10.1326 2.10526 2.10526 10.1326 2.10526 20C2.10526 29.8674 10.1326 37.8947 20 37.8947C29.8674 37.8947 37.8947 29.8674 37.8947 20C37.8947 10.1326 29.8674 2.10526 20 2.10526ZM20 40C8.97263 40 0 31.0274 0 20C0 8.97263 8.97263 0 20 0C31.0274 0 40 8.97263 40 20C40 31.0274 31.0274 40 20 40Z" fill="#AB1216"/>
</svg>
