<svg width="48" height="48" viewBox="0 0 48 48" fill="none" xmlns="http://www.w3.org/2000/svg">
<rect width="48" height="48" rx="4" fill="#395185"/>
<path d="M34.6754 36.0001C35.4068 36.0001 36 35.407 36 34.6755V13.3246C36 12.593 35.4068 12 34.6754 12H13.3246C12.5929 12 12 12.593 12 13.3246V34.6755C12 35.407 12.5929 36.0001 13.3246 36.0001H34.6754Z" fill="#395185"/>
<path d="M28.5595 36.0002V26.7062H31.6792L32.1463 23.0841H28.5595V20.7715C28.5595 19.7228 28.8508 19.0082 30.3547 19.0082L32.2727 19.0073V15.7678C31.9408 15.7236 30.8023 15.625 29.4778 15.625C26.7124 15.625 24.8192 17.313 24.8192 20.4129V23.0841H21.6915V26.7062H24.8192V36.0002H28.5595Z" fill="white"/>
</svg>
