<svg width="18" height="18" viewBox="0 0 18 18" fill="none" xmlns="http://www.w3.org/2000/svg">
<path d="M17.0065 18C17.5551 18 17.9999 17.5552 17.9999 17.0066V0.993441C17.9999 0.444725 17.5551 0 17.0065 0H0.993441C0.444654 0 0 0.444725 0 0.993441V17.0066C0 17.5552 0.444654 18 0.993441 18H17.0065Z" fill="#395185"/>
<path d="M12.4196 18.0001V11.0296H14.7593L15.1096 8.31307H12.4196V6.57861C12.4196 5.7921 12.638 5.25611 13.7659 5.25611L15.2044 5.25547V2.82584C14.9555 2.79272 14.1016 2.71875 13.1083 2.71875C11.0342 2.71875 9.61431 3.98472 9.61431 6.30966V8.31307H7.26855V11.0296H9.61431V18.0001H12.4196Z" fill="#FEFEFE"/>
</svg>
