<svg width="22" height="20" viewBox="0 0 22 20" fill="none" xmlns="http://www.w3.org/2000/svg">
<path d="M1 4.375H4.33333" stroke="#959595" stroke-linecap="round" stroke-linejoin="round"/>
<path d="M1 15.625H7.66667" stroke="#959595" stroke-linecap="round" stroke-linejoin="round"/>
<path d="M17.6669 15.625H21.0002" stroke="#959595" stroke-linecap="round" stroke-linejoin="round"/>
<path d="M14.3331 4.375H20.9998" stroke="#959595" stroke-linecap="round" stroke-linejoin="round"/>
<path d="M4.33368 4.3749C4.33368 3.32656 4.33368 2.8024 4.50283 2.38892C4.72838 1.83763 5.16099 1.39962 5.70549 1.17126C6.11388 1 6.63159 1 7.66701 1C8.70243 1 9.22012 1 9.62857 1.17126C10.173 1.39962 10.6057 1.83763 10.8312 2.38892C11.0003 2.8024 11.0003 3.32656 11.0003 4.3749C11.0003 5.42323 11.0003 5.9474 10.8312 6.36088C10.6057 6.91217 10.173 7.35017 9.62857 7.57853C9.22012 7.74979 8.70243 7.74979 7.66701 7.74979C6.63159 7.74979 6.11388 7.74979 5.70549 7.57853C5.16099 7.35017 4.72838 6.91217 4.50283 6.36088C4.33368 5.9474 4.33368 5.42323 4.33368 4.3749Z" stroke="#959595"/>
<path d="M11 15.6249C11 14.5765 11 14.0524 11.1691 13.6389C11.3947 13.0876 11.8273 12.6496 12.3718 12.4212C12.7802 12.25 13.2979 12.25 14.3333 12.25C15.3688 12.25 15.8864 12.25 16.2949 12.4212C16.8393 12.6496 17.272 13.0876 17.4976 13.6389C17.6667 14.0524 17.6667 14.5765 17.6667 15.6249C17.6667 16.6733 17.6667 17.1974 17.4976 17.6109C17.272 18.1621 16.8393 18.6002 16.2949 18.8286C15.8864 18.9998 15.3688 18.9998 14.3333 18.9998C13.2979 18.9998 12.7802 18.9998 12.3718 18.8286C11.8273 18.6002 11.3947 18.1621 11.1691 17.6109C11 17.1974 11 16.6733 11 15.6249Z" stroke="#959595"/>
</svg>
