<svg width="22" height="20" viewBox="0 0 22 20" fill="none" xmlns="http://www.w3.org/2000/svg">
<path d="M9.4626 11L8.06858 12.8124C7.91919 13.0066 8.02626 13.2861 8.26987 13.3378L9.7301 13.6477C9.9899 13.7028 10.0889 14.0122 9.9073 14.2011L8.17773 16" stroke="#AB1216" stroke-linecap="round" stroke-linejoin="round"/>
<path d="M3.00012 8H15.0001" stroke="#AB1216" stroke-linecap="round" stroke-linejoin="round"/>
<path d="M3.00012 19V7C3.00012 4.17157 3.00012 2.75736 3.8788 1.87868C4.75748 1 6.17169 1 9.00012 1C11.8285 1 13.2427 1 14.1214 1.87868C15.0001 2.75736 15.0001 4.17157 15.0001 7V19H3.00012Z" stroke="#AB1216"/>
<path d="M0.999878 19H16.9999" stroke="#AB1216" stroke-linecap="round" stroke-linejoin="round"/>
<path d="M15.0001 12H16.6668C16.9768 12 17.1318 12 17.2589 12.0341C17.604 12.1265 17.8736 12.3961 17.966 12.7412C18.0001 12.8683 18.0001 13.0233 18.0001 13.3333V14.5C18.0001 15.3284 18.6717 16 19.5001 16C20.3285 16 21.0001 15.3284 21.0001 14.5V8.2111C21.0001 7.60998 21.0001 7.30941 20.9143 7.02598C20.8285 6.74255 20.6617 6.49247 20.3283 5.9923L19.5548 4.83205C19.2083 4.31223 18.6248 4 18.0001 4" stroke="#AB1216" stroke-linecap="round" stroke-linejoin="round"/>
</svg>
