<svg width="24" height="24" viewBox="0 0 24 24" fill="none" xmlns="http://www.w3.org/2000/svg">
<path d="M17.0482 4.39323C16.4956 5.11986 12.118 10.8768 12.266 10.6821C12.0247 10.9994 11.5589 11.05 11.2522 10.7923C10.9734 10.558 10.9273 10.1528 11.1467 9.86423L15.0465 4.7358C15.0482 4.73365 15.0497 4.73158 15.0511 4.72971L15.0564 4.72268C15.0585 4.71991 15.0604 4.71743 15.062 4.71527L15.0661 4.71002C15.0661 4.71002 15.0661 4.70993 15.0662 4.70993L15.8211 3.71719C16.2236 3.18781 16.2064 2.48041 15.8274 1.9748C17.0239 1.89882 17.937 3.22382 17.0482 4.39323Z" fill="#E8C842"/>
<path d="M14.4278 12.7561C14.1689 13.0965 13.6639 13.1389 13.3494 12.8467C13.1047 12.6193 13.0722 12.2491 13.2736 11.9843C13.784 11.3131 17.035 7.03775 17.424 6.52614C17.8293 5.99321 17.83 5.26714 17.443 4.75273C18.7184 4.67941 19.4886 6.10074 18.716 7.11687C16.777 9.66651 16.4454 10.1028 14.4278 12.7561Z" fill="#E8C842"/>
<path d="M6.66469 22.9063L6.71526 22.8398C6.83809 22.7128 7.26702 21.9014 8.31838 21.596C9.4357 21.2714 10.4591 20.6037 11.2081 19.6188C11.572 19.1402 18.1208 10.528 18.3599 10.2136C18.7645 9.68146 18.7674 8.95512 18.3795 8.44018C19.6511 8.36762 20.4283 9.78313 19.6519 10.8043C19.4127 11.1188 12.8639 19.7309 12.5001 20.2095C11.751 21.1945 10.7277 21.8622 9.61035 22.1867C8.55899 22.4921 8.13006 23.3035 8.00724 23.4305L7.95666 23.497C7.53602 24.0502 6.73636 24.1652 6.17055 23.7539L5.69531 23.4085C6.0658 23.3926 6.42618 23.22 6.66469 22.9063Z" fill="#E8C842"/>
<path d="M12.626 3.0008C12.6267 2.99981 12.626 3.0008 12.626 3.0008C13.0291 2.47063 13.0112 1.76186 12.6305 1.25612C12.8938 1.2391 13.1621 1.28992 13.4073 1.4154L13.4074 1.41522C13.5347 1.48033 13.65 1.56198 13.7487 1.65377C13.7488 1.65391 13.749 1.65405 13.7492 1.65424H13.7492C14.2714 2.13978 14.3686 2.92973 13.9657 3.52492L13.918 3.59158L9.5991 9.27118C9.34693 9.60282 8.85467 9.64375 8.54885 9.35841C8.26672 9.09516 8.23158 8.66676 8.46726 8.36295L12.626 3.0008ZM13.0402 2.456L13.063 2.4261C13.0554 2.43599 13.0479 2.44602 13.0402 2.456Z" fill="#E8C842"/>
<path d="M3.53309 5.94095C3.57796 6.02064 4.00953 6.80404 4.38717 7.99183L4.38755 7.9915C4.61494 8.70678 4.82276 9.56879 4.91447 10.5126C4.51421 11.0328 3.66781 10.7797 3.63348 10.1296L3.62255 9.92186C3.37838 7.41047 2.31303 5.47791 2.24117 5.35022C2.11441 5.12498 1.96584 4.9222 1.79939 4.75016C2.51693 4.7398 3.13288 5.22984 3.53309 5.94095Z" fill="#E8C842"/>
<path d="M0.250299 17.9059L0.685848 17.3331C0.881256 17.0761 0.951874 16.7476 0.87488 16.4363C0.697353 15.7187 0.478071 14.3049 1.13851 13.0344C1.28329 12.7559 1.39006 12.4589 1.44284 12.1507C1.81055 10.0042 0.702915 7.11155 0.681677 7.04588C0.293638 5.84655 0.139555 5.368 1.07719 4.92699C2.09767 4.44698 3.00439 5.00143 3.53376 5.94218C3.60567 6.06987 4.67102 8.00248 4.91514 10.5138C6.4928 8.43908 10.2446 3.50509 11.4917 1.86518C11.9573 1.25284 12.8282 1.06421 13.4938 1.46256C14.2572 1.91946 14.4403 2.90536 13.9184 3.59172C13.9222 3.58675 14.7078 2.5536 14.6853 2.58318C15.174 1.94051 16.1031 1.77087 16.7728 2.23194C17.4653 2.70886 17.6161 3.64685 17.1137 4.30743C16.2184 5.48491 16.4242 5.2142 16.3266 5.3425C16.843 4.6635 17.8452 4.54612 18.5128 5.10849C19.1122 5.61349 19.1886 6.49668 18.7165 7.11755L17.2626 9.02953C17.7844 8.34322 18.8028 8.23072 19.4701 8.81386C20.052 9.32227 20.118 10.1921 19.6524 10.8044C19.4132 11.1189 12.8645 19.731 12.5006 20.2096C11.7516 21.1946 10.7282 21.8623 9.61086 22.1868C8.5595 22.4922 8.13057 23.3036 8.00774 23.4307L7.95721 23.4971C7.53658 24.0503 6.73691 24.1653 6.17111 23.7541L0.511053 19.6393C-0.050436 19.231 -0.167173 18.455 0.250299 17.9059Z" fill="#F4D44E"/>
<path d="M5.37156 3.98984C5.98977 2.7165 6.86331 1.56757 7.93293 0.621422C8.08241 0.489231 8.09396 0.26357 7.95872 0.117457C7.82353 -0.0287023 7.59274 -0.0399995 7.44326 0.0922379C6.3034 1.1004 5.37185 2.32523 4.71218 3.68379C4.62574 3.86182 4.70331 4.07464 4.88534 4.15921C5.06661 4.2433 5.28474 4.16863 5.37156 3.98984Z" fill="#C0C0C0"/>
<path d="M7.41764 4.54846C7.84858 3.74692 8.40686 3.01242 9.06879 2.37711C9.21261 2.23901 9.21477 2.01316 9.07358 1.87249C8.93234 1.73181 8.70136 1.7298 8.55754 1.8678C7.84273 2.55393 7.23838 3.3481 6.77163 4.21643C6.67785 4.39081 6.74646 4.60658 6.92485 4.69827C7.10367 4.79015 7.32405 4.72255 7.41764 4.54846Z" fill="#C0C0C0"/>
<path d="M21.2335 15.6953C22.3735 14.6869 23.3049 13.4625 23.9646 12.1037C24.0511 11.9257 23.9735 11.7129 23.7915 11.6283C23.6095 11.5438 23.3918 11.6196 23.3053 11.7976C22.687 13.0711 21.8137 14.2198 20.744 15.166C20.5945 15.2982 20.5829 15.5238 20.7182 15.67C20.8529 15.8157 21.0837 15.8279 21.2335 15.6953Z" fill="#C0C0C0"/>
<path d="M20.1199 13.9184C20.835 13.2321 21.439 12.438 21.9059 11.5698C21.9997 11.3954 21.9311 11.1796 21.7527 11.0879C21.5743 10.9963 21.3537 11.0633 21.2598 11.2377C20.8287 12.0395 20.2706 12.7738 19.6087 13.4091C19.4649 13.5471 19.4627 13.773 19.6039 13.9137C19.7448 14.0542 19.976 14.0566 20.1199 13.9184Z" fill="#C0C0C0"/>
</svg>
