<svg width="23" height="23" viewBox="0 0 23 23" fill="none" xmlns="http://www.w3.org/2000/svg">
<path d="M1.36896 12.7742C0.998288 10.362 0.812953 9.15601 1.26898 8.08685C1.72499 7.01768 2.73673 6.28615 4.7602 4.82311L6.27204 3.73C8.7892 1.91 10.0477 1 11.5 1C12.9523 1 14.2108 1.91 16.728 3.73L18.2398 4.82311C20.2633 6.28615 21.275 7.01768 21.731 8.08685C22.187 9.15601 22.0017 10.362 21.631 12.7742L21.315 14.831C20.7895 18.2503 20.5267 19.9601 19.3005 20.98C18.0742 22 16.2814 22 12.6957 22H10.3043C6.71865 22 4.92586 22 3.69955 20.98C2.47324 19.9601 2.21051 18.2503 1.68505 14.831L1.36896 12.7742Z" stroke="#9B9B9B" stroke-linejoin="round"/>
</svg>
