<svg width="22" height="20" viewBox="0 0 22 20" fill="none" xmlns="http://www.w3.org/2000/svg">
<path d="M13 6H18M14 10H18M16 14H18M16 19H6C2 19 1 18 1 14V6C1 2 2 1 6 1H16C20 1 21 2 21 6V14C21 18 20 19 16 19Z" stroke="#AB1216" stroke-linecap="round" stroke-linejoin="round"/>
<path d="M11 14.3299C10.9327 13.628 10.6219 12.9717 10.1214 12.4749C9.62096 11.9781 8.96243 11.6721 8.26 11.6099C7.75457 11.5599 7.24543 11.5599 6.74 11.6099C6.03826 11.674 5.38078 11.9806 4.88069 12.477C4.3806 12.9735 4.06918 13.6287 4 14.3299M7.5 9.28992C7.98004 9.28992 8.44042 9.09923 8.77986 8.75978C9.1193 8.42034 9.31 7.95996 9.31 7.47992C9.31 6.99988 9.1193 6.5395 8.77986 6.20006C8.44042 5.86062 7.98004 5.66992 7.5 5.66992C7.01996 5.66992 6.55958 5.86062 6.22014 6.20006C5.8807 6.5395 5.69 6.99988 5.69 7.47992C5.69 7.95996 5.8807 8.42034 6.22014 8.75978C6.55958 9.09923 7.01996 9.28992 7.5 9.28992Z" stroke="#AB1216" stroke-linecap="round" stroke-linejoin="round"/>
</svg>
