<svg width="122" height="122" viewBox="0 0 122 122" fill="none" xmlns="http://www.w3.org/2000/svg">
<path d="M120.994 108.995H48.998C32.0282 108.995 23.5434 108.995 18.2716 103.723C12.9998 98.4508 12.9998 89.9661 12.9998 72.9965V1" stroke="#A7A7A7" stroke-width="2" stroke-linecap="round"/>
<path d="M24.999 108.994C47.1003 87.6142 71.9377 59.2601 108.995 80.5261" stroke="#A7A7A7" stroke-width="2"/>
<path d="M1 13.0039H72.9965C89.9661 13.0039 98.4508 13.0039 103.723 18.2757C108.995 23.5476 108.995 32.0324 108.995 49.0021V120.999" stroke="#A7A7A7" stroke-width="2" stroke-linecap="round"/>
<path d="M39.9983 49.003C44.9687 49.003 48.9979 44.9738 48.9979 40.0035C48.9979 35.0331 44.9687 31.0039 39.9983 31.0039C35.028 31.0039 30.9988 35.0331 30.9988 40.0035C30.9988 44.9738 35.028 49.003 39.9983 49.003Z" stroke="#A7A7A7" stroke-width="2" stroke-linecap="round" stroke-linejoin="round"/>
</svg>
