<svg width="18" height="24" viewBox="0 0 18 24" fill="none" xmlns="http://www.w3.org/2000/svg">
<path d="M9 0C4.03729 0 0 3.97705 0 8.86571C0 10.4751 0.732706 12.206 0.763412 12.279C1.00006 12.8323 1.467 13.6918 1.80371 14.1956L7.97453 23.406C8.22706 23.7836 8.60082 24 9 24C9.39918 24 9.77294 23.7836 10.0255 23.4065L16.1968 14.1956C16.5341 13.6918 17.0005 12.8323 17.2371 12.279C17.2678 12.2065 18 10.4756 18 8.86571C18 3.97705 13.9627 0 9 0ZM16.2609 11.8743C16.0496 12.3703 15.615 13.1698 15.3127 13.6214L9.14135 22.8323C9.01959 23.0143 8.98094 23.0143 8.85918 22.8323L2.68782 13.6214C2.38553 13.1698 1.95088 12.3698 1.73965 11.8738C1.73065 11.8524 1.05882 10.2592 1.05882 8.86571C1.05882 4.55228 4.62124 1.04302 9 1.04302C13.3788 1.04302 16.9412 4.55228 16.9412 8.86571C16.9412 10.2613 16.2678 11.8587 16.2609 11.8743Z" fill="#AB1216"/>
<path d="M9 4.17285C6.37253 4.17285 4.23529 6.27872 4.23529 8.86646C4.23529 11.4542 6.37253 13.5601 9 13.5601C11.6275 13.5601 13.7647 11.4542 13.7647 8.86646C13.7647 6.27872 11.6275 4.17285 9 4.17285ZM9 12.517C6.957 12.517 5.29411 10.8795 5.29411 8.86646C5.29411 6.85342 6.957 5.21588 9 5.21588C11.043 5.21588 12.7059 6.85342 12.7059 8.86646C12.7059 10.8795 11.043 12.517 9 12.517Z" fill="#AB1216"/>
</svg>
