<svg width="10" height="14" viewBox="0 0 10 14" fill="none" xmlns="http://www.w3.org/2000/svg">
<path d="M5 0C2.24305 0 0 2.09352 0 4.66668C0 5.43914 0.206923 6.20504 0.600292 6.88436L4.72657 13.8496C4.78151 13.9425 4.88618 14 5 14C5.11382 14 5.2185 13.9425 5.27343 13.8496L9.40123 6.88207C9.79308 6.20504 10 5.43911 10 4.66665C10 2.09352 7.75695 0 5 0ZM5 7C3.62153 7 2.50002 5.95325 2.50002 4.66668C2.50002 3.3801 3.62153 2.33335 5 2.33335C6.37847 2.33335 7.49999 3.3801 7.49999 4.66668C7.49999 5.95325 6.37847 7 5 7Z" fill="#AB1216"/>
</svg>
