<svg width="40" height="50" viewBox="0 0 40 50" fill="none" xmlns="http://www.w3.org/2000/svg">
<path d="M40 20.4545C40 36.3636 20 50 20 50C20 50 0 36.3636 0 20.4545C7.90407e-08 15.0297 2.10714 9.82697 5.85786 5.991C9.60859 2.15503 14.6957 0 20 0C25.3043 0 30.3914 2.15503 34.1421 5.991C37.8929 9.82697 40 15.0297 40 20.4545Z" fill="white"/>
<path d="M20.2502 6C12.382 6 6 12.3309 6 20.1401C6 27.9493 20.2502 44 20.2502 44C20.2502 44 34.5 27.9475 34.5 20.1401C34.5 12.3327 28.1202 6 20.2502 6Z" fill="url(#paint0_linear_208_11403)"/>
<path d="M20.2655 31.3395C14.1736 31.3395 9.23535 26.439 9.23535 20.3946C9.23535 14.3503 14.1741 9.44971 20.2655 9.44971C26.3569 9.44971 31.2956 14.3498 31.2956 20.3946C31.2956 26.4394 26.3574 31.3395 20.2655 31.3395Z" fill="white"/>
<path d="M13.3333 20L14.6666 20.6667" stroke="black" stroke-linecap="round" stroke-linejoin="round"/>
<path d="M26.0001 20.333L24.6667 20.6663" stroke="black" stroke-linecap="round" stroke-linejoin="round"/>
<path d="M16.9998 23.6666L17.1635 23.2572C17.4071 22.6483 17.5289 22.3439 17.7828 22.1719C18.0368 22 18.3647 22 19.0205 22H20.3123C20.9681 22 21.296 22 21.55 22.1719C21.8039 22.3439 21.9257 22.6483 22.1692 23.2572L22.333 23.6666" stroke="black" stroke-linecap="round" stroke-linejoin="round"/>
<path d="M13 23.333V25.2543C13 25.5068 13.1605 25.7376 13.4146 25.8506C13.5794 25.9238 13.7369 25.9996 13.927 25.9996H15.0729C15.263 25.9996 15.4205 25.9238 15.5854 25.8506C15.8395 25.7376 16 25.5068 16 25.2543V23.9997" stroke="black" stroke-linecap="round" stroke-linejoin="round"/>
<path d="M23.333 23.9997V25.2543C23.333 25.5068 23.4935 25.7376 23.7476 25.8506C23.9125 25.9238 24.0699 25.9996 24.2601 25.9996H25.4059C25.596 25.9996 25.7535 25.9238 25.9184 25.8506C26.1724 25.7376 26.333 25.5068 26.333 25.2543V23.333" stroke="black" stroke-linecap="round" stroke-linejoin="round"/>
<path d="M24.9995 17.6663L25.6662 17.333" stroke="black" stroke-linecap="round" stroke-linejoin="round"/>
<path d="M14.3332 17.6663L13.6665 17.333" stroke="black" stroke-linecap="round" stroke-linejoin="round"/>
<path d="M14.6665 17.9999L15.392 15.8234C15.6854 14.9434 15.832 14.5033 16.1812 14.2517C16.5304 14 16.9942 14 17.9218 14H21.4111C22.3387 14 22.8025 14 23.1516 14.2517C23.5008 14.5033 23.6475 14.9434 23.9408 15.8234L24.6664 17.9999" stroke="black" stroke-linejoin="round"/>
<path d="M14.6666 18H24.6665C25.3046 18.6757 26.3331 19.6166 26.3331 20.6664V22.9801C26.3331 23.3604 26.0801 23.6804 25.7443 23.7249L23.6665 23.9999H15.6666L13.5888 23.7249C13.253 23.6804 13 23.3604 13 22.9801V20.6664C13 19.6166 14.0285 18.6757 14.6666 18Z" stroke="black" stroke-linejoin="round"/>
<defs>
<linearGradient id="paint0_linear_208_11403" x1="18.5" y1="40.5" x2="29.7893" y2="10.9196" gradientUnits="userSpaceOnUse">
<stop stop-color="#AB1216"/>
<stop offset="1" stop-color="#D2696C"/>
</linearGradient>
</defs>
</svg>
