<svg width="17" height="23" viewBox="0 0 17 23" fill="none" xmlns="http://www.w3.org/2000/svg">
<path d="M8.5 0C3.813 0 0 3.81134 0 8.49631C0 10.0386 0.692 11.6974 0.721 11.7674C0.9445 12.2977 1.3855 13.1213 1.7035 13.6041L7.5315 22.4307C7.77 22.7926 8.123 23 8.5 23C8.877 23 9.23 22.7926 9.4685 22.4312L15.297 13.6041C15.6155 13.1213 16.056 12.2977 16.2795 11.7674C16.3085 11.6979 17 10.0391 17 8.49631C17 3.81134 13.187 0 8.5 0ZM15.3575 11.3796C15.158 11.8548 14.7475 12.621 14.462 13.0538L8.6335 21.881C8.5185 22.0554 8.482 22.0554 8.367 21.881L2.5385 13.0538C2.253 12.621 1.8425 11.8543 1.643 11.3791C1.6345 11.3586 1 9.83173 1 8.49631C1 4.3626 4.3645 0.999565 8.5 0.999565C12.6355 0.999565 16 4.3626 16 8.49631C16 9.83372 15.364 11.3646 15.3575 11.3796Z" fill="#AC1519"/>
<path d="M8.5 3.99805C6.0185 3.99805 4 6.01617 4 8.49609C4 10.976 6.0185 12.9941 8.5 12.9941C10.9815 12.9941 13 10.976 13 8.49609C13 6.01617 10.9815 3.99805 8.5 3.99805ZM8.5 11.9946C6.5705 11.9946 5 10.4253 5 8.49609C5 6.56693 6.5705 4.99761 8.5 4.99761C10.4295 4.99761 12 6.56693 12 8.49609C12 10.4253 10.4295 11.9946 8.5 11.9946Z" fill="#AC1519"/>
</svg>
