<svg width="131" height="95" viewBox="0 0 131 95" fill="none" xmlns="http://www.w3.org/2000/svg">
<path d="M55.1868 78.1137H59.4055C59.4055 82.2268 59.4055 86.3399 59.4055 90.453C59.3474 91.631 59.3765 92.9628 58.5629 93.9146C57.9018 94.7362 56.7976 94.9877 55.7897 95.0004C54.755 94.9582 53.7264 94.8213 52.7169 94.5914C52.9258 93.4803 53.1401 92.3711 53.3435 91.2618C53.7884 91.298 54.306 91.4735 54.7001 91.1732C55.1832 90.7895 55.1523 90.1037 55.1886 89.5446C55.2013 85.7337 55.1886 81.9246 55.1886 78.1137M45.242 85.5328C44.4429 85.9164 44.3739 87.1903 45.1494 87.6355C46.1155 88.1042 47.3486 87.6536 47.9643 86.8194C48.4528 86.1245 48.3747 85.2306 48.382 84.4254C47.3541 84.8488 46.2299 85.0135 45.242 85.5328ZM41.9731 79.0184C43.208 77.9327 44.9605 77.8639 46.5132 77.8368C47.9479 77.8856 49.5061 77.8241 50.7756 78.6004C51.9197 79.2808 52.3646 80.6615 52.4718 81.9155C52.5172 83.9712 52.459 86.0286 52.4972 88.0861C52.5299 88.787 52.7035 89.4743 53.0075 90.1073C51.6878 90.1073 50.3681 90.1073 49.0485 90.1073C48.8183 89.6533 48.6667 89.1639 48.5999 88.6597C47.8287 89.5309 46.7767 90.1068 45.6252 90.2883C44.1868 90.5 42.4961 90.4584 41.381 89.3835C39.7829 87.9196 40.0571 84.7873 42.151 83.9096C44.1487 83.07 46.4061 83.0193 48.3874 82.1001C48.3329 81.6006 48.3057 80.9366 47.7536 80.7194C47.0724 80.5077 46.3398 80.5294 45.6724 80.7809C45.1276 80.9619 44.9078 81.5228 44.6972 81.9987C43.3714 81.848 42.0366 81.6935 40.6927 81.5355C40.9016 80.6126 41.2139 79.6427 41.9767 79.0239M37.1496 78.025C38.1611 77.6052 39.2798 77.9635 40.1897 78.4665L38.8948 81.7418C38.2919 81.5011 37.5654 81.2243 36.9625 81.6097C36.1544 82.1526 36.0073 83.2057 35.8729 84.0942C35.6804 86.0847 35.8093 88.1042 35.773 90.1091C34.3564 90.1091 32.9399 90.1236 31.5252 90.0983C31.567 86.1173 31.5107 82.1471 31.5524 78.1734C32.8237 78.0268 34.1767 78.1553 35.4788 78.1137C35.4788 78.7741 35.4788 79.4346 35.4661 80.1042C35.8438 79.3007 36.2779 78.3959 37.1496 78.0322M21.6585 85.5799C20.8794 86.0051 20.8812 87.2917 21.693 87.6807C22.641 88.0806 23.7978 87.6608 24.4171 86.8719C24.9383 86.1698 24.8566 85.2433 24.8711 84.4308C23.825 84.8759 22.6628 85.0225 21.6657 85.5799M18.4113 79.0655C19.6681 77.9273 21.4841 77.8603 23.0932 77.8404C24.517 77.8929 26.0697 77.8404 27.3192 78.633C28.4905 79.3568 28.91 80.8225 28.9791 82.1236C29.0008 84.1141 28.9663 86.1046 28.9954 88.0824C29.0285 88.7839 29.2 89.472 29.5003 90.1073C28.1909 90.1182 26.8833 90.0874 25.5757 90.1254C25.3231 89.6779 25.158 89.1867 25.089 88.6778C24.2054 89.6563 22.976 90.2561 21.6585 90.3516C20.3745 90.4692 18.9216 90.3516 17.9264 89.4469C16.7242 88.3611 16.5444 86.4448 17.3253 85.0768C17.8211 84.2046 18.8036 83.7866 19.728 83.5296C21.4569 83.0881 23.2494 82.8366 24.8893 82.1037C24.8239 81.6242 24.8148 80.9963 24.3081 80.7556C23.6216 80.4823 22.8244 80.5565 22.1415 80.8008C21.6149 80.9926 21.4024 81.5409 21.1936 82.0096C19.8545 81.8576 18.5167 81.7038 17.18 81.5482C17.3816 80.6434 17.6795 79.6988 18.4113 79.0781M55.194 73.5645H59.4128C59.4128 74.6176 59.4128 75.6714 59.4128 76.7257H55.1868C55.1868 75.6708 55.1868 74.6176 55.1868 73.5645M0 73.5645H4.72179C4.72179 75.4952 4.72179 77.426 4.72179 79.355H9.83766C9.83766 77.4248 9.83766 75.4946 9.83766 73.5645H14.5486C14.5486 79.0836 14.5486 84.6021 14.5486 90.12H9.83766C9.83766 87.887 9.83766 85.6552 9.83766 83.4247H4.72179C4.72179 85.6577 4.72179 87.8894 4.72179 90.12H0C0 84.6009 0 79.0824 0 73.5645Z" fill="#AB1216"/>
<path d="M102.196 80.3538C102.884 80.3538 103.574 80.3538 104.264 80.3538C104.264 84.331 104.264 88.3077 104.264 92.2837H102.196C102.196 88.3065 102.196 84.3304 102.196 80.3556M123.127 82.643C122.399 83.2854 122.087 84.2393 121.995 85.1625C124.268 85.1625 126.542 85.1625 128.816 85.1625C128.7 84.2627 128.49 83.2962 127.79 82.6538C126.574 81.4246 124.361 81.4408 123.127 82.634M121.987 81.1583C123.29 80.1469 125.058 79.8985 126.656 80.1847C127.431 80.3299 128.162 80.6508 128.791 81.1223C129.42 81.5938 129.93 82.203 130.281 82.9021C130.896 84.1133 131.031 85.4972 130.995 86.8344C127.961 86.8344 124.928 86.8344 121.894 86.8344C121.984 88.0023 122.317 89.2477 123.254 90.0395C123.796 90.5007 124.466 90.7894 125.176 90.8681C125.887 90.9468 126.605 90.8116 127.236 90.4804C128.026 90.0503 128.474 89.2333 128.803 88.436C129.516 88.52 130.228 88.6076 130.942 88.6988C130.598 89.8416 129.961 90.9375 128.94 91.6196C127.548 92.5788 125.735 92.6994 124.108 92.415C123.309 92.2709 122.556 91.9408 121.911 91.452C121.267 90.9632 120.75 90.3297 120.402 89.604C119.723 88.1643 119.659 86.514 119.856 84.9609C120.058 83.496 120.766 82.0599 121.98 81.1619M109.24 82.0257C109.565 81.5459 109.984 81.1351 110.472 80.8172C110.96 80.4992 111.507 80.2805 112.081 80.1739C113.537 79.9183 115.215 80.1739 116.312 81.2231C117.292 82.2453 117.304 83.7426 117.288 85.0581C117.301 87.4588 117.262 89.8596 117.308 92.2567C116.611 92.2963 115.91 92.2855 115.213 92.2711C115.229 89.802 115.213 87.3329 115.213 84.8637C115.195 83.9945 115.144 82.9705 114.392 82.3874C113.162 81.448 111.236 81.7504 110.206 82.8589C109.536 83.667 109.478 84.772 109.445 85.7726C109.445 87.9321 109.425 90.0917 109.462 92.2513C108.768 92.2855 108.075 92.2711 107.381 92.2693V80.3502C108.002 80.3502 108.623 80.3502 109.243 80.3502C109.243 80.9099 109.243 81.4678 109.231 82.0275M85.7519 82.0275C87.1406 79.8679 90.3621 79.4936 92.4242 80.8811C93.4107 81.5776 93.7674 82.8355 93.7783 83.9819C93.8184 86.7408 93.7638 89.4996 93.8056 92.2603C93.1122 92.2909 92.4169 92.2801 91.7235 92.2765C91.7235 89.757 91.7235 87.2267 91.7235 84.7018C91.7053 83.8811 91.6125 82.9273 90.9045 82.3838C89.4029 81.2339 86.7384 81.9393 86.2215 83.8109C85.9794 84.5596 85.9703 85.355 85.9703 86.1343C85.9703 88.1787 85.9703 90.2249 85.9703 92.2693C85.2769 92.2855 84.5834 92.2837 83.8918 92.2693C83.8918 88.2957 83.8918 84.322 83.8918 80.3484C84.5125 80.3484 85.1331 80.3484 85.7537 80.3484C85.7537 80.9081 85.7537 81.4678 85.7537 82.0293M102.178 75.8133C102.866 75.8133 103.555 75.8133 104.245 75.8133C104.245 76.5872 104.245 77.361 104.245 78.1349C103.556 78.1349 102.866 78.1349 102.178 78.1349C102.178 77.3628 102.178 76.5908 102.178 75.8187M96.8997 75.8187C97.5877 75.8187 98.2757 75.8187 98.9655 75.8187C98.9655 81.3076 98.9655 86.796 98.9655 92.2837H96.927C96.927 86.7948 96.927 81.307 96.927 75.8205M71.7412 77.5986C70.0758 78.0341 68.5816 79.256 68.0483 80.9135C67.492 82.6604 67.3967 84.5189 67.7716 86.3125C68.1921 88.2615 69.71 89.9783 71.6811 90.4948C73.2773 90.9087 75.0828 90.718 76.4606 89.775C77.4877 89.0756 78.2483 88.0561 78.621 86.8793C79.0473 85.459 79.1468 83.9623 78.9122 82.499C78.6828 80.9585 77.9712 79.4216 76.6808 78.4768C75.2957 77.4294 73.4047 77.1613 71.7412 77.5932M71.7612 75.6352C74.0454 75.2644 76.5224 75.727 78.3498 77.1847C80.259 78.6622 81.2 81.0791 81.3092 83.4258C81.4621 85.9309 80.7632 88.6106 78.9213 90.4174C76.0984 93.1025 71.2279 93.2969 68.1957 90.844C66.2901 89.3251 65.3219 86.8757 65.26 84.4984C65.2127 82.3766 65.6458 80.1469 66.9836 78.4354C68.1524 76.9289 69.8636 75.926 71.7612 75.6352Z" fill="#0B1017"/>
<path d="M59.6794 0.65796C66.9192 -0.894421 74.4785 0.3229 80.8634 4.06936C87.0915 7.76731 91.9618 13.8211 93.975 20.7926C91.9782 15.7417 88.3804 11.2948 83.6825 8.51995C77.6377 4.84558 69.9719 4.0476 63.2972 6.36902C60.2263 7.42296 57.3979 9.08086 54.9789 11.2448C52.5599 13.4088 50.5993 16.0351 49.2128 18.9685C47.8264 21.902 47.0421 25.0832 46.9065 28.3244C46.7708 31.5656 47.2864 34.8011 48.4228 37.84C49.5593 40.8789 51.2935 43.6595 53.5232 46.0177C55.7529 48.376 58.4329 50.2641 61.4049 51.5705C64.377 52.877 67.5809 53.5753 70.8275 53.6244C74.0741 53.6735 77.2977 53.0722 80.3079 51.8561C85.5286 49.7324 89.9996 45.766 92.6153 40.7659C93.1272 39.8301 93.552 38.8526 93.9895 37.8805C92.3558 43.5153 88.8541 48.5445 84.3051 52.2225C80.152 55.551 75.1727 57.6912 69.898 58.4149C64.6233 59.1387 59.2509 58.4188 54.3534 56.3321C54.0739 56.1798 53.7762 56.3122 53.5402 56.4736C49.7148 58.9316 45.8877 61.3806 42.0587 63.8205C43.5926 59.729 45.1664 55.6593 46.7058 51.5623C42.5723 47.9975 39.5152 43.3522 37.8773 38.1479C36.2395 32.9436 36.0858 27.3862 37.4336 22.0995C38.7814 16.8127 41.5772 12.0059 45.5073 8.21852C49.4375 4.43109 54.3463 1.81296 59.683 0.65796" fill="#AB1216"/>
<path d="M61.5849 29.7062C61.3325 29.8875 61.2218 30.292 61.4596 30.5277C61.8372 30.9249 62.429 30.8904 62.9336 30.9031C65.72 30.8723 68.5082 30.9322 71.2838 30.8741C71.7612 30.8741 72.0879 30.4969 72.3021 30.1178C72.0244 29.8204 71.7122 29.4722 71.271 29.4795C68.4883 29.445 65.7055 29.4795 62.9209 29.4613C62.4671 29.4613 61.9661 29.4341 61.574 29.7062M78.7444 27.1671C76.4972 27.6151 74.1428 28.7703 73.1807 30.9757C74.8943 31.0555 76.6515 30.9757 78.2925 30.4316C79.4923 29.9854 80.1168 28.6271 80.0732 27.4083C79.8372 26.8806 79.1801 27.0946 78.7444 27.1689M53.4925 27.1689C53.2583 28.5055 53.9844 30.0254 55.3077 30.4624C56.9215 30.9666 58.6351 31.0537 60.3142 30.9666C59.9279 30.1643 59.3759 29.4529 58.6944 28.8792C58.0129 28.3056 57.2175 27.8828 56.3606 27.6386C55.433 27.3521 54.4763 26.9005 53.4852 27.1689M58.0687 21.0933C57.6367 22.2105 57.0994 23.3132 56.9414 24.512C57.1665 24.8747 57.6675 24.7913 58.0306 24.8348C63.7759 24.8348 69.523 24.8348 75.2755 24.8348C75.7393 24.8233 76.2006 24.7625 76.6515 24.6534C76.3406 23.3375 75.8966 22.0566 75.3263 20.8304C74.7818 19.7585 73.4947 19.3631 72.3729 19.3486C68.6153 19.3414 64.859 19.3414 61.1038 19.3486C59.9003 19.3486 58.5116 19.8728 58.0669 21.0897M57.074 20.1085C57.722 18.8517 59.2432 18.4237 60.5592 18.3711C64.1317 18.3493 67.7041 18.3711 71.2692 18.362C72.2894 18.362 73.3314 18.2949 74.3261 18.5742C75.1357 18.7882 75.9417 19.2289 76.3701 19.9743C77.1071 21.3835 77.5391 22.9378 78.3233 24.327C78.6519 23.7194 78.7499 23.0357 78.926 22.3792C79.4524 21.7571 80.3655 21.8804 81.1043 21.8714C81.6489 21.8514 82.4131 22.0636 82.4367 22.7274C82.3332 23.1717 81.8213 23.2715 81.4619 23.4184C80.6505 23.665 79.9552 24.1583 79.2618 24.6281C80.4381 25.5022 81.4691 26.8044 81.4564 28.3296C81.4873 31.1897 81.4564 34.0516 81.4691 36.9116L80.9482 36.9715C80.9391 37.7132 81.0371 38.4713 80.8701 39.2022C80.5434 39.7463 79.8118 39.6411 79.2709 39.6592C77.7025 39.5885 76.1196 39.7934 74.5639 39.545C73.8505 39.2711 74.101 38.3426 74.0593 37.7531C72.9883 37.7713 71.841 37.5518 71.0932 36.7212C68.2105 36.7079 65.3273 36.7079 62.4435 36.7212C61.6883 37.5428 60.5447 37.7731 59.4737 37.7549C59.4429 38.2791 59.5681 38.8758 59.2613 39.3419C59.0199 39.6774 58.5643 39.6085 58.2067 39.6393C56.6383 39.6683 55.0663 39.6846 53.4997 39.623C53.2742 39.6403 53.0507 39.5691 52.8769 39.4245C52.703 39.2799 52.5924 39.0733 52.5685 38.8486C52.4941 38.2156 52.5975 37.579 52.5812 36.9443L52.053 36.9098C52.0784 34.3526 52.053 31.7954 52.0638 29.2364C52.0638 28.5219 52.0112 27.7855 52.2762 27.1018C52.6393 26.0771 53.4217 25.2791 54.2639 24.6262C53.5306 24.0611 52.7087 23.6211 51.8315 23.3241C51.4684 23.2243 51.0019 22.9613 51.0891 22.517C51.3977 21.9221 52.1637 21.8079 52.77 21.8424C53.3363 21.9203 54.0407 21.8151 54.4854 22.2559C54.892 22.8834 54.7105 23.743 55.2333 24.327C55.9104 22.9468 56.4041 21.4869 57.0758 20.1067M53.3708 15.5419C57.5042 9.91968 64.5201 6.65519 71.4653 6.78033C74.4481 6.81257 77.3947 7.43683 80.134 8.61683C82.8732 9.79683 85.3503 11.509 87.4214 13.6539C92.0993 18.4074 94.4337 25.3227 93.6114 31.9387C92.9397 38.2863 89.3474 44.2313 84.0976 47.8568C81.4724 49.6831 78.4891 50.932 75.3449 51.521C72.2007 52.11 68.9671 52.0257 65.858 51.2736C60.8951 50.0621 56.3188 47.1603 53.2692 43.0434C55.2442 44.9096 57.4697 46.5655 60.0092 47.5775C64.6358 49.4771 69.8119 49.5499 74.4902 47.7812C79.1685 46.0125 82.9997 42.5344 85.2086 38.0506C87.1192 34.1999 87.7117 29.8289 86.8949 25.6092C85.8584 20.0668 82.2769 15.0903 77.3885 12.2828C73.8065 10.215 69.6638 9.32637 65.548 9.74305C61.4322 10.1597 57.5521 11.8605 54.4582 14.6042C54.0951 14.9252 53.7539 15.2535 53.3799 15.5564" fill="#0B1017"/>
</svg>
