<svg width="40" height="44" viewBox="0 0 40 44" fill="none" xmlns="http://www.w3.org/2000/svg">
<g opacity="0.3">
<path d="M15.9563 0.45362C20.9454 -0.616643 26.1546 0.222618 30.5546 2.80555C34.8465 5.35504 38.2027 9.52875 39.59 14.3351C38.214 10.8529 35.7346 7.78699 32.4973 5.87394C28.3317 3.34071 23.049 2.79055 18.4494 4.39101C16.3332 5.11764 14.3841 6.26065 12.7171 7.75257C11.0501 9.2445 9.69906 11.0551 8.74363 13.0775C7.7882 15.0999 7.24778 17.2932 7.15427 19.5278C7.06077 21.7624 7.41608 23.9931 8.19922 26.0882C8.98236 28.1833 10.1775 30.1003 11.714 31.7262C13.2505 33.352 15.0973 34.6537 17.1454 35.5544C19.1935 36.4552 21.4014 36.9366 23.6387 36.9705C25.876 37.0043 28.0974 36.5898 30.1718 35.7514C33.7695 34.2872 36.8505 31.5526 38.653 28.1054C39.0058 27.4602 39.2985 26.7863 39.6 26.1161C38.4742 30.0009 36.0611 33.4682 32.9263 36.0039C30.0644 38.2987 26.633 39.7742 22.9982 40.2732C19.3633 40.7722 15.661 40.2759 12.2861 38.8373C12.0935 38.7322 11.8883 38.8235 11.7257 38.9348C9.08958 40.6294 6.45222 42.3178 3.81361 44C4.87064 41.1792 5.95519 38.3734 7.01597 35.5488C4.16757 33.091 2.0608 29.8884 0.932144 26.3004C-0.196514 22.7124 -0.302401 18.8809 0.626365 15.2361C1.55513 11.5913 3.48179 8.2773 6.19011 5.66612C8.89844 3.05494 12.2812 1.24992 15.9588 0.45362" fill="#CBCBCB"/>
<path d="M17.2695 20.4811C17.0956 20.6061 17.0193 20.8849 17.1831 21.0475C17.4433 21.3213 17.8511 21.2976 18.1989 21.3063C20.1191 21.2851 22.0405 21.3263 23.9531 21.2863C24.2821 21.2863 24.5073 21.0262 24.6549 20.7649C24.4635 20.5598 24.2484 20.3198 23.9444 20.3248C22.0267 20.301 20.109 20.3248 18.1901 20.3123C17.8774 20.3123 17.5321 20.2935 17.262 20.4811M29.0944 18.7306C27.5458 19.0394 25.9233 19.8359 25.2603 21.3563C26.4412 21.4113 27.6521 21.3563 28.7829 20.9812C29.6098 20.6736 30.0401 19.7371 30.0101 18.8969C29.8475 18.533 29.3946 18.6806 29.0944 18.7318M11.6928 18.7318C11.5315 19.6533 12.0318 20.7011 12.9438 21.0025C14.0558 21.3501 15.2367 21.4101 16.3938 21.3501C16.1276 20.7969 15.7472 20.3065 15.2776 19.911C14.808 19.5155 14.2598 19.224 13.6693 19.0557C13.0301 18.8581 12.3708 18.5468 11.6878 18.7318M14.8464 14.5431C14.5487 15.3133 14.1784 16.0736 14.0696 16.9C14.2247 17.1501 14.57 17.0926 14.8201 17.1226C18.7793 17.1226 22.7397 17.1226 26.7039 17.1226C27.0235 17.1147 27.3414 17.0728 27.6521 16.9976C27.4379 16.0903 27.1319 15.2072 26.7389 14.3618C26.3637 13.6228 25.4768 13.3503 24.7037 13.3403C22.1143 13.3353 19.5257 13.3353 16.938 13.3403C16.1086 13.3403 15.1516 13.7016 14.8452 14.5406M14.1609 13.8642C14.6075 12.9977 15.6558 12.7026 16.5627 12.6663C19.0245 12.6513 21.4863 12.6663 23.9431 12.6601C24.6461 12.6601 25.3642 12.6138 26.0497 12.8064C26.6076 12.9539 27.163 13.2577 27.4582 13.7716C27.9661 14.7432 28.2638 15.8147 28.8042 16.7725C29.0306 16.3536 29.0982 15.8822 29.2195 15.4296C29.5823 15.0007 30.2115 15.0858 30.7206 15.0795C31.0959 15.0658 31.6225 15.212 31.6388 15.6697C31.5675 15.976 31.2147 16.0448 30.9671 16.1461C30.4079 16.3161 29.9288 16.6562 29.4509 16.9801C30.2615 17.5827 30.9721 18.4805 30.9633 19.5321C30.9846 21.5039 30.9633 23.4769 30.9721 25.4488L30.613 25.49C30.6068 26.0014 30.6743 26.5241 30.5593 27.028C30.3341 27.4031 29.83 27.3306 29.4572 27.3431C28.3764 27.2943 27.2856 27.4356 26.2136 27.2643C25.7219 27.0755 25.8946 26.4353 25.8658 26.0289C25.1277 26.0414 24.3372 25.8901 23.8218 25.3175C21.8353 25.3083 19.8484 25.3083 17.8611 25.3175C17.3408 25.8839 16.5527 26.0427 15.8146 26.0302C15.7934 26.3915 15.8797 26.8029 15.6683 27.1243C15.5019 27.3556 15.1879 27.3081 14.9415 27.3293C13.8607 27.3493 12.7774 27.3606 11.6978 27.3181C11.5424 27.33 11.3885 27.2809 11.2686 27.1812C11.1488 27.0815 11.0726 26.9391 11.0561 26.7842C11.0048 26.3478 11.0761 25.9089 11.0649 25.4713L10.7009 25.4475C10.7184 23.6845 10.7009 21.9215 10.7084 20.1572C10.7084 19.6646 10.6721 19.1569 10.8547 18.6856C11.1049 17.9791 11.6441 17.4289 12.2245 16.9788C11.7191 16.5892 11.1527 16.2858 10.5482 16.0811C10.2981 16.0123 9.97658 15.831 10.0366 15.5246C10.2493 15.1145 10.7772 15.0358 11.195 15.0595C11.5853 15.1133 12.0706 15.0408 12.3771 15.3446C12.6573 15.7772 12.5322 16.3699 12.8925 16.7725C13.3591 15.821 13.6993 14.8144 14.1622 13.8629M11.609 10.7157C14.4574 6.83962 19.2922 4.58897 24.0782 4.67524C26.1337 4.69747 28.1643 5.12786 30.052 5.94139C31.9396 6.75492 33.6466 7.93537 35.0738 9.41412C38.2975 12.6913 39.9061 17.459 39.3395 22.0203C38.8766 26.3965 36.4011 30.4952 32.7834 32.9947C30.9743 34.2538 28.9184 35.1149 26.7517 35.521C24.585 35.9271 22.3567 35.8689 20.2141 35.3504C16.7941 34.5151 13.6405 32.5146 11.539 29.6762C12.9 30.9629 14.4336 32.1044 16.1837 32.8022C19.3719 34.1118 22.9389 34.162 26.1628 32.9426C29.3867 31.7232 32.0268 29.3253 33.549 26.234C34.8656 23.5792 35.2739 20.5657 34.7111 17.6565C33.9968 13.8354 31.5287 10.4044 28.16 8.46884C25.6916 7.0432 22.8368 6.43057 20.0005 6.71784C17.1642 7.00512 14.4904 8.17771 12.3583 10.0693C12.1081 10.2906 11.873 10.5169 11.6153 10.7258" fill="#7A7A7A"/>
</g>
</svg>
