<svg width="18" height="24" viewBox="0 0 18 24" fill="none" xmlns="http://www.w3.org/2000/svg">
<path d="M1 6.5V17.5C1 21.9 2 23 6 23H12C16 23 17 21.9 17 17.5V6.5C17 2.1 16 1 12 1H6C2 1 1 2.1 1 6.5Z" stroke="#AB1216" stroke-linecap="round" stroke-linejoin="round"/>
<path d="M7 4H12M9.5 20C8.98614 20 8.49333 19.8079 8.12998 19.4659C7.76663 19.1239 7.5625 18.6601 7.5625 18.1765C7.5625 17.6928 7.76663 17.229 8.12998 16.887C8.49333 16.5451 8.98614 16.3529 9.5 16.3529C10.0139 16.3529 10.5067 16.5451 10.87 16.887C11.2334 17.229 11.4375 17.6928 11.4375 18.1765C11.4375 18.6601 11.2334 19.1239 10.87 19.4659C10.5067 19.8079 10.0139 20 9.5 20Z" stroke="#AB1216" stroke-linecap="round" stroke-linejoin="round"/>
</svg>
