<svg width="19" height="20" viewBox="0 0 19 20" fill="none" xmlns="http://www.w3.org/2000/svg">
<path d="M1.02668 12.1546C0.83707 13.3724 1.68479 14.2176 2.72272 14.6388C6.70194 16.2537 12.2394 16.2537 16.2186 14.6388C17.2566 14.2176 18.1043 13.3724 17.9147 12.1546C17.7982 11.4062 17.222 10.7831 16.7951 10.1746C16.2359 9.36774 16.1804 8.48772 16.1803 7.55146C16.1803 3.93319 13.1763 1 9.47069 1C5.7651 1 2.76113 3.93319 2.76113 7.55146C2.76104 8.48772 2.70548 9.36774 2.14632 10.1746C1.71942 10.7831 1.14321 11.4062 1.02668 12.1546Z" stroke="#959595" stroke-linecap="round" stroke-linejoin="round"/>
<path d="M6.7959 18.0996C7.50577 18.6593 8.44322 18.9996 9.47085 18.9996C10.4985 18.9996 11.436 18.6593 12.1458 18.0996" stroke="#959595" stroke-linecap="round" stroke-linejoin="round"/>
</svg>
