<svg width="21" height="21" viewBox="0 0 21 21" fill="none" xmlns="http://www.w3.org/2000/svg">
<path d="M10.5 21C9.5263 21 8.69805 20.4547 7.96735 19.9736C7.5769 19.7164 7.20805 19.4736 6.8454 19.3232C6.459 19.163 6.01105 19.0677 5.5368 18.9668C4.6505 18.7782 3.7341 18.5833 3.07535 17.9246C2.41665 17.2659 2.2217 16.3495 2.0332 15.4632C1.93235 14.9889 1.83705 14.541 1.67685 14.1546C1.52645 13.7919 1.28365 13.4231 1.02655 13.0327C0.54535 12.302 0 11.4737 0 10.5C0 9.5263 0.54535 8.69805 1.0265 7.9673C1.2836 7.57685 1.52645 7.20805 1.6768 6.8454C1.83705 6.459 1.9323 6.01105 2.03315 5.53685C2.2217 4.65055 2.4166 3.7341 3.0753 3.0754C3.734 2.4167 4.65045 2.22175 5.53675 2.03325C6.011 1.9324 6.4589 1.8371 6.8453 1.6769C7.20795 1.5265 7.57675 1.2837 7.9672 1.0266C8.69805 0.54535 9.5263 0 10.5 0C11.4737 0 12.3019 0.54535 13.0327 1.0265C13.4232 1.2836 13.792 1.52645 14.1546 1.6768C14.5411 1.83705 14.989 1.9323 15.4632 2.03315C16.3495 2.2217 17.266 2.4166 17.9247 3.0753C18.5833 3.734 18.7782 4.65045 18.9668 5.5367C19.0677 6.01095 19.163 6.4589 19.3232 6.84535C19.4736 7.208 19.7164 7.57685 19.9736 7.9673C20.4547 8.69805 21 9.5263 21 10.5C21 11.4737 20.4547 12.3019 19.9736 13.0327C19.7164 13.4232 19.4736 13.792 19.3232 14.1546C19.163 14.541 19.0677 14.989 18.9668 15.4632C18.7782 16.3495 18.5833 17.2659 17.9246 17.9247C17.2659 18.5833 16.3495 18.7782 15.4632 18.9668C14.989 19.0677 14.541 19.163 14.1546 19.3232C13.7919 19.4736 13.4231 19.7164 13.0327 19.9736C12.3019 20.4547 11.4737 21 10.5 21ZM10.5 1C9.826 1 9.19025 1.4186 8.51725 1.8617C8.105 2.13315 7.67875 2.4138 7.22845 2.60055C6.75705 2.79605 6.2425 2.9055 5.7449 3.0113C4.96675 3.1768 4.23185 3.33315 3.7825 3.78245C3.33315 4.23175 3.17685 4.9667 3.01135 5.74485C2.9055 6.24245 2.79605 6.757 2.6006 7.2284C2.41385 7.6787 2.1332 8.10495 1.86175 8.5172C1.4186 9.19025 1 9.826 1 10.5C1 11.174 1.4186 11.8097 1.8617 12.4827C2.13315 12.8949 2.4138 13.3212 2.60055 13.7716C2.79605 14.243 2.9055 14.7575 3.0113 15.2551C3.1768 16.0332 3.33315 16.7682 3.78245 17.2175C4.23175 17.6667 4.9667 17.8231 5.7448 17.9887C6.24245 18.0945 6.757 18.204 7.2284 18.3995C7.6787 18.5862 8.105 18.8669 8.5172 19.1383C9.1903 19.5815 9.826 20 10.5 20C11.174 20 11.8097 19.5814 12.4827 19.1383C12.8949 18.8668 13.3212 18.5862 13.7716 18.3995C14.243 18.204 14.7576 18.0945 15.2551 17.9887C16.0333 17.8231 16.7682 17.6668 17.2175 17.2176C17.6667 16.7683 17.8231 16.0333 17.9887 15.2552C18.0945 14.7576 18.204 14.243 18.3995 13.7716C18.5862 13.3213 18.8669 12.895 19.1383 12.4827C19.5815 11.8097 20 11.174 20 10.5C20 9.826 19.5814 9.1903 19.1383 8.51725C18.8668 8.105 18.5862 7.6787 18.3995 7.22845C18.204 6.75705 18.0945 6.24245 17.9887 5.7448C17.8231 4.9667 17.6668 4.2318 17.2176 3.78245C16.7683 3.33315 16.0333 3.1768 15.2551 3.0113C14.7576 2.90545 14.243 2.796 13.7716 2.60055C13.3213 2.4138 12.895 2.13315 12.4828 1.8617C11.8097 1.4186 11.174 1 10.5 1Z" fill="#9B9B9B"/>
<path d="M6.83745 14.6629C6.77178 14.663 6.70674 14.6501 6.64606 14.625C6.58539 14.5998 6.53028 14.563 6.4839 14.5165C6.28865 14.3212 6.28865 14.0046 6.4839 13.8093L13.8089 6.48433C14.0042 6.28908 14.3207 6.28908 14.5161 6.48433C14.7113 6.67958 14.7113 6.99618 14.5161 7.19148L7.19105 14.5165C7.14466 14.563 7.08954 14.5998 7.02886 14.625C6.96818 14.6501 6.90313 14.663 6.83745 14.6629Z" fill="#9B9B9B"/>
<path d="M7.99482 8.98672C8.57472 8.98672 9.04482 8.51662 9.04482 7.93672C9.04482 7.35682 8.57472 6.88672 7.99482 6.88672C7.41493 6.88672 6.94482 7.35682 6.94482 7.93672C6.94482 8.51662 7.41493 8.98672 7.99482 8.98672Z" fill="#9B9B9B"/>
<path d="M13.0052 14.1137C13.5851 14.1137 14.0552 13.6436 14.0552 13.0637C14.0552 12.4838 13.5851 12.0137 13.0052 12.0137C12.4253 12.0137 11.9552 12.4838 11.9552 13.0637C11.9552 13.6436 12.4253 14.1137 13.0052 14.1137Z" fill="#9B9B9B"/>
</svg>
