<svg width="21" height="21" viewBox="0 0 21 21" fill="none" xmlns="http://www.w3.org/2000/svg">
<path d="M20.1637 8.4752L19.0969 7.41136C18.8355 7.14817 18.6881 6.79271 18.6866 6.42178V5.17429C18.6856 4.41522 18.3836 3.68754 17.8468 3.1508C17.3101 2.61406 16.5824 2.31206 15.8234 2.31103H14.5778C14.2075 2.30987 13.8524 2.16322 13.5892 1.90269L12.5244 0.836901C11.9871 0.300969 11.2592 0 10.5003 0C9.74139 0 9.01348 0.300969 8.47617 0.836901L7.41234 1.90269C7.14914 2.16408 6.79369 2.31145 6.42275 2.31298H5.17526C4.41654 2.31401 3.68915 2.61574 3.15246 3.15206C2.61578 3.68838 2.31355 4.41556 2.312 5.17429V6.42178C2.31085 6.79212 2.16419 7.14717 1.90366 7.41039L0.836901 8.4752C0.300969 9.0125 0 9.74042 0 10.4993C0 11.2582 0.300969 11.9861 0.836901 12.5234L1.90366 13.5873C2.16506 13.8505 2.31243 14.2059 2.31396 14.5768V15.8243C2.31499 16.5834 2.61699 17.3111 3.15373 17.8478C3.69047 18.3846 4.41815 18.6866 5.17722 18.6876H6.42275C6.79323 18.689 7.14831 18.836 7.41136 19.0969L8.47617 20.1627C9.01335 20.6989 9.74131 21 10.5003 21C11.2593 21 11.9872 20.6989 12.5244 20.1627L13.5882 19.0979C13.8514 18.8365 14.2069 18.6891 14.5778 18.6876H15.8253C16.5844 18.6866 17.3121 18.3846 17.8488 17.8478C18.3855 17.3111 18.6875 16.5834 18.6886 15.8243V14.5768C18.6899 14.2062 18.8374 13.8509 19.0989 13.5882L20.1637 12.5234C20.6996 11.9861 21.0006 11.2582 21.0006 10.4993C21.0006 9.74042 20.6996 9.0125 20.1637 8.4752ZM8.05806 6.59175C8.34788 6.59175 8.63119 6.67769 8.87216 6.83871C9.11313 6.99972 9.30095 7.22857 9.41186 7.49633C9.52276 7.76408 9.55178 8.05871 9.49524 8.34296C9.4387 8.62721 9.29914 8.8883 9.09421 9.09324C8.88928 9.29817 8.62818 9.43772 8.34394 9.49426C8.05969 9.55081 7.76506 9.52179 7.49731 9.41088C7.22955 9.29997 7.0007 9.11215 6.83968 8.87118C6.67867 8.63021 6.59273 8.3469 6.59273 8.05709C6.59273 7.66846 6.74711 7.29574 7.02192 7.02094C7.29672 6.74614 7.66943 6.59175 8.05806 6.59175ZM8.25344 13.7797C8.11455 13.9091 7.93085 13.9796 7.74104 13.9762C7.55123 13.9729 7.37013 13.896 7.23589 13.7617C7.10166 13.6275 7.02476 13.4464 7.02141 13.2566C7.01806 13.0668 7.08852 12.8831 7.21794 12.7442L12.7471 7.21892C12.886 7.0895 13.0697 7.01904 13.2595 7.02239C13.4493 7.02574 13.6304 7.10263 13.7647 7.23687C13.8989 7.37111 13.9758 7.55221 13.9792 7.74202C13.9825 7.93183 13.9121 8.11553 13.7826 8.25442L8.25344 13.7797ZM12.9425 14.4069C12.6527 14.4069 12.3694 14.3209 12.1284 14.1599C11.8874 13.9989 11.6996 13.77 11.5887 13.5023C11.4778 13.2345 11.4488 12.9399 11.5053 12.6557C11.5619 12.3714 11.7014 12.1103 11.9064 11.9054C12.1113 11.7005 12.3724 11.5609 12.6566 11.5044C12.9409 11.4478 13.2355 11.4768 13.5033 11.5877C13.771 11.6986 13.9999 11.8865 14.1609 12.1274C14.3219 12.3684 14.4078 12.6517 14.4078 12.9415C14.4078 13.3302 14.2535 13.7029 13.9787 13.9777C13.7039 14.2525 13.3311 14.4069 12.9425 14.4069Z" fill="#AB1216"/>
</svg>
