<svg width="110" height="48" viewBox="0 0 110 48" fill="none" xmlns="http://www.w3.org/2000/svg">
<path d="M104.898 38.4876L4.6897 40.8549V23.582H105.862L104.898 38.4876Z" fill="#263238"/>
<path opacity="0.5" d="M104.898 38.4876L4.6897 40.8549V23.582H105.862L104.898 38.4876Z" fill="black"/>
<path d="M0.838013 28.0126V36.7728C0.837405 38.6495 2.05078 40.3072 3.83002 40.8606L4.53832 41.0776C4.97452 41.2138 5.42976 41.2775 5.88622 41.2663L10.5663 41.1562C10.0104 39.1959 9.96153 37.1248 10.4243 35.14C11.9219 28.7158 18.3034 24.7315 24.6779 26.2409C31.0523 27.7502 35.0056 34.1815 33.508 40.6057L81.1291 39.4644C81.0521 38.9037 81.0147 38.3383 81.0171 37.7723C81.0457 31.1733 86.3769 25.847 92.9248 25.8758C99.4726 25.9046 104.758 31.2774 104.729 37.8764C104.729 38.1092 104.71 38.3387 104.71 38.5682C104.773 38.5431 104.838 38.518 104.901 38.4865L106.529 37.7539C108.136 37.0225 109.168 35.4111 109.169 33.6347V15.7934C109.169 14.1152 108.246 12.5751 106.773 11.7937L94.5328 5.3068C94.3926 5.23166 94.285 5.10691 94.2303 4.95683C94.1073 4.61932 94.2791 4.24546 94.614 4.12152L96.1117 3.58064C96.2373 3.53715 96.3276 3.42566 96.3447 3.29274C96.3694 3.09979 96.2344 2.92317 96.043 2.89826C90.2273 2.08071 67.6069 -0.900156 55.7165 0.56506C42.0008 2.25672 28.8561 14.2527 28.8561 14.2527C18.7627 13.8723 9.34016 17.4128 5.28429 19.1894C3.97488 19.7654 2.96755 20.8721 2.51048 22.2364L1.12206 26.3807C0.940328 26.9055 0.844496 27.4566 0.838013 28.0126Z" fill="#FF725E"/>
<path d="M81.1434 39.4653C81.0743 38.9389 81.0399 38.4084 81.0405 37.8773C81.0405 37.607 81.0498 37.3397 81.0654 37.0724L72.454 33.5223C71.95 33.3155 71.406 33.2262 70.8628 33.2614L40.9105 35.2423C40.4208 35.2736 39.9429 35.4063 39.5065 35.6323L33.8156 38.5818C33.7751 39.2637 33.6781 39.941 33.5255 40.6068L81.1434 39.4653Z" fill="#263238"/>
<path d="M109.171 33.6356V33.1797L104.301 34.6827C104.585 35.7234 104.729 36.798 104.728 37.8773C104.728 38.1101 104.71 38.3396 104.71 38.5691C104.772 38.544 104.838 38.5189 104.9 38.4874L106.532 37.7548C108.138 37.0234 109.171 35.412 109.171 33.6356Z" fill="#263238"/>
<path d="M2.22083 39.9177C2.68559 40.3509 3.24112 40.6733 3.84629 40.861L4.55459 41.078C4.99079 41.2142 5.44603 41.2779 5.90249 41.2667L10.5826 41.1566C10.4132 40.5604 10.291 39.9518 10.2175 39.3359L2.22083 39.9177Z" fill="#263238"/>
<path d="M92.9032 24.8047C92.3648 24.8045 91.8271 24.8382 91.2931 24.9054C84.1869 25.7997 79.1455 32.3305 80.0329 39.4922L81.1562 39.4638C81.0792 38.9031 81.0417 38.3377 81.0441 37.7717C81.0727 31.1727 86.4039 25.8464 92.9518 25.8752C99.4996 25.904 104.785 31.2769 104.756 37.8759C104.756 38.1086 104.737 38.3381 104.737 38.5676C104.8 38.5425 104.865 38.5174 104.928 38.486L105.864 38.0584C105.864 37.9955 105.864 37.9359 105.864 37.8761C105.855 30.6594 100.051 24.8116 92.8906 24.8047H92.9032Z" fill="#263238"/>
<path d="M21.9844 24.8047C20.8768 24.8045 19.7736 24.9472 18.7019 25.2294C11.7715 27.0546 7.62144 34.1963 9.43248 41.1808L10.5839 41.1557C10.0279 39.1953 9.9791 37.1243 10.4418 35.1394C11.9395 28.7152 18.321 24.731 24.6954 26.2403C31.0698 27.7496 35.0232 34.181 33.5256 40.6052L34.6737 40.5768C34.8605 39.6868 34.9545 38.7794 34.9543 37.8695C34.9525 30.6525 29.1457 24.8031 21.9844 24.8047Z" fill="#263238"/>
<path d="M33.2693 14.7547C33.1308 14.873 33.0321 15.043 32.9908 15.2354C32.8925 15.6913 33.1342 16.1507 33.5307 16.2616L38.4808 17.6599C38.9195 17.785 39.3741 17.8197 39.8241 17.7621L76.5279 13.1793C77.4211 13.0649 78.2536 12.5994 78.8845 11.8613L83.6993 6.20805C83.8598 6.02122 83.9613 5.77845 83.9878 5.51832C84.0535 4.87494 83.6531 4.29465 83.0935 4.22196C74.3045 3.0475 63.1919 1.97962 56.1748 2.84373C46.9779 3.97469 37.7189 10.9416 33.2693 14.7547Z" fill="#FF725E"/>
<path opacity="0.8" d="M33.4354 14.7545C33.2968 14.8728 33.1981 15.0428 33.1568 15.2352C33.0585 15.6911 33.3002 16.1505 33.6967 16.2614L38.6469 17.6596C39.0855 17.7848 39.5401 17.8195 39.9901 17.7619L75.8721 15.2832C76.7654 15.1688 78.1459 13.5147 79.1222 12.1716L83.8653 6.20805C84.0258 6.02122 84.1273 5.77845 84.1538 5.51832C84.2195 4.87494 83.8191 4.29465 83.2596 4.22196C74.4705 3.0475 63.3579 1.97962 56.3408 2.84373C47.1441 3.97449 37.8849 10.9414 33.4354 14.7545Z" fill="white"/>
<g opacity="0.3">
<path d="M57.4126 18.2797C57.1776 18.1943 57.0556 17.9332 57.1403 17.6961C57.2444 17.4027 57.5147 17.2024 57.8237 17.19L62.1917 17.0044C62.2507 17.0017 62.3099 17.0107 62.3654 17.0307C62.6022 17.116 62.7256 17.3788 62.6409 17.6175C62.535 17.9107 62.2639 18.1106 61.9545 18.1237L57.5864 18.306C57.5273 18.3091 57.4683 18.3001 57.4126 18.2797Z" fill="black"/>
</g>
<path d="M89.8962 5.66795C89.5098 6.01424 89.4752 6.61046 89.8188 6.99963L90.8547 8.13469C90.9736 8.26189 91.1246 8.35439 91.2915 8.40196L103.981 11.9488C104.201 12.0089 104.429 12.0395 104.658 12.0401H107.179C107.048 11.9521 106.913 11.8702 106.773 11.7949L94.5331 5.30165L94.5323 5.30124C94.2233 5.14749 94.0965 4.77036 94.2491 4.45898L90.2741 5.46213C90.1341 5.50011 90.0046 5.57076 89.8962 5.66795Z" fill="#FF725E"/>
<path d="M10.8785 20.8579L6.54895 20.3828L4.06142 21.4082C3.53851 21.6238 3.14789 22.0763 3.0085 22.6282C2.92686 22.9474 2.97285 23.2861 3.13634 23.5715L3.18011 23.6471C3.45828 24.1298 3.99801 24.3954 4.54665 24.3201L7.04269 23.9742C7.28602 23.9391 7.51678 23.8429 7.7135 23.6942L10.5933 21.4932L10.8785 20.8579Z" fill="white"/>
<path d="M28.8654 14.2466L29.5548 14.4446C30.0907 14.5988 30.6673 14.4738 31.093 14.1114C35.1053 10.6903 42.0818 5.44222 49.6103 2.99591C49.6437 2.98488 49.6716 2.9616 49.6889 2.93077C49.7268 2.86258 49.7028 2.77641 49.6352 2.73823L48.6992 2.25391C37.8385 6.04905 28.8654 14.2466 28.8654 14.2466Z" fill="#FF725E"/>
<path opacity="0.8" d="M28.8654 14.2466L29.5548 14.4446C30.0907 14.5988 30.6673 14.4738 31.093 14.1114C35.1053 10.6903 42.0818 5.44222 49.6103 2.99591C49.6437 2.98488 49.6716 2.9616 49.6889 2.93077C49.7268 2.86258 49.7028 2.77641 49.6352 2.73823L48.6992 2.25391C37.8385 6.04905 28.8654 14.2466 28.8654 14.2466Z" fill="white"/>
<path opacity="0.2" d="M70.0143 18.8654L33.5255 21.4951L34.2121 26.0304C34.4224 27.4199 34.9336 28.7456 35.7091 29.9138L38.7589 34.5073L69.9019 30.2637L84.6253 18.8652H70.0143V18.8654Z" fill="white"/>
<path d="M92.8937 47.8322C98.3492 47.8322 102.772 43.3751 102.772 37.877C102.772 32.3789 98.3492 27.9219 92.8937 27.9219C87.4383 27.9219 83.0157 32.3789 83.0157 37.877C83.0157 43.3751 87.4383 47.8322 92.8937 47.8322Z" fill="#263238"/>
<path opacity="0.4" d="M92.892 43.9779C96.2366 43.9779 98.9479 41.2454 98.9479 37.8747C98.9479 34.504 96.2366 31.7715 92.892 31.7715C89.5474 31.7715 86.8361 34.504 86.8361 37.8747C86.8361 41.2454 89.5474 43.9779 92.892 43.9779Z" fill="white"/>
<g opacity="0.3">
<path d="M93.3786 32.8741V36.0028C93.3786 36.2719 93.162 36.4902 92.895 36.4902H92.8919C92.6249 36.4902 92.4083 36.2719 92.4083 36.0028V32.8741C92.4083 32.605 92.6249 32.3867 92.8919 32.3867H92.895C93.162 32.3867 93.3786 32.605 93.3786 32.8741Z" fill="white"/>
</g>
<g opacity="0.3">
<path d="M93.3786 39.7511V42.8798C93.3786 43.1489 93.162 43.3671 92.895 43.3671H92.8919C92.6249 43.3671 92.4083 43.1489 92.4083 42.8798V39.7511C92.4083 39.4819 92.6249 39.2637 92.8919 39.2637H92.895C93.162 39.2637 93.3786 39.4819 93.3786 39.7511Z" fill="white"/>
</g>
<g opacity="0.3">
<path d="M94.7444 37.3637C94.5124 37.4971 94.217 37.4154 94.0847 37.1816C94.0845 37.1812 94.0843 37.1808 94.0839 37.1804C93.951 36.947 94.0309 36.6491 94.2624 36.5149L96.9487 34.9427C97.1813 34.8074 97.4787 34.8876 97.6132 35.122C97.7453 35.3558 97.6661 35.6531 97.4354 35.7887L94.7491 37.3609C94.7479 37.3619 94.746 37.3627 94.7444 37.3637Z" fill="white"/>
</g>
<g opacity="0.3">
<path d="M88.8328 40.7898C88.6012 40.9238 88.3057 40.8433 88.1725 40.6099C88.1723 40.6095 88.1721 40.6091 88.1719 40.6087C88.039 40.3753 88.1189 40.0774 88.3504 39.9433L91.0367 38.3711L91.0369 38.3709C91.2679 38.2355 91.5639 38.3145 91.698 38.5471C91.8327 38.7806 91.7547 39.0802 91.5234 39.2168L88.8338 40.789C88.8336 40.7894 88.8332 40.7896 88.8328 40.7898Z" fill="white"/>
</g>
<g opacity="0.3">
<path d="M96.949 40.801L94.2627 39.2288C94.0301 39.0932 93.9507 38.7934 94.0848 38.559C94.2204 38.3259 94.5176 38.247 94.7494 38.383L97.4357 39.9552C97.6662 40.0906 97.7456 40.3881 97.6135 40.6219C97.479 40.8559 97.1816 40.9361 96.949 40.801Z" fill="white"/>
</g>
<g opacity="0.3">
<path d="M91.6991 37.1826C91.5654 37.4155 91.2696 37.4954 91.0385 37.3606L88.3522 35.7884C88.3518 35.7882 88.3514 35.788 88.351 35.7876C88.1198 35.6528 88.0408 35.3547 88.1743 35.1217C88.1745 35.1213 88.1747 35.1209 88.1751 35.1205C88.3088 34.8875 88.6046 34.8077 88.8358 34.9425L91.5253 36.5147L91.5255 36.5149C91.7563 36.6505 91.8345 36.9488 91.7 37.1813C91.6996 37.1817 91.6993 37.1822 91.6991 37.1826Z" fill="white"/>
</g>
<path d="M92.0802 37.8722C92.0802 37.4208 92.4435 37.0547 92.8914 37.0547C92.8924 37.0547 92.8934 37.0547 92.8944 37.0547C93.3442 37.0547 93.7087 37.4222 93.7087 37.8753C93.7087 38.3286 93.3442 38.6959 92.8944 38.6959C92.4447 38.6959 92.0802 38.3286 92.0802 37.8753C92.0802 37.8743 92.0802 37.8733 92.0802 37.8722Z" fill="#263238"/>
<path d="M21.9836 47.8322C27.4391 47.8322 31.8616 43.3751 31.8616 37.877C31.8616 32.3789 27.4391 27.9219 21.9836 27.9219C16.5281 27.9219 12.1056 32.3789 12.1056 37.877C12.1056 43.3751 16.5281 47.8322 21.9836 47.8322Z" fill="#263238"/>
<path opacity="0.4" d="M21.9818 43.9799C25.3264 43.9799 28.0378 41.2474 28.0378 37.8767C28.0378 34.5059 25.3264 31.7734 21.9818 31.7734C18.6372 31.7734 15.9259 34.5059 15.9259 37.8767C15.9259 41.2474 18.6372 43.9799 21.9818 43.9799Z" fill="white"/>
<g opacity="0.3">
<path d="M22.4663 32.8741V36.0028C22.4663 36.2719 22.2498 36.4902 21.9827 36.4902H21.9797C21.7127 36.4902 21.4961 36.2719 21.4961 36.0028V32.8741C21.4961 32.605 21.7127 32.3867 21.9797 32.3867H21.9827C22.2498 32.3867 22.4663 32.605 22.4663 32.8741Z" fill="white"/>
</g>
<g opacity="0.3">
<path d="M22.4663 39.7511V42.8798C22.4663 43.1489 22.2498 43.3671 21.9827 43.3671H21.9797C21.7127 43.3671 21.4961 43.1489 21.4961 42.8798V39.7511C21.4961 39.4819 21.7127 39.2637 21.9797 39.2637H21.9827C22.2498 39.2637 22.4663 39.4819 22.4663 39.7511Z" fill="white"/>
</g>
<g opacity="0.3">
<path d="M23.8283 37.3642C23.5974 37.4958 23.3042 37.4138 23.1735 37.181L23.1733 37.1808C23.039 36.948 23.1174 36.6497 23.3482 36.5146L26.0377 34.9423C26.0381 34.9421 26.0385 34.9419 26.0389 34.9417C26.2705 34.8078 26.5661 34.8882 26.6992 35.1216C26.6994 35.122 26.6996 35.1224 26.6998 35.1228C26.8327 35.3562 26.7529 35.6541 26.5213 35.7883L23.835 37.3605C23.8328 37.3615 23.8306 37.3629 23.8283 37.3642Z" fill="white"/>
</g>
<g opacity="0.3">
<path d="M17.2644 40.6081C17.2642 40.6077 17.264 40.6073 17.2636 40.6069C17.1307 40.3735 17.2105 40.0756 17.4421 39.9415L20.1284 38.3693C20.3602 38.2335 20.6574 38.3121 20.7929 38.5453C20.9272 38.7797 20.8476 39.0794 20.615 39.215L17.9288 40.7872C17.6964 40.9226 17.399 40.8425 17.2644 40.6081Z" fill="white"/>
</g>
<g opacity="0.3">
<path d="M26.6966 40.6227C26.5628 40.8556 26.267 40.9353 26.0359 40.8007L23.3463 39.2285C23.115 39.0919 23.0368 38.7924 23.1717 38.5588L23.1719 38.5586C23.3064 38.326 23.6024 38.2472 23.8332 38.3828L26.5195 39.955C26.5199 39.9552 26.5203 39.9554 26.5207 39.9558C26.7519 40.0906 26.8309 40.3887 26.6974 40.6216C26.697 40.6218 26.6968 40.6222 26.6966 40.6227Z" fill="white"/>
</g>
<g opacity="0.3">
<path d="M20.7862 37.1866C20.6513 37.4188 20.3549 37.497 20.1245 37.3608L17.4382 35.7886C17.4378 35.7884 17.4374 35.7882 17.437 35.7878C17.2059 35.653 17.1268 35.3549 17.2603 35.1219C17.3949 34.8875 17.6923 34.8075 17.9249 34.9426L20.6112 36.5149C20.6116 36.5151 20.612 36.5153 20.6124 36.5157C20.8435 36.6504 20.9228 36.9485 20.789 37.1815C20.788 37.1831 20.7872 37.1848 20.7862 37.1866Z" fill="white"/>
</g>
<path d="M21.9843 37.0547C22.4341 37.0547 22.7985 37.4222 22.7985 37.8755C22.7985 38.3288 22.4339 38.6961 21.9843 38.6961C21.5345 38.6961 21.17 38.3288 21.17 37.8755C21.1698 37.4222 21.5345 37.0547 21.9843 37.0547Z" fill="#263238"/>
<path opacity="0.3" d="M108.136 19.0946C108.465 18.9913 108.649 18.6389 108.546 18.3073C108.431 16.2116 107.989 14.3453 106.715 13.0624C106.629 12.7803 106.361 12.5959 106.069 12.6192L98.54 13.3361C98.4089 13.3501 98.2857 13.4059 98.1881 13.4949C97.9324 13.7279 97.9126 14.1256 98.1437 14.3831L100.3 16.7257C100.374 16.8068 100.469 16.8664 100.574 16.8986L107.781 19.0997C107.898 19.1326 108.021 19.1308 108.136 19.0946Z" fill="black"/>
<path d="M32.9908 15.2309C32.8925 15.6869 33.1342 16.1463 33.5307 16.2571L38.4808 17.6554C38.9195 17.7806 39.2864 17.8663 39.8567 17.8922L41.4153 17.7881L39.9454 9.78516C36.5505 12.0322 36.3179 12.1347 33.2693 14.7503C33.1308 14.8685 33.0323 15.0386 32.9908 15.2309Z" fill="#263238"/>
<path d="M65.2368 2.58594L62.1271 16.2521L66.1949 15.9575L68.0525 2.71396C67.1005 2.65883 66.1621 2.61636 65.2368 2.58594Z" fill="#263238"/>
<path d="M78.1427 13.4009L83.8562 6.20836C84.0206 6.0199 84.1245 5.77325 84.151 5.50883C84.2153 4.86525 83.8137 4.28618 83.2539 4.21513C82.0833 4.05505 80.8377 3.90069 79.5921 3.75" fill="#263238"/>
<path d="M37.4918 16.6206C36.5027 16.6324 35.6915 15.8338 35.6799 14.8372C35.6704 13.9895 36.2466 13.2489 37.0657 13.0561L39.4521 12.4922L40.0593 16.5226L37.5394 16.6195C37.5234 16.6202 37.5076 16.6206 37.4918 16.6206Z" fill="#FF725E"/>
<path opacity="0.3" d="M39.3616 16.5499L40.0601 16.5226L39.453 12.4922L38.7716 12.6547L39.3616 16.5499Z" fill="black"/>
<path opacity="0.6" d="M66.1084 15.957C66.1375 17.3734 66.1223 18.8717 65.9706 19.6372C65.6331 21.3381 63.0021 33.7795 63.0021 33.7795" stroke="black" stroke-width="0.5" stroke-miterlimit="10" stroke-linecap="round" stroke-linejoin="round"/>
<path opacity="0.6" d="M32.965 15.5312C32.965 15.5312 33.7515 26.2888 34.9488 28.4648C36.1166 30.5873 39.5011 35.6304 39.5011 35.6304" stroke="black" stroke-width="0.5" stroke-miterlimit="10" stroke-linecap="round" stroke-linejoin="round"/>
<path opacity="0.6" d="M30.223 14.5098C30.223 14.5098 21.8104 16.6043 19.3348 17.0041C17.3021 17.3324 9.03844 19.3587 6.5509 20.3841" stroke="black" stroke-width="0.5" stroke-miterlimit="10" stroke-linecap="round" stroke-linejoin="round"/>
<path opacity="0.8" d="M89.8962 5.66795C89.5098 6.01424 89.4752 6.61046 89.8188 6.99963L90.8547 8.13469C90.9736 8.26189 91.1246 8.35439 91.2915 8.40196L103.981 11.9488C104.201 12.0089 104.429 12.0395 104.658 12.0401H107.179C107.048 11.9521 106.913 11.8702 106.773 11.7949L94.5331 5.30165L94.5323 5.30124C94.2233 5.14749 94.0965 4.77036 94.2491 4.45898L90.2741 5.46213C90.1341 5.50011 90.0046 5.57076 89.8962 5.66795Z" fill="white"/>
<path d="M47.8694 11.0808C47.8694 11.0808 49.3856 16.4543 50.1219 16.645C51.4558 16.9903 55.9653 16.2103 55.8758 16.061L55.5068 14.1678C55.5068 14.1678 50.9027 13.834 50.8075 13.8716L49.3465 10.502L47.8694 11.0808Z" fill="#E1715B"/>
<path d="M49.3635 11.4512C49.3635 11.4512 49.8232 11.02 49.836 10.4969C49.8486 9.97376 49.9969 9.55927 49.9796 9.16969C49.9624 8.78011 49.6389 9.19337 49.511 9.44839C49.3832 9.70342 49.2355 9.99112 49.061 9.8633C48.8866 9.73548 48.1273 8.02973 47.8653 7.88027C47.6033 7.73081 47.6406 8.04546 47.6406 8.04546C47.6406 8.04546 47.4451 7.63607 47.2632 7.66996C47.216 7.67874 47.1201 7.77655 47.1803 7.97705C47.3154 8.4283 47.6475 9.3608 47.6475 9.3608C47.6295 9.3069 47.1382 8.18552 47.0427 8.02728C46.9181 7.82045 46.7546 7.78696 46.6381 7.86373C46.4722 7.97297 47.0344 9.38429 47.0168 9.46045C47.0168 9.46045 46.72 8.63697 46.4671 8.59797C46.2143 8.55877 46.3731 9.0874 46.6009 9.5268C46.8097 9.92945 47.1149 10.7746 47.3665 11.1631C47.6767 11.6419 47.9917 11.8933 48.5177 11.812C49.0432 11.7306 49.3635 11.4512 49.3635 11.4512Z" fill="#E1715B"/>
<path opacity="0.3" d="M47.6702 8.0957C47.8187 8.42802 47.9522 8.76708 48.0701 9.11166" stroke="black" stroke-width="0.25" stroke-miterlimit="10" stroke-linecap="round" stroke-linejoin="round"/>
<path opacity="0.3" d="M47.1174 9.7867C47.4777 9.48728 47.9266 9.29803 48.391 9.25" stroke="black" stroke-width="0.25" stroke-miterlimit="10" stroke-linecap="round" stroke-linejoin="round"/>
<path opacity="0.3" d="M48.9421 10.0703C48.7823 10.1743 48.6599 10.3358 48.6025 10.5187C48.5452 10.7016 48.5533 10.9048 48.6248 11.0824" stroke="black" stroke-width="0.25" stroke-miterlimit="10" stroke-linecap="round" stroke-linejoin="round"/>
<path d="M59.7541 9.29478C59.7541 9.29478 61.441 7.85856 61.3682 7.37873C61.2955 6.8989 61.0246 7.04693 61.0246 7.04693C61.0246 7.04693 61.6083 5.88799 61.0333 5.68912C60.4581 5.49024 60.4182 5.68503 60.4182 5.68503C60.4182 5.68503 60.646 4.73946 60.1899 4.45504C59.8428 4.23595 59.6956 4.67126 59.6956 4.67126C59.6956 4.67126 59.0331 3.63544 58.2403 3.65055C57.8482 3.68077 57.6554 3.93539 57.7109 4.23962C57.7133 4.25289 57.7161 4.26596 57.7194 4.27882C57.7194 4.27882 56.119 3.57623 55.3757 4.01726C54.6324 4.4585 55.602 4.94201 55.602 4.94201C55.602 4.94201 54.0428 4.77805 53.7375 5.4102C53.4948 5.91229 54.1887 6.25042 54.1887 6.25042C54.1887 6.25042 53.9425 6.33474 53.7322 6.52627C53.3315 6.89114 53.5764 7.58312 54.1161 7.60272C54.1204 7.60292 54.1244 7.60292 54.1287 7.60313C54.2116 7.60558 54.3605 7.62375 54.4204 7.56617C54.4204 7.56617 54.1526 8.13523 54.7298 8.31797C55.3068 8.50071 55.5811 7.82671 55.5811 7.82671L59.7541 9.29478Z" fill="#263238"/>
<path d="M59.2205 12.993C59.2205 12.993 59.1264 12.1737 59.7049 10.1819C59.7049 10.1798 59.6007 10.1328 59.6007 10.1308C59.6804 9.8523 59.7652 9.59482 59.8451 9.37186C59.8469 9.36532 59.8469 9.36328 59.8469 9.36328L57.1373 11.0415C57.1993 11.6791 56.9692 12.9101 56.8324 13.43L57.5344 14.6275L59.2205 12.993Z" fill="#E1715B"/>
<path opacity="0.2" d="M57.0867 11.938L58.6447 11.5879C58.5023 12.0759 58.0722 12.6539 56.9886 12.6983C56.9886 12.6983 57.0978 12.152 57.0867 11.938Z" fill="black"/>
<path d="M55.2812 6.3268C54.9613 6.9567 54.8448 8.34371 55.8424 8.05704C56.8399 7.77057 55.8313 5.24401 55.2812 6.3268Z" fill="#263238"/>
<path d="M59.8743 8.03849C59.6875 9.7667 59.6168 10.7449 58.7053 11.5851C57.3343 12.8488 55.2939 11.976 54.9639 10.2212C54.6667 8.64185 55.022 6.08119 56.7403 5.48804C58.433 4.90347 60.0611 6.31049 59.8743 8.03849Z" fill="#E1715B"/>
<path d="M57.3905 8.42361C57.3822 8.60121 57.2821 8.73958 57.1671 8.73304C57.052 8.7265 56.9653 8.5771 56.9736 8.39949C56.9819 8.22189 57.082 8.08353 57.197 8.09007C57.3121 8.09681 57.3988 8.24621 57.3905 8.42361Z" fill="#263238"/>
<path d="M55.662 8.37459C55.6537 8.5522 55.5536 8.69056 55.4385 8.68402C55.3235 8.67748 55.2368 8.52808 55.2451 8.35068C55.2534 8.17308 55.3534 8.03451 55.4685 8.04125C55.5838 8.04779 55.6703 8.19699 55.662 8.37459Z" fill="#263238"/>
<path d="M56.2277 8.30273C56.2277 8.30273 55.6295 9.15744 55.434 9.50782C55.6686 9.74243 56.0953 9.65974 56.0953 9.65974L56.2277 8.30273Z" fill="#FD504E"/>
<path d="M57.8167 7.47064C57.7889 7.47799 57.7579 7.47043 57.7363 7.44795C57.4775 7.18206 57.1787 7.23683 57.1757 7.23724C57.1309 7.24603 57.0873 7.2166 57.0782 7.17163C57.0691 7.12667 57.0983 7.08314 57.1426 7.07435C57.1584 7.07129 57.5328 7.00261 57.8538 7.33248C57.8858 7.36538 57.8854 7.41791 57.853 7.44979C57.8426 7.46021 57.8301 7.46716 57.8167 7.47064Z" fill="#263238"/>
<path d="M54.9275 7.57425C54.9125 7.56955 54.8987 7.56035 54.8882 7.54707C54.8594 7.5111 54.8647 7.45857 54.8998 7.42976C55.2523 7.13974 55.6129 7.25747 55.6297 7.26074C55.6729 7.27504 55.697 7.32225 55.6832 7.36599C55.6694 7.40973 55.6236 7.43344 55.5807 7.41974C55.5659 7.41422 55.2869 7.32716 55.0039 7.55994C54.9816 7.57793 54.9528 7.58222 54.9275 7.57425Z" fill="#263238"/>
<path d="M56.5971 10.8177C56.5916 10.82 56.6133 10.8138 56.5971 10.8177V10.8177Z" fill="#263238"/>
<path d="M56.3287 10.1476C56.6052 10.0595 57.1152 9.87314 57.3623 9.61133C57.3623 9.61133 57.4067 9.68776 57.4324 9.80324C57.4557 9.90277 57.4683 10.0293 57.4355 10.1605C57.3745 10.4 57.1664 10.659 56.6072 10.8155C56.5996 10.818 56.5981 10.8186 56.5967 10.819C56.5945 10.8196 56.5951 10.8192 56.591 10.8204C56.591 10.8204 56.2898 10.8981 56.139 10.204C56.139 10.204 56.2132 10.1856 56.3287 10.1476Z" fill="#263238"/>
<path d="M56.3285 10.1474L56.4351 10.335C56.9612 10.1862 57.3117 10.0103 57.4323 9.80303C57.4065 9.68756 57.3622 9.61133 57.3622 9.61133C57.115 9.87293 56.605 10.0593 56.3285 10.1474Z" fill="white"/>
<path d="M56.6078 10.8152C57.1668 10.6586 57.3748 10.3997 57.4358 10.1602C57.2474 10.2209 57.027 10.3153 56.8493 10.4581C56.7131 10.5667 56.6441 10.6948 56.6078 10.8152Z" fill="#FB504E"/>
<path d="M59.357 9.37717C59.2085 9.2957 59.052 9.20647 58.9714 9.0566C58.8964 8.91735 58.9003 8.74951 58.9145 8.59147C58.9291 8.42751 58.9524 8.26458 58.9842 8.10307C58.8312 8.18045 58.6464 8.05713 58.5628 7.90685C58.4376 7.68204 58.4455 7.40864 58.4637 7.15137C58.2688 7.19323 58.0482 7.13483 57.9199 6.98088C57.7917 6.82692 57.7795 6.57761 57.9132 6.42836C57.2803 6.51411 56.6308 6.47328 56.0132 6.30891C56.0558 6.38834 56.0063 6.48533 55.9516 6.55679C55.7304 6.84714 55.3998 7.0505 55.0424 7.11625C54.9899 7.12585 54.9249 7.12748 54.8957 7.08256C54.8801 7.05867 54.8801 7.02804 54.8819 6.99946C54.9028 6.64847 55.1032 6.32668 55.3663 6.09595C55.6295 5.86522 55.9521 5.71515 56.2772 5.58774C56.8168 5.37641 57.3814 5.21857 57.959 5.17917C58.5366 5.13996 59.129 5.22307 59.6515 5.47421C59.7658 5.52914 59.8793 5.59427 59.9591 5.69309C60.0349 5.78702 60.075 5.90463 60.11 6.0204C60.3234 6.72503 60.4046 7.4701 60.3485 8.20475" fill="#263238"/>
<path d="M60.4813 9.51587C60.3228 9.95548 59.977 10.2785 59.6279 10.4331C59.1028 10.6656 58.7545 10.2097 58.8287 9.66595C58.8955 9.17652 59.2493 8.46596 59.8109 8.4629C60.3642 8.46025 60.6624 9.01318 60.4813 9.51587Z" fill="#E1715B"/>
<path opacity="0.2" d="M60.1107 9.01867C60.0463 8.91178 59.9067 8.86702 59.7852 8.89114C59.6634 8.91525 59.5595 8.99721 59.4815 9.09449C59.3877 9.21119 59.3249 9.35283 59.3011 9.501" stroke="black" stroke-width="0.5" stroke-miterlimit="10" stroke-linecap="round" stroke-linejoin="round"/>
<path d="M56.7063 15.8127C56.7063 15.8127 51.6686 17.2965 49.8387 17.3608C48.009 17.4252 43.9592 16.5656 43.9592 16.5656L44.188 14.692L50.1321 14.998L56.595 12.8223L56.7063 15.8127Z" fill="#E1715B"/>
<path d="M54.9065 16.9571L55.8972 12.83L58.4129 12.3879C58.5229 12.3716 60.5666 12.2023 61.1794 14.4618L61.3164 16.2576L54.9065 16.9571Z" fill="#263238"/>
<path d="M57.2742 16.5451C57.1348 16.5431 53.2133 17.2657 53.2133 17.2657L52.4065 14.0518C52.4065 14.0518 54.2293 13.2833 55.8955 12.8294C57.7576 12.322 59.504 12.1646 59.9064 13.0405C60.6686 14.7005 57.2742 16.5451 57.2742 16.5451Z" fill="#263238"/>
<path opacity="0.3" d="M49.1526 14.9788C49.2478 14.9837 50.1299 15.0291 50.1299 15.0291L52.6726 14.1503C52.6726 14.1503 53.1991 13.9216 53.065 13.9678C52.9311 14.0142 51.8778 13.9038 51.8077 13.9148C51.7378 13.9259 49.1526 14.9788 49.1526 14.9788Z" fill="black"/>
<path d="M42.235 13.8398C42.121 13.9093 40.7737 15.3126 40.7737 15.3126L41.0365 17.052L42.7304 15.2897L42.235 13.8398Z" fill="#263238"/>
<path d="M44.2645 17.466C43.9666 17.614 43.606 17.4909 43.4591 17.1908L40.7714 11.7025C40.6245 11.4024 40.7467 11.0389 41.0445 10.8909C41.3423 10.7427 41.703 10.866 41.8499 11.1661L44.5376 16.6544C44.6845 16.9545 44.5623 17.318 44.2645 17.466Z" fill="#263238"/>
<path d="M46.1988 14.843L43.9866 14.5437L43.3466 13.7639C43.3466 13.7639 42.2228 13.6622 41.9815 13.8641C41.7402 14.0661 41.4972 14.7094 41.4972 14.7094C41.4972 14.7094 41.2045 15.2369 41.7063 15.5137C41.7063 15.5137 41.3886 15.9831 41.9549 16.3145C41.9549 16.3145 41.5376 16.552 42.1364 16.8003C42.7353 17.0486 43.2092 16.9042 43.5759 16.7715C43.9428 16.6388 44.5916 16.6951 44.5916 16.6951L46.6032 17.0527L46.1988 14.843Z" fill="#E1715B"/>
</svg>
