<svg width="22" height="26" viewBox="0 0 22 26" fill="none" xmlns="http://www.w3.org/2000/svg">
<path d="M14.1134 17.375H14.1247M7.87469 17.375H7.88591" stroke="#AB1216" stroke-width="1.5" stroke-linecap="round" stroke-linejoin="round"/>
<path d="M1.33476 21.5561C1.61586 23.644 3.34516 25.2796 5.44957 25.3764C7.22034 25.4577 9.01913 25.5002 11 25.5002C12.9809 25.5002 14.7796 25.4577 16.5504 25.3764C18.6549 25.2796 20.3841 23.644 20.6653 21.5561C20.8488 20.1936 21 18.7972 21 17.3752C21 15.9532 20.8488 14.5569 20.6653 13.1944C20.3841 11.1065 18.6549 9.47086 16.5504 9.37411C14.7796 9.29271 12.9809 9.25024 11 9.25024C9.01913 9.25024 7.22034 9.29271 5.44957 9.37411C3.34516 9.47086 1.61586 11.1065 1.33476 13.1944C1.15131 14.5569 1 15.9532 1 17.3752C1 18.7972 1.15131 20.1936 1.33476 21.5561Z" stroke="#AB1216"/>
<path d="M5.37488 9.25V6.125C5.37488 3.0184 7.89328 0.5 10.9999 0.5C14.1065 0.5 16.6249 3.0184 16.6249 6.125V9.25" stroke="#AB1216" stroke-linecap="round" stroke-linejoin="round"/>
</svg>
