<svg width="18" height="24" viewBox="0 0 18 24" fill="none" xmlns="http://www.w3.org/2000/svg">
<path d="M8.99413 10.7988C8.87683 10.7872 8.73607 10.7872 8.60704 10.7988C7.26065 10.7536 5.98492 10.1914 5.05 9.23142C4.11509 8.27142 3.59442 6.98896 3.59824 5.65562C3.59824 2.8112 5.92082 0.500839 8.80645 0.500839C10.1862 0.476206 11.5193 0.995062 12.5125 1.94326C13.5058 2.89147 14.0777 4.19135 14.1026 5.55694C14.1275 6.92253 13.6033 8.24198 12.6453 9.22502C11.6872 10.2081 10.3739 10.7742 8.99413 10.7988ZM3.12903 15.0828C0.290323 16.9636 0.290323 20.0286 3.12903 21.8978C6.35484 24.0341 11.6452 24.0341 14.871 21.8978C17.7097 20.017 17.7097 16.952 14.871 15.0828C11.6569 12.9582 6.36657 12.9582 3.12903 15.0828Z" stroke="#AB1216" stroke-linecap="round" stroke-linejoin="round"/>
</svg>
