<svg width="18" height="21" viewBox="0 0 18 21" fill="none" xmlns="http://www.w3.org/2000/svg">
<path fill-rule="evenodd" clip-rule="evenodd" d="M7.74518 0.599155C8.58795 0.600475 9.33344 1.15318 9.59969 1.98223C9.63818 2.10734 9.75522 2.19101 9.88545 2.19101H11.3822C11.6047 2.19101 11.7705 2.35597 11.7705 2.57056V4.14051C11.7705 4.35509 11.6047 4.5227 11.3822 4.5227H4.10813C3.88564 4.5227 3.72088 4.35509 3.72088 4.14051V2.57056C3.72088 2.35624 3.88564 2.19101 4.10813 2.19101H5.60439C5.66805 2.19135 5.73014 2.17126 5.78157 2.13369C5.833 2.09611 5.87105 2.04303 5.89014 1.98223C6.15639 1.15344 6.90347 0.599155 7.74518 0.599155ZM7.74518 0C6.72896 0.00131973 5.87354 0.659863 5.46837 1.59027H1.55689C0.716497 1.59027 0 2.21846 0 3.02455V19.566C0 20.3729 0.716761 21 1.55689 21H13.9343C14.776 21 15.4912 20.3731 15.4912 19.566V18.2106C15.5101 17.7939 14.8759 17.7939 14.8938 18.2106V19.566C14.8938 20.0157 14.4876 20.4019 13.934 20.4019H1.55689C1.00489 20.4019 0.597081 20.0157 0.597081 19.566V3.02455C0.597081 2.57478 1.00489 2.19101 1.55689 2.19101H3.20025C3.14941 2.31106 3.12332 2.44016 3.12354 2.57056V4.14051C3.12354 4.68107 3.56851 5.12106 4.10786 5.12106H11.382C11.9216 5.12106 12.3689 4.68107 12.3689 4.14051V2.57056C12.3689 2.43621 12.3415 2.30794 12.2906 2.19101H13.934C14.4876 2.19101 14.8938 2.57478 14.8938 3.02455V5.49877C14.8759 5.91659 15.5101 5.91659 15.4912 5.49877V3.02455C15.4912 2.21846 14.776 1.59027 13.9343 1.59027H10.0215C9.6163 0.659863 8.76088 0.00131973 7.74518 0Z" fill="#AB1216"/>
<path fill-rule="evenodd" clip-rule="evenodd" d="M7.74539 2.03169C8.05013 2.03169 8.30003 2.28323 8.30003 2.61184C8.30003 2.94019 8.05039 3.19041 7.74539 3.19041C7.44039 3.19041 7.19339 2.94019 7.19339 2.61184C7.19339 2.28323 7.44066 2.03169 7.74539 2.03169ZM7.74539 1.43359C7.10798 1.43359 6.59473 1.9694 6.59473 2.61184C6.59473 3.25508 7.10798 3.78825 7.74539 3.78825C8.38228 3.78825 8.89711 3.25508 8.89711 2.61184C8.89711 1.96967 8.38228 1.43359 7.74539 1.43359ZM12.4295 9.91811C12.9773 9.91811 13.4278 10.3816 13.4294 10.9768C13.4294 11.3315 13.2604 11.6628 12.9855 11.8565C12.9372 11.8911 12.9002 11.9391 12.8789 11.9945C12.8577 12.05 12.8532 12.1105 12.8661 12.1685L13.248 13.7963H11.6097L11.9917 12.1685C12.0048 12.1105 12.0005 12.0499 11.9793 11.9944C11.958 11.9388 11.9208 11.8908 11.8722 11.8565C11.5973 11.6625 11.4299 11.3313 11.4283 10.9768C11.4302 10.3816 11.8807 9.91811 12.4295 9.91811ZM12.4295 9.32027C11.543 9.32027 10.8312 10.0723 10.8312 10.9781C10.8312 11.4194 11.098 11.7781 11.3956 12.0875L11.0166 13.7136C10.9356 14.0602 11.1829 14.3957 11.5454 14.3957H13.3123C13.6764 14.3957 13.9221 14.0602 13.8422 13.7136L13.4623 12.0875C13.76 11.7781 14.0267 11.4194 14.0267 10.9781C14.0267 10.0723 13.3152 9.32027 12.4295 9.32027Z" fill="#AB1216"/>
<path d="M12.4294 6.66023L17.4024 8.39092V10.1694C17.4024 14.0615 15.4404 16.3541 12.4294 17.9917C9.41868 16.3541 7.45688 14.0599 7.45688 10.1694V8.39092L12.4294 6.66023ZM12.3321 6.06055L7.05988 7.89576C6.94047 7.93693 6.85954 8.05122 6.85954 8.17765V10.1694C6.85954 14.335 9.07651 16.91 12.291 18.613C12.3775 18.6597 12.4821 18.6597 12.5696 18.613C15.7825 16.91 18 14.335 18 10.1694V8.17765C18 8.05122 17.9202 7.93693 17.7997 7.89576L12.5285 6.06055C12.4651 6.03711 12.3955 6.03711 12.3321 6.06055ZM2.35757 7.87781C1.94265 7.87781 1.94265 8.47591 2.35757 8.47591H5.53594C5.95034 8.47591 5.95034 7.87781 5.53594 7.87781H2.35757ZM2.32726 9.68029C1.92921 9.68557 1.9582 10.2781 2.35757 10.2781H5.53594C5.95034 10.2781 5.95034 9.67607 5.53594 9.68029C4.46752 9.69111 3.3941 9.66657 2.32726 9.68029ZM2.35757 11.4799C1.94265 11.4799 1.94265 12.0793 2.35757 12.0793H5.53594C5.95034 12.0793 5.95034 11.4799 5.53594 11.4799H2.35757ZM2.32726 13.2834C1.92921 13.2879 1.9582 13.8815 2.35757 13.8815H5.53594C5.95034 13.8815 5.95034 13.2779 5.53594 13.2834C4.46752 13.2945 3.3941 13.2681 2.32726 13.2834ZM2.35757 15.0827C1.95794 15.0827 1.95794 15.6835 2.35757 15.6835H6.84425C7.24388 15.6835 7.24388 15.0827 6.84425 15.0827H2.35757Z" fill="#AB1216"/>
</svg>
