<svg width="24" height="24" viewBox="0 0 24 24" fill="none" xmlns="http://www.w3.org/2000/svg">
<path d="M3.9035 6.26646C4.4931 5.84617 5.21424 5.59975 5.99887 5.59975C6.47219 5.59755 6.94126 5.68915 7.37898 5.86927C7.8167 6.04939 8.2144 6.31445 8.54909 6.64914C8.88379 6.98384 9.14885 7.38153 9.32897 7.81925C9.50909 8.25697 9.60069 8.72604 9.59849 9.19937V16.8008H2.39773V16.4001C2.44611 15.8211 1.55112 15.8211 1.60101 16.4001V17.1999C1.60101 17.4191 1.7794 17.5975 1.99861 17.5975H13.9994V23.2002H12.3968V18.8009C12.3968 18.2672 11.5986 18.2672 11.5986 18.8009V23.5979C11.5971 23.8201 11.777 24 11.9992 24H14.397C14.4498 24.0002 14.5022 23.9899 14.5511 23.9698C14.6 23.9497 14.6444 23.92 14.6818 23.8827C14.7192 23.8453 14.7488 23.8009 14.7689 23.752C14.7891 23.7031 14.7993 23.6507 14.7991 23.5979V17.599H23.5979C23.6504 17.5994 23.7025 17.5894 23.7512 17.5696C23.7998 17.5498 23.8441 17.5206 23.8815 17.4837C23.9189 17.4468 23.9486 17.4028 23.9689 17.3544C23.9892 17.3059 23.9998 17.2539 24 17.2014V9.20088C24.0002 8.62309 23.8865 8.05093 23.6655 7.51708C23.4445 6.98323 23.1205 6.49817 22.7119 6.08961C22.3033 5.68106 21.8183 5.35701 21.2844 5.13599C20.7506 4.91497 20.1784 4.80131 19.6006 4.80151H16.4001V0.80126H19.1985V2.40076H17.5975C17.0638 2.40076 17.0638 3.2005 17.5975 3.2005H19.6006C19.8214 3.2005 19.9997 3.01909 19.9982 2.79836V0.397606C19.9978 0.292277 19.9558 0.191376 19.8813 0.116896C19.8069 0.0424167 19.706 0.000398224 19.6006 0H15.998C15.8924 -7.57506e-07 15.7911 0.0418415 15.7163 0.116364C15.6415 0.190886 15.5993 0.292016 15.5989 0.397606V8.85619C15.2565 8.94512 14.953 9.14465 14.7357 9.42378C14.5183 9.7029 14.3993 10.046 14.397 10.3997C14.397 11.2781 15.1196 11.9992 15.998 11.9992C16.8763 11.9992 17.5975 11.2781 17.5975 10.3997C17.5975 9.65896 17.085 9.03761 16.4001 8.8577V5.59672H19.6006C20.074 5.59492 20.5431 5.68691 20.9807 5.86738C21.4184 6.04784 21.816 6.31322 22.1505 6.64817C22.485 6.98313 22.7499 7.38103 22.9298 7.81891C23.1097 8.25679 23.2011 8.72597 23.1987 9.19937V16.7992H10.3997V9.19937C10.3997 7.70872 9.65745 6.39345 8.52359 5.59824H14.3985C14.9775 5.64661 14.9775 4.75162 14.3985 4.80151H6.01398C5.04642 4.8 4.15899 5.10236 3.43937 5.61638C2.98431 5.92176 3.46658 6.59905 3.9035 6.26646ZM1.11874 7.19924C0.524598 7.19924 0 7.65581 0 8.25449V14.1445C0 14.7432 0.524598 15.1997 1.11874 15.1997H8.47975C9.01946 15.2073 9.01946 14.3924 8.47975 14.3985H1.49216L4.65184 11.7226L5.33972 12.3046C5.41201 12.3657 5.5036 12.3992 5.59824 12.3992C5.69287 12.3992 5.78446 12.3657 5.85676 12.3046L6.54463 11.7241L8.13959 13.0741C8.54778 13.4188 9.06482 12.8081 8.65663 12.4634L7.16296 11.1995L8.65663 9.93562C9.06482 9.59093 8.54778 8.98016 8.13959 9.32485L5.59975 11.4762L1.49065 7.99899H7.68C8.22123 8.00655 8.22123 7.19168 7.68 7.19924H1.11874ZM0.798236 8.46161L4.03654 11.201L0.80126 13.9374L0.798236 8.46161ZM16.7977 10.3997C16.7977 10.8457 16.444 11.201 15.998 11.201C15.8925 11.2018 15.788 11.1816 15.6904 11.1417C15.5928 11.1017 15.5042 11.0427 15.4296 10.9681C15.355 10.8936 15.2961 10.8049 15.2561 10.7073C15.2161 10.6097 15.1959 10.5052 15.1967 10.3997C15.1967 9.95527 15.549 9.60302 15.998 9.59849C16.1034 9.59768 16.208 9.61786 16.3056 9.65784C16.4031 9.69782 16.4918 9.75681 16.5664 9.83138C16.6409 9.90594 16.6999 9.99459 16.7399 10.0922C16.7799 10.1897 16.8 10.2943 16.7992 10.3997H16.7977Z" fill="#AB1216"/>
</svg>
