<svg width="10" height="17" viewBox="0 0 10 17" fill="none" xmlns="http://www.w3.org/2000/svg">
<path d="M8.88889 0H1.11111C0.816426 0 0.533811 0.127933 0.325437 0.355656C0.117063 0.583379 0 0.892237 0 1.21429V15.7857C0 16.1078 0.117063 16.4166 0.325437 16.6443C0.533811 16.8721 0.816426 17 1.11111 17H8.88889C9.18357 17 9.46619 16.8721 9.67456 16.6443C9.88294 16.4166 10 16.1078 10 15.7857V1.21429C10 0.892237 9.88294 0.583379 9.67456 0.355656C9.46619 0.127933 9.18357 0 8.88889 0ZM5.55556 15.7857H4.44444V14.5714H5.55556V15.7857ZM1.11111 13.3571V1.21429H8.88889V13.3571H1.11111Z" fill="#888888"/>
</svg>
