<svg width="18" height="18" viewBox="0 0 18 18" fill="none" xmlns="http://www.w3.org/2000/svg">
<path d="M9 18C6.59602 18 4.33589 17.0639 2.63602 15.364C0.936141 13.6641 0 11.404 0 9C0 6.59602 0.936176 4.33593 2.63602 2.63602C4.33586 0.936106 6.59602 0 9 0C11.404 0 13.6641 0.936141 15.364 2.63602C17.0639 4.33589 18 6.59602 18 9C18 11.404 17.0638 13.6641 15.364 15.364C13.6641 17.0639 11.404 18 9 18ZM9 1.125C4.65771 1.125 1.125 4.65771 1.125 9C1.125 13.3423 4.65771 16.875 9 16.875C13.3423 16.875 16.875 13.3423 16.875 9C16.875 4.65771 13.3423 1.125 9 1.125Z" fill="#AB1216"/>
<path d="M6.5 10.75C6.5 11.72 7.2485 12.5 8.16667 12.5H10.0429C10.8413 12.5 11.49 11.82 11.49 10.97C11.49 10.06 11.0908 9.73 10.502 9.52L7.498 8.47C6.90918 8.26 6.50998 7.94 6.50998 7.02C6.50998 6.18 7.15868 5.49 7.95709 5.49H9.83333C10.7515 5.49 11.5 6.27 11.5 7.24M8.99501 4.5V13.5" stroke="#AB1216" stroke-linecap="round" stroke-linejoin="round"/>
</svg>
