<svg width="20" height="20" viewBox="0 0 20 20" fill="none" xmlns="http://www.w3.org/2000/svg">
<path d="M7.3 8.20156C7.77739 8.20156 8.23523 8.01192 8.57279 7.67435C8.91036 7.33679 9.1 6.87895 9.1 6.40156C9.1 5.92417 8.91036 5.46634 8.57279 5.12877C8.23523 4.7912 7.77739 4.60156 7.3 4.60156C6.82261 4.60156 6.36477 4.7912 6.02721 5.12877C5.68964 5.46634 5.5 5.92417 5.5 6.40156C5.5 6.87895 5.68964 7.33679 6.02721 7.67435C6.36477 8.01192 6.82261 8.20156 7.3 8.20156Z" stroke="#AB1216" stroke-linecap="round" stroke-linejoin="round"/>
<path d="M10.9 1H7.3C2.8 1 1 2.8 1 7.3V12.7C1 17.2 2.8 19 7.3 19H12.7C17.2 19 19 17.2 19 12.7V8.2" stroke="#AB1216" stroke-linecap="round" stroke-linejoin="round"/>
<path d="M15.3999 1V6.4M15.3999 6.4L17.1999 4.6M15.3999 6.4L13.5999 4.6M1.60291 16.255L6.03991 13.276C6.75091 12.799 7.7769 12.853 8.4159 13.402L8.7129 13.663C9.4149 14.266 10.5489 14.266 11.2509 13.663L14.9949 10.45C15.6969 9.847 16.8309 9.847 17.5329 10.45L18.9999 11.71" stroke="#AB1216" stroke-linecap="round" stroke-linejoin="round"/>
</svg>
