<svg width="23" height="23" viewBox="0 0 23 23" fill="none" xmlns="http://www.w3.org/2000/svg">
<path d="M11.5 22C17.299 22 22 17.299 22 11.5C22 5.70101 17.299 1 11.5 1C5.70101 1 1 5.70101 1 11.5C1 17.299 5.70101 22 11.5 22Z" stroke="#9B9B9B"/>
<path d="M6.77515 16.749C9.22343 14.1847 13.7505 14.064 16.2251 16.749M14.12 8.87402C14.12 10.3238 12.9431 11.499 11.4912 11.499C10.0395 11.499 8.86252 10.3238 8.86252 8.87402C8.86252 7.42428 10.0395 6.24902 11.4912 6.24902C12.9431 6.24902 14.12 7.42428 14.12 8.87402Z" stroke="#9B9B9B" stroke-linecap="round"/>
</svg>
