<svg width="24" height="17" viewBox="0 0 24 17" fill="none" xmlns="http://www.w3.org/2000/svg">
<path d="M23.982 1.70966C23.982 1.68239 24.0008 1.65586 23.9996 1.62891L16.6758 8.64455L23.9908 15.4361C23.9951 15.3876 23.982 15.3386 23.982 15.2891V1.70966Z" fill="#888888"/>
<path d="M15.558 9.72461L12.5682 12.5844C12.4169 12.7291 12.2215 12.8016 12.026 12.8016C11.8346 12.8016 11.6431 12.7322 11.4929 12.593L8.51123 9.83076L1.14844 16.8862C1.32747 16.9502 1.51963 16.9998 1.72087 16.9998H22.3312C22.6301 16.9998 22.9104 16.9093 23.154 16.7744L15.558 9.72461Z" fill="#888888"/>
<path d="M12.0165 10.9539L23.1937 0.249922C22.9406 0.100342 22.646 0 22.3303 0H1.71993C1.3088 0 0.932083 0.158702 0.638672 0.400746L12.0165 10.9539Z" fill="#888888"/>
<path d="M0 1.9707V15.2892C0 15.4421 0.0353469 15.5895 0.0737176 15.7304L7.34517 8.76908L0 1.9707Z" fill="#888888"/>
</svg>
