<svg width="21" height="21" viewBox="0 0 21 21" fill="none" xmlns="http://www.w3.org/2000/svg">
<path d="M10.5 21C16.299 21 21 16.299 21 10.5C21 4.70101 16.299 0 10.5 0C4.70101 0 0 4.70101 0 10.5C0 16.299 4.70101 21 10.5 21Z" fill="#AB1216"/>
<path d="M5.77515 15.75C8.22343 13.1857 12.7505 13.0649 15.2251 15.75H5.77515ZM13.12 7.875C13.12 9.32473 11.9431 10.5 10.4912 10.5C9.03949 10.5 7.86252 9.32473 7.86252 7.875C7.86252 6.42525 9.03949 5.25 10.4912 5.25C11.9431 5.25 13.12 6.42525 13.12 7.875Z" fill="white"/>
<path d="M5.77515 15.75C8.22343 13.1857 12.7505 13.0649 15.2251 15.75M13.12 7.875C13.12 9.32473 11.9431 10.5 10.4912 10.5C9.03949 10.5 7.86252 9.32473 7.86252 7.875C7.86252 6.42525 9.03949 5.25 10.4912 5.25C11.9431 5.25 13.12 6.42525 13.12 7.875Z" stroke="white" stroke-linecap="round"/>
</svg>
