<svg width="43" height="70" viewBox="0 0 43 70" fill="none" xmlns="http://www.w3.org/2000/svg">
<g clip-path="url(#clip0_54_4741)">
<path d="M14.6837 67.3935L20.4173 69.9086L20.762 69.9391L26.6601 67.8591V54.6006L14.9698 54.019L14.6837 54.3062V67.3935Z" fill="#E30613"/>
<path d="M23.8412 0.236422C20.516 -0.304595 14.0801 0.147944 11.3714 0.919582C8.6011 1.71153 6.35142 2.9212 4.6495 4.5544C2.93327 6.20936 1.75623 8.04563 1.15126 10.0516C0.546289 12.0576 0.197323 13.9214 0.117232 15.6083C0.0385719 17.2502 -0.00147312 20.051 -0.0043335 22.0424L0.398979 22.2716L13.4251 21.9612V19.1662C13.4251 17.6258 13.6206 16.2721 14.0115 15.1049C14.3657 13.9879 15.0484 13.0075 15.968 12.2954C16.8633 11.6036 18.0804 11.3091 19.6078 11.402L22.5569 0.635295C22.4296 0.610637 23.9685 0.258178 23.8412 0.236422Z" fill="url(#paint0_linear_54_4741)"/>
<path d="M35.7861 12.3912C35.031 10.1125 33.4249 7.7947 30.9335 5.41452C28.4421 3.03433 25.1084 1.45915 20.8149 0.657051L19.6064 11.402H19.6536C20.4594 11.5101 21.2487 11.7196 22.0034 12.0257C22.9192 12.38 23.7267 12.9728 24.3446 13.7444C25.2686 14.9027 25.764 16.3522 25.7448 17.8419C25.7319 19.0951 25.6018 20.402 24.9181 21.4811C24.2345 22.5602 23.0589 23.3333 22.0435 24.0426C20.4162 25.1493 18.9773 26.5171 17.7829 28.0922C16.6607 29.6036 15.9347 31.0333 15.6048 32.3812C15.2568 33.8567 15.0207 35.3569 14.8983 36.8689C14.7552 38.5127 14.698 39.7185 14.7266 40.4863V46.2518L14.9083 46.4752L20.8006 48.0547L26.6944 47.5108V42.1355C26.6668 39.4028 26.8022 37.4689 27.1006 36.3337C27.399 35.1985 27.7881 34.3379 28.2676 33.7519C28.7396 33.1717 29.6835 32.4001 31.088 31.4442C32.4924 30.4884 33.5651 29.4861 34.3674 28.3983C35.1697 27.3105 35.7976 25.9325 36.2753 24.2355C36.7438 22.4595 36.9652 20.6258 36.9331 18.7876C36.9179 16.7841 36.5356 14.6519 35.7861 12.3912Z" fill="url(#paint1_linear_54_4741)"/>
<path d="M32.6197 46.9524L20.8006 48.0605V40.4892C20.7711 39.7234 20.8283 38.5176 20.9722 36.8718C21.0932 35.3597 21.3294 33.8593 21.6788 32.3841C22.0048 31.04 22.7304 29.6104 23.8555 28.0951C25.0502 26.5203 26.4891 25.1526 28.116 24.0455C29.1057 23.3565 30.1898 22.6371 30.892 21.6291C31.68 20.4963 31.8045 19.1952 31.8173 17.8448C31.8353 16.3546 31.3384 14.905 30.4129 13.7473C29.7941 12.976 28.9862 12.3833 28.0703 12.0286C27.316 11.7227 26.5272 11.5132 25.7219 11.4049C24.1697 11.3004 22.9407 11.5973 22.0349 12.2954C21.1177 13.0071 20.4367 13.9858 20.0827 15.1006C19.6937 16.2687 19.4987 17.6224 19.4977 19.1618L19.4562 21.7727L19.3032 22.0511L6.06683 21.2273C6.06683 19.2286 6.10688 17.285 6.1884 15.5981C6.26992 13.9112 6.61746 12.0576 7.22242 10.0414C7.82739 8.02532 8.99872 6.19921 10.7207 4.54425C12.4183 2.91105 14.668 1.70137 17.4425 0.90943C20.1513 0.137793 23.1819 0.0391627 26.5071 0.574377C30.9835 1.35327 34.4546 2.96906 37.0046 5.40436C39.4974 7.78455 41.1035 10.1024 41.8587 12.381C42.6138 14.6597 42.9871 16.773 43.0028 18.776C43.0356 20.6142 42.8142 22.448 42.3449 24.2239C41.8682 25.918 41.2323 27.3056 40.4371 28.3867C39.6419 29.4678 38.5492 30.4831 37.1591 31.4326C35.7532 32.3885 34.8093 33.1601 34.3388 33.7403C33.8682 34.3205 33.4807 35.182 33.1832 36.3163C32.8857 37.4505 32.7541 39.3912 32.7756 42.1181V46.7508L32.6197 46.9524ZM20.7491 55.9727L32.4595 54.6006L32.7269 67.8519L20.762 69.9376L20.7491 55.9727Z" fill="#AE0F0A"/>
<path d="M28.0274 11.8763C29.0531 12.2497 29.9671 12.8839 30.6818 13.7183C31.6829 15.0063 32.1663 16.261 32.152 17.8419C32.1377 19.3997 31.9647 20.6718 31.1652 21.8191C30.4701 22.8184 29.4604 23.519 28.4822 24.1978L28.3063 24.3211C26.7081 25.4092 25.2944 26.7528 24.1201 28.2997C23.0303 29.7719 22.3166 31.1672 22.0034 32.4726C21.66 33.931 21.4267 35.4137 21.3055 36.9081C21.1625 38.5326 21.1067 39.735 21.1353 40.4834V48.0359L20.8006 48.0678L20.4645 47.9779V40.4892C20.4359 39.7263 20.4931 38.4934 20.6376 36.8413C20.7623 35.3123 21.0013 33.7952 21.3527 32.3029C21.6874 30.9206 22.4396 29.4368 23.5881 27.8906C24.8057 26.289 26.2705 24.8975 27.9258 23.7699L28.1046 23.6466C29.0328 23.0026 29.991 22.3412 30.6174 21.4376C31.3168 20.4339 31.4684 19.275 31.4755 17.8448C31.4987 16.4323 31.0286 15.057 30.1483 13.962C29.3903 12.9815 28.2176 12.3114 27.3223 11.9154C26.5629 11.5775 25.5317 11.4556 24.6164 11.4063C25.773 11.3267 26.9336 11.4866 28.0274 11.8763Z" fill="url(#paint2_linear_54_4741)"/>
<path d="M20.7563 55.9727L32.4667 54.6021L32.7341 54.8878V67.8533L21.0952 70L20.762 69.9391L20.7563 55.9727Z" fill="#AE0F0A"/>
<path d="M13.5353 23.1085L0.40332 22.2731L6.07258 21.2389L19.309 22.0613L13.5353 23.1085Z" fill="#640C00"/>
<path d="M25.8464 52.805L14.9698 54.019L20.7563 55.9727L32.4667 54.6021L25.8464 52.805Z" fill="#740E00"/>
<path d="M17.3539 0.78614C14.4935 1.44899 12.2195 2.64996 10.4961 4.30782C8.73416 6.00195 7.52708 7.90058 6.90781 9.95151C6.28854 12.0024 5.941 13.8851 5.85948 15.5908C5.77939 17.2705 5.73792 18.9849 5.73792 20.9865L6.07258 21.2374L6.40724 20.9546C6.40724 18.9646 6.44872 17.2922 6.52881 15.6242C6.6089 13.9562 6.95071 12.133 7.54996 10.1517C8.13348 8.21388 9.28049 6.41387 10.9581 4.80098C12.6014 3.21999 14.8196 2.02482 17.537 1.24738C20.1699 0.496051 23.2277 0.0507641 26.5099 0.584528C26.5085 0.584528 22.4854 -0.403226 17.3539 0.78614Z" fill="url(#paint3_linear_54_4741)"/>
<path d="M6.40723 20.9546L19.462 21.7843L19.3089 22.0613L6.07257 21.2389L6.40723 20.9546Z" fill="#881001"/>
<path d="M5.73791 20.988L0 22.0424L0.403313 22.2731L6.07257 21.2389L5.73791 20.988Z" fill="#881001"/>
<path d="M20.7992 48.062L32.6197 46.9524L32.7727 46.7682L21.1353 47.8459L20.7992 48.062Z" fill="#881001"/>
<path d="M20.7992 48.062L20.4574 47.7879L14.7266 46.2576L14.9083 46.4825L20.7992 48.062Z" fill="#881001"/>
<path d="M5.73792 20.988L6.40724 20.9546L6.07258 21.2389L5.73792 20.988Z" fill="#A01007"/>
<path d="M20.4574 47.7879L21.1353 47.8459L20.7992 48.062L20.4574 47.7879Z" fill="#AE0F0A"/>
<path d="M21.0953 70L20.4174 69.9086V56.347L20.7563 55.9727L21.0953 56.4035V70Z" fill="#EA4E61"/>
<path d="M21.0952 56.4035L32.7341 54.8878L32.4667 54.6021L20.7563 55.9727L21.0952 56.4035Z" fill="#EA4E61"/>
<path d="M20.4173 56.3469L14.6837 54.3062L14.9698 54.019L20.7563 55.9727L20.4173 56.3469Z" fill="#EF7B7C"/>
<path d="M20.7563 55.9727L20.4174 56.347L21.0953 56.4035L20.7563 55.9727Z" fill="#F29596"/>
</g>
<defs>
<linearGradient id="paint0_linear_54_4741" x1="8.02045" y1="22.2745" x2="14.1313" y2="-0.494147" gradientUnits="userSpaceOnUse">
<stop stop-color="#E30613"/>
<stop offset="0.33" stop-color="#E30613"/>
<stop offset="0.56" stop-color="#A90F09"/>
<stop offset="1" stop-color="#580900"/>
</linearGradient>
<linearGradient id="paint1_linear_54_4741" x1="25.8235" y1="48.0605" x2="25.8235" y2="5.33039" gradientUnits="userSpaceOnUse">
<stop stop-color="#E30613"/>
<stop offset="0.29" stop-color="#E30613"/>
<stop offset="0.44" stop-color="#A90F09"/>
<stop offset="1" stop-color="#580900"/>
</linearGradient>
<linearGradient id="paint2_linear_54_4741" x1="26.304" y1="48.0605" x2="26.304" y2="11.3817" gradientUnits="userSpaceOnUse">
<stop stop-color="#EE736E"/>
<stop offset="0.31" stop-color="white"/>
<stop offset="1" stop-color="#8A1002"/>
</linearGradient>
<linearGradient id="paint3_linear_54_4741" x1="16.1225" y1="21.2374" x2="16.1225" y2="0.200161" gradientUnits="userSpaceOnUse">
<stop stop-color="white"/>
<stop offset="1" stop-color="#8B0C21"/>
</linearGradient>
<clipPath id="clip0_54_4741">
<rect width="43" height="70" fill="white"/>
</clipPath>
</defs>
</svg>
