<svg width="18" height="20" viewBox="0 0 18 20" fill="none" xmlns="http://www.w3.org/2000/svg">
<path d="M1 9.1C1 5.72524 1 4.03786 1.84881 2.85496C2.12294 2.47294 2.45476 2.13698 2.83206 1.85942C4.00036 1 5.66691 1 9 1C12.3331 1 13.9996 1 15.1679 1.85942C15.5452 2.13698 15.8771 2.47294 16.1512 2.85496C17 4.03786 17 5.72524 17 9.1V10.9C17 14.2747 17 15.9621 16.1512 17.145C15.8771 17.5271 15.5452 17.863 15.1679 18.1406C13.9996 19 12.3331 19 9 19C5.66691 19 4.00036 19 2.83206 18.1406C2.45476 17.863 2.12294 17.5271 1.84881 17.145C1 15.9621 1 14.2747 1 10.9V9.1Z" stroke="#AB1216" stroke-linecap="round" stroke-linejoin="round"/>
<path d="M11.6663 7.75H4.55518M7.22184 12.25H4.55518" stroke="#AB1216" stroke-linecap="round" stroke-linejoin="round"/>
</svg>
