<svg width="14" height="19" viewBox="0 0 14 19" fill="none" xmlns="http://www.w3.org/2000/svg">
<path d="M13.0049 2.46682H10.3879V1.59739C10.3873 1.30653 10.2768 1.02776 10.0806 0.822091C9.88438 0.616424 9.61843 0.50061 9.34094 0.5H5.16016C4.88252 0.500356 4.61633 0.616057 4.41992 0.821752C4.2235 1.02745 4.11289 1.30636 4.11231 1.59739V2.46682H1.49533C1.23144 2.46713 0.978443 2.57714 0.791846 2.77273C0.60525 2.96832 0.500292 3.2335 0.5 3.51011V4.63772C0.50034 4.91431 0.605314 5.17946 0.7919 5.37504C0.978486 5.57062 1.23145 5.68065 1.49533 5.681H1.50837V17.0478C1.50876 17.4328 1.65482 17.8019 1.91452 18.0741C2.17422 18.3464 2.52634 18.4995 2.89363 18.5H11.6066C11.9738 18.4995 12.326 18.3464 12.5857 18.0741C12.8454 17.8019 12.9914 17.4328 12.9918 17.0478V5.681H13.0049C13.2687 5.68065 13.5217 5.57061 13.7082 5.37503C13.8948 5.17945 13.9997 4.91429 14 4.63772V3.51011C13.9998 3.23352 13.8948 2.96834 13.7083 2.77274C13.5217 2.57715 13.2687 2.46713 13.0049 2.46682ZM4.75516 1.59739C4.7555 1.48499 4.79831 1.37732 4.87422 1.29794C4.95012 1.21856 5.05294 1.17393 5.16016 1.17383H9.34002C9.44709 1.17419 9.54967 1.21893 9.62537 1.29828C9.70108 1.37764 9.74376 1.48516 9.7441 1.59739V2.46682H4.75516V1.59739ZM12.349 17.0478C12.3488 17.2541 12.2705 17.452 12.1313 17.5979C11.9921 17.7438 11.8034 17.8259 11.6066 17.8262H2.89363C2.69678 17.8259 2.50806 17.7438 2.36887 17.5979C2.22969 17.452 2.15142 17.2541 2.15122 17.0478V5.681H12.349V17.0478ZM13.3571 4.63772C13.3571 4.73565 13.32 4.82957 13.2539 4.89884C13.1879 4.96811 13.0983 5.00707 13.0049 5.00717H1.49533C1.40188 5.00707 1.31228 4.96811 1.2462 4.89885C1.18012 4.82958 1.14295 4.73567 1.14286 4.63772V3.51011C1.14295 3.41215 1.18012 3.31824 1.2462 3.24898C1.31228 3.17971 1.40188 3.14076 1.49533 3.14065H13.0049C13.0983 3.14076 13.1879 3.17972 13.2539 3.24899C13.32 3.31826 13.3571 3.41217 13.3571 3.51011V4.63772Z" fill="#E30000"/>
<path d="M7.24916 15.5722C7.29138 15.5722 7.33319 15.5635 7.3722 15.5466C7.41121 15.5297 7.44665 15.5049 7.4765 15.4736C7.50635 15.4423 7.53003 15.4051 7.54617 15.3642C7.56232 15.3233 7.57062 15.2795 7.57059 15.2353V8.27246C7.57059 8.18311 7.53673 8.09741 7.47645 8.03423C7.41617 7.97104 7.33441 7.93555 7.24916 7.93555C7.16391 7.93555 7.08216 7.97104 7.02188 8.03423C6.9616 8.09741 6.92773 8.18311 6.92773 8.27246V15.2353C6.92773 15.3246 6.9616 15.4103 7.02188 15.4735C7.08216 15.5367 7.16391 15.5722 7.24916 15.5722Z" fill="#E30000"/>
<path d="M10.0665 15.5712C10.1517 15.5712 10.2335 15.5357 10.2937 15.4725C10.354 15.4093 10.3879 15.3237 10.3879 15.2343V8.27149C10.3879 8.18213 10.354 8.09643 10.2937 8.03325C10.2335 7.97007 10.1517 7.93457 10.0665 7.93457C9.98121 7.93457 9.89945 7.97007 9.83917 8.03325C9.77889 8.09643 9.74503 8.18213 9.74503 8.27149V15.2343C9.74503 15.3237 9.77889 15.4093 9.83917 15.4725C9.89945 15.5357 9.98121 15.5712 10.0665 15.5712Z" fill="#E30000"/>
<path d="M4.4337 15.5712C4.51895 15.5712 4.60071 15.5357 4.66099 15.4725C4.72127 15.4093 4.75513 15.3237 4.75513 15.2343V8.27149C4.75513 8.18213 4.72127 8.09643 4.66099 8.03325C4.60071 7.97007 4.51895 7.93457 4.4337 7.93457C4.34845 7.93457 4.2667 7.97007 4.20642 8.03325C4.14614 8.09643 4.11227 8.18213 4.11227 8.27149V15.2343C4.11227 15.3237 4.14614 15.4093 4.20642 15.4725C4.2667 15.5357 4.34845 15.5712 4.4337 15.5712Z" fill="#E30000"/>
</svg>
