<svg width="18" height="15" viewBox="0 0 18 15" fill="none" xmlns="http://www.w3.org/2000/svg">
<path d="M17 7.91233C17 7.50762 16.9956 6.69104 16.987 6.28517C16.9332 3.76045 16.9063 2.49809 15.9747 1.56297C15.0431 0.627846 13.7466 0.595273 11.1536 0.530119C9.55539 0.489962 7.97296 0.489962 6.37481 0.530111C3.78177 0.595257 2.48525 0.627829 1.55367 1.56296C0.622091 2.49808 0.595176 3.76044 0.54133 6.28517C0.524019 7.09698 0.524027 7.90393 0.541339 8.71573C0.595176 11.2405 0.622099 12.5028 1.55368 13.438C2.48525 14.3731 3.78177 14.4056 6.37482 14.4708C7.03596 14.4874 7.69442 14.4971 8.35238 14.5" stroke="#AB1216" stroke-linecap="round" stroke-linejoin="round"/>
<path d="M4.64611 4.61719L7.06911 6.04973C8.4817 6.88492 9.04635 6.88492 10.459 6.04973L12.8819 4.61719" stroke="#AB1216" stroke-linecap="round" stroke-linejoin="round"/>
<path d="M17 12.0297H10.4113M17 12.0297C17 11.453 15.3575 10.3755 14.941 9.9707M17 12.0297C17 12.6063 15.3575 13.6838 14.941 14.0886" stroke="#AB1216" stroke-linecap="round" stroke-linejoin="round"/>
</svg>
