<svg width="20" height="19" viewBox="0 0 20 19" fill="none" xmlns="http://www.w3.org/2000/svg">
<path d="M9.99553 12.2C10.7113 12.2 11.3977 11.9154 11.9038 11.4088C12.4099 10.9021 12.6942 10.215 12.6942 9.49846C12.6942 8.78196 12.4099 8.0948 11.9038 7.58815C11.3977 7.08151 10.7113 6.79688 9.99553 6.79688C9.2798 6.79688 8.59339 7.08151 8.08729 7.58815C7.5812 8.0948 7.29688 8.78196 7.29688 9.49846C7.29688 10.215 7.5812 10.9021 8.08729 11.4088C8.59339 11.9154 9.2798 12.2 9.99553 12.2Z" stroke="#AB1216" stroke-miterlimit="10" stroke-linecap="round" stroke-linejoin="round"/>
<path d="M1 10.2925V8.70753C1 7.77098 1.76462 6.99653 2.70915 6.99653C4.33733 6.99653 5.003 5.84385 4.18441 4.43002C3.71664 3.61955 3.9955 2.56593 4.81409 2.09766L6.37031 1.20613C7.08096 0.782884 7.9985 1.03503 8.42129 1.74645L8.52024 1.91755C9.32983 3.33138 10.6612 3.33138 11.4798 1.91755L11.5787 1.74645C12.0015 1.03503 12.919 0.782884 13.6297 1.20613L15.1859 2.09766C16.0045 2.56593 16.2834 3.61955 15.8156 4.43002C14.997 5.84385 15.6627 6.99653 17.2909 6.99653C18.2264 6.99653 19 7.76198 19 8.70753V10.2925C19 11.229 18.2354 12.0035 17.2909 12.0035C15.6627 12.0035 14.997 13.1561 15.8156 14.57C16.2834 15.3895 16.0045 16.4341 15.1859 16.9023L13.6297 17.7939C12.919 18.2171 12.0015 17.965 11.5787 17.2536L11.4798 17.0825C10.6702 15.6686 9.33883 15.6686 8.52024 17.0825L8.42129 17.2536C7.9985 17.965 7.08096 18.2171 6.37031 17.7939L4.81409 16.9023C4.42198 16.6763 4.13546 16.3038 4.0174 15.8665C3.89935 15.4293 3.95941 14.963 4.18441 14.57C5.003 13.1561 4.33733 12.0035 2.70915 12.0035C1.76462 12.0035 1 11.229 1 10.2925Z" stroke="#AB1216" stroke-miterlimit="10" stroke-linecap="round" stroke-linejoin="round"/>
</svg>
