<svg width="20" height="15" viewBox="0 0 20 15" fill="none" xmlns="http://www.w3.org/2000/svg">
<path d="M1.60223 14.1807C2.93542 12.6866 6.29678 9.62375 11.0788 9.23835C11.6293 9.19398 12.0779 9.64592 12.0779 10.1982V11.0648C12.0779 11.9681 13.1806 12.4084 13.8028 11.7537L18.3454 6.97327C18.7122 6.58728 18.7122 5.98157 18.3454 5.59558L13.8028 0.815199C13.1806 0.160425 12.0779 0.600795 12.0779 1.50405V2.37066C12.0779 2.92294 11.6291 3.3656 11.0818 3.43976C6.69935 4.03359 1.60601 8.38767 1.0026 13.8912C0.993608 13.9679 1.00806 14.0457 1.04386 14.1132C1.07967 14.1808 1.13497 14.2346 1.20176 14.2668C1.26855 14.2991 1.34336 14.3081 1.41535 14.2926C1.48735 14.2772 1.5528 14.238 1.60223 14.1807Z" stroke="#AB1216" stroke-linecap="round" stroke-linejoin="round"/>
</svg>
