<svg width="130" height="120" viewBox="0 0 130 120" fill="none" xmlns="http://www.w3.org/2000/svg">
<path d="M126.605 47.2702L106.763 12.7258C104.541 8.85645 101.344 5.64341 97.4947 3.40958C93.6455 1.17576 89.2793 -0.000155378 84.8349 1.5399e-08H45.164C40.7195 -8.15052e-06 36.3532 1.17595 32.5038 3.40975C28.6544 5.64355 25.4576 8.85651 23.2344 12.7258L3.3927 47.2702C1.17012 51.1405 0 55.5309 0 60C0 64.4691 1.17012 68.8595 3.3927 72.7299L23.2344 107.274C25.4574 111.144 28.6542 114.357 32.5036 116.591C36.353 118.824 40.7194 120 45.164 120H84.8394C89.284 120.001 93.6505 118.825 97.4998 116.591C101.349 114.357 104.546 111.144 106.768 107.274L126.61 72.7299C128.832 68.8591 130.001 64.4685 130 59.9994C129.999 55.5303 128.828 51.1401 126.605 47.2702ZM93.9917 57.7673V79.2751C93.9917 83.988 92.1295 88.508 88.8148 91.8406C85.5001 95.1731 81.0044 97.0454 76.3166 97.0454H57.5811C54.5416 97.0445 51.5539 96.2542 48.9075 94.7512C46.2611 93.2481 44.0458 91.0832 42.4762 88.4663L42.3622 88.5248L28.8403 61.6343C27.749 59.456 28.7068 56.7366 30.9704 55.5901C33.2339 54.4436 35.9775 55.2863 37.0688 57.4657L41.288 65.8659C42.0783 67.4377 44.4376 66.8725 44.4376 65.1104V31.1439C44.4376 28.6732 46.5096 26.652 49.0445 26.652C51.5795 26.652 53.6515 28.6732 53.6515 31.1439V55.4055C53.6515 55.9671 53.8725 56.5058 54.2663 56.9041C54.6601 57.3023 55.1946 57.5277 55.7531 57.5311C56.0318 57.5327 56.3082 57.479 56.5662 57.3729C56.8242 57.2669 57.0588 57.1106 57.2566 56.9131C57.4543 56.7155 57.6113 56.4807 57.7184 56.2219C57.8256 55.9632 57.8808 55.6858 57.881 55.4055V27.4408C57.881 24.9701 59.9552 22.9501 62.4879 22.9501C65.0206 22.9501 67.096 24.9701 67.096 27.4408V55.4881C67.0894 55.7714 67.1392 56.0532 67.2426 56.317C67.3459 56.5807 67.5007 56.8209 67.6977 57.0237C67.8947 57.2264 68.13 57.3875 68.3899 57.4975C68.6497 57.6075 68.9288 57.6641 69.2107 57.6641C69.4926 57.6641 69.7717 57.6075 70.0315 57.4975C70.2914 57.3875 70.5267 57.2264 70.7237 57.0237C70.9207 56.8209 71.0754 56.5807 71.1788 56.317C71.2821 56.0532 71.332 55.7714 71.3254 55.4881V31.1439C71.3254 28.6732 73.3997 26.652 75.9335 26.652C78.4673 26.652 80.5404 28.6732 80.5404 31.1439V55.5706C80.5404 56.1325 80.7615 56.6715 81.1555 57.07C81.5495 57.4685 82.0843 57.694 82.6432 57.6973C82.9221 57.6991 83.1987 57.6455 83.4569 57.5394C83.7151 57.4333 83.9499 57.277 84.1478 57.0793C84.3456 56.8816 84.5027 56.6466 84.6098 56.3876C84.717 56.1287 84.7722 55.8511 84.7722 55.5706V37.5928C84.7722 35.2093 86.8441 33.2591 89.378 33.2591C91.9118 33.2591 93.9849 35.2081 93.9849 37.5928L93.9917 57.7673Z" fill="#D93529"/>
</svg>
