<svg width="22" height="26" viewBox="0 0 22 26" fill="none" xmlns="http://www.w3.org/2000/svg">
<g clip-path="url(#clip0_118_3073)">
<path d="M9.62077 4.74999C9.2257 4.42361 8.96358 3.97081 8.88164 3.4732C8.79971 2.97559 8.90335 2.4659 9.1739 2.03599C9.44444 1.60608 9.86408 1.28423 10.3572 1.12845C10.8503 0.972672 11.3845 0.993205 11.8634 1.18635C12.2523 1.3638 12.5806 1.64609 12.8092 1.99964C13.0378 2.3532 13.1571 2.76313 13.1529 3.18068C13.1509 3.48831 13.0819 3.79205 12.9505 4.07192C12.8191 4.35179 12.6282 4.60145 12.3904 4.80448C11.9892 5.09817 11.4981 5.25243 10.9959 5.24255C10.4937 5.23267 10.0095 5.05922 9.62077 4.74999Z" stroke="#AB1216"/>
<path d="M10.7421 8.43359C8.39856 8.43359 6.09989 8.43359 3.86849 8.53168C3.01539 8.63714 2.22455 9.02145 1.62588 9.62147C1.2516 9.98331 0.964079 10.421 0.783824 10.9032C0.603569 11.3854 0.535021 11.9004 0.58307 12.4114C0.689107 13.2007 1.0878 13.9253 1.70437 14.4493C2.27507 14.8949 2.97976 15.1475 3.71151 15.1686C6.87359 15.3102 10.2151 15.3538 13.7023 15.2775C15.4852 15.2775 17.2232 15.1686 18.9052 15.0705C19.3991 14.9884 19.8649 14.7901 20.262 14.4929C20.7167 14.1241 21.0608 13.6431 21.2581 13.1004C21.4554 12.5577 21.4986 11.9733 21.3833 11.4087C21.2202 10.6916 20.8277 10.043 20.262 9.55609C19.7412 9.10471 19.1131 8.78637 18.4342 8.62976C15.9599 8.50625 13.3958 8.44086 10.7421 8.43359Z" stroke="#AB1216"/>
<path d="M11 15.4956V24.6172" stroke="#AB1216"/>
<path d="M14.9133 11.9543L7.20996 11.8994" stroke="#AB1216" stroke-linecap="round"/>
<path d="M6.43628 24.9004L15.631 24.9651" stroke="#AB1216" stroke-linecap="round"/>
<path d="M11 5.24072V8.24857" stroke="#AB1216"/>
</g>
<defs>
<clipPath id="clip0_118_3073">
<rect width="22" height="25" fill="white" transform="translate(0 0.5)"/>
</clipPath>
</defs>
</svg>
