<svg width="48" height="48" viewBox="0 0 48 48" fill="none" xmlns="http://www.w3.org/2000/svg">
<rect width="48" height="48" rx="4" fill="#2AACDF"/>
<g clip-path="url(#clip0_156_10450)">
<path d="M32.485 32.4853C37.1713 27.799 37.1713 20.201 32.485 15.5147C27.7988 10.8284 20.2008 10.8284 15.5145 15.5147C10.8282 20.201 10.8282 27.799 15.5145 32.4853C20.2008 37.1716 27.7988 37.1716 32.485 32.4853Z" fill="url(#paint0_linear_156_10450)"/>
<path d="M29.839 18.9031L27.6956 29.7093C27.6956 29.7093 27.3961 30.4589 26.5715 30.0992L21.6254 26.3073L19.8269 25.4377L16.7994 24.4189C16.7994 24.4189 16.335 24.2538 16.29 23.8941C16.245 23.5344 16.8143 23.3397 16.8143 23.3397L28.8498 18.6185C28.8498 18.6185 29.839 18.1837 29.839 18.9031Z" fill="white"/>
<path d="M21.2455 29.587C21.2455 29.587 21.1012 29.573 20.9213 29.0024C20.7415 28.4319 19.8269 25.435 19.8269 25.435L27.0962 20.8203C27.0962 20.8203 27.5157 20.5654 27.5009 20.8203C27.5009 20.8203 27.576 20.8653 27.3512 21.0748C27.1263 21.2844 21.6407 26.216 21.6407 26.216" fill="#D3E6F2"/>
<path d="M23.522 27.7595L21.5656 29.5432C21.5656 29.5432 21.4127 29.6592 21.2455 29.5882L21.6223 26.2734" fill="#B6D0E5"/>
</g>
<defs>
<linearGradient id="paint0_linear_156_10450" x1="23.9996" y1="11.9999" x2="23.9996" y2="35.9126" gradientUnits="userSpaceOnUse">
<stop stop-color="#42BDE9"/>
<stop offset="1" stop-color="#23A8DD"/>
</linearGradient>
<clipPath id="clip0_156_10450">
<rect width="24" height="24" fill="white" transform="translate(12 12)"/>
</clipPath>
</defs>
</svg>
