<svg width="18" height="18" viewBox="0 0 18 18" fill="none" xmlns="http://www.w3.org/2000/svg">
<path d="M17.8147 13.7893L14.9993 10.9735L15.5549 10.5698C15.8196 10.3782 16.0167 10.1074 16.1177 9.79662C16.2187 9.4858 16.2184 9.15094 16.1168 8.8403L15.7374 7.67263C15.6973 7.55006 15.6973 7.41791 15.7374 7.29534L16.1168 6.12762C16.2184 5.81699 16.2187 5.48213 16.1177 5.17131C16.0167 4.8605 15.8196 4.58978 15.5549 4.39818L14.5616 3.67643C14.4571 3.60087 14.3794 3.49394 14.3398 3.3712L13.9604 2.20347C13.86 1.89248 13.6634 1.6214 13.399 1.4293C13.1346 1.23721 12.8161 1.13401 12.4893 1.13459H11.2614C11.1316 1.13459 11.0075 1.09428 10.9026 1.01801L9.90926 0.296302C9.6452 0.10375 9.32682 0 9.00001 0C8.6732 0 8.35483 0.10375 8.09076 0.296302L7.0974 1.01805C6.99324 1.09406 6.86756 1.1349 6.73861 1.13464H5.51077C5.18396 1.13405 4.86539 1.23724 4.601 1.42934C4.3366 1.62143 4.14002 1.89252 4.0396 2.20352L3.66016 3.37129C3.62053 3.49399 3.54286 3.60088 3.43841 3.67647L2.4451 4.39818C2.18036 4.58979 1.98329 4.86051 1.8823 5.17132C1.7813 5.48213 1.7816 5.81698 1.88315 6.12762L2.26259 7.29534C2.30267 7.41789 2.30267 7.55003 2.26259 7.67258L1.88315 8.84035C1.78159 9.15098 1.78129 9.48583 1.88229 9.79665C1.98328 10.1075 2.18035 10.3782 2.4451 10.5698L3.00073 10.9735L0.185312 13.7893C0.130321 13.8443 0.0898998 13.9121 0.0676982 13.9867C0.0454965 14.0612 0.0422144 14.1401 0.0581483 14.2162C0.0740822 14.2924 0.10873 14.3633 0.158962 14.4227C0.209195 14.4821 0.273429 14.528 0.345862 14.5563L2.6071 15.4411L3.49183 17.7023C3.52017 17.7748 3.56611 17.839 3.62549 17.8892C3.68488 17.9395 3.75585 17.9741 3.83199 17.99C3.90812 18.006 3.98703 18.0027 4.06157 17.9805C4.13612 17.9583 4.20395 17.9178 4.25895 17.8628L7.71999 14.4022L8.09076 14.6716C8.35486 14.8641 8.6732 14.9678 8.99999 14.9679C9.32678 14.9678 9.64513 14.8641 9.90921 14.6716L10.28 14.4022L13.7411 17.8628C13.7961 17.9178 13.8639 17.9583 13.9385 17.9805C14.013 18.0027 14.0919 18.006 14.1681 17.9901C14.2442 17.9741 14.3152 17.9395 14.3746 17.8893C14.4339 17.839 14.4799 17.7748 14.5082 17.7023L15.3929 15.4411L17.6542 14.5563C17.7266 14.528 17.7908 14.4821 17.841 14.4227C17.8912 14.3633 17.9259 14.2924 17.9418 14.2162C17.9577 14.1401 17.9545 14.0612 17.9323 13.9867C17.9101 13.9122 17.8696 13.8443 17.8147 13.7893ZM4.10304 16.6945L3.40451 14.9091C3.38098 14.849 3.34524 14.7943 3.29956 14.7487C3.25388 14.703 3.19924 14.6672 3.13908 14.6437L1.35374 13.9452L3.67041 11.6281L4.03964 12.7644C4.14006 13.0755 4.33664 13.3465 4.60104 13.5386C4.86544 13.7307 5.184 13.8339 5.51082 13.8333H6.73866C6.80552 13.8333 6.87083 13.8442 6.93283 13.865L4.10304 16.6945ZM8.64115 13.9141L7.64783 13.1923C7.38386 12.9997 7.06541 12.8963 6.73866 12.8969H5.51082C5.38185 12.8971 5.25613 12.8564 5.15179 12.7806C5.04746 12.7048 4.96989 12.5978 4.93028 12.4751L4.55084 11.3074C4.45378 11.0086 4.27127 10.7519 4.02321 10.561C4.01473 10.5538 4.00598 10.5469 3.99699 10.5403C3.99423 10.5383 3.9917 10.536 3.98889 10.534L2.99557 9.81222C2.8911 9.7366 2.81334 9.62977 2.77349 9.50712C2.73364 9.38447 2.73376 9.25233 2.77383 9.12975L3.15327 7.96203C3.25487 7.65146 3.25487 7.3166 3.15327 7.00603L2.77383 5.83835C2.73376 5.71576 2.73364 5.58361 2.77349 5.46094C2.81334 5.33828 2.8911 5.23143 2.99557 5.15579L3.98889 4.43409C4.25365 4.24257 4.45049 3.97167 4.55084 3.66069L4.93028 2.49297C4.9699 2.37024 5.04747 2.26326 5.1518 2.18745C5.25614 2.11164 5.38185 2.07092 5.51082 2.07116H6.73866C7.06543 2.07182 7.38391 1.96834 7.64788 1.77571L8.64115 1.05406C8.74536 0.978054 8.87101 0.937101 8.99999 0.937101C9.12897 0.937101 9.25462 0.978054 9.35883 1.05406L10.3521 1.77581C10.6161 1.96842 10.9346 2.07191 11.2614 2.07125H12.4893C12.6182 2.07103 12.7439 2.11176 12.8482 2.18757C12.9526 2.26337 13.0301 2.37034 13.0697 2.49306L13.4492 3.66074C13.5495 3.97175 13.7463 4.24268 14.0111 4.43418L15.0045 5.15593C15.109 5.23156 15.1867 5.33841 15.2266 5.46106C15.2664 5.58372 15.2663 5.71587 15.2262 5.83845L14.8468 7.00622C14.7452 7.31678 14.7452 7.65161 14.8468 7.96217L15.2262 9.12989C15.2663 9.25248 15.2664 9.38463 15.2265 9.50729C15.1867 9.62995 15.1089 9.73679 15.0044 9.81241L14.0112 10.5341C14.0077 10.5366 14.0046 10.5394 14.0011 10.542C13.9932 10.5479 13.9854 10.5539 13.9777 10.5604C13.7292 10.7514 13.5464 11.0083 13.4492 11.3075L13.0697 12.4752C13.0301 12.598 12.9526 12.7049 12.8482 12.7807C12.7439 12.8565 12.6182 12.8973 12.4893 12.897H11.2614C10.9346 12.8964 10.6161 12.9999 10.3521 13.1925L9.35887 13.9141C9.25463 13.9901 9.12897 14.031 9 14.031C8.87102 14.031 8.74537 13.99 8.64115 13.9141ZM14.8609 14.6437C14.8008 14.6673 14.7461 14.703 14.7005 14.7487C14.6548 14.7944 14.6191 14.849 14.5955 14.9091L13.897 16.6945L11.0671 13.8651C11.1297 13.844 11.1953 13.8333 11.2613 13.8334H12.4892C12.816 13.834 13.1346 13.7308 13.3989 13.5387C13.6633 13.3466 13.8599 13.0755 13.9603 12.7645L14.3296 11.6281L16.6463 13.9452L14.8609 14.6437Z" fill="#AB1216"/>
<path d="M11.1653 10.9564C11.2335 10.9564 11.3009 10.9415 11.3627 10.9127C11.4245 10.884 11.4794 10.8421 11.5233 10.79C11.5673 10.7378 11.5993 10.6767 11.6172 10.6109C11.6351 10.5451 11.6384 10.4762 11.6269 10.409L11.2549 8.2404L12.8305 6.70457C12.8931 6.64359 12.9373 6.56632 12.9583 6.4815C12.9792 6.39668 12.976 6.30769 12.949 6.2246C12.922 6.14151 12.8723 6.06763 12.8055 6.01132C12.7387 5.955 12.6575 5.9185 12.571 5.90594L10.3936 5.58952L9.41981 3.61642C9.38114 3.53809 9.32132 3.47214 9.24712 3.42602C9.17292 3.37991 9.0873 3.35547 8.99994 3.35547C8.91258 3.35547 8.82696 3.37991 8.75277 3.42602C8.67857 3.47214 8.61875 3.53809 8.58007 3.61642L7.60633 5.58952L5.4289 5.90594C5.34246 5.91852 5.26125 5.95503 5.19447 6.01134C5.12769 6.06766 5.07799 6.14154 5.05099 6.22462C5.024 6.3077 5.02078 6.39668 5.04171 6.48149C5.06264 6.56631 5.10688 6.64358 5.16942 6.70457L6.745 8.2404L6.37306 10.409C6.35831 10.4951 6.36794 10.5836 6.40086 10.6646C6.43378 10.7455 6.48868 10.8156 6.55935 10.8669C6.63002 10.9183 6.71364 10.9488 6.80077 10.9551C6.8879 10.9614 6.97505 10.9432 7.05239 10.9026L8.99992 9.87873L10.9475 10.9026C11.0147 10.9379 11.0894 10.9564 11.1653 10.9564ZM9.21778 8.93532C9.15059 8.90001 9.07582 8.88156 8.99992 8.88156C8.92402 8.88156 8.84925 8.90001 8.78206 8.93532L7.45636 9.63231L7.70957 8.15608C7.72241 8.08125 7.71686 8.00443 7.6934 7.93222C7.66994 7.86002 7.62928 7.7946 7.57491 7.74161L6.50242 6.69619L7.9846 6.48076C8.05972 6.46985 8.13106 6.44084 8.19247 6.39622C8.25389 6.3516 8.30353 6.29272 8.33712 6.22465L8.99992 4.88163L9.66272 6.2247C9.69632 6.29276 9.74596 6.35164 9.80737 6.39626C9.86878 6.44088 9.94012 6.46989 10.0152 6.48081L11.4975 6.69623L10.4249 7.74166C10.3706 7.79466 10.3299 7.86007 10.3065 7.93228C10.283 8.00448 10.2774 8.0813 10.2903 8.15612L10.5435 9.63235L9.21778 8.93532Z" fill="#AB1216"/>
</svg>
