<svg width="40" height="46" viewBox="0 0 40 46" fill="none" xmlns="http://www.w3.org/2000/svg">
<path d="M39 8.41992H1" stroke="#1E2C35" stroke-linecap="round"/>
<path d="M35.8332 10.0117L34.5249 31.2703C34.1905 36.7016 34.0235 39.4173 32.6682 41.3699C31.9979 42.3352 31.1353 43.1499 30.1346 43.7621C28.1109 45.0005 25.4022 45.0005 19.9844 45.0005C14.5598 45.0005 11.8474 45.0005 9.82228 43.7598C8.82108 43.1465 7.95806 42.3303 7.28816 41.3634C5.93325 39.4078 5.76979 36.6882 5.4429 31.2493L4.1665 10.0117" fill="#AB1216"/>
<path d="M35.8332 10.0117L34.5249 31.2703C34.1905 36.7016 34.0235 39.4173 32.6682 41.3699C31.9979 42.3352 31.1353 43.1499 30.1346 43.7621C28.1109 45.0005 25.4022 45.0005 19.9844 45.0005C14.5598 45.0005 11.8474 45.0005 9.82228 43.7598C8.82108 43.1465 7.95806 42.3303 7.28816 41.3634C5.93325 39.4078 5.76979 36.6882 5.4429 31.2493L4.1665 10.0117" stroke="#AB1216" stroke-width="1.5" stroke-linecap="round"/>
<path d="M28.566 8.42186L27.1247 5.43558C26.1673 3.45189 25.6887 2.46003 24.8631 1.84145C24.6798 1.70423 24.486 1.58217 24.2832 1.47648C23.3688 1 22.2715 1 20.0768 1C17.827 1 16.7019 1 15.7725 1.49646C15.5665 1.60649 15.3699 1.73349 15.1848 1.87614C14.3495 2.51979 13.883 3.54792 12.9498 5.60423L11.6711 8.42186" stroke="#1E2C35" stroke-linecap="round"/>
</svg>
