<svg width="29" height="24" viewBox="0 0 29 24" fill="none" xmlns="http://www.w3.org/2000/svg">
<path d="M28.1923 3.41365C27.1625 3.86538 26.0652 4.16481 24.9212 4.31019C26.0981 3.6075 26.9963 2.50327 27.4187 1.17231C26.3213 1.82654 25.1098 2.28865 23.8187 2.54654C22.7767 1.43712 21.2917 0.75 19.6717 0.75C16.5287 0.75 13.9983 3.30115 13.9983 6.42865C13.9983 6.87865 14.0363 7.31135 14.1298 7.72327C9.41 7.49308 5.23365 5.23096 2.42808 1.785C1.93827 2.63481 1.65096 3.6075 1.65096 4.65462C1.65096 6.62077 2.66346 8.36365 4.17269 9.37269C3.26058 9.35538 2.36577 9.09058 1.60769 8.67346C1.60769 8.69077 1.60769 8.71327 1.60769 8.73577C1.60769 11.4946 3.57558 13.7862 6.15615 14.314C5.69404 14.4404 5.19038 14.501 4.66769 14.501C4.30423 14.501 3.93731 14.4802 3.59288 14.404C4.32846 16.6523 6.41577 18.3052 8.89769 18.3588C6.96615 19.8698 4.51365 20.7802 1.85865 20.7802C1.39308 20.7802 0.946538 20.7594 0.5 20.7023C3.01481 22.324 5.99519 23.25 9.20923 23.25C19.6562 23.25 25.3677 14.5962 25.3677 7.095C25.3677 6.84404 25.359 6.60173 25.3469 6.36115C26.4737 5.56154 27.4204 4.56288 28.1923 3.41365Z" fill="#03A9F4"/>
</svg>
