<svg width="48" height="48" viewBox="0 0 48 48" fill="none" xmlns="http://www.w3.org/2000/svg">
<path d="M44.2105 0H3.78947C1.69661 0 0 1.69661 0 3.78947V44.2105C0 46.3034 1.69661 48 3.78947 48H44.2105C46.3034 48 48 46.3034 48 44.2105V3.78947C48 1.69661 46.3034 0 44.2105 0Z" fill="#03A9F4"/>
<path d="M39 14.8429C37.909 15.328 36.7549 15.6503 35.5735 15.7998C36.8189 15.0479 37.7499 13.8566 38.1898 12.4521C37.0241 13.1566 35.7486 13.6527 34.4186 13.919C33.6035 13.0315 32.545 12.4143 31.3808 12.1476C30.2166 11.8809 29.0004 11.9771 27.8906 12.4237C26.7808 12.8702 25.8286 13.6465 25.158 14.6514C24.4873 15.6564 24.1292 16.8436 24.1302 18.0586C24.1261 18.5223 24.1725 18.9851 24.2687 19.4385C21.9028 19.3201 19.588 18.695 17.4755 17.6038C15.3631 16.5127 13.5004 14.98 12.0093 13.1061C11.2429 14.4392 11.0055 16.02 11.3455 17.5253C11.6856 19.0307 12.5775 20.3471 13.839 21.2053C12.8974 21.1794 11.9758 20.9233 11.152 20.4584V20.5244C11.1546 21.9217 11.6297 23.2755 12.4973 24.3582C13.3649 25.441 14.5721 26.1866 15.9161 26.4698C15.4075 26.6058 14.8834 26.6724 14.3575 26.6678C13.9789 26.6749 13.6006 26.6407 13.2291 26.5658C13.6141 27.7675 14.3554 28.8183 15.351 29.5735C16.3466 30.3288 17.5475 30.7515 18.7887 30.7834C16.6854 32.4572 14.0926 33.3663 11.423 33.3661C10.9474 33.3702 10.472 33.3422 10 33.2821C12.722 35.0689 15.8948 36.013 19.1334 35.9999C30.0787 35.9999 36.0626 26.7698 36.0626 18.7695C36.0626 18.5025 36.0626 18.2446 36.042 17.9866C37.2073 17.1303 38.2097 16.065 39 14.8429Z" fill="white"/>
</svg>
