<svg width="22" height="22" viewBox="0 0 22 22" fill="none" xmlns="http://www.w3.org/2000/svg">
<path d="M1.79047 8.85547V13.9157C1.79047 16.7781 1.79047 18.2094 2.68961 19.0987C3.58876 19.9879 5.03592 19.9879 7.93023 19.9879H11.5118M20.2098 8.85547V10.3735" stroke="#AB1216" stroke-linecap="round"/>
<path d="M8.60175 8.11978C8.30396 7.82148 7.81803 7.81841 7.51642 8.11294C7.21479 8.40746 7.21169 8.88806 7.50949 9.18631L8.60175 8.11978ZM14.4907 8.11922C14.1929 7.82084 13.707 7.81766 13.4053 8.11212C13.1036 8.40657 13.1004 8.88715 13.3981 9.1855L14.4907 8.11922ZM9.84644 7.02173C9.95276 6.61595 9.70635 6.20172 9.29611 6.09654C8.88577 5.99135 8.46694 6.23504 8.36059 6.64084L9.84644 7.02173ZM15.7345 7.02173C15.8408 6.61595 15.5945 6.20172 15.1841 6.09654C14.7738 5.99135 14.355 6.23504 14.2486 6.64084L15.7345 7.02173ZM0.969726 3.2945L0.270079 5.44432L1.73119 5.90944L2.43085 3.75962L0.969726 3.2945ZM19.5692 3.75962L20.2688 5.90944L21.73 5.44432L21.0302 3.2945L19.5692 3.75962ZM5.44987 1.51807H16.5501V2.28623e-06H5.44987V1.51807ZM10.9993 9.10838C10.059 9.10838 9.21107 8.73009 8.60175 8.11978L7.50949 9.18631C8.39647 10.0749 9.63349 10.6264 10.9993 10.6264V9.10838ZM16.8887 9.10838C15.9481 9.10838 15.0999 8.72986 14.4907 8.11922L13.3981 9.1855C14.2852 10.0745 15.5225 10.6264 16.8887 10.6264V9.10838ZM5.11124 9.10838C3.84831 9.10838 2.47624 8.43237 1.77329 7.4698L0.528962 8.35863C1.53604 9.73767 3.38262 10.6264 5.11124 10.6264V9.10838ZM8.36059 6.64084C7.98942 8.05703 6.67712 9.10838 5.11124 9.10838V10.6264C7.38687 10.6264 9.30235 9.09755 9.84644 7.02173L8.36059 6.64084ZM14.2486 6.64084C13.8775 8.05703 12.5652 9.10838 10.9993 9.10838V10.6264C13.2749 10.6264 15.1905 9.09755 15.7345 7.02173L14.2486 6.64084ZM20.2267 7.4698C19.5237 8.43237 18.1517 9.10838 16.8887 9.10838V10.6264C18.6174 10.6264 20.4639 9.73767 21.4711 8.35863L20.2267 7.4698ZM20.2688 5.90944C20.4603 6.49772 20.4938 6.63028 20.4476 6.92341L21.9641 7.15748C22.0729 6.46847 21.9171 6.01937 21.73 5.44432L20.2688 5.90944ZM21.4711 8.35863C21.5577 8.23994 21.6757 8.08266 21.7695 7.87416C21.8643 7.66311 21.9203 7.43521 21.9641 7.15748L20.4476 6.92341C20.4139 7.13676 20.3845 7.21818 20.3668 7.25747C20.3481 7.2993 20.3263 7.33335 20.2267 7.4698L21.4711 8.35863ZM21.0302 3.2945C20.8182 2.64282 20.6409 2.09449 20.4459 1.66535C20.2437 1.21997 19.9918 0.83012 19.5891 0.532832L18.6709 1.74936C18.7857 1.83414 18.9014 1.96929 19.0459 2.2874C19.1977 2.62174 19.3465 3.07537 19.5692 3.75962L21.0302 3.2945ZM16.5501 1.51807C17.2559 1.51807 17.7184 1.51929 18.0715 1.56057C18.4031 1.59936 18.5584 1.66625 18.6709 1.74936L19.5891 0.532832C19.1841 0.233885 18.7368 0.109738 18.2517 0.053013C17.7878 -0.00122232 17.2193 2.28623e-06 16.5501 2.28623e-06V1.51807ZM0.270079 5.44432C0.0829287 6.01937 -0.0728372 6.46847 0.0358776 7.15748L1.55246 6.92341C1.50621 6.63027 1.53974 6.49772 1.73119 5.90944L0.270079 5.44432ZM1.77329 7.4698C1.67365 7.33335 1.65194 7.2993 1.63313 7.25747C1.61548 7.21818 1.58613 7.13676 1.55246 6.92341L0.0358776 7.15748C0.0797053 7.43521 0.135679 7.66311 0.230549 7.87416C0.324273 8.08266 0.442289 8.23994 0.528962 8.35863L1.77329 7.4698ZM2.43085 3.75962C2.65354 3.07537 2.80233 2.62174 2.95419 2.2874C3.09867 1.96929 3.21424 1.83414 3.32907 1.74936L2.41092 0.532832C2.00822 0.83012 1.75631 1.21997 1.55403 1.66535C1.35911 2.09449 1.18181 2.64282 0.969726 3.2945L2.43085 3.75962ZM5.44987 2.28623e-06C4.78072 2.28623e-06 4.21214 -0.00122232 3.74832 0.053013C3.2632 0.109738 2.81587 0.233885 2.41092 0.532832L3.32907 1.74936C3.44167 1.66625 3.59683 1.59936 3.92854 1.56057C4.28155 1.51929 4.74414 1.51807 5.44987 1.51807V2.28623e-06Z" fill="#AB1216"/>
<path d="M20.2095 8.85547V11.3856" stroke="#AB1216" stroke-linecap="round"/>
<path d="M14.0698 17.4577H21.2328M17.6513 20.9998V13.9155" stroke="#AB1216" stroke-linecap="round"/>
<path d="M5.88354 15.9395H9.97672" stroke="#AB1216" stroke-linecap="round"/>
</svg>
