<svg width="18" height="18" viewBox="0 0 18 18" fill="none" xmlns="http://www.w3.org/2000/svg">
<path d="M0 18L1.24137 13.5C0.434496 12.1035 0 10.5517 0 8.93791C0 4.0345 4.0345 0 8.96896 0C13.9034 0 18 4.0345 18 8.93791C18 13.8413 13.9035 18 8.96896 18C7.41723 18 5.92759 17.5035 4.59309 16.7586L0 18Z" fill="white"/>
<path d="M4.84091 15.1458L5.12023 15.301C6.2685 16.0148 7.603 16.4493 8.99954 16.4493C13.065 16.4493 16.4478 13.0665 16.4478 8.93892C16.4478 4.81133 13.065 1.55273 8.9685 1.55273C4.87195 1.55273 1.55127 4.84238 1.55127 8.93892C1.55127 10.3665 1.95472 11.7631 2.69954 12.9424L2.88577 13.2217L2.17199 15.8286L4.84091 15.1458Z" fill="#39AE41"/>
<path d="M6.57927 4.78104L5.98962 4.75C5.8034 4.75 5.61721 4.81209 5.49308 4.93622C5.21376 5.1845 4.74826 5.65 4.62412 6.27072C4.40689 7.20176 4.74826 8.31899 5.55516 9.43621C6.36207 10.5534 7.9138 12.3534 10.6448 13.1293C11.5138 13.3776 12.1965 13.2224 12.7552 12.881C13.1897 12.6017 13.469 12.1673 13.5621 11.7017L13.6552 11.2672C13.6862 11.1431 13.6241 10.9879 13.5 10.9259L11.5448 10.0259C11.4207 9.96377 11.2655 9.99481 11.1724 10.1189L10.3965 11.112C10.3345 11.1741 10.2414 11.2051 10.1483 11.1741C9.62067 10.9879 7.85171 10.2431 6.88963 8.38104C6.85858 8.28794 6.85858 8.19481 6.92067 8.13276L7.66549 7.29485C7.72758 7.20176 7.75858 7.07762 7.72758 6.98449L6.82757 4.96727C6.7965 4.87414 6.7034 4.78104 6.57927 4.78104Z" fill="#FEFEFE"/>
</svg>
