<svg width="48" height="48" viewBox="0 0 48 48" fill="none" xmlns="http://www.w3.org/2000/svg">
<rect width="48" height="48" rx="4" fill="#55CD6C"/>
<path d="M12 36L13.6552 30C12.5793 28.1379 12 26.069 12 23.9172C12 17.3793 17.3793 12 23.9586 12C30.5379 12 36 17.3793 36 23.9172C36 30.4551 30.5379 36 23.9586 36C21.8896 36 19.9035 35.3379 18.1241 34.3448L12 36Z" fill="#EDEDED"/>
<path d="M18.455 32.1944L18.8275 32.4013C20.3585 33.353 22.1378 33.9324 23.9999 33.9324C29.4206 33.9324 33.9309 29.422 33.9309 23.9186C33.9309 18.4151 29.4206 14.0703 23.9585 14.0703C18.4964 14.0703 14.0688 18.4565 14.0688 23.9186C14.0688 25.822 14.6068 27.6841 15.5999 29.2565L15.8482 29.6289L14.8965 33.1048L18.455 32.1944Z" fill="#55CD6C"/>
<path d="M20.7724 18.3734L19.9862 18.332C19.7379 18.332 19.4896 18.4148 19.3241 18.5803C18.9517 18.9114 18.331 19.532 18.1655 20.3597C17.8759 21.601 18.331 23.0907 19.4069 24.5803C20.4828 26.07 22.5517 28.47 26.1931 29.5044C27.3517 29.8355 28.2621 29.6286 29.0069 29.1734C29.5862 28.801 29.9586 28.2217 30.0828 27.601L30.2069 27.0217C30.2483 26.8561 30.1655 26.6492 30 26.5665L27.3931 25.3665C27.2276 25.2837 27.0207 25.3251 26.8965 25.4906L25.8621 26.8148C25.7793 26.8975 25.6551 26.9389 25.531 26.8975C24.8276 26.6492 22.469 25.6561 21.1862 23.1734C21.1448 23.0493 21.1448 22.9251 21.2276 22.8424L22.2207 21.7252C22.3034 21.601 22.3448 21.4355 22.3034 21.3114L21.1034 18.6217C21.062 18.4975 20.9379 18.3734 20.7724 18.3734Z" fill="#FEFEFE"/>
</svg>
