<svg width="20" height="20" viewBox="0 0 20 20" fill="none" xmlns="http://www.w3.org/2000/svg">
<path d="M8.10484 14.2641L8.10483 10.8035C8.10483 10.6219 7.97529 10.4746 7.81549 10.4746H7.15747M11.5435 14.2641L12.8267 10.8054C12.8867 10.6437 12.7591 10.4746 12.5771 10.4746H10.9469" stroke="#AB1216" stroke-linecap="round"/>
<path d="M1 9.75672C1 5.62879 1 3.56479 2.18622 2.2824C3.37244 1 5.28162 1 9.1 1H10.9C14.7184 1 16.6276 1 17.8138 2.2824C19 3.56479 19 5.62879 19 9.75672V10.2433C19 14.3713 19 16.4352 17.8138 17.7176C16.6276 19 14.7184 19 10.9 19H9.1C5.28162 19 3.37244 19 2.18622 17.7176C1 16.4352 1 14.3713 1 10.2433V9.75672Z" stroke="#AB1216" stroke-linecap="round" stroke-linejoin="round"/>
<path d="M4.31531 5.73633H15.6837" stroke="#AB1216" stroke-linecap="round" stroke-linejoin="round"/>
</svg>
